<svg width="55" height="64" viewBox="0 0 55 64" fill="none" xmlns="http://www.w3.org/2000/svg">
<path d="M44.0336 27.1197C44.0353 24.4742 43.3997 21.8673 42.1805 19.5194C40.9614 17.1716 39.1947 15.1519 37.0298 13.6314C34.8649 12.1109 32.3656 11.1342 29.7434 10.7841C27.1212 10.4339 24.4532 10.7206 21.9652 11.6198C19.4772 12.519 17.2424 14.0042 15.45 15.9499C13.6575 17.8956 12.3601 20.2445 11.6675 22.7977C10.975 25.3509 10.9076 28.0334 11.4712 30.6182C12.0348 33.203 13.2127 35.6139 14.9053 37.6471C17.3302 40.5559 18.6579 44.2232 18.6573 48.0102V50.2668H36.464V48.0102C36.4602 44.2269 37.7863 40.5626 40.2105 37.6581C42.6808 34.702 44.034 30.9721 44.0336 27.1197Z" fill="#984AD9" stroke="#263238" stroke-miterlimit="10"/>
<path d="M27 38.5C33.3513 38.5 38.5 33.3513 38.5 27C38.5 20.6487 33.3513 15.5 27 15.5C20.6487 15.5 15.5 20.6487 15.5 27C15.5 33.3513 20.6487 38.5 27 38.5Z" fill="white"/>
<path d="M36.4639 50.2832H18.6572V54.687H36.4639V50.2832Z" fill="#7D7D7D" stroke="#263238" stroke-linecap="round" stroke-linejoin="round"/>
<path d="M18.6572 54.6982H36.4639V56.5167C36.4639 57.2038 36.191 57.8628 35.7051 58.3487C35.2193 58.8345 34.5603 59.1075 33.8732 59.1075H21.248C20.5609 59.1075 19.9019 58.8345 19.416 58.3487C18.9302 57.8628 18.6572 57.2038 18.6572 56.5167V54.6982Z" fill="#7D7D7D" stroke="#263238" stroke-linecap="round" stroke-linejoin="round"/>
<path d="M20.8865 59.0962H34.1963V59.989C34.1963 60.9201 33.8264 61.8132 33.168 62.4716C32.5096 63.13 31.6165 63.4999 30.6854 63.4999H24.4139C23.4827 63.4999 22.5897 63.13 21.9312 62.4716C21.2728 61.8132 20.9029 60.9201 20.9029 59.989V59.0962H20.8865Z" fill="white" stroke="#263238" stroke-linecap="round" stroke-linejoin="round"/>
<path d="M46.3669 27.2075H53.9147" stroke="#263238" stroke-linecap="round" stroke-linejoin="round"/>
<path d="M0.5 27.2075H8.14084" stroke="#263238" stroke-linecap="round" stroke-linejoin="round"/>
<path d="M27.2074 8.06963V0.5" stroke="#263238" stroke-linecap="round" stroke-linejoin="round"/>
<path d="M40.8842 13.5307L46.0931 8.32178" stroke="#263238" stroke-linecap="round" stroke-linejoin="round"/>
<path d="M8.32166 46.0932L13.6073 40.8076" stroke="#263238" stroke-linecap="round" stroke-linejoin="round"/>
<path d="M13.3827 13.3828L8.32166 8.32178" stroke="#263238" stroke-linecap="round" stroke-linejoin="round"/>
<path d="M46.0931 46.0933L41.054 41.0542" stroke="#263238" stroke-linecap="round" stroke-linejoin="round"/>
</svg>
