<svg width="202" height="141" viewBox="0 0 202 141" fill="none" xmlns="http://www.w3.org/2000/svg">
<path d="M193.538 96.3524C194.19 93.1161 195.26 89.9777 196.721 87.0154C200.711 78.8717 203.58 71.7471 201.041 62.6538C194.82 40.4449 169.518 37.8497 157.037 21.0998C137.741 -4.78317 90.3305 -7.03041 67.6826 15.3375C60.7386 22.1936 57.4861 31.8786 50.4673 38.6601C40.1261 48.6583 24.7714 49.946 14.1508 59.9143C-3.16432 76.177 -4.84545 103.735 10.5242 122.022C26.7568 141.332 49.6691 138.165 71.9229 134.058C82.8727 132.04 94.2565 129.852 105.416 131.403C129.216 134.744 157.456 147.775 180.523 134.804C192.81 127.893 193.124 117.114 192.84 104.541C192.77 101.794 193.004 99.0481 193.538 96.3524Z" fill="#EEDBFF"/>
<path opacity="0.6" d="M193.538 96.3524C194.19 93.1161 195.26 89.9777 196.721 87.0154C200.711 78.8717 203.58 71.7471 201.041 62.6538C194.82 40.4449 169.518 37.8497 157.037 21.0998C137.741 -4.78317 90.3305 -7.03041 67.6826 15.3375C60.7386 22.1936 57.4861 31.8786 50.4673 38.6601C40.1261 48.6583 24.7714 49.946 14.1508 59.9143C-3.16432 76.177 -4.84545 103.735 10.5242 122.022C26.7568 141.332 49.6691 138.165 71.9229 134.058C82.8727 132.04 94.2565 129.852 105.416 131.403C129.216 134.744 157.456 147.775 180.523 134.804C192.81 127.893 193.124 117.114 192.84 104.541C192.77 101.794 193.004 99.0481 193.538 96.3524Z" fill="white"/>
</svg>
