<svg width="65" height="66" viewBox="0 0 65 66" fill="none" xmlns="http://www.w3.org/2000/svg">
<path d="M15.3571 9.82344L12.9701 11.6924L15.8669 15.3921L18.2539 13.5232L15.3571 9.82344Z" fill="#263238" stroke="#263238" stroke-linejoin="round"/>
<path d="M15.1661 7.85743L11.1075 11.0352L13.1632 13.6606L17.2217 10.4829L15.1661 7.85743Z" fill="#984AD9" stroke="#263238" stroke-linejoin="round"/>
<path d="M11.9838 10.4736L13.4912 12.3989" stroke="#263238" stroke-linejoin="round"/>
<path d="M13.3579 9.39844L14.8653 11.3223" stroke="#263238" stroke-linejoin="round"/>
<path d="M12.9835 10.4302L14.4909 12.354" stroke="#263238" stroke-linejoin="round"/>
<path d="M46.3249 13.5261L48.7119 15.395L51.6087 11.6953L49.2217 9.82636L46.3249 13.5261Z" fill="#263238" stroke="#263238" stroke-linejoin="round"/>
<path d="M47.3593 10.4824L51.4178 13.6602L53.4735 11.0347L49.415 7.85697L47.3593 10.4824Z" fill="#984AD9" stroke="#263238" stroke-linejoin="round"/>
<path d="M52.5991 10.4736L51.0917 12.3989" stroke="#263238" stroke-linejoin="round"/>
<path d="M51.2249 9.39844L49.7175 11.3223" stroke="#263238" stroke-linejoin="round"/>
<path d="M51.5993 10.4302L50.0919 12.354" stroke="#263238" stroke-linejoin="round"/>
<path d="M34.5665 3.32373H29.6503V8.24694H34.5665V3.32373Z" fill="#263238" stroke="#263238" stroke-linejoin="round"/>
<path d="M35.6659 0.5H28.551V5.42321H35.6659V0.5Z" fill="#984AD9" stroke="#263238" stroke-linejoin="round"/>
<path d="M29.1904 0.48291V4.58582" stroke="#263238" stroke-linejoin="round"/>
<path d="M29.7765 4.76949V2.5708" stroke="#263238" stroke-linejoin="round"/>
<path d="M30.399 0.59375V3.70669" stroke="#263238" stroke-linejoin="round"/>
<path d="M31.0217 2.0957V4.95343" stroke="#263238" stroke-linejoin="round"/>
<path d="M31.9752 0.629883V3.85359" stroke="#263238" stroke-linejoin="round"/>
<path d="M48.1612 49.1563C57.0274 40.29 57.0274 25.915 48.1612 17.0488C39.2949 8.18259 24.9199 8.18259 16.0537 17.0488C7.1875 25.915 7.1875 40.29 16.0537 49.1563C24.92 58.0225 39.2949 58.0225 48.1612 49.1563Z" fill="white" stroke="#263238" stroke-linejoin="round"/>
<path d="M46.9029 47.898C55.0742 39.7267 55.0742 26.4784 46.9029 18.3071C38.7316 10.1357 25.4833 10.1357 17.312 18.3071C9.14064 26.4784 9.14064 39.7267 17.312 47.898C25.4833 56.0693 38.7316 56.0693 46.9029 47.898Z" fill="white" stroke="#263238" stroke-linejoin="round"/>
<path d="M32.1084 12.1787V15.0154" stroke="#263238" stroke-linejoin="round"/>
<path d="M32.1084 51.1689V54.0056" stroke="#263238" stroke-linejoin="round"/>
<path d="M53.0211 33.0933H50.1844" stroke="#263238" stroke-linejoin="round"/>
<path d="M14.0309 33.0933H11.1942" stroke="#263238" stroke-linejoin="round"/>
<path d="M46.8962 18.3052L44.8896 20.3104" stroke="#263238" stroke-linejoin="round"/>
<path d="M19.3257 45.8745L17.3206 47.8811" stroke="#263238" stroke-linejoin="round"/>
<path d="M17.3206 18.3052L19.3257 20.3104" stroke="#263238" stroke-linejoin="round"/>
<path d="M44.8896 45.8745L46.8962 47.8811" stroke="#263238" stroke-linejoin="round"/>
<path d="M37.27 31.1006L37.5967 32.3472L16.2128 37.5045L16.1146 37.1301L37.27 31.1006Z" fill="#263238" stroke="#263238" stroke-linejoin="round"/>
<path d="M32.9287 33.1025C32.9287 32.9403 32.8806 32.7817 32.7904 32.6468C32.7003 32.5119 32.5722 32.4068 32.4223 32.3447C32.2724 32.2826 32.1075 32.2663 31.9484 32.298C31.7892 32.3296 31.6431 32.4078 31.5283 32.5225C31.4136 32.6372 31.3355 32.7834 31.3038 32.9425C31.2722 33.1016 31.2884 33.2666 31.3505 33.4164C31.4126 33.5663 31.5178 33.6944 31.6527 33.7846C31.7876 33.8747 31.9461 33.9228 32.1084 33.9228C32.2161 33.9228 32.3228 33.9016 32.4223 33.8604C32.5218 33.8192 32.6123 33.7587 32.6884 33.6826C32.7646 33.6064 32.825 33.516 32.8662 33.4164C32.9075 33.3169 32.9287 33.2103 32.9287 33.1025Z" fill="white" stroke="#263238" stroke-linejoin="round"/>
</svg>
