<svg width="50" height="50" viewBox="0 0 50 50" fill="none" xmlns="http://www.w3.org/2000/svg">
<rect width="50" height="50" rx="25" fill="#FFF1ED"/>
<path d="M31.2379 18.8293C29.5641 17.607 27.3488 16.934 25 16.934C22.6512 16.934 20.4359 17.607 18.7621 18.8293C17.0289 20.0945 16.0742 21.7957 16.0742 23.6191C16.0742 24.682 16.4129 25.739 17.0531 26.6754C17.6566 27.5578 18.534 28.3422 19.5902 28.9433C19.7797 29.0511 19.8738 29.2719 19.8191 29.4801C19.4188 31 18.9949 31.659 18.7094 31.9441C18.5492 32.1043 18.4883 32.339 18.55 32.557C18.6121 32.775 18.7875 32.9426 19.0082 32.9945C19.0449 33.0031 19.3312 33.0668 19.7836 33.0668C20.8465 33.0668 22.8238 32.7156 24.6234 30.4769C24.7113 30.3676 24.8461 30.3051 24.9941 30.3051C24.9941 30.3051 24.9941 30.3051 24.9945 30.3051H25C27.3488 30.3051 29.5641 29.632 31.2379 28.4097C32.9711 27.1445 33.9258 25.4433 33.9258 23.6195C33.9258 21.7957 32.9711 20.0945 31.2379 18.8293ZM30.5012 27.3996C29.0395 28.4668 27.0859 29.0547 25 29.0547H24.9949C24.9945 29.0547 24.9941 29.0547 24.9941 29.0547C24.466 29.0547 23.9758 29.2875 23.6496 29.6933C22.7848 30.7691 21.7902 31.4465 20.693 31.7058C20.5605 31.7371 20.4344 31.7601 20.3156 31.7769C20.5828 31.2453 20.8211 30.5843 21.0281 29.7984C21.227 29.0433 20.8902 28.2449 20.209 27.857C18.3754 26.8133 17.3242 25.2687 17.3242 23.6191C17.3242 22.2051 18.0965 20.8625 19.4988 19.8386C20.9605 18.7719 22.9141 18.184 25 18.184C27.0859 18.184 29.0395 18.7715 30.5012 19.8386C31.9035 20.8625 32.6758 22.2051 32.6758 23.6191C32.6758 25.0332 31.9035 26.3758 30.5012 27.3996Z" fill="#FD5424"/>
<path d="M20.539 21.7277C19.496 21.7277 18.6472 22.5761 18.6472 23.6195C18.6472 24.6624 19.4957 25.5113 20.539 25.5113C21.582 25.5113 22.4308 24.6628 22.4308 23.6195C22.4304 22.5761 21.582 21.7277 20.539 21.7277ZM20.539 24.2609C20.1851 24.2609 19.8972 23.973 19.8972 23.6191C19.8972 23.2652 20.1851 22.9773 20.539 22.9773C20.8929 22.9773 21.1808 23.2652 21.1808 23.6191C21.1808 23.973 20.8925 24.2609 20.539 24.2609Z" fill="#FD5424"/>
<path d="M25 21.7277C23.957 21.7277 23.1082 22.5761 23.1082 23.6195C23.1082 24.6624 23.9566 25.5113 25 25.5113C26.0433 25.5113 26.8917 24.6628 26.8917 23.6195C26.8917 22.5761 26.0429 21.7277 25 21.7277ZM25 24.2609C24.646 24.2609 24.3582 23.973 24.3582 23.6191C24.3582 23.2652 24.646 22.9773 25 22.9773C25.3539 22.9773 25.6417 23.2652 25.6417 23.6191C25.6417 23.973 25.3539 24.2609 25 24.2609Z" fill="#FD5424"/>
<path d="M29.4609 21.7277C28.4179 21.7277 27.5691 22.5761 27.5691 23.6195C27.5691 24.6624 28.4175 25.5113 29.4609 25.5113C30.5039 25.5113 31.3527 24.6628 31.3527 23.6195C31.3527 22.5761 30.5039 21.7277 29.4609 21.7277ZM29.4609 24.2609C29.107 24.2609 28.8191 23.973 28.8191 23.6191C28.8191 23.2652 29.107 22.9773 29.4609 22.9773C29.8148 22.9773 30.1027 23.2652 30.1027 23.6191C30.1027 23.973 29.8148 24.2609 29.4609 24.2609Z" fill="#FD5424"/>
</svg>
