<svg width="50" height="50" viewBox="0 0 50 50" fill="none" xmlns="http://www.w3.org/2000/svg">
<rect width="50" height="50" rx="25" fill="#FFFDED"/>
<g clip-path="url(#clip0_26_52)">
<path d="M20 31.755C20 28.6025 23.75 29.2334 23.75 27.9725C23.7919 27.5248 23.6706 27.077 23.4083 26.7117C23.1093 26.4281 22.8737 26.0844 22.7171 25.7032C22.5606 25.322 22.4866 24.9119 22.5 24.5C22.4593 23.7936 22.6991 23.0997 23.1672 22.5692C23.6354 22.0386 24.294 21.7143 25 21.6667C25.706 21.7143 26.3646 22.0386 26.8328 22.5692C27.3009 23.0997 27.5407 23.7936 27.5 24.5C27.515 24.9131 27.4405 25.3246 27.2815 25.7062C27.1226 26.0878 26.883 26.4305 26.5792 26.7109C26.3275 27.081 26.2112 27.5266 26.25 27.9725C26.25 29.2334 30 28.6034 30 31.7559C30 31.7559 29.0042 32.5009 25 32.5009C20.9958 32.5009 20 31.755 20 31.755Z" stroke="#FADD00" stroke-miterlimit="10"/>
<path d="M19.5717 28.3058C19.0975 28.2842 18.6792 28.2517 18.3117 28.2108C17.4491 28.1937 16.6017 27.9809 15.8334 27.5883C15.8334 24.4358 19.5834 25.0667 19.5834 23.8058C19.6253 23.3581 19.5039 22.9103 19.2417 22.545C18.9426 22.2614 18.7071 21.9177 18.5505 21.5365C18.3939 21.1553 18.3199 20.7452 18.3334 20.3333C18.2927 19.6269 18.5325 18.933 19.0006 18.4025C19.4688 17.8719 20.1274 17.5476 20.8334 17.5C21.5393 17.5476 22.198 17.8719 22.6661 18.4025C23.1343 18.933 23.3741 19.6269 23.3334 20.3333" stroke="#FADD00" stroke-miterlimit="10"/>
<path d="M30.4283 28.3058C30.9025 28.2842 31.3208 28.2517 31.6883 28.2108C32.5509 28.1937 33.3984 27.9809 34.1667 27.5883C34.1667 24.4358 30.4167 25.0667 30.4167 23.8058C30.3748 23.3581 30.4961 22.9103 30.7583 22.545C31.0574 22.2614 31.293 21.9177 31.4496 21.5365C31.6061 21.1553 31.6801 20.7452 31.6667 20.3333C31.7074 19.6269 31.4676 18.933 30.9994 18.4025C30.5313 17.8719 29.8726 17.5476 29.1667 17.5C28.4607 17.5476 27.8021 17.8719 27.3339 18.4025C26.8658 18.933 26.626 19.6269 26.6667 20.3333" stroke="#FADD00" stroke-miterlimit="10"/>
</g>
<defs>
<clipPath id="clip0_26_52">
<rect width="20" height="20" fill="white" transform="translate(15 15)"/>
</clipPath>
</defs>
</svg>
