<svg width="105" height="105" viewBox="0 0 105 105" fill="none" xmlns="http://www.w3.org/2000/svg">
<path d="M78.75 78.75C93.2475 64.2525 93.2475 40.7475 78.75 26.25C64.2525 11.7525 40.7475 11.7525 26.25 26.25C11.7525 40.7475 11.7525 64.2525 26.25 78.75C40.7475 93.2475 64.2525 93.2475 78.75 78.75Z" fill="#EEDBFF"/>
<mask id="mask0_50_3447" style="mask-type:luminance" maskUnits="userSpaceOnUse" x="15" y="15" width="75" height="75">
<path d="M78.75 78.75C93.2475 64.2525 93.2475 40.7475 78.75 26.25C64.2525 11.7525 40.7475 11.7525 26.25 26.25C11.7525 40.7475 11.7525 64.2525 26.25 78.75C40.7475 93.2475 64.2525 93.2475 78.75 78.75Z" fill="white"/>
</mask>
<g mask="url(#mask0_50_3447)">
<path d="M45.4428 63.9014C45.4428 63.9014 47.1784 68.318 46.7033 71.4741C46.2281 74.6302 44.4925 76.3709 40.7011 78.2615C36.9097 80.1522 30.9176 82.8382 30.2823 84.7339C29.6471 86.6296 30.2823 95.4928 30.2823 95.4928H76.6841C76.6841 95.4928 75.5787 86.3145 73.2128 83.1533C70.847 79.9922 61.3786 77.4763 58.7076 75.7356C56.0366 73.995 57.132 64.0564 57.132 64.0564C57.132 64.0564 50.0195 66.2622 45.4428 63.9014Z" fill="white" stroke="#263238" stroke-linecap="round" stroke-linejoin="round"/>
<path d="M39.9909 78.6317C39.1306 79.0518 38.1853 79.512 37.2399 79.9821C38.8855 84.9839 37.365 91.3412 35.9595 95.4877H68.8214C68.3029 94.3888 67.9506 93.2189 67.776 92.0165C67.2408 88.2601 67.5959 82.5881 67.846 79.662C66.7356 79.1618 65.5702 78.6867 64.4398 78.2365C62.7942 82.1329 58.6777 89.7006 51.7702 88.7653C44.9227 87.85 41.3664 81.7678 39.9909 78.6317Z" fill="#263238" stroke="#263238" stroke-linecap="round" stroke-linejoin="round"/>
<path d="M37.5498 66.4272C37.5498 66.4272 38.4902 68.7931 41.9914 69.2633C45.4927 69.7334 43.7621 64.6516 54.1058 64.2965C61.3884 64.0464 54.1458 70.0486 55.7264 70.3687C57.3069 70.6888 61.2284 70.2086 63.4592 65.0017C65.69 59.7948 66.1401 46.5351 61.5635 42.2735C56.9868 38.012 43.557 38.167 41.5212 41.9584C39.4855 45.7498 40.886 52.3722 39.0203 56.0035C37.1547 59.6348 36.2844 64.5316 37.5498 66.4272Z" fill="#263238" stroke="#263238" stroke-linecap="round" stroke-linejoin="round"/>
<path d="M41.9914 54.2579C41.9914 54.2579 40.731 50.9417 40.2558 53.3125C39.7806 55.6834 40.2558 58.0442 41.3612 58.9946C42.4666 59.9449 43.0968 59.7799 43.0968 59.7799L41.9914 54.2579Z" fill="white" stroke="#263238" stroke-linecap="round" stroke-linejoin="round"/>
<path d="M46.9584 37.3668C46.9584 37.3668 44.2924 38.032 42.5118 42.9238C40.7311 47.8156 42.1216 60.6702 43.232 62.0057C44.3424 63.3412 48.0388 68.8882 51.5951 69.1083C53.8609 69.2483 59.5429 64.0414 60.4333 61.3755C61.3236 58.7095 61.6337 46.7052 60.9634 43.8141C60.2932 40.9231 54.7412 34.2507 46.9584 37.3668Z" fill="white" stroke="#263238" stroke-linecap="round" stroke-linejoin="round"/>
<path d="M48.5838 53.1675C48.5838 53.3121 48.5409 53.4535 48.4604 53.5737C48.3799 53.6939 48.2656 53.7875 48.1318 53.8426C47.9981 53.8977 47.851 53.9119 47.7092 53.8833C47.5674 53.8547 47.4373 53.7847 47.3354 53.6821C47.2335 53.5794 47.1643 53.4488 47.1367 53.3068C47.1091 53.1649 47.1243 53.0179 47.1803 52.8845C47.2364 52.7512 47.3307 52.6375 47.4515 52.5578C47.5722 52.4782 47.7139 52.4362 47.8586 52.4372C47.9542 52.4372 48.0489 52.4561 48.1373 52.4929C48.2256 52.5297 48.3058 52.5835 48.3732 52.6514C48.4406 52.7193 48.4939 52.7998 48.5301 52.8884C48.5662 52.977 48.5845 53.0718 48.5838 53.1675Z" fill="#263238"/>
<path d="M55.8414 53.1675C55.8414 53.3119 55.7986 53.4531 55.7183 53.5732C55.6381 53.6933 55.524 53.7869 55.3906 53.8422C55.2571 53.8974 55.1103 53.9119 54.9686 53.8837C54.827 53.8555 54.6969 53.786 54.5947 53.6838C54.4926 53.5817 54.4231 53.4516 54.3949 53.3099C54.3667 53.1683 54.3812 53.0215 54.4364 52.888C54.4917 52.7546 54.5853 52.6405 54.7054 52.5603C54.8255 52.48 54.9667 52.4372 55.1111 52.4372C55.2072 52.4365 55.3025 52.455 55.3914 52.4914C55.4803 52.5279 55.561 52.5817 55.629 52.6496C55.6969 52.7176 55.7507 52.7983 55.7872 52.8872C55.8236 52.9761 55.842 53.0714 55.8414 53.1675Z" fill="#263238"/>
<path d="M48.7639 60.6652C48.7639 60.6652 51.1298 61.9957 54.521 60.6652" stroke="#263238" stroke-linecap="round" stroke-linejoin="round"/>
<path d="M53.0456 55.7984C53.0456 55.7984 54.0809 57.1239 53.0456 57.8642C52.593 58.1736 52.0632 58.351 51.5156 58.3766C50.9679 58.4022 50.424 58.275 49.9444 58.0092C49.0591 57.5691 50.0945 55.6484 50.0945 55.6484" stroke="#263238" stroke-linecap="round" stroke-linejoin="round"/>
<path d="M49.1292 49.8213C48.6823 49.3378 48.1027 48.9968 47.463 48.8411C46.8233 48.6854 46.1519 48.7219 45.5329 48.946C43.287 49.6962 43.177 51.5619 43.177 51.5619C43.177 51.5619 44.5425 49.8213 45.7629 49.8013C46.9834 49.7813 48.719 51.1518 49.1292 49.8213Z" fill="#263238"/>
<path d="M53.1956 49.9863C53.6142 49.4797 54.1733 49.1082 54.8025 48.9186C55.4318 48.7291 56.103 48.7299 56.7318 48.9209C59.0177 49.5461 59.2327 51.4218 59.2327 51.4218C59.2327 51.4218 57.7672 49.7612 56.5518 49.8062C55.3363 49.8512 53.6757 51.2968 53.1956 49.9863Z" fill="#263238"/>
<path d="M49.229 41.3332C49.229 41.3332 45.2826 40.2528 43.702 42.7537C42.1215 45.2546 42.9167 50.1714 40.5459 54.588C38.175 59.0046 39.6006 65.792 39.9157 66.7424C40.2308 67.6927 37.8649 68.9532 36.6045 64.2164C35.344 59.4797 38.9703 54.9031 39.2854 50.0113C39.6005 45.1195 38.4901 39.7526 43.3869 36.9116C48.2837 34.0706 49.229 35.8062 49.229 35.8062V41.3332Z" fill="#263238" stroke="#263238" stroke-linecap="round" stroke-linejoin="round"/>
<path d="M68.641 48.7559C67.6956 45.9148 67.8507 40.703 64.0643 36.4414C61.6885 33.7705 57.1468 32.2199 53.4205 32.1299C52.8203 32.0057 52.2052 31.9703 51.5948 32.0248C45.5926 32.525 41.8113 35.6561 42.9167 38.027C44.0221 40.3978 49.229 41.3432 49.229 41.3432L50.0192 41.6583C49.9925 41.3908 49.9825 41.1218 49.9892 40.853C50.8395 40.4579 52.2901 40.1978 53.8056 41.8134C56.444 44.7666 57.9039 48.5871 57.9071 52.5472C57.752 58.5494 60.7481 60.7552 60.7481 63.2811C60.7481 65.807 56.3315 68.9632 55.3812 69.7534C54.3308 70.6288 59.3826 71.0589 59.6977 71.0389C64.7846 70.7238 68.1658 67.4026 70.2866 62.971C72.7825 57.7591 70.2716 53.6426 68.641 48.7559Z" fill="#263238" stroke="#263238" stroke-linecap="round" stroke-linejoin="round"/>
<path d="M62.909 67.6227C62.674 68.008 62.3706 68.347 62.0137 68.6231" stroke="white" stroke-linecap="round" stroke-linejoin="round"/>
<path d="M49.2291 40.698C49.2291 40.698 45.4427 38.6473 48.5989 37.0717C51.755 35.4961 57.6021 40.3829 59.0126 44.9595C60.4232 49.5362 59.3278 54.7481 61.3835 58.3744C62.3538 60.1 63.6143 62.961 63.5193 65.3769" stroke="white" stroke-linecap="round" stroke-linejoin="round"/>
<path d="M46.413 37.892C46.2929 37.4568 46.533 36.8316 47.6484 35.9663C50.4895 33.7555 55.7013 34.8609 58.3823 37.7019C61.0633 40.5429 62.0136 44.0142 62.3287 48.1157C62.6438 52.2172 63.2741 54.7581 65.4999 57.259C67.7257 59.7599 68.9711 62.4659 66.7603 65.622" stroke="white" stroke-linecap="round" stroke-linejoin="round"/>
<path d="M46.2281 40.698C46.2281 40.698 41.8115 38.8073 44.3374 36.4365" stroke="white" stroke-linecap="round" stroke-linejoin="round"/>
<path d="M40.696 66.0872C41.038 66.5892 41.4685 67.0248 41.9665 67.3726" stroke="white" stroke-linecap="round" stroke-linejoin="round"/>
<path d="M39.7607 56.4837C39.7607 56.4837 38.6503 61.2004 39.9707 64.6867" stroke="white" stroke-linecap="round" stroke-linejoin="round"/>
<path d="M62.679 39.2524C63.9224 41.3351 64.7131 43.6563 64.9998 46.0649C65.63 51.747 63.8944 53.6426 66.5804 56.6387C67.7529 57.8813 68.426 59.5125 68.4711 61.2204" stroke="white" stroke-linecap="round" stroke-linejoin="round"/>
<path d="M60.7485 36.5965C60.7485 36.5965 60.9786 36.8316 61.3287 37.2767" stroke="white" stroke-linecap="round" stroke-linejoin="round"/>
</g>
</svg>
