<svg width="50" height="50" viewBox="0 0 50 50" fill="none" xmlns="http://www.w3.org/2000/svg">
<rect width="50" height="50" rx="25" fill="#F7EDFF"/>
<path d="M25 17.5H22.5C21.1193 17.5 20 18.6193 20 20C20 21.3807 21.1193 22.5 22.5 22.5M25 17.5V22.5M25 17.5H27.5C28.8807 17.5 30 18.6193 30 20C30 21.3807 28.8807 22.5 27.5 22.5M22.5 22.5H25M22.5 22.5C21.1193 22.5 20 23.6192 20 25C20 26.3807 21.1193 27.5 22.5 27.5M25 22.5H27.5M25 22.5V27.5M27.5 22.5C28.8807 22.5 30 23.6192 30 25C30 26.3807 28.8807 27.5 27.5 27.5C26.1192 27.5 25 26.3807 25 25C25 23.6192 26.1192 22.5 27.5 22.5ZM25 27.5H22.5M25 27.5V30C25 31.3807 23.8807 32.5 22.5 32.5C21.1193 32.5 20 31.3807 20 30C20 28.6192 21.1193 27.5 22.5 27.5" stroke="#984AD9" stroke-linecap="round" stroke-linejoin="round"/>
</svg>
