<svg width="348" height="348" viewBox="0 0 348 348" fill="none" xmlns="http://www.w3.org/2000/svg">
<g clip-path="url(#clip0_68_6211)">
<path d="M328.192 193.217C328.192 193.217 330.356 109.063 280.773 69.6C237.002 34.7443 175.677 28.3968 133.221 70.0037C118.111 84.8215 109.495 110.239 90.7654 120.707C69.7253 132.449 41.4468 140.021 26.3367 178.141C11.2265 216.261 25.8982 259.608 57.4409 278.845C88.9836 298.083 133.632 267.048 177.028 258.216C220.423 249.384 321.684 297.7 328.192 193.217Z" fill="#EEDBFF"/>
<path opacity="0.7" d="M328.192 193.217C328.192 193.217 330.356 109.063 280.773 69.6C237.002 34.7443 175.677 28.3968 133.221 70.0037C118.111 84.8215 109.495 110.239 90.7654 120.707C69.7253 132.449 41.4468 140.021 26.3367 178.141C11.2265 216.261 25.8982 259.608 57.4409 278.845C88.9836 298.083 133.632 267.048 177.028 258.216C220.423 249.384 321.684 297.7 328.192 193.217Z" fill="white" fill-opacity="0.7"/>
<path opacity="0.3" d="M267.563 47.9683C267.563 47.9683 267.563 29.6009 246.398 29.1763C228.385 28.8423 227.606 43.159 225.636 49.945C223.667 56.731 220.444 49.945 212.858 51.5388C205.271 53.1327 205.271 60.726 204.067 65.5215C202.863 70.3169 197.664 64.728 192.096 66.3358C186.528 67.9435 183.709 73.9222 182.512 76.3234C181.315 78.7246 173.074 75.0915 168.223 76.8593C163.372 78.6271 158.145 86.304 158.145 86.304H299.906C299.906 86.304 305.474 73.1287 295.918 64.3383C286.362 55.5478 279.945 61.1436 273.953 58.3527C267.96 55.5617 267.563 47.9683 267.563 47.9683Z" stroke="black" stroke-miterlimit="10"/>
<path opacity="0.3" d="M75.3072 117.847C75.3072 117.847 75.3072 106.627 62.3894 106.384C51.3926 106.182 50.9333 114.917 49.7083 119.065C48.4834 123.213 46.5415 119.065 41.9062 120.039C37.2708 121.014 37.2778 125.649 36.547 128.572C35.8162 131.495 32.6424 128.085 29.232 129.059C25.8216 130.034 24.1094 133.695 23.3786 135.156C22.6478 136.618 17.6158 134.405 14.6578 135.483C11.6998 136.562 8.50513 141.288 8.50513 141.288H95.0597C95.0597 141.288 98.4701 133.242 92.6237 127.876C86.7773 122.51 82.8797 125.927 79.2118 124.222C75.5438 122.517 75.3072 117.847 75.3072 117.847Z" stroke="black" stroke-miterlimit="10"/>
<g opacity="0.3">
<path d="M65.6746 207.471H58.7146V213.616H65.6746V207.471Z" stroke="black" stroke-miterlimit="10"/>
<path d="M54.0096 211.194H51.1838V213.616H54.0096V211.194Z" stroke="black" stroke-miterlimit="10"/>
<path d="M337.219 246.273H310.834V197.511H312.595V192.465H250.762V197.511H252.906V270.027H236.689V114.45H181.078V232.109H160.741V219.08H166.066V213.575H121.605V134.648H124.48V130.514H70.5118V134.648H74.3815V213.707H31.7237V270.257H9.32642" stroke="black" stroke-miterlimit="10"/>
<path d="M238.902 112.752H178.601V114.443H238.902V112.752Z" stroke="black" stroke-miterlimit="10"/>
<path d="M86.0048 139.235H79.2118V145.603H86.0048V139.235Z" stroke="black" stroke-miterlimit="10"/>
<path d="M95.9645 139.235H89.1715V145.603H95.9645V139.235Z" stroke="black" stroke-miterlimit="10"/>
<path d="M105.924 139.235H99.1313V145.603H105.924V139.235Z" stroke="black" stroke-miterlimit="10"/>
<path d="M115.891 139.235H109.098V145.603H115.891V139.235Z" stroke="black" stroke-miterlimit="10"/>
<path d="M86.0048 149.327H79.2118V155.695H86.0048V149.327Z" stroke="black" stroke-miterlimit="10"/>
<path d="M95.9645 149.327H89.1715V155.695H95.9645V149.327Z" stroke="black" stroke-miterlimit="10"/>
<path d="M105.924 149.327H99.1313V155.695H105.924V149.327Z" stroke="black" stroke-miterlimit="10"/>
<path d="M115.891 149.327H109.098V155.695H115.891V149.327Z" stroke="black" stroke-miterlimit="10"/>
<path d="M86.0048 159.426H79.2118V165.794H86.0048V159.426Z" stroke="black" stroke-miterlimit="10"/>
<path d="M95.9645 159.426H89.1715V165.794H95.9645V159.426Z" stroke="black" stroke-miterlimit="10"/>
<path d="M105.924 159.426H99.1313V165.794H105.924V159.426Z" stroke="black" stroke-miterlimit="10"/>
<path d="M115.891 159.426H109.098V165.794H115.891V159.426Z" stroke="black" stroke-miterlimit="10"/>
<path d="M86.0048 169.518H79.2118V175.886H86.0048V169.518Z" stroke="black" stroke-miterlimit="10"/>
<path d="M95.9645 169.518H89.1715V175.886H95.9645V169.518Z" stroke="black" stroke-miterlimit="10"/>
<path d="M105.924 169.518H99.1313V175.886H105.924V169.518Z" stroke="black" stroke-miterlimit="10"/>
<path d="M115.891 169.518H109.098V175.886H115.891V169.518Z" stroke="black" stroke-miterlimit="10"/>
<path d="M86.0048 179.617H79.2118V185.985H86.0048V179.617Z" stroke="black" stroke-miterlimit="10"/>
<path d="M95.9645 179.617H89.1715V185.985H95.9645V179.617Z" stroke="black" stroke-miterlimit="10"/>
<path d="M105.924 179.617H99.1313V185.985H105.924V179.617Z" stroke="black" stroke-miterlimit="10"/>
<path d="M115.891 179.617H109.098V185.985H115.891V179.617Z" stroke="black" stroke-miterlimit="10"/>
<path d="M86.0048 189.716H79.2118V196.084H86.0048V189.716Z" stroke="black" stroke-miterlimit="10"/>
<path d="M95.9645 189.716H89.1715V196.084H95.9645V189.716Z" stroke="black" stroke-miterlimit="10"/>
<path d="M105.924 189.716H99.1313V196.084H105.924V189.716Z" stroke="black" stroke-miterlimit="10"/>
<path d="M115.891 189.716H109.098V196.084H115.891V189.716Z" stroke="black" stroke-miterlimit="10"/>
<path d="M86.0048 199.808H79.2118V206.176H86.0048V199.808Z" stroke="black" stroke-miterlimit="10"/>
<path d="M95.9645 199.808H89.1715V206.176H95.9645V199.808Z" stroke="black" stroke-miterlimit="10"/>
<path d="M105.924 199.808H99.1313V206.176H105.924V199.808Z" stroke="black" stroke-miterlimit="10"/>
<path d="M115.891 199.808H109.098V206.176H115.891V199.808Z" stroke="black" stroke-miterlimit="10"/>
<path d="M86.0048 209.907H79.2118V216.275H86.0048V209.907Z" stroke="black" stroke-miterlimit="10"/>
<path d="M95.9645 209.907H89.1715V216.275H95.9645V209.907Z" stroke="black" stroke-miterlimit="10"/>
<path d="M105.924 209.907H99.1313V216.275H105.924V209.907Z" stroke="black" stroke-miterlimit="10"/>
<path d="M115.891 209.907H109.098V216.275H115.891V209.907Z" stroke="black" stroke-miterlimit="10"/>
<path d="M86.0048 219.136H79.2118V225.504H86.0048V219.136Z" stroke="black" stroke-miterlimit="10"/>
<path d="M95.9645 219.136H89.1715V225.504H95.9645V219.136Z" stroke="black" stroke-miterlimit="10"/>
<path d="M105.924 219.136H99.1313V225.504H105.924V219.136Z" stroke="black" stroke-miterlimit="10"/>
<path d="M115.891 219.136H109.098V225.504H115.891V219.136Z" stroke="black" stroke-miterlimit="10"/>
<path d="M86.0048 229.235H79.2118V235.603H86.0048V229.235Z" stroke="black" stroke-miterlimit="10"/>
<path d="M95.9645 229.235H89.1715V235.603H95.9645V229.235Z" stroke="black" stroke-miterlimit="10"/>
<path d="M105.924 229.235H99.1313V235.603H105.924V229.235Z" stroke="black" stroke-miterlimit="10"/>
<path d="M115.891 229.235H109.098V235.603H115.891V229.235Z" stroke="black" stroke-miterlimit="10"/>
<path d="M86.0048 239.327H79.2118V245.695H86.0048V239.327Z" stroke="black" stroke-miterlimit="10"/>
<path d="M95.9645 239.327H89.1715V245.695H95.9645V239.327Z" stroke="black" stroke-miterlimit="10"/>
<path d="M105.924 239.327H99.1313V245.695H105.924V239.327Z" stroke="black" stroke-miterlimit="10"/>
<path d="M115.891 239.327H109.098V245.695H115.891V239.327Z" stroke="black" stroke-miterlimit="10"/>
<path d="M86.0048 249.426H79.2118V255.794H86.0048V249.426Z" stroke="black" stroke-miterlimit="10"/>
<path d="M95.9645 249.426H89.1715V255.794H95.9645V249.426Z" stroke="black" stroke-miterlimit="10"/>
<path d="M105.924 249.426H99.1313V255.794H105.924V249.426Z" stroke="black" stroke-miterlimit="10"/>
<path d="M115.891 249.426H109.098V255.794H115.891V249.426Z" stroke="black" stroke-miterlimit="10"/>
<path d="M86.0048 259.525H79.2118V265.893H86.0048V259.525Z" stroke="black" stroke-miterlimit="10"/>
<path d="M95.9645 259.525H89.1715V265.893H95.9645V259.525Z" stroke="black" stroke-miterlimit="10"/>
<path d="M105.924 259.525H99.1313V265.893H105.924V259.525Z" stroke="black" stroke-miterlimit="10"/>
<path d="M115.891 259.525H109.098V265.893H115.891V259.525Z" stroke="black" stroke-miterlimit="10"/>
<path d="M86.0048 269.617H79.2118V275.985H86.0048V269.617Z" stroke="black" stroke-miterlimit="10"/>
<path d="M95.9645 269.617H89.1715V275.985H95.9645V269.617Z" stroke="black" stroke-miterlimit="10"/>
<path d="M105.924 269.617H99.1313V275.985H105.924V269.617Z" stroke="black" stroke-miterlimit="10"/>
<path d="M115.891 269.617H109.098V275.985H115.891V269.617Z" stroke="black" stroke-miterlimit="10"/>
<path d="M86.0048 279.715H79.2118V286.084H86.0048V279.715Z" stroke="black" stroke-miterlimit="10"/>
<path d="M95.9645 279.715H89.1715V286.084H95.9645V279.715Z" stroke="black" stroke-miterlimit="10"/>
<path d="M105.924 279.715H99.1313V286.084H105.924V279.715Z" stroke="black" stroke-miterlimit="10"/>
<path d="M115.891 279.715H109.098V286.084H115.891V279.715Z" stroke="black" stroke-miterlimit="10"/>
<path d="M86.0048 289.807H79.2118V296.176H86.0048V289.807Z" stroke="black" stroke-miterlimit="10"/>
<path d="M95.9645 289.807H89.1715V296.176H95.9645V289.807Z" stroke="black" stroke-miterlimit="10"/>
<path d="M105.924 289.807H99.1313V296.176H105.924V289.807Z" stroke="black" stroke-miterlimit="10"/>
<path d="M115.891 289.807H109.098V296.176H115.891V289.807Z" stroke="black" stroke-miterlimit="10"/>
<path d="M124.911 219.136H118.118V225.504H124.911V219.136Z" stroke="black" stroke-miterlimit="10"/>
<path d="M134.878 219.136H128.085V225.504H134.878V219.136Z" stroke="black" stroke-miterlimit="10"/>
<path d="M144.838 219.136H138.045V225.504H144.838V219.136Z" stroke="black" stroke-miterlimit="10"/>
<path d="M154.797 219.136H148.004V225.504H154.797V219.136Z" stroke="black" stroke-miterlimit="10"/>
<path d="M124.911 229.235H118.118V235.603H124.911V229.235Z" stroke="black" stroke-miterlimit="10"/>
<path d="M134.878 229.235H128.085V235.603H134.878V229.235Z" stroke="black" stroke-miterlimit="10"/>
<path d="M144.838 229.235H138.045V235.603H144.838V229.235Z" stroke="black" stroke-miterlimit="10"/>
<path d="M154.797 229.235H148.004V235.603H154.797V229.235Z" stroke="black" stroke-miterlimit="10"/>
<path d="M124.911 239.327H118.118V245.695H124.911V239.327Z" stroke="black" stroke-miterlimit="10"/>
<path d="M134.878 239.327H128.085V245.695H134.878V239.327Z" stroke="black" stroke-miterlimit="10"/>
<path d="M144.838 239.327H138.045V245.695H144.838V239.327Z" stroke="black" stroke-miterlimit="10"/>
<path d="M154.797 239.327H148.004V245.695H154.797V239.327Z" stroke="black" stroke-miterlimit="10"/>
<path d="M124.911 249.426H118.118V255.794H124.911V249.426Z" stroke="black" stroke-miterlimit="10"/>
<path d="M134.878 249.426H128.085V255.794H134.878V249.426Z" stroke="black" stroke-miterlimit="10"/>
<path d="M144.838 249.426H138.045V255.794H144.838V249.426Z" stroke="black" stroke-miterlimit="10"/>
<path d="M154.797 249.426H148.004V255.794H154.797V249.426Z" stroke="black" stroke-miterlimit="10"/>
<path d="M124.911 259.525H118.118V265.893H124.911V259.525Z" stroke="black" stroke-miterlimit="10"/>
<path d="M134.878 259.525H128.085V265.893H134.878V259.525Z" stroke="black" stroke-miterlimit="10"/>
<path d="M144.838 259.525H138.045V265.893H144.838V259.525Z" stroke="black" stroke-miterlimit="10"/>
<path d="M154.797 259.525H148.004V265.893H154.797V259.525Z" stroke="black" stroke-miterlimit="10"/>
<path d="M124.911 269.617H118.118V275.985H124.911V269.617Z" stroke="black" stroke-miterlimit="10"/>
<path d="M134.878 269.617H128.085V275.985H134.878V269.617Z" stroke="black" stroke-miterlimit="10"/>
<path d="M144.838 269.617H138.045V275.985H144.838V269.617Z" stroke="black" stroke-miterlimit="10"/>
<path d="M154.797 269.617H148.004V275.985H154.797V269.617Z" stroke="black" stroke-miterlimit="10"/>
<path d="M124.911 279.715H118.118V286.084H124.911V279.715Z" stroke="black" stroke-miterlimit="10"/>
<path d="M134.878 279.715H128.085V286.084H134.878V279.715Z" stroke="black" stroke-miterlimit="10"/>
<path d="M144.838 279.715H138.045V286.084H144.838V279.715Z" stroke="black" stroke-miterlimit="10"/>
<path d="M154.797 279.715H148.004V286.084H154.797V279.715Z" stroke="black" stroke-miterlimit="10"/>
<path d="M124.911 289.807H118.118V296.176H124.911V289.807Z" stroke="black" stroke-miterlimit="10"/>
<path d="M134.878 289.807H128.085V296.176H134.878V289.807Z" stroke="black" stroke-miterlimit="10"/>
<path d="M144.838 289.807H138.045V296.176H144.838V289.807Z" stroke="black" stroke-miterlimit="10"/>
<path d="M154.797 289.807H148.004V296.176H154.797V289.807Z" stroke="black" stroke-miterlimit="10"/>
<path d="M46.5416 219.136H39.7486V225.504H46.5416V219.136Z" stroke="black" stroke-miterlimit="10"/>
<path d="M56.5082 219.136H49.7153V225.504H56.5082V219.136Z" stroke="black" stroke-miterlimit="10"/>
<path d="M66.468 219.136H59.675V225.504H66.468V219.136Z" stroke="black" stroke-miterlimit="10"/>
<path d="M76.4278 219.136H69.6348V225.504H76.4278V219.136Z" stroke="black" stroke-miterlimit="10"/>
<path d="M46.5416 229.235H39.7486V235.603H46.5416V229.235Z" stroke="black" stroke-miterlimit="10"/>
<path d="M56.5082 229.235H49.7153V235.603H56.5082V229.235Z" stroke="black" stroke-miterlimit="10"/>
<path d="M66.468 229.235H59.675V235.603H66.468V229.235Z" stroke="black" stroke-miterlimit="10"/>
<path d="M76.4278 229.235H69.6348V235.603H76.4278V229.235Z" stroke="black" stroke-miterlimit="10"/>
<path d="M46.5416 239.327H39.7486V245.695H46.5416V239.327Z" stroke="black" stroke-miterlimit="10"/>
<path d="M56.5082 239.327H49.7153V245.695H56.5082V239.327Z" stroke="black" stroke-miterlimit="10"/>
<path d="M66.468 239.327H59.675V245.695H66.468V239.327Z" stroke="black" stroke-miterlimit="10"/>
<path d="M76.4278 239.327H69.6348V245.695H76.4278V239.327Z" stroke="black" stroke-miterlimit="10"/>
<path d="M46.5416 249.426H39.7486V255.794H46.5416V249.426Z" stroke="black" stroke-miterlimit="10"/>
<path d="M56.5082 249.426H49.7153V255.794H56.5082V249.426Z" stroke="black" stroke-miterlimit="10"/>
<path d="M66.468 249.426H59.675V255.794H66.468V249.426Z" stroke="black" stroke-miterlimit="10"/>
<path d="M76.4278 249.426H69.6348V255.794H76.4278V249.426Z" stroke="black" stroke-miterlimit="10"/>
<path d="M46.5416 259.525H39.7486V265.893H46.5416V259.525Z" stroke="black" stroke-miterlimit="10"/>
<path d="M56.5082 259.525H49.7153V265.893H56.5082V259.525Z" stroke="black" stroke-miterlimit="10"/>
<path d="M66.468 259.525H59.675V265.893H66.468V259.525Z" stroke="black" stroke-miterlimit="10"/>
<path d="M76.4278 259.525H69.6348V265.893H76.4278V259.525Z" stroke="black" stroke-miterlimit="10"/>
<path d="M46.5416 269.617H39.7486V275.985H46.5416V269.617Z" stroke="black" stroke-miterlimit="10"/>
<path d="M56.5082 269.617H49.7153V275.985H56.5082V269.617Z" stroke="black" stroke-miterlimit="10"/>
<path d="M66.468 269.617H59.675V275.985H66.468V269.617Z" stroke="black" stroke-miterlimit="10"/>
<path d="M76.4278 269.617H69.6348V275.985H76.4278V269.617Z" stroke="black" stroke-miterlimit="10"/>
<path d="M46.5416 279.715H39.7486V286.084H46.5416V279.715Z" stroke="black" stroke-miterlimit="10"/>
<path d="M56.5082 279.715H49.7153V286.084H56.5082V279.715Z" stroke="black" stroke-miterlimit="10"/>
<path d="M66.468 279.715H59.675V286.084H66.468V279.715Z" stroke="black" stroke-miterlimit="10"/>
<path d="M76.4278 279.715H69.6348V286.084H76.4278V279.715Z" stroke="black" stroke-miterlimit="10"/>
<path d="M46.5416 289.807H39.7486V296.176H46.5416V289.807Z" stroke="black" stroke-miterlimit="10"/>
<path d="M56.5082 289.807H49.7153V296.176H56.5082V289.807Z" stroke="black" stroke-miterlimit="10"/>
<path d="M66.468 289.807H59.675V296.176H66.468V289.807Z" stroke="black" stroke-miterlimit="10"/>
<path d="M76.4278 289.807H69.6348V296.176H76.4278V289.807Z" stroke="black" stroke-miterlimit="10"/>
<path d="M269.088 199.348H262.295V205.717H269.088V199.348Z" stroke="black" stroke-miterlimit="10"/>
<path d="M279.047 199.348H272.254V205.717H279.047V199.348Z" stroke="black" stroke-miterlimit="10"/>
<path d="M289.007 199.348H282.214V205.717H289.007V199.348Z" stroke="black" stroke-miterlimit="10"/>
<path d="M298.974 199.348H292.181V205.717H298.974V199.348Z" stroke="black" stroke-miterlimit="10"/>
<path d="M269.088 209.447H262.295V215.816H269.088V209.447Z" stroke="black" stroke-miterlimit="10"/>
<path d="M279.047 209.447H272.254V215.816H279.047V209.447Z" stroke="black" stroke-miterlimit="10"/>
<path d="M289.007 209.447H282.214V215.816H289.007V209.447Z" stroke="black" stroke-miterlimit="10"/>
<path d="M298.974 209.447H292.181V215.816H298.974V209.447Z" stroke="black" stroke-miterlimit="10"/>
<path d="M269.088 219.539H262.295V225.908H269.088V219.539Z" stroke="black" stroke-miterlimit="10"/>
<path d="M279.047 219.539H272.254V225.908H279.047V219.539Z" stroke="black" stroke-miterlimit="10"/>
<path d="M289.007 219.539H282.214V225.908H289.007V219.539Z" stroke="black" stroke-miterlimit="10"/>
<path d="M298.974 219.539H292.181V225.908H298.974V219.539Z" stroke="black" stroke-miterlimit="10"/>
<path d="M269.088 229.638H262.295V236.007H269.088V229.638Z" stroke="black" stroke-miterlimit="10"/>
<path d="M279.047 229.638H272.254V236.007H279.047V229.638Z" stroke="black" stroke-miterlimit="10"/>
<path d="M289.007 229.638H282.214V236.007H289.007V229.638Z" stroke="black" stroke-miterlimit="10"/>
<path d="M298.974 229.638H292.181V236.007H298.974V229.638Z" stroke="black" stroke-miterlimit="10"/>
<path d="M269.088 239.73H262.295V246.099H269.088V239.73Z" stroke="black" stroke-miterlimit="10"/>
<path d="M279.047 239.73H272.254V246.099H279.047V239.73Z" stroke="black" stroke-miterlimit="10"/>
<path d="M289.007 239.73H282.214V246.099H289.007V239.73Z" stroke="black" stroke-miterlimit="10"/>
<path d="M298.974 239.73H292.181V246.099H298.974V239.73Z" stroke="black" stroke-miterlimit="10"/>
<path d="M269.088 249.829H262.295V256.198H269.088V249.829Z" stroke="black" stroke-miterlimit="10"/>
<path d="M279.047 249.829H272.254V256.198H279.047V249.829Z" stroke="black" stroke-miterlimit="10"/>
<path d="M289.007 249.829H282.214V256.198H289.007V249.829Z" stroke="black" stroke-miterlimit="10"/>
<path d="M298.974 249.829H292.181V256.198H298.974V249.829Z" stroke="black" stroke-miterlimit="10"/>
<path d="M269.088 259.921H262.295V266.29H269.088V259.921Z" stroke="black" stroke-miterlimit="10"/>
<path d="M279.047 259.921H272.254V266.29H279.047V259.921Z" stroke="black" stroke-miterlimit="10"/>
<path d="M289.007 259.921H282.214V266.29H289.007V259.921Z" stroke="black" stroke-miterlimit="10"/>
<path d="M298.974 259.921H292.181V266.29H298.974V259.921Z" stroke="black" stroke-miterlimit="10"/>
<path d="M269.088 270.02H262.295V276.389H269.088V270.02Z" stroke="black" stroke-miterlimit="10"/>
<path d="M279.047 270.02H272.254V276.389H279.047V270.02Z" stroke="black" stroke-miterlimit="10"/>
<path d="M289.007 270.02H282.214V276.389H289.007V270.02Z" stroke="black" stroke-miterlimit="10"/>
<path d="M298.974 270.02H292.181V276.389H298.974V270.02Z" stroke="black" stroke-miterlimit="10"/>
<path d="M186.312 118.125V302.6" stroke="black" stroke-miterlimit="10"/>
<path d="M193.05 118.125V302.6" stroke="black" stroke-miterlimit="10"/>
<path d="M199.787 118.125V302.6" stroke="black" stroke-miterlimit="10"/>
<path d="M206.524 118.125V302.6" stroke="black" stroke-miterlimit="10"/>
<path d="M213.261 118.125V302.6" stroke="black" stroke-miterlimit="10"/>
<path d="M219.999 118.125V302.6" stroke="black" stroke-miterlimit="10"/>
<path d="M226.736 118.125V302.6" stroke="black" stroke-miterlimit="10"/>
<path d="M233.473 118.125V302.6" stroke="black" stroke-miterlimit="10"/>
</g>
<path d="M13.3493 268.03C15.3813 268.397 17.4629 268.397 19.4949 268.03C19.4949 269.275 19.4949 270.591 19.6411 271.955C19.7985 273.948 20.1316 275.923 20.6364 277.857V277.927C20.2953 277.384 19.2861 275.908 19.1957 275.804C17.922 274.335 14.5881 272.233 12.5837 273.09C12.2536 273.24 11.9591 273.458 11.7192 273.73C11.4794 274.002 11.2997 274.322 11.192 274.668C11.0842 275.014 11.0508 275.379 11.0939 275.739C11.1371 276.1 11.2557 276.446 11.4422 276.757C12.18 278.101 13.9548 278.769 15.3955 278.978C17.0172 279.214 20.4345 278.226 20.706 278.149C21.2738 280.103 21.9714 282.017 22.794 283.878C23.2603 284.97 23.7684 286.049 24.2904 287.128C23.9772 286.668 23.6988 286.265 23.6501 286.209C22.3764 284.741 19.0495 282.646 17.045 283.495C16.7152 283.645 16.4207 283.863 16.1807 284.135C15.9408 284.407 15.7608 284.726 15.6525 285.072C15.5442 285.418 15.5099 285.783 15.552 286.144C15.594 286.504 15.7115 286.851 15.8966 287.163C16.6413 288.513 18.4161 289.181 19.8569 289.39C21.2976 289.599 24.2486 288.812 25.0212 288.596L25.6267 289.828C26.622 291.798 27.6173 293.761 28.529 295.716C28.8561 296.412 29.1485 297.108 29.4477 297.804C29.1693 297.401 28.9327 297.06 28.8909 297.011C27.6173 295.536 24.2904 293.441 22.2789 294.297C21.9499 294.447 21.6562 294.665 21.417 294.937C21.1779 295.208 20.9986 295.527 20.8909 295.872C20.7832 296.218 20.7495 296.582 20.792 296.941C20.8345 297.301 20.9522 297.647 21.1375 297.958C21.8822 299.308 23.657 299.976 25.0908 300.185C26.5245 300.394 29.1972 299.691 30.1159 299.433C30.4013 300.129 30.6797 300.867 30.9233 301.57C31.0764 302.057 31.2573 302.509 31.3826 303.011C31.5079 303.512 31.6541 303.978 31.7933 304.458C32.016 305.391 32.2526 306.351 32.4475 307.242C32.5867 307.876 32.712 308.488 32.8373 309.101C32.5171 308.405 31.8768 307.075 31.8072 306.971C30.7701 305.321 27.8052 302.746 25.6893 303.282C25.3369 303.38 25.0094 303.552 24.7285 303.786C24.4477 304.021 24.22 304.312 24.0607 304.641C23.9013 304.971 23.8139 305.33 23.8043 305.696C23.7947 306.061 23.8632 306.425 24.005 306.762C24.534 308.203 26.1835 309.135 27.5755 309.546C29.1067 310.012 32.4962 309.588 32.9208 309.546C33.1226 310.555 33.3105 311.544 33.4776 312.476C33.6029 313.172 33.7142 313.868 33.8186 314.564H35.1758C35.0436 313.833 34.9044 313.068 34.7443 312.274C34.5425 311.244 34.3058 310.152 34.0483 309.024C35.0684 308.62 36.0632 308.156 37.0272 307.632C38.1408 308.843 41.0013 310.256 41.3772 310.416C40.9874 311.37 40.5977 312.295 40.2149 313.165C40.013 313.645 39.8112 314.098 39.6093 314.557H41.064C41.1823 314.265 41.3076 313.98 41.4259 313.68C41.8296 312.706 42.2333 311.662 42.6439 310.583C43.0545 310.674 46.4093 311.356 47.9753 311.001C49.3673 310.68 51.1142 309.88 51.7476 308.474C51.9082 308.152 51.9994 307.799 52.0156 307.439C52.0317 307.079 51.9723 306.72 51.8412 306.384C51.71 306.048 51.5101 305.744 51.2543 305.49C50.9984 305.236 50.6923 305.039 50.3556 304.911C48.2676 304.215 45.1356 306.56 43.9802 308.126C43.9106 308.217 43.2842 309.302 42.8945 309.998C43.0615 309.553 43.2285 309.128 43.3886 308.676C43.7227 307.778 44.022 306.866 44.3491 305.892C44.4953 305.419 44.6414 304.938 44.7806 304.451C44.9198 303.964 45.0381 303.442 45.1704 302.941C45.4557 301.758 45.6785 300.547 45.8664 299.322C46.6598 299.614 49.4717 300.588 50.9263 300.491C52.3809 300.394 54.1975 299.851 55.0397 298.563C55.2478 298.266 55.3911 297.929 55.4601 297.573C55.5291 297.217 55.5224 296.85 55.4403 296.497C55.3582 296.143 55.2027 295.811 54.9837 295.522C54.7648 295.233 54.4874 294.993 54.1697 294.819C52.2 293.754 48.72 295.598 47.328 296.969C47.2445 297.053 46.3675 298.152 45.8942 298.765C46.0056 298.027 46.1309 297.289 46.2213 296.545C46.4858 294.38 46.6946 292.181 46.9173 289.995L47.1261 287.984C47.4115 288.088 50.7245 289.327 52.3601 289.209C53.8077 289.111 55.6313 288.576 56.4734 287.288C56.6816 286.991 56.8248 286.653 56.8939 286.297C56.9629 285.941 56.9561 285.575 56.8741 285.222C56.792 284.868 56.6364 284.536 56.4175 284.247C56.1986 283.958 55.9212 283.718 55.6034 283.543C53.6685 282.548 50.1885 284.386 48.8105 285.764C48.7061 285.868 47.4185 287.448 47.1401 287.852C47.3001 286.376 47.4672 284.908 47.6899 283.467C47.9872 281.521 48.4104 279.596 48.9566 277.704C49.0819 277.753 52.541 279.096 54.2184 278.943C55.6661 278.838 57.4896 278.303 58.3248 277.015C58.532 276.719 58.6747 276.382 58.7436 276.027C58.8125 275.672 58.806 275.307 58.7246 274.954C58.6433 274.602 58.4888 274.271 58.2713 273.982C58.0537 273.693 57.7779 273.453 57.4617 273.277C55.5199 272.275 52.0469 274.12 50.6688 275.491C50.5783 275.581 49.6109 276.785 49.1654 277.37L49.0541 277.307C49.6511 275.421 50.4175 273.592 51.3439 271.844C51.8381 270.869 52.367 269.971 52.9029 269.108C53.5224 269.415 56.3829 270.8 57.8863 270.855C59.3897 270.911 61.2062 270.584 62.1806 269.394C62.4196 269.122 62.5987 268.802 62.7062 268.456C62.8136 268.11 62.8471 267.746 62.8045 267.386C62.7618 267.026 62.6439 266.679 62.4585 266.368C62.2731 266.057 62.0243 265.788 61.7282 265.58C59.9117 264.376 56.2577 265.823 54.7682 267.041C54.7125 267.083 54.3297 267.466 53.9191 267.876C53.9191 267.786 53.9191 267.682 53.9191 267.563C53.9191 267.445 54.0374 267.368 54.1001 267.278C55.0118 265.886 55.9305 264.703 56.7518 263.645C57.2251 263.046 57.6636 262.517 58.0812 262.023C58.8468 262.023 61.937 261.919 63.2873 261.285C64.6375 260.652 66.0713 259.511 66.4262 258.007C66.5136 257.655 66.5259 257.289 66.4623 256.932C66.3987 256.575 66.2606 256.236 66.057 255.935C65.8535 255.635 65.5891 255.382 65.2809 255.191C64.9728 254.999 64.6279 254.875 64.2686 254.826C62.0971 254.597 59.5219 257.569 58.7006 259.344C58.631 259.497 57.8376 262.03 57.8793 262.03H57.9281C57.5174 262.496 57.0789 263.004 56.6196 263.561C55.7705 264.598 54.8309 265.782 53.8913 267.125C53.8913 265.037 53.5015 260.673 50.7314 260.408C47.0774 260.06 46.0334 264.236 48.2954 266.498C49.5932 267.708 51.3177 268.354 53.0909 268.294C52.3949 269.338 51.6989 270.459 51.0029 271.684C50.0345 273.43 49.2217 275.258 48.5738 277.147V277.217C48.5738 276.576 48.5738 274.795 48.5738 274.656C48.3233 272.721 46.7085 269.136 44.5579 268.74C44.2 268.683 43.8343 268.703 43.4847 268.798C43.1351 268.893 42.8094 269.06 42.5289 269.29C42.2484 269.519 42.0195 269.805 41.857 270.128C41.6945 270.452 41.6022 270.807 41.586 271.169C41.4607 272.707 42.5743 274.238 43.674 275.212C44.8989 276.305 48.2954 277.363 48.546 277.446C47.936 279.386 47.457 281.365 47.1122 283.369C46.9034 284.532 46.7294 285.715 46.5693 286.905C46.5693 286.348 46.5693 285.854 46.5693 285.785C46.3188 283.857 44.7041 280.272 42.5534 279.876C42.1956 279.819 41.8299 279.839 41.4802 279.934C41.1306 280.029 40.8049 280.196 40.5244 280.426C40.244 280.655 40.015 280.941 39.8525 281.264C39.69 281.588 39.5977 281.943 39.5815 282.305C39.4562 283.836 40.5698 285.374 41.6695 286.341C42.7692 287.309 45.6506 288.283 46.4162 288.527C46.3605 288.986 46.2979 289.439 46.2422 289.919C45.9847 292.104 45.7272 294.29 45.4209 296.426C45.3096 297.178 45.1704 297.916 45.0381 298.654C45.0381 298.166 45.0381 297.749 45.0381 297.686C44.7876 295.758 43.1729 292.174 41.0292 291.777C40.671 291.721 40.3049 291.741 39.9549 291.836C39.6049 291.93 39.2788 292.098 38.9978 292.327C38.7168 292.556 38.4872 292.842 38.3239 293.166C38.1607 293.489 38.0674 293.844 38.0503 294.206C37.925 295.737 39.0386 297.276 40.1383 298.243C41.238 299.21 43.8341 300.087 44.7389 300.387C44.5788 301.138 44.4257 301.89 44.2377 302.614C44.0985 303.101 43.9941 303.581 43.8271 304.068L43.3677 305.502C43.0406 306.4 42.6717 307.333 42.3655 308.203C42.1289 308.808 41.8992 309.386 41.6695 309.964C41.7878 309.212 41.9897 307.743 41.9897 307.618C41.9711 305.905 41.5082 304.226 40.6464 302.746C40.6685 302.339 40.5975 301.932 40.4389 301.556C40.2803 301.18 40.0382 300.846 39.731 300.577C39.4238 300.309 39.0595 300.114 38.6658 300.008C38.2721 299.901 37.8593 299.885 37.4587 299.962C35.3707 300.526 33.9787 304.222 33.9161 306.17C33.9161 306.282 33.9857 307.562 34.0413 308.328C33.9369 307.869 33.8395 307.423 33.7212 306.936C33.5054 306.003 33.2549 305.078 32.9904 304.082C32.8512 303.609 32.705 303.129 32.5589 302.642C32.4127 302.154 32.2178 301.667 32.0438 301.166C31.6332 300.032 31.1529 298.897 30.6518 297.763C31.4661 297.568 34.3545 296.83 35.5238 295.939C36.6931 295.048 37.8972 293.608 37.8902 292.069C37.9001 291.707 37.8338 291.347 37.6955 291.013C37.5572 290.678 37.35 290.376 37.0875 290.127C36.8249 289.877 36.5129 289.686 36.1715 289.565C35.8302 289.444 35.4672 289.396 35.1062 289.425C32.9417 289.661 31.0555 293.113 30.6657 294.993C30.6657 295.111 30.5126 296.517 30.4569 297.282C30.1437 296.586 29.8375 295.925 29.5034 295.25C28.536 293.301 27.492 291.353 26.4619 289.411C26.1487 288.812 25.8425 288.214 25.5293 287.622C25.8216 287.552 29.2737 286.752 30.5683 285.757C31.7237 284.873 32.9486 283.425 32.9347 281.88C32.9447 281.518 32.8784 281.159 32.74 280.824C32.6016 280.49 32.3944 280.188 32.1317 279.939C31.869 279.691 31.5568 279.5 31.2155 279.38C30.8742 279.26 30.5114 279.213 30.1507 279.242C27.9792 279.479 26.1 282.931 25.7033 284.81C25.7033 284.956 25.4945 286.968 25.4736 287.483C24.7776 286.167 24.1233 284.852 23.5178 283.53C22.6876 281.746 21.9762 279.909 21.3881 278.031C21.5203 278.031 25.1256 277.182 26.4549 276.159C27.6103 275.275 28.8353 273.827 28.8213 272.289C28.8312 271.927 28.7649 271.567 28.6266 271.232C28.4883 270.898 28.2812 270.596 28.0186 270.346C27.7561 270.097 27.444 269.906 27.1027 269.785C26.7613 269.664 26.3984 269.616 26.0373 269.644C23.8658 269.881 21.9866 273.333 21.5899 275.212C21.5899 275.338 21.4298 276.876 21.3741 277.607H21.2558C20.713 275.701 20.3403 273.752 20.1422 271.781C20.0239 270.695 19.9682 269.658 19.9334 268.642C20.6294 268.559 23.7545 268.141 25.056 267.354C26.3575 266.568 27.6729 265.266 27.84 263.763C27.89 263.404 27.8639 263.039 27.7633 262.691C27.6626 262.344 27.4897 262.021 27.2559 261.744C27.0221 261.468 26.7326 261.244 26.4063 261.087C26.08 260.93 25.7242 260.843 25.3622 260.833C23.1768 260.833 20.9287 264.055 20.3301 265.907C20.3301 266.004 20.0796 267.069 19.9334 267.842C19.9334 267.382 19.9334 266.909 19.9334 266.45C19.9334 264.8 20.0378 263.29 20.1422 261.954C20.2049 261.195 20.2814 260.513 20.358 259.866C20.9844 259.427 23.5109 257.652 24.2834 256.386C25.056 255.119 25.6754 253.351 25.0977 251.917C24.9755 251.576 24.783 251.264 24.5326 251.002C24.2823 250.74 23.9797 250.533 23.6445 250.396C23.3092 250.258 22.9488 250.192 22.5865 250.202C22.2241 250.213 21.868 250.299 21.5412 250.456C19.6063 251.458 19.0982 255.328 19.4184 257.276C19.4184 257.443 20.177 259.991 20.2118 259.97H20.2466C20.1631 260.589 20.0796 261.244 20.003 261.967C19.8708 263.304 19.7316 264.821 19.6898 266.478C19.6898 266.777 19.6898 267.09 19.6898 267.403C18.8546 266.123 16.2098 262.531 13.4258 263.297C9.77879 264.334 10.5722 267.375 13.3493 268.03Z" fill="#263238"/>
<path d="M62.5286 284.831C63.8269 285.062 65.1558 285.062 66.4541 284.831C66.4427 285.667 66.4752 286.504 66.5515 287.337C66.6469 288.608 66.8566 289.868 67.1779 291.102C67.1802 291.118 67.1802 291.135 67.1779 291.151C66.9621 290.803 66.3149 289.863 66.2592 289.794C65.4449 288.854 63.3221 287.518 62.0414 288.061C61.8335 288.16 61.6488 288.302 61.4992 288.478C61.3496 288.653 61.2385 288.858 61.1729 289.079C61.1073 289.3 61.0888 289.532 61.1185 289.761C61.1482 289.989 61.2255 290.209 61.3454 290.406C61.6425 290.805 62.0218 291.136 62.4576 291.376C62.8935 291.616 63.3757 291.76 63.8719 291.798C65.0223 291.791 66.165 291.61 67.2614 291.262C67.6163 292.512 68.0581 293.735 68.5838 294.923C68.8831 295.619 69.2102 296.315 69.5443 297.011L69.1337 296.426C68.3193 295.487 66.1965 294.151 64.9159 294.693C64.7082 294.792 64.5236 294.934 64.3741 295.108C64.2245 295.283 64.1134 295.487 64.0477 295.708C63.9821 295.928 63.9636 296.16 63.9932 296.388C64.0229 296.616 64.1001 296.836 64.2199 297.032C64.5147 297.433 64.8935 297.766 65.3298 298.006C65.766 298.247 66.2495 298.389 66.7464 298.424C67.863 298.428 68.9735 298.259 70.0385 297.923C70.1707 298.18 70.296 298.445 70.4282 298.709C71.0616 299.969 71.6949 301.215 72.2796 302.468C72.4884 302.906 72.6763 303.345 72.8642 303.783C72.6902 303.526 72.5371 303.31 72.5093 303.282C71.6949 302.342 69.5721 300.999 68.2915 301.542C68.0734 301.634 67.8775 301.772 67.7171 301.946C67.5567 302.12 67.4355 302.326 67.3617 302.551C67.2878 302.776 67.263 303.014 67.2889 303.25C67.3148 303.485 67.3909 303.712 67.512 303.915C67.8091 304.315 68.1884 304.645 68.6242 304.885C69.06 305.126 69.5423 305.269 70.0385 305.307C71.1264 305.314 72.2088 305.152 73.247 304.827C73.428 305.28 73.6089 305.739 73.7621 306.219C73.8595 306.525 73.9778 306.818 74.0544 307.138C74.1309 307.458 74.2284 307.757 74.3119 308.064C74.4581 308.655 74.6112 309.268 74.7295 309.852C74.82 310.256 74.9035 310.646 74.9801 311.035C74.7782 310.597 74.3676 309.748 74.3258 309.678C73.6298 308.627 71.7645 306.978 70.4213 307.326C70.1986 307.388 69.9916 307.497 69.8138 307.645C69.6361 307.793 69.4916 307.976 69.3897 308.184C69.2879 308.392 69.231 308.618 69.2229 308.85C69.2148 309.081 69.2555 309.311 69.3425 309.525C69.5689 309.972 69.8907 310.364 70.2852 310.673C70.6796 310.982 71.1371 311.201 71.6253 311.314C72.7556 311.486 73.9054 311.486 75.0357 311.314C75.168 311.954 75.2863 312.588 75.3907 313.186C75.4673 313.639 75.5438 314.07 75.6065 314.495H76.4765C76.3929 314.028 76.3025 313.541 76.1981 313.033C76.0728 312.379 75.9197 311.676 75.7596 310.945C76.4106 310.685 77.0451 310.385 77.6597 310.047C78.5005 310.769 79.4374 311.371 80.4437 311.836C80.1931 312.448 79.9495 313.04 79.7059 313.597L79.3161 314.481H80.2349L80.4645 313.917C80.7221 313.297 80.9796 312.629 81.2441 311.947C82.3593 312.203 83.5062 312.292 84.6475 312.212C85.1414 312.131 85.6122 311.946 86.0277 311.667C86.4433 311.388 86.7939 311.023 87.0557 310.597C87.1587 310.39 87.2168 310.163 87.2262 309.932C87.2355 309.7 87.1958 309.47 87.1097 309.255C87.0236 309.04 86.893 308.846 86.7266 308.685C86.5602 308.524 86.3616 308.4 86.1439 308.321C84.8215 307.876 82.8101 309.372 82.0723 310.374C82.0305 310.437 81.6269 311.126 81.3763 311.571C81.4807 311.286 81.5851 311.015 81.6895 310.722C81.8983 310.152 82.0932 309.574 82.302 308.947C82.3925 308.641 82.4829 308.335 82.5804 308.029C82.6778 307.723 82.7405 307.388 82.824 307.061C83.0049 306.31 83.1511 305.537 83.2764 304.758C84.3109 305.168 85.4025 305.417 86.5128 305.495C87.0129 305.494 87.5068 305.384 87.96 305.173C88.4132 304.961 88.8147 304.653 89.1367 304.27C89.2688 304.081 89.3596 303.865 89.4032 303.638C89.4467 303.411 89.4421 303.178 89.3896 302.953C89.3371 302.728 89.2379 302.516 89.0984 302.332C88.9589 302.148 88.7823 301.995 88.5799 301.883C87.341 301.243 85.0999 302.419 84.2438 303.275C84.1881 303.331 83.6244 304.027 83.3251 304.423C83.4017 303.95 83.4782 303.484 83.5339 303.031C83.7079 301.639 83.8401 300.247 83.9724 298.855C84.0141 298.424 84.0629 297.999 84.1046 297.575C84.2856 297.644 86.4014 298.431 87.4454 298.354C87.9456 298.353 88.4394 298.243 88.8926 298.032C89.3458 297.82 89.7474 297.512 90.0693 297.129C90.2028 296.941 90.2949 296.726 90.3396 296.499C90.3843 296.272 90.3805 296.038 90.3286 295.813C90.2767 295.587 90.1778 295.375 90.0384 295.191C89.8989 295.007 89.7221 294.854 89.5195 294.742C88.2806 294.102 86.0395 295.278 85.1834 296.134C85.1138 296.197 84.3065 297.206 84.1116 297.477C84.216 296.538 84.3204 295.598 84.4665 294.693C84.6539 293.452 84.9212 292.225 85.2669 291.019C85.3505 291.019 87.5568 291.882 88.6286 291.805C89.1287 291.804 89.6226 291.694 90.0758 291.482C90.529 291.271 90.9306 290.963 91.2525 290.58C91.3848 290.39 91.4756 290.174 91.5193 289.946C91.5629 289.719 91.5583 289.485 91.5059 289.259C91.4534 289.034 91.3542 288.822 91.2146 288.637C91.0751 288.452 90.8983 288.298 90.6957 288.186C89.4569 287.552 87.2157 288.729 86.3597 289.578C86.304 289.633 85.6637 290.399 85.4061 290.775L85.3296 290.74C85.712 289.539 86.2011 288.374 86.7912 287.26C87.1113 286.641 87.4454 286.063 87.7865 285.513C88.7832 286.047 89.8559 286.425 90.9672 286.634C91.4644 286.684 91.9667 286.627 92.4399 286.466C92.9131 286.305 93.3461 286.044 93.7094 285.701C93.8622 285.527 93.9768 285.324 94.0457 285.103C94.1146 284.882 94.1363 284.649 94.1093 284.42C94.0824 284.19 94.0075 283.968 93.8895 283.769C93.7714 283.571 93.6128 283.399 93.424 283.265C92.2617 282.493 89.9441 283.418 88.9557 284.198L88.4129 284.727C88.4129 284.671 88.4129 284.601 88.4129 284.525L88.5242 284.351C89.1089 283.474 89.6935 282.701 90.2225 282.026C90.5217 281.643 90.8071 281.33 91.0716 280.996C92.1957 281.005 93.3148 280.846 94.3915 280.523C94.8559 280.339 95.2752 280.057 95.6211 279.697C95.967 279.337 96.2313 278.906 96.396 278.435C96.4519 278.209 96.4593 277.975 96.4179 277.746C96.3764 277.518 96.2869 277.301 96.1554 277.109C96.0238 276.918 95.8532 276.756 95.6547 276.636C95.4562 276.515 95.2345 276.438 95.004 276.409C93.612 276.256 91.9764 278.156 91.4683 279.291C91.4265 279.388 90.9185 281.003 90.9463 281.003C90.6818 281.295 90.4034 281.623 90.1111 281.977C89.5752 282.673 88.9697 283.369 88.3711 284.253C88.3711 282.917 88.1205 280.133 86.3527 279.966C84.0211 279.743 83.3529 282.409 84.8006 283.857C85.6299 284.628 86.7313 285.038 87.863 284.998C87.4106 285.694 86.9652 286.39 86.5406 287.163C85.924 288.275 85.407 289.439 84.9955 290.643C84.9955 290.643 84.9955 290.677 84.9955 290.691C84.9955 290.281 84.9955 289.139 84.9955 289.056C84.8354 287.817 83.7984 285.534 82.4342 285.277C82.2056 285.241 81.972 285.254 81.7487 285.315C81.5255 285.376 81.3175 285.483 81.1383 285.629C80.9591 285.776 80.8127 285.958 80.7086 286.165C80.6045 286.371 80.5451 286.597 80.5341 286.829C80.5522 287.329 80.68 287.818 80.9085 288.263C81.1371 288.709 81.4607 289.098 81.8565 289.404C82.816 290.038 83.8678 290.519 84.9746 290.831C84.5885 292.072 84.2816 293.337 84.0559 294.617C83.9237 295.362 83.8123 296.113 83.7149 296.872C83.7149 296.517 83.7149 296.176 83.7149 296.176C83.5548 294.937 82.5247 292.654 81.1536 292.397C80.9249 292.361 80.6914 292.374 80.4681 292.435C80.2448 292.496 80.0368 292.603 79.8576 292.749C79.6784 292.896 79.5321 293.078 79.428 293.285C79.3239 293.491 79.2644 293.718 79.2535 293.949C79.2762 294.448 79.406 294.936 79.6342 295.38C79.8624 295.825 80.1836 296.215 80.5759 296.524C81.5063 297.143 82.5279 297.613 83.6035 297.916C83.6035 298.208 83.5269 298.501 83.4921 298.786C83.3251 300.178 83.165 301.57 82.9701 302.962C82.9005 303.442 82.8101 303.908 82.7265 304.354C82.7265 304.041 82.7265 303.776 82.7265 303.734C82.5734 302.503 81.5364 300.213 80.1653 299.962C79.9368 299.928 79.7036 299.942 79.4808 300.003C79.258 300.064 79.0504 300.171 78.8715 300.317C78.6926 300.464 78.5462 300.646 78.4417 300.852C78.3373 301.058 78.2772 301.283 78.2652 301.514C78.2879 302.013 78.4177 302.501 78.6459 302.946C78.8741 303.39 79.1952 303.78 79.5876 304.089C80.4917 304.702 81.4847 305.171 82.5317 305.481C82.4273 305.962 82.3298 306.442 82.2045 306.873C82.121 307.187 82.0514 307.493 81.947 307.799C81.8426 308.105 81.7521 308.412 81.6547 308.718C81.4459 309.289 81.2301 309.887 81.0144 310.444L80.5689 311.564C80.6385 311.091 80.7708 310.172 80.7708 310.068C80.7566 308.975 80.4618 307.904 79.9147 306.957C79.9252 306.836 79.9252 306.715 79.9147 306.595C79.8858 306.366 79.809 306.146 79.6893 305.948C79.5695 305.751 79.4095 305.581 79.2198 305.45C79.03 305.319 78.8147 305.229 78.5878 305.186C78.361 305.144 78.1277 305.149 77.9033 305.203C76.56 305.558 75.7039 307.924 75.6413 309.163C75.6413 309.24 75.683 310.033 75.7248 310.555C75.6552 310.263 75.5925 309.978 75.5229 309.678C75.3768 309.08 75.2237 308.495 75.0497 307.855C74.9592 307.555 74.8687 307.249 74.7713 306.936C74.6738 306.623 74.5555 306.31 74.4511 305.996C74.1797 305.266 73.8804 304.542 73.5533 303.818C74.642 303.594 75.6892 303.202 76.6574 302.656C77.0737 302.378 77.4245 302.014 77.6854 301.587C77.9462 301.16 78.1108 300.682 78.1677 300.185C78.1744 299.954 78.1323 299.724 78.0442 299.511C77.9561 299.298 77.824 299.105 77.6565 298.946C77.4891 298.787 77.29 298.665 77.0723 298.589C76.8545 298.512 76.6231 298.482 76.3929 298.501C75.0009 298.647 73.8038 300.853 73.5533 302.071C73.5533 302.148 73.4558 303.038 73.421 303.533C73.2192 303.101 73.0243 302.67 72.8155 302.238C72.1961 300.992 71.5279 299.746 70.8737 298.507L70.2751 297.366C70.463 297.317 72.6624 296.809 73.4906 296.176C73.9058 295.896 74.2557 295.53 74.5163 295.102C74.777 294.674 74.9423 294.195 75.0009 293.698C75.0076 293.467 74.9655 293.238 74.8774 293.024C74.7893 292.811 74.6572 292.618 74.4897 292.46C74.3223 292.301 74.1232 292.179 73.9055 292.102C73.6877 292.025 73.4563 291.995 73.2261 292.014C71.8341 292.167 70.637 294.366 70.3865 295.584C70.3865 295.682 70.2542 296.976 70.2403 297.296C69.8018 296.454 69.3773 295.612 68.9875 294.77C68.4492 293.641 67.9842 292.479 67.5955 291.29C67.679 291.29 69.9828 290.747 70.8319 290.093C71.2482 289.816 71.599 289.451 71.8599 289.024C72.1207 288.597 72.2853 288.119 72.3422 287.622C72.3488 287.39 72.3066 287.16 72.2181 286.946C72.1297 286.731 71.9971 286.538 71.829 286.379C71.6609 286.219 71.461 286.097 71.2424 286.019C71.0239 285.942 70.7915 285.912 70.5605 285.931C69.1685 286.084 67.9783 288.29 67.7277 289.508C67.7277 289.585 67.6233 290.566 67.5885 291.032H67.512C67.168 289.817 66.9351 288.573 66.816 287.316C66.7394 286.62 66.7046 285.924 66.6837 285.311C67.8094 285.205 68.9124 284.928 69.9549 284.49C70.3986 284.26 70.7866 283.936 71.092 283.541C71.3973 283.145 71.6126 282.688 71.7228 282.2C71.7552 281.971 71.7389 281.738 71.675 281.516C71.6111 281.293 71.5009 281.087 71.3518 280.911C71.2026 280.734 71.0178 280.591 70.8095 280.49C70.6012 280.39 70.374 280.334 70.1429 280.328C68.7509 280.328 67.3171 282.381 66.9273 283.564C66.9273 283.627 66.7673 284.309 66.6768 284.803C66.6768 284.511 66.6768 284.205 66.6768 283.926C66.6768 282.875 66.7464 281.908 66.809 281.059C66.8508 280.572 66.8995 280.133 66.9482 279.729C67.891 279.118 68.7358 278.367 69.4538 277.502C69.741 277.092 69.9362 276.625 70.0263 276.132C70.1164 275.64 70.0992 275.134 69.9758 274.649C69.8981 274.431 69.7755 274.232 69.6159 274.064C69.4562 273.897 69.2631 273.765 69.0491 273.677C68.8352 273.589 68.6051 273.547 68.3738 273.554C68.1426 273.56 67.9153 273.616 67.7069 273.716C66.468 274.356 66.1409 276.848 66.3149 278.073C66.3149 278.177 66.7951 279.806 66.816 279.792C66.7603 280.189 66.7046 280.606 66.6559 281.073C66.5724 281.922 66.4819 282.889 66.461 283.947C66.461 284.142 66.461 284.337 66.461 284.539C65.9321 283.724 64.2617 281.428 62.4521 281.915C60.2527 282.472 60.7608 284.407 62.5286 284.831Z" fill="#263238"/>
<path d="M53.4946 268.294L53.3345 268.454C53.3693 268.405 53.3971 268.35 53.4319 268.294H53.4946Z" fill="#263238"/>
<path d="M169.399 50.5366H74.9383C67.2505 50.5366 61.0183 56.7688 61.0183 64.4566V274.621C61.0183 282.309 67.2505 288.541 74.9383 288.541H169.399C177.087 288.541 183.319 282.309 183.319 274.621V64.4566C183.319 56.7688 177.087 50.5366 169.399 50.5366Z" fill="#984AD9" stroke="#263238" stroke-miterlimit="10"/>
<path d="M183.319 72.4536V65.2152C183.32 63.2879 182.942 61.3793 182.205 59.5985C181.468 57.8176 180.387 56.1994 179.025 54.8363C177.662 53.4731 176.044 52.3918 174.264 51.654C172.483 50.9163 170.575 50.5366 168.648 50.5366H75.697C71.8039 50.5366 68.0704 52.0831 65.3176 54.8358C62.5648 57.5886 61.0183 61.3222 61.0183 65.2152V72.4536H183.319Z" fill="white" stroke="#263238" stroke-miterlimit="10"/>
<path d="M61.6656 278.17C62.5864 281.173 64.4464 283.801 66.9722 285.668C69.498 287.535 72.5562 288.542 75.697 288.541H168.648C171.788 288.541 174.846 287.533 177.371 285.666C179.897 283.8 181.757 281.172 182.679 278.17H61.6656Z" fill="white" stroke="#263238" stroke-miterlimit="10"/>
<path d="M169.177 58.9233H157.574V65.2848H169.177V58.9233Z" stroke="#263238" stroke-width="0.821067" stroke-linecap="round" stroke-linejoin="round"/>
<path d="M166.622 58.9233H157.574V65.2848H166.622V58.9233Z" fill="#263238" stroke="#263238" stroke-width="0.725073" stroke-linecap="round" stroke-linejoin="round"/>
<path d="M170.791 60.7051H169.156V63.51H170.791V60.7051Z" fill="#263238" stroke="#263238" stroke-width="0.725073" stroke-linecap="round" stroke-linejoin="round"/>
<path d="M73.9709 60.9H71.8411V64.5471H73.9709V60.9Z" fill="#263238" stroke="#263238" stroke-width="0.883086" stroke-linecap="round" stroke-linejoin="round"/>
<path d="M77.3116 59.6194H75.1819V64.5471H77.3116V59.6194Z" fill="#263238" stroke="#263238" stroke-width="0.883086" stroke-linecap="round" stroke-linejoin="round"/>
<path d="M80.6525 58.1021H78.5227V64.5401H80.6525V58.1021Z" fill="#263238" stroke="#263238" stroke-width="0.883086" stroke-linecap="round" stroke-linejoin="round"/>
<path d="M171.536 48.5808H71.1242C67.8847 48.5808 64.7778 49.8677 62.4871 52.1584C60.1963 54.4492 58.9094 57.556 58.9094 60.7956V280.147C58.9094 281.751 59.2254 283.339 59.8394 284.82C60.4533 286.302 61.3531 287.648 62.4875 288.782C63.6218 289.915 64.9684 290.814 66.4503 291.428C67.9323 292.041 69.5205 292.356 71.1242 292.355H171.536C174.774 292.355 177.879 291.069 180.168 288.779C182.458 286.49 183.744 283.385 183.744 280.147V60.7956C183.745 59.1919 183.43 57.6037 182.817 56.1217C182.204 54.6398 181.305 53.2932 180.171 52.1589C179.037 51.0245 177.691 50.1247 176.209 49.5107C174.728 48.8968 173.14 48.5808 171.536 48.5808ZM178.315 274.321C178.315 277.559 177.029 280.664 174.74 282.954C172.45 285.243 169.345 286.529 166.107 286.529H76.56C73.3223 286.529 70.2171 285.243 67.9277 282.954C65.6383 280.664 64.3521 277.559 64.3521 274.321V66.6211C64.3512 65.0174 64.6663 63.4292 65.2794 61.9473C65.8925 60.4653 66.7916 59.1187 67.9253 57.9844C69.059 56.85 70.4051 55.9502 71.8866 55.3363C73.3682 54.7223 74.9562 54.4063 76.56 54.4063H93.2222L94.2593 59.2226C94.5584 60.6309 95.3334 61.8931 96.454 62.7969C97.5746 63.7007 98.9723 64.191 100.412 64.1851H144.977C146.415 64.1893 147.811 63.6984 148.93 62.7947C150.05 61.891 150.824 60.6297 151.122 59.2226L152.16 54.4063H166.08C167.686 54.4027 169.277 54.716 170.761 55.3283C172.246 55.9406 173.596 56.8398 174.732 57.9745C175.869 59.1092 176.77 60.4571 177.385 61.9408C178 63.4246 178.316 65.015 178.315 66.6211V274.321Z" fill="#263238" stroke="#263238" stroke-width="1.6935" stroke-miterlimit="10"/>
<path d="M159.669 87.1323H82.2254C79.0234 87.1323 76.4277 89.728 76.4277 92.9299V261.369C76.4277 264.571 79.0234 267.167 82.2254 267.167H159.669C162.871 267.167 165.467 264.571 165.467 261.369V92.9299C165.467 89.728 162.871 87.1323 159.669 87.1323Z" fill="white" stroke="#263238" stroke-miterlimit="10"/>
<path d="M109.321 97.7323C110.782 97.7323 111.534 98.6023 111.534 100.133V100.433H110.142V100.036C110.142 99.3401 109.871 99.0965 109.39 99.0965C108.91 99.0965 108.646 99.354 108.646 100.036C108.646 101.999 111.576 102.368 111.576 105.096C111.576 106.62 110.81 107.497 109.342 107.497C107.873 107.497 107.1 106.62 107.1 105.096V104.511H108.492V105.207C108.492 105.903 108.792 106.133 109.272 106.133C109.752 106.133 110.045 105.889 110.045 105.207C110.045 103.245 107.114 102.876 107.114 100.147C107.114 98.6023 107.88 97.7323 109.321 97.7323Z" fill="#263238"/>
<path d="M112.411 97.8367H113.907V107.386H112.411V97.8367Z" fill="#263238"/>
<path d="M117.248 102.068H119.336V105.096C119.336 106.62 118.571 107.497 117.102 107.497C115.633 107.497 114.861 106.62 114.861 105.096V100.133C114.861 98.6023 115.626 97.7323 117.102 97.7323C118.577 97.7323 119.336 98.6023 119.336 100.133V101.059H117.944V100.036C117.944 99.3401 117.645 99.0965 117.172 99.0965C116.698 99.0965 116.392 99.354 116.392 100.036V105.193C116.392 105.889 116.691 106.119 117.172 106.119C117.652 106.119 117.944 105.876 117.944 105.193V103.433H117.248V102.068Z" fill="#263238"/>
<path d="M121.654 100.475V107.386H120.304V97.8367H122.19L123.728 103.558V97.8367H125.064V107.386H123.526L121.654 100.475Z" fill="#263238"/>
<path d="M128.259 97.8367H129.762V107.386H128.259V97.8367Z" fill="#263238"/>
<path d="M132.191 100.475V107.386H130.848V97.8367H132.727L134.272 103.558V97.8367H135.609V107.386H134.063L132.191 100.475Z" fill="#263238"/>
<path d="M84.2925 134.196V134.892H82.5317V137.453H84.6893V138.149H81.7313V131.015H84.6893V131.711H82.5317V134.168L84.2925 134.196Z" fill="#263238"/>
<path d="M88.0857 138.198H87.3132L86.116 132.47V138.205H85.42V131.015H86.5406L87.7238 136.757L88.8652 131.015H89.9858V138.205H89.2202V132.421L88.0857 138.198Z" fill="#263238"/>
<path d="M91.6145 136.757L91.3361 138.205H90.5983L91.9903 131.015H93.1526L94.5446 138.205H93.7373L93.4658 136.757H91.6145ZM91.7189 136.061H93.3197L92.5123 131.885L91.7189 136.061Z" fill="#263238"/>
<path d="M95.9436 131.015V138.205H95.1362V131.015H95.9436Z" fill="#263238"/>
<path d="M96.744 138.205V131.015H97.5444V137.481H99.5976V138.177L96.744 138.205Z" fill="#263238"/>
<path d="M102.625 136.757L102.354 138.205H101.616L103.008 131.015H104.17L105.562 138.205H104.762L104.483 136.757H102.625ZM102.73 136.061H104.337L103.523 131.885L102.73 136.061Z" fill="#263238"/>
<path d="M107.838 131.015C108.959 131.015 109.474 131.711 109.474 132.804V136.416C109.474 137.516 108.959 138.191 107.838 138.191H106.154V131.015H107.838ZM107.838 137.481C108.416 137.481 108.694 137.119 108.694 136.458V132.762C108.694 132.101 108.416 131.739 107.831 131.739H106.968V137.481H107.838Z" fill="#263238"/>
<path d="M111.903 131.015C113.023 131.015 113.538 131.711 113.538 132.804V136.416C113.538 137.516 113.023 138.191 111.903 138.191H110.219V131.015H111.903ZM111.903 137.481C112.481 137.481 112.759 137.119 112.759 136.458V132.762C112.759 132.101 112.481 131.739 111.889 131.739H111.026V137.481H111.903Z" fill="#263238"/>
<path d="M115.891 131.015C117.025 131.015 117.499 131.586 117.499 132.658V133.242C117.499 134.036 117.22 134.53 116.601 134.725C117.262 134.92 117.506 135.456 117.506 136.221V137.342C117.479 137.637 117.53 137.934 117.652 138.205H116.838C116.726 137.929 116.68 137.631 116.705 137.335V136.2C116.705 135.393 116.322 135.135 115.654 135.135H115.091V138.205H114.29V131.015H115.891ZM115.689 134.405C116.322 134.405 116.705 134.196 116.705 133.416V132.72C116.705 132.073 116.469 131.732 115.87 131.732H115.091V134.398L115.689 134.405Z" fill="#263238"/>
<path d="M120.895 134.196V134.892H119.141V137.453H121.299V138.149H118.32V131.015H121.285V131.711H119.127V134.168L120.895 134.196Z" fill="#263238"/>
<path d="M125.148 132.741V132.936H124.389V132.699C124.389 132.052 124.139 131.669 123.568 131.669C122.997 131.669 122.747 132.052 122.747 132.685C122.747 134.3 125.162 134.453 125.162 136.479C125.162 137.571 124.633 138.281 123.533 138.281C122.433 138.281 121.918 137.585 121.918 136.479V136.068H122.67V136.52C122.67 137.168 122.941 137.55 123.512 137.55C124.083 137.55 124.354 137.168 124.354 136.52C124.354 134.92 121.953 134.766 121.953 132.741C121.953 131.628 122.468 130.938 123.547 130.938C124.626 130.938 125.148 131.648 125.148 132.741Z" fill="#263238"/>
<path d="M128.969 132.741V132.936H128.21V132.699C128.21 132.052 127.967 131.669 127.389 131.669C126.811 131.669 126.568 132.052 126.568 132.685C126.568 134.3 128.983 134.453 128.983 136.479C128.983 137.571 128.454 138.281 127.354 138.281C126.254 138.281 125.746 137.585 125.746 136.479V136.068H126.491V136.52C126.491 137.168 126.762 137.55 127.333 137.55C127.904 137.55 128.182 137.168 128.182 136.52C128.182 134.92 125.774 134.766 125.774 132.741C125.774 131.628 126.289 130.938 127.368 130.938C128.447 130.938 128.969 131.648 128.969 132.741Z" fill="#263238"/>
<path d="M83.3042 166.97C84.4317 166.97 84.9189 167.666 84.9189 168.724V169.594C84.9567 169.826 84.9399 170.062 84.8698 170.286C84.7998 170.51 84.6784 170.714 84.5155 170.882C84.3525 171.05 84.1525 171.178 83.9313 171.256C83.7101 171.333 83.4739 171.358 83.2416 171.327H82.5456V174.167H81.7452V166.97H83.3042ZM83.2416 170.61C83.8401 170.61 84.1255 170.332 84.1255 169.643V168.69C84.1255 167.994 83.8889 167.701 83.3042 167.701H82.5317V170.61H83.2416Z" fill="#263238"/>
<path d="M86.2204 172.712L85.942 174.167H85.2043L86.5963 166.97H87.7586L89.1506 174.167H88.3224L88.044 172.712H86.2204ZM86.3248 172.016H87.9256L87.1183 167.84L86.3248 172.016Z" fill="#263238"/>
<path d="M92.8603 168.696V168.891H92.1017V168.655C92.1017 168.007 91.8511 167.625 91.2804 167.625C90.7097 167.625 90.4521 168.007 90.4521 168.648C90.4521 170.262 92.8673 170.416 92.8673 172.441C92.8673 173.527 92.3453 174.237 91.2456 174.237C90.1459 174.237 89.6309 173.541 89.6309 172.441V172.03H90.3825V172.483C90.3825 173.13 90.647 173.506 91.2247 173.506C91.8024 173.506 92.0669 173.13 92.0669 172.483C92.0669 170.875 89.6657 170.722 89.6657 168.696C89.6657 167.59 90.1737 166.901 91.2595 166.901C92.3453 166.901 92.8603 167.604 92.8603 168.696Z" fill="#263238"/>
<path d="M96.6813 168.696V168.891H95.9227V168.655C95.9227 168.007 95.6721 167.625 95.1014 167.625C94.5307 167.625 94.2732 168.007 94.2732 168.648C94.2732 170.262 96.6883 170.416 96.6883 172.441C96.6883 173.527 96.1663 174.237 95.0666 174.237C93.9669 174.237 93.4519 173.541 93.4519 172.441V172.03H94.2036V172.483C94.2036 173.13 94.475 173.506 95.0457 173.506C95.6165 173.506 95.8879 173.13 95.8879 172.483C95.8879 170.875 93.4867 170.722 93.4867 168.696C93.4867 167.59 94.0017 166.901 95.0805 166.901C96.1593 166.901 96.6813 167.604 96.6813 168.696Z" fill="#263238"/>
<path d="M99.2983 174.167H98.1986L97.2173 166.97H97.9968L98.839 173.095L99.6394 166.977H100.433L101.226 173.109L102.034 166.97H102.73L101.748 174.167H100.69L99.9943 169.295L99.2983 174.167Z" fill="#263238"/>
<path d="M103.314 168.71C103.314 167.604 103.864 166.901 104.964 166.901C106.063 166.901 106.613 167.597 106.613 168.71V172.427C106.613 173.52 106.07 174.237 104.964 174.237C103.857 174.237 103.314 173.541 103.314 172.427V168.71ZM104.108 172.469C104.108 173.13 104.386 173.506 104.964 173.506C105.541 173.506 105.813 173.13 105.813 172.469V168.669C105.813 168.021 105.548 167.625 104.964 167.625C104.379 167.625 104.108 168.021 104.108 168.669V172.469Z" fill="#263238"/>
<path d="M108.98 166.97C110.107 166.97 110.58 167.548 110.58 168.613V169.198C110.58 169.991 110.302 170.485 109.69 170.68C110.344 170.875 110.594 171.411 110.594 172.183V173.304C110.571 173.599 110.618 173.895 110.734 174.167H109.926C109.808 173.891 109.76 173.589 109.787 173.29V172.163C109.787 171.348 109.411 171.091 108.743 171.091H108.179V174.167H107.372V166.97H108.98ZM108.771 170.36C109.411 170.36 109.787 170.158 109.787 169.379V168.683C109.787 168.035 109.55 167.694 108.959 167.694H108.179V170.353L108.771 170.36Z" fill="#263238"/>
<path d="M113.107 166.97C114.227 166.97 114.743 167.666 114.743 168.759V172.385C114.743 173.485 114.227 174.167 113.107 174.167H111.423V166.97H113.107ZM113.107 173.436C113.678 173.436 113.956 173.074 113.956 172.42V168.717C113.956 168.056 113.678 167.701 113.093 167.701H112.23V173.436H113.107Z" fill="#263238"/>
<path d="M95.5677 201.951C96.6952 201.951 97.1685 202.522 97.1685 203.594V204.179C97.1685 204.972 96.8901 205.466 96.2776 205.661C96.9319 205.856 97.1824 206.392 97.1824 207.157V208.278C97.1582 208.575 97.2059 208.873 97.3216 209.148H96.5143C96.3969 208.871 96.3491 208.57 96.3751 208.271V207.144C96.3751 206.329 95.9992 206.072 95.3311 206.072H94.7673V209.148H93.96V201.951H95.5677ZM95.352 205.32C95.9923 205.32 96.3681 205.118 96.3681 204.332V203.636C96.3681 202.988 96.1315 202.654 95.5399 202.654H94.7604V205.32H95.352Z" fill="#263238"/>
<path d="M100.572 205.139V205.835H98.832V208.396H100.99V209.127H98.0316V201.951H100.99V202.647H98.832V205.104L100.572 205.139Z" fill="#263238"/>
<path d="M104.358 209.134H103.593L102.396 203.406V209.148H101.7V201.951H102.82L104.003 207.693L105.145 201.951H106.265V209.148H105.5V203.357L104.358 209.134Z" fill="#263238"/>
<path d="M109.641 205.139V205.835H107.88V208.396H110.045V209.127H107.08V201.951H110.045V202.647H107.88V205.104L109.641 205.139Z" fill="#263238"/>
<path d="M113.448 209.134H112.675L111.485 203.406V209.148H110.789V201.951H111.91L113.093 207.693L114.234 201.951H115.355V209.148H114.596V203.357L113.448 209.134Z" fill="#263238"/>
<path d="M117.763 201.951C118.884 201.951 119.329 202.48 119.329 203.545V203.879C119.329 204.645 119.113 205.118 118.487 205.313C119.183 205.508 119.454 206.058 119.454 206.851V207.457C119.487 207.683 119.467 207.913 119.396 208.13C119.326 208.347 119.206 208.545 119.046 208.709C118.887 208.872 118.692 208.997 118.477 209.073C118.262 209.149 118.032 209.175 117.805 209.148H116.155V201.951H117.763ZM117.568 205C118.209 205 118.536 204.798 118.536 204.046V203.622C118.536 202.988 118.32 202.682 117.749 202.682H116.928V205H117.568ZM117.805 208.417C118.397 208.417 118.661 208.104 118.661 207.436V206.802C118.661 206.002 118.341 205.731 117.652 205.731H116.956V208.417H117.805Z" fill="#263238"/>
<path d="M122.74 205.139V205.835H120.979V208.396H123.143V209.127H120.178V201.951H123.143V202.647H120.979V205.104L122.74 205.139Z" fill="#263238"/>
<path d="M125.482 201.951C126.609 201.951 127.083 202.522 127.083 203.594V204.179C127.083 204.972 126.804 205.466 126.192 205.661C126.846 205.856 127.097 206.392 127.097 207.157V208.278C127.071 208.576 127.121 208.875 127.243 209.148H126.428C126.318 208.87 126.272 208.57 126.296 208.271V207.144C126.296 206.329 125.913 206.072 125.245 206.072H124.681V209.148H123.888V201.951H125.482ZM125.28 205.32C125.92 205.32 126.303 205.118 126.303 204.332V203.636C126.303 202.988 126.066 202.654 125.468 202.654H124.688V205.32H125.28Z" fill="#263238"/>
<path d="M130.577 209.134H129.804L128.614 203.406V209.148H127.918V201.951H129.038L130.222 207.693L131.356 201.951H132.477V209.148H131.718V203.357L130.577 209.134Z" fill="#263238"/>
<path d="M135.859 205.139V205.835H134.098V208.396H136.256V209.127H133.298V201.951H136.256V202.647H134.098V205.104L135.859 205.139Z" fill="#263238"/>
<path d="M157.282 226.555H86.5754C85.2954 226.555 84.2578 227.593 84.2578 228.873V239.89C84.2578 241.17 85.2954 242.208 86.5754 242.208H157.282C158.562 242.208 159.6 241.17 159.6 239.89V228.873C159.6 227.593 158.562 226.555 157.282 226.555Z" fill="#263238" stroke="#263238" stroke-miterlimit="10"/>
<path d="M159.106 141.921H81.8078V153.663H159.106V141.921Z" fill="white" stroke="#263238" stroke-miterlimit="10"/>
<path d="M159.106 178.371H81.8078V190.112H159.106V178.371Z" fill="white" stroke="#263238" stroke-miterlimit="10"/>
<path d="M89.6378 201.61H82.7892V208.459H89.6378V201.61Z" fill="white" stroke="#263238" stroke-miterlimit="10"/>
<path d="M231.907 297.832C228.698 298.314 225.431 298.26 222.24 297.672C216.755 296.705 210.958 292.035 210.958 292.035L206.287 292.355V272.059C206.287 272.059 214.368 270.605 216.922 270.744C219.477 270.883 231.907 283.154 231.907 283.154V297.832Z" fill="white" stroke="#263238" stroke-miterlimit="10"/>
<path d="M210.86 299.983H195.91L193.398 270.34H213.373L210.86 299.983Z" fill="#984AD9" stroke="#263238" stroke-miterlimit="10"/>
<path d="M212.92 265.357H194.316V266.993H212.92V265.357Z" fill="white" stroke="#263238" stroke-miterlimit="10"/>
<path d="M214.02 266.686H192.75V272.484H214.02V266.686Z" fill="white" stroke="#263238" stroke-miterlimit="10"/>
<path d="M223.2 293.162C215.795 292.355 214.987 284.302 214.987 284.302C214.987 284.302 209.35 288.172 206.928 288.172C204.506 288.172 203.865 286.397 203.385 285.158C202.905 283.919 214.18 276.569 214.18 276.569C214.18 276.569 216.268 274.481 218.05 274.481C219.832 274.481 227.39 284.789 228.845 286.564" fill="white"/>
<path d="M223.2 293.162C215.795 292.355 214.987 284.302 214.987 284.302C214.987 284.302 209.35 288.172 206.928 288.172C204.506 288.172 203.865 286.397 203.385 285.158C202.905 283.919 214.18 276.569 214.18 276.569C214.18 276.569 216.268 274.481 218.05 274.481C219.832 274.481 227.39 284.789 228.845 286.564" stroke="#263238" stroke-miterlimit="10"/>
<path d="M316.59 314.599L316.005 248.381L313.054 265.51L314.216 314.599H316.59Z" fill="#263238" stroke="#263238" stroke-miterlimit="10"/>
<path d="M311.926 314.592L312.309 278.581C312.309 278.581 317.933 267.111 318.364 261.738C318.796 256.365 321.803 243.259 319.012 237.246C316.221 231.232 318.671 210.867 318.671 210.867L316.061 201.582C314.341 197.072 297.804 186.549 291.575 184.398C285.41 182.41 278.894 181.75 272.456 182.463C266.888 183.111 263.861 186.333 263.213 187.405C262.566 188.477 259.135 198.792 255.049 204.38C250.964 209.969 247.532 214.048 244.526 218.342C241.519 222.636 239.584 231.448 237.649 236.605C235.714 241.763 232.492 264.744 230.988 276.973C229.666 287.761 230.508 309.539 230.731 314.557L311.926 314.592Z" fill="#808080" stroke="#263238" stroke-miterlimit="10"/>
<path d="M252.954 222.664C255.119 220.429 257.555 218.475 260.207 216.846C266.867 212.976 271.593 209.538 271.593 209.538L270.305 202.021L277.182 205.243C277.182 205.243 278.685 200.518 282.98 192.354C287.274 184.189 287.49 182.47 287.49 182.47" stroke="#263238" stroke-miterlimit="10"/>
<path d="M247.372 229.033C248.751 227.228 250.226 225.5 251.792 223.854" stroke="#263238" stroke-miterlimit="10"/>
<path d="M277.321 220.04L267.285 314.522H270.828L279.688 222.991L277.321 220.04Z" fill="#263238" stroke="#263238" stroke-miterlimit="10"/>
<path d="M237.816 314.592C237.621 305.822 237.002 269.491 240.016 255.94C243.454 240.468 246.461 223.068 251.611 215.767C256.761 208.466 267.299 199.223 272.881 193.85C276.433 190.267 279.267 186.038 281.233 181.392L273.528 160.56C273.528 160.56 266.652 172.163 264.48 173.019C264.48 173.019 266.631 182.686 265.127 188.275C263.624 193.864 253.741 209.754 250.734 213.623C247.727 217.493 238.512 238.728 236.577 252.933C234.872 265.461 234.67 305.356 234.649 314.599L237.816 314.592Z" fill="white" stroke="#263238" stroke-miterlimit="10"/>
<path d="M265.141 176.533L275.992 176.304L272.296 168.223L265.141 176.533Z" fill="#263238" stroke="#263238" stroke-miterlimit="10"/>
<path d="M237.816 314.592C237.621 305.822 237.002 269.491 240.016 255.94C243.454 240.468 246.461 223.068 251.611 215.767C256.761 208.466 267.299 199.223 272.881 193.85C274.678 192.097 276.279 190.153 277.655 188.052C271.524 192.228 266.652 192.367 263.735 191.825C260.506 198.826 253.233 210.394 250.727 213.616C247.72 217.486 238.484 238.749 236.55 252.926C234.844 265.454 234.643 305.349 234.622 314.592H237.816Z" fill="#984AD9" stroke="#263238" stroke-miterlimit="10"/>
<path d="M264.64 174.988C264.64 174.988 266.728 182.971 266.519 186.486C266.31 190.001 263.234 200.1 259.476 205.501C255.717 210.902 249.62 219.115 244.693 221.231C239.765 223.346 237.886 223.319 237.886 223.319C240.936 221.83 243.577 219.62 245.581 216.88C247.584 214.141 248.889 210.954 249.384 207.596C251.263 195.854 245.159 167.458 244.922 165.578C244.686 163.699 264.64 174.988 264.64 174.988Z" fill="#263238" stroke="#263238" stroke-miterlimit="10"/>
<path d="M237.642 142.478C237.642 142.478 237.176 151.77 238.109 153.391C239.041 155.013 241.589 156.175 241.589 158.959C241.589 161.743 239.264 166.859 240.426 168.481C241.589 170.102 245.765 170.109 245.765 170.109C245.765 170.109 252.029 177.306 253.664 178.935C255.3 180.563 257.611 183.111 258.773 182.651C259.935 182.192 268.76 173.13 270.848 169.643C272.936 166.156 274.099 153.851 273.173 148.512C272.247 143.174 259.253 134.342 252.036 133.896C247.423 133.663 242.802 134.133 238.331 135.288L237.642 142.478Z" fill="white" stroke="#263238" stroke-miterlimit="10"/>
<path d="M245.772 152.932L247.247 156.83L252.676 153.475" stroke="#263238" stroke-miterlimit="10"/>
<path d="M243.148 151.401C243.148 151.401 241.672 145.875 249.787 147.35" stroke="#263238" stroke-miterlimit="10"/>
<path d="M248.792 171.049C248.792 171.049 252.738 169.887 255.752 165.008" stroke="#263238" stroke-miterlimit="10"/>
<path d="M249.906 155.904C250.128 156.329 249.815 156.934 249.21 157.296C248.604 157.658 247.915 157.547 247.693 157.129C247.47 156.711 247.783 156.099 248.389 155.737C248.994 155.375 249.676 155.507 249.906 155.904Z" fill="#263238"/>
<path d="M242.751 121.341C242.751 121.341 227.655 131.085 228.831 134.349C230.007 137.613 237.656 142.478 237.656 142.478L238.352 137.37C238.352 137.37 246.252 141.316 253.664 144.107L261.097 146.891C262.197 148.11 263.359 149.271 264.577 150.371C265.51 151.067 268.753 151.067 268.753 151.067C268.753 151.067 269.916 175.914 274.321 181.726C278.727 187.537 291.506 192.862 300.073 196.585C308.641 200.309 312.448 200.594 314.773 203.844C317.098 207.095 318.072 217.437 318.072 217.437C318.072 217.437 332.117 202.933 312.226 168.488C297.798 143.501 299.454 140.648 294.575 132.261C289.696 123.874 277.871 111.59 266.241 110.685C254.611 109.78 242.751 121.341 242.751 121.341Z" fill="#263238" stroke="#263238" stroke-miterlimit="10"/>
<path d="M298.18 180.375C299.785 181.237 301.44 182.001 303.136 182.665" stroke="#787878" stroke-miterlimit="10"/>
<path d="M261.926 119.865C269.242 126.048 273.998 134.731 275.268 144.225C276.82 156.635 282.047 169.044 293.086 177.188" stroke="#787878" stroke-miterlimit="10"/>
<path d="M255.369 132.066C258.311 132.958 261.163 134.123 263.888 135.546" stroke="#787878" stroke-miterlimit="10"/>
<path d="M234.844 135.17C234.844 135.17 230.919 133.604 235.241 130.465C237.795 128.6 244.63 129.226 251.409 130.938" stroke="#787878" stroke-miterlimit="10"/>
<path d="M268.767 148.979C268.767 148.979 266.909 133.423 262.503 127.403" stroke="#787878" stroke-miterlimit="10"/>
<path d="M188.887 252.509L172.246 239.786C172.112 239.684 172.012 239.545 171.957 239.386C171.903 239.226 171.897 239.055 171.94 238.892C171.983 238.73 172.074 238.584 172.2 238.473C172.327 238.362 172.483 238.291 172.65 238.269L181.392 237.085C181.995 237.002 182.608 237.042 183.196 237.202C183.783 237.362 184.332 237.64 184.809 238.018L201.777 251.43L188.887 252.509Z" fill="#263238" stroke="#263238" stroke-miterlimit="10"/>
<path d="M222.616 253.344C222.616 253.344 218.746 249.906 217.458 247.978C216.724 246.998 215.735 246.238 214.598 245.783C213.461 245.327 212.221 245.193 211.013 245.396C208.647 245.827 203.281 244.54 202.418 245.611C201.555 246.683 201.562 249.481 201.562 249.481C201.562 249.481 188.24 250.337 187.168 250.122C186.096 249.906 185.233 251.625 186.09 253.128C186.946 254.632 193.189 256.302 193.189 256.302C193.185 257.508 193.459 258.699 193.989 259.782C194.908 261.647 196.432 264.543 197.692 265.795C199.627 267.73 203.705 268.579 208.007 269.449C212.308 270.319 219.177 269.234 219.177 269.234L222.616 253.344Z" fill="white" stroke="#263238" stroke-miterlimit="10"/>
<path d="M201.562 249.502L211.654 248.855" stroke="#263238" stroke-miterlimit="10"/>
<path d="M193.189 256.323C195.551 256.194 197.919 256.273 200.267 256.56C203.1 257.026 205.459 257.499 207.109 257.026" stroke="#263238" stroke-miterlimit="10"/>
<path d="M193.989 259.81C196.032 260.173 198.049 260.663 200.03 261.278C201.917 261.974 204.986 263.867 208.048 262.928" stroke="#263238" stroke-miterlimit="10"/>
<path d="M196.968 264.577C196.968 264.577 202.16 266.937 206.169 266.7" stroke="#263238" stroke-miterlimit="10"/>
<path d="M313.701 211.257C313.701 211.257 314.592 221.328 314.592 228.664C314.592 236 313.736 250.79 308.794 260.882C303.853 270.974 305.14 278.073 300.199 288.172C295.257 298.271 291.847 298.48 277.641 297.22C263.436 295.96 247.351 290.559 246.495 290.559C245.639 290.559 232.923 288.144 226.896 285.158C222.804 283.053 218.852 280.687 215.064 278.073C215.253 276.303 215.687 274.567 216.352 272.916C217.43 270.34 220.869 251.646 220.869 251.646C224.824 253.979 228.996 255.923 233.327 257.45C237.125 258.647 241.002 259.577 244.929 260.234C244.929 260.234 249.008 257.659 250.296 257.228C251.583 256.796 254.165 259.803 257.819 260.666C261.163 261.436 264.549 262.013 267.96 262.392C268.823 262.392 277.6 261.348 277.008 261.529C276.222 261.766 275.491 260.137 275.72 258.745C276.44 256.512 277.372 254.354 278.504 252.3C279.145 251.437 279.145 248.214 279.145 246.071C279.145 243.927 276.138 221.363 277.641 215.134C279.145 208.904 288.144 196.008 288.144 196.008C288.144 196.008 288.541 194.066 293.301 194.073C298.062 194.08 305.76 199.23 308.982 202.021" fill="#808080"/>
<path d="M313.701 211.257C313.701 211.257 314.592 221.328 314.592 228.664C314.592 236 313.736 250.79 308.794 260.882C303.853 270.974 305.14 278.073 300.199 288.172C295.257 298.271 291.847 298.48 277.641 297.22C263.436 295.96 247.351 290.559 246.495 290.559C245.639 290.559 232.923 288.144 226.896 285.158C222.804 283.053 218.852 280.687 215.064 278.073C215.253 276.303 215.687 274.567 216.352 272.916C217.43 270.34 220.869 251.646 220.869 251.646C224.824 253.979 228.996 255.923 233.327 257.45C237.125 258.647 241.002 259.577 244.929 260.234C244.929 260.234 249.008 257.659 250.296 257.228C251.583 256.796 254.165 259.803 257.819 260.666C261.163 261.436 264.549 262.013 267.96 262.392C268.823 262.392 277.6 261.348 277.008 261.529C276.222 261.766 275.491 260.137 275.72 258.745C276.44 256.512 277.372 254.354 278.504 252.3C279.145 251.437 279.145 248.214 279.145 246.071C279.145 243.927 276.138 221.363 277.641 215.134C279.145 208.904 288.144 196.008 288.144 196.008C288.144 196.008 288.541 194.066 293.301 194.073C298.062 194.08 305.76 199.23 308.982 202.021" stroke="#263238" stroke-miterlimit="10"/>
<path d="M308.488 223.465C306.794 221.694 304.779 220.26 302.551 219.24C299.915 218.13 296.976 217.968 294.234 218.781" stroke="#263238" stroke-miterlimit="10"/>
<path d="M311.321 226.645C311.321 226.645 310.68 225.789 309.623 224.641" stroke="#263238" stroke-miterlimit="10"/>
<path d="M220.555 275.727C220.555 275.975 220.482 276.217 220.344 276.423C220.207 276.629 220.011 276.79 219.782 276.885C219.553 276.98 219.301 277.004 219.058 276.956C218.815 276.908 218.592 276.788 218.417 276.613C218.242 276.438 218.122 276.215 218.074 275.972C218.026 275.729 218.05 275.477 218.145 275.248C218.24 275.019 218.401 274.823 218.607 274.686C218.813 274.548 219.055 274.474 219.303 274.474C219.634 274.476 219.952 274.609 220.187 274.843C220.421 275.078 220.554 275.396 220.555 275.727Z" stroke="#263238" stroke-miterlimit="10"/>
<path d="M285.91 269.881C286.714 270.761 287.602 271.561 288.562 272.268" stroke="#263238" stroke-miterlimit="10"/>
<path d="M277.391 260.457C277.391 260.457 281.212 264.911 284.476 268.378" stroke="#263238" stroke-miterlimit="10"/>
<path d="M263.088 272.296C263.781 273.333 264.532 274.329 265.336 275.282" stroke="#263238" stroke-miterlimit="10"/>
<path d="M256.344 261.097C256.344 261.097 259.093 266.095 261.856 270.396" stroke="#263238" stroke-miterlimit="10"/>
<path d="M227.996 273.57C227.112 277.746 226.123 281.462 225.212 283.014" stroke="#263238" stroke-miterlimit="10"/>
<path d="M230.773 257.666C230.773 257.666 229.91 263.735 228.685 270.027" stroke="#263238" stroke-miterlimit="10"/>
<path d="M64.032 314.599H15.312" stroke="#263238" stroke-miterlimit="10"/>
<path d="M356 315H71" stroke="#263238" stroke-miterlimit="10"/>
</g>
<defs>
<clipPath id="clip0_68_6211">
<rect width="348" height="348" fill="white"/>
</clipPath>
</defs>
</svg>
