<svg width="105" height="105" viewBox="0 0 105 105" fill="none" xmlns="http://www.w3.org/2000/svg">
<path d="M78.75 78.75C93.2475 64.2525 93.2475 40.7475 78.75 26.25C64.2525 11.7525 40.7475 11.7525 26.25 26.25C11.7525 40.7475 11.7525 64.2525 26.25 78.75C40.7475 93.2475 64.2525 93.2475 78.75 78.75Z" fill="#EEDBFF"/>
<mask id="mask0_50_3737" style="mask-type:luminance" maskUnits="userSpaceOnUse" x="15" y="15" width="75" height="75">
<path d="M78.75 78.75C93.2475 64.2525 93.2475 40.7475 78.75 26.25C64.2525 11.7525 40.7475 11.7525 26.25 26.25C11.7525 40.7475 11.7525 64.2525 26.25 78.75C40.7475 93.2475 64.2525 93.2475 78.75 78.75Z" fill="white"/>
</mask>
<g mask="url(#mask0_50_3737)">
</g>
<path d="M82 74.0995C78.8858 78.7489 74.6955 82.5782 69.7851 85.2621C64.8747 87.9461 59.3891 89.4054 53.7942 89.5162C48.1993 89.6271 42.6602 88.3861 37.6473 85.8987C32.6345 83.4114 28.2959 79.7511 25 75.2286C25.2053 74.8822 25.4106 74.5358 25.6415 74.1957C26.9246 72.0723 34.7769 68.7107 45.8818 67.5046C48.3875 67.2288 50.9055 67.079 53.4262 67.0555C56.156 67.0297 58.8845 67.1883 61.5929 67.5302C71.2415 68.7363 79.2671 71.9311 82 74.0995Z" fill="black" stroke="#263238" stroke-linecap="round" stroke-linejoin="round"/>
<path d="M62.4012 68.3515C61.5345 69.8851 60.2702 71.1564 58.7414 72.0314C57.2127 72.9064 55.4761 73.3528 53.7149 73.3234C48.5826 73.3234 44.8682 68.884 44.8682 68.884C46.6644 67.2737 46.7928 64.2842 46.5105 61.9298C46.3938 60.776 46.1792 59.6342 45.869 58.5168H61.1759C60.2457 61.5769 60.2777 63.771 60.637 65.2978C61.1438 67.5496 62.4012 68.3515 62.4012 68.3515Z" fill="white" stroke="#263238" stroke-linecap="round" stroke-linejoin="round"/>
<path d="M60.8485 65.656C49.7885 68.5558 47.5945 62.2367 47.5945 62.2367L46.7541 62.288C46.6374 61.1342 46.4228 59.9925 46.1125 58.8751H61.4195C60.4572 61.9352 60.4893 64.1292 60.8485 65.656Z" fill="#263238"/>
<path d="M64.7167 48.1294C64.7167 48.1294 65.9485 46.7886 66.5579 47.2312C66.9664 47.5653 67.2747 48.0056 67.449 48.5036C67.6233 49.0016 67.6569 49.5381 67.5459 50.054C67.2187 51.1959 65.7881 53.1782 65.6726 54.333C65.5571 55.4877 64.8258 56.7964 64.0111 56.033C63.1963 55.2696 64.7167 48.1294 64.7167 48.1294Z" fill="white" stroke="#263238" stroke-linecap="round" stroke-linejoin="round"/>
<path d="M42.7512 48.1294C42.7512 48.1294 41.5194 46.7886 40.91 47.2312C40.5016 47.5653 40.1932 48.0056 40.0189 48.5036C39.8446 49.0016 39.8111 49.5381 39.922 50.054C40.2492 51.1959 41.6798 53.1782 41.7953 54.333C41.9108 55.4877 42.6421 56.7964 43.4569 56.033C44.2716 55.2696 42.7512 48.1294 42.7512 48.1294Z" fill="white" stroke="#263238" stroke-linecap="round" stroke-linejoin="round"/>
<path d="M53.471 32.6622C68.9768 32.6622 65.288 53.3067 62.4524 59.9337C61.4516 62.2625 56.2552 65.3161 53.7468 65.3161C51.4117 65.3161 46.0485 61.6658 45.1247 59.4782C42.225 52.8063 38.7158 32.6622 53.471 32.6622Z" fill="white" stroke="#263238" stroke-linecap="round" stroke-linejoin="round"/>
<path d="M56.1013 45.3965C56.1013 45.3965 60.1365 44.1455 61.3875 46.6411" stroke="#263238" stroke-linecap="round" stroke-linejoin="round"/>
<path d="M59.0908 48.7902C59.0908 49.2649 58.847 49.6498 58.5519 49.6498C58.2568 49.6498 58.0066 49.2649 58.0066 48.7902C58.0066 48.3155 58.2504 47.9305 58.5519 47.9305C58.8534 47.9305 59.0908 48.3155 59.0908 48.7902Z" fill="#263238"/>
<path d="M51.3663 45.3965C51.3663 45.3965 47.3311 44.1455 46.0801 46.6411" stroke="#263238" stroke-linecap="round" stroke-linejoin="round"/>
<path d="M48.3774 48.7902C48.3774 49.2649 48.6212 49.6498 48.9163 49.6498C49.2114 49.6498 49.4616 49.2649 49.4616 48.7902C49.4616 48.3155 49.2178 47.9305 48.9163 47.9305C48.6148 47.9305 48.3774 48.3155 48.3774 48.7902Z" fill="#263238"/>
<path d="M59.8863 37.9291C56.0012 39.1699 51.8261 39.1699 47.941 37.9291C47.941 37.9291 45.8432 37.8072 45.022 38.8593C44.2009 39.9114 45.022 43.1576 45.2402 44.4791C45.4583 45.8007 43.4246 46.7181 43.7005 50.054L42.9114 51.2088C42.9114 51.2088 40.7238 45.8327 41.2755 41.2137C41.8272 36.5947 44.7462 34.7984 44.7462 34.7984C44.7462 34.7984 46.0741 30.8017 53.8752 30.8337C62.2856 30.8658 63.1324 35.4143 63.1324 35.4143C63.1324 35.4143 68.8292 39.2186 64.6144 51.6001L63.7034 50.0604C63.9207 48.4181 63.5429 46.7523 62.6385 45.3644C61.9007 44.2931 63.0747 41.0726 62.7989 39.4174C62.523 37.7623 59.8863 37.9291 59.8863 37.9291Z" fill="#263238"/>
<path d="M54.6575 47.9305C54.6575 47.9305 54.7024 51.7027 55.6904 52.9281C56.1972 53.5696 55.2092 54.9168 53.6824 55.1606" stroke="#263238" stroke-linecap="round" stroke-linejoin="round"/>
<path d="M50.3403 57.3483C50.4472 57.737 50.6298 58.1009 50.8774 58.419C51.1251 58.7372 51.4331 59.0033 51.7838 59.2023C52.8423 59.6578 56.0628 59.4653 56.6722 59.0868C57.2817 58.7083 57.5832 57.4702 57.5832 57.4702" fill="white"/>
<path d="M50.3403 57.3483C50.4472 57.737 50.6298 58.1009 50.8774 58.419C51.1251 58.7372 51.4331 59.0033 51.7838 59.2023C52.8423 59.6578 56.0628 59.4653 56.6722 59.0868C57.2817 58.7083 57.5832 57.4702 57.5832 57.4702" stroke="#263238" stroke-linecap="round" stroke-linejoin="round"/>
<path d="M61.3871 38.0894C61.3871 38.0894 59.655 40.6555 53.9582 41.2137C54.3928 40.8097 54.7362 40.3176 54.9654 39.7702C54.1038 40.4012 53.1249 40.8539 52.0861 41.1018C51.0473 41.3496 49.9695 41.3877 48.9158 41.2137C47.8315 41.0668 46.7277 41.207 45.7146 41.6201C44.7015 42.0333 43.8144 42.7049 43.142 43.5681L42.1797 47.9305C42.1797 47.9305 38.7732 44.0813 41.1982 37.897L40.3257 38.6219C40.3257 38.6219 41.2944 30.3525 51.2317 30.051L50.0256 29.3261C50.0256 29.3261 59.9244 27.2155 63.7993 33.7334C63.7993 33.7334 67.2443 34.375 68.0911 40.3348L67.1224 39.6932C67.1224 39.6932 68.6557 44.6394 65.4737 48.7773C65.448 48.7901 61.3871 42.2401 61.3871 38.0894Z" fill="#263238"/>
</svg>
