<svg width="81" height="80" viewBox="0 0 81 80" fill="none" xmlns="http://www.w3.org/2000/svg">
<path d="M3.95919 28.1504C3.95919 28.1504 7.03919 15.1328 19.1768 8.79999C31.3144 2.46719 45.7896 5.16159 57.5768 7.02399C69.364 8.88639 76.8616 17.904 76.06 28.7216C75.2584 39.5392 65.7528 40.5616 58.4952 51.408C51.2376 62.2544 50.8616 66.288 39.1704 71.2736C27.4792 76.2592 12.4648 68.056 6.69039 53.5136C0.915989 38.9712 3.95919 28.1504 3.95919 28.1504Z" fill="#EEDBFF" fill-opacity="0.2"/>
<path d="M46.7774 11.551H36.8778L36.467 12.3138C36.2445 12.7136 35.9192 13.0467 35.5248 13.2786C35.1303 13.5106 34.6811 13.6329 34.2235 13.6329C33.7659 13.6329 33.3166 13.5106 32.9222 13.2786C32.5277 13.0467 32.2024 12.7136 31.98 12.3138L31.5677 11.551H21.6654C21.1646 11.5442 20.6818 11.7366 20.3228 12.0858C19.9639 12.435 19.7584 12.9124 19.7513 13.4131V64.3901C19.7546 64.6382 19.8068 64.8832 19.9047 65.1111C20.0027 65.339 20.1446 65.5453 20.3223 65.7184C20.5001 65.8914 20.7102 66.0278 20.9406 66.1196C21.171 66.2115 21.4173 66.257 21.6654 66.2537H46.7774C47.2781 66.26 47.7608 66.0673 48.1195 65.7179C48.4781 65.3684 48.6833 64.8908 48.69 64.3901V13.4131C48.683 12.9126 48.4776 12.4354 48.119 12.0863C47.7604 11.7371 47.2779 11.5446 46.7774 11.551Z" fill="white" stroke="white" stroke-linecap="round" stroke-linejoin="round"/>
<path d="M46.6989 13.4355H44.7036C44.6884 13.4355 44.6737 13.4294 44.663 13.4187C44.6522 13.4079 44.6461 13.3933 44.6461 13.378V12.2829C44.6461 12.2676 44.6522 12.253 44.663 12.2422C44.6737 12.2315 44.6884 12.2254 44.7036 12.2254H46.6989C46.7142 12.2254 46.7288 12.2315 46.7396 12.2422C46.7504 12.253 46.7564 12.2676 46.7564 12.2829V13.378C46.7564 13.3933 46.7504 13.4079 46.7396 13.4187C46.7288 13.4294 46.7142 13.4355 46.6989 13.4355ZM44.7611 13.3205H46.6415V12.339H44.7611V13.3205Z" fill="#263238"/>
<path d="M46.2599 12.2829H44.7035V13.378H46.2599V12.2829Z" fill="#263238"/>
<path d="M46.26 13.4285H44.7036C44.6902 13.4285 44.6773 13.4232 44.6679 13.4137C44.6584 13.4042 44.6531 13.3914 44.6531 13.378V12.2829C44.6531 12.2695 44.6584 12.2567 44.6679 12.2472C44.6773 12.2377 44.6902 12.2324 44.7036 12.2324H46.26C46.2666 12.2324 46.2732 12.2337 46.2793 12.2363C46.2854 12.2388 46.291 12.2425 46.2957 12.2472C46.3004 12.2519 46.3041 12.2575 46.3066 12.2636C46.3092 12.2697 46.3105 12.2763 46.3105 12.2829V13.378C46.3105 13.3847 46.3092 13.3912 46.3066 13.3973C46.3041 13.4035 46.3004 13.409 46.2957 13.4137C46.291 13.4184 46.2854 13.4221 46.2793 13.4247C46.2732 13.4272 46.2666 13.4285 46.26 13.4285ZM44.754 13.3275H46.2095V12.3348H44.754V13.3275Z" fill="#263238"/>
<path d="M46.9765 12.59H46.6947V13.0724H46.9765V12.59Z" fill="#263238"/>
<path d="M46.9765 13.1229H46.6961C46.6827 13.1229 46.6699 13.1175 46.6604 13.1081C46.6509 13.0986 46.6456 13.0858 46.6456 13.0724V12.59C46.6456 12.5766 46.6509 12.5638 46.6604 12.5543C46.6699 12.5449 46.6827 12.5396 46.6961 12.5396H46.9765C46.9899 12.5396 47.0028 12.5449 47.0122 12.5543C47.0217 12.5638 47.027 12.5766 47.027 12.59V13.0724C47.027 13.0858 47.0217 13.0986 47.0122 13.1081C47.0028 13.1175 46.9899 13.1229 46.9765 13.1229ZM46.7508 13.0205H46.9317V12.6405H46.7508V13.0205Z" fill="#263238"/>
<path d="M21.7662 12.6237H21.4003V13.2504H21.7662V12.6237Z" fill="#263238"/>
<path d="M21.7663 13.3093H21.4003C21.384 13.3093 21.3683 13.3028 21.3567 13.2913C21.3451 13.2797 21.3386 13.264 21.3386 13.2476V12.6236C21.3386 12.6072 21.3451 12.5913 21.3566 12.5795C21.3681 12.5677 21.3838 12.5609 21.4003 12.5605H21.7663C21.7828 12.5609 21.7985 12.5677 21.81 12.5795C21.8215 12.5913 21.828 12.6072 21.828 12.6236V13.2504C21.8273 13.2663 21.8205 13.2813 21.809 13.2923C21.7975 13.3032 21.7822 13.3093 21.7663 13.3093ZM21.462 13.1859H21.7046V12.6853H21.462V13.1859Z" fill="#263238"/>
<path d="M22.3412 12.4021H21.9752V13.2504H22.3412V12.4021Z" fill="#263238"/>
<path d="M22.3412 13.3093H21.9753C21.9589 13.3093 21.9432 13.3028 21.9316 13.2912C21.9201 13.2797 21.9136 13.264 21.9136 13.2476V12.4063C21.9136 12.3899 21.9201 12.3742 21.9316 12.3627C21.9432 12.3511 21.9589 12.3446 21.9753 12.3446H22.3412C22.3576 12.3446 22.3733 12.3511 22.3849 12.3627C22.3964 12.3742 22.4029 12.3899 22.4029 12.4063V13.2476C22.4029 13.264 22.3964 13.2797 22.3849 13.2912C22.3733 13.3028 22.3576 13.3093 22.3412 13.3093ZM22.037 13.1859H22.2795V12.468H22.037V13.1859Z" fill="#263238"/>
<path d="M22.9161 12.1427H22.5502V13.2504H22.9161V12.1427Z" fill="#263238"/>
<path d="M22.9133 13.3093H22.5473C22.5309 13.3093 22.5152 13.3028 22.5037 13.2912C22.4921 13.2797 22.4856 13.264 22.4856 13.2476V12.1399C22.4856 12.1235 22.4921 12.1078 22.5037 12.0963C22.5152 12.0847 22.5309 12.0782 22.5473 12.0782H22.9133C22.9296 12.0782 22.9453 12.0847 22.9569 12.0963C22.9685 12.1078 22.975 12.1235 22.975 12.1399V13.2476C22.975 13.264 22.9685 13.2797 22.9569 13.2912C22.9453 13.3028 22.9296 13.3093 22.9133 13.3093ZM22.609 13.1859H22.8516V12.2044H22.609V13.1859Z" fill="#263238"/>
<path d="M43.3672 13.357C43.3675 13.3308 43.36 13.3052 43.3457 13.2834C43.3314 13.2615 43.3109 13.2444 43.2869 13.2342C43.2628 13.224 43.2363 13.2212 43.2106 13.2261C43.1849 13.231 43.1613 13.2435 43.1427 13.2619C43.1242 13.2802 43.1115 13.3037 43.1063 13.3293C43.1011 13.3549 43.1036 13.3815 43.1135 13.4057C43.1235 13.4298 43.1404 13.4505 43.1621 13.4651C43.1838 13.4796 43.2093 13.4874 43.2354 13.4874C43.2702 13.4874 43.3035 13.4737 43.3281 13.4493C43.3528 13.4248 43.3669 13.3917 43.3672 13.357Z" fill="#263238"/>
<path d="M42.5357 12.6938C42.6227 12.6011 42.7272 12.5267 42.8431 12.4747C42.9591 12.4228 43.0842 12.3943 43.2112 12.3911C43.3383 12.3878 43.4647 12.4098 43.5831 12.4557C43.7016 12.5017 43.8098 12.5707 43.9014 12.6587L43.9729 12.583C43.8715 12.4854 43.7517 12.4089 43.6205 12.358C43.4893 12.307 43.3493 12.2826 43.2085 12.2861C43.0678 12.2896 42.9292 12.321 42.8007 12.3785C42.6722 12.4359 42.5564 12.5183 42.46 12.6208L42.5357 12.6938Z" fill="#263238"/>
<path d="M42.6746 12.8241L42.7503 12.8971C42.8105 12.8328 42.8829 12.7811 42.9633 12.7451C43.0437 12.709 43.1305 12.6893 43.2185 12.6871C43.3066 12.6849 43.3942 12.7002 43.4763 12.7321C43.5584 12.7641 43.6334 12.8121 43.6968 12.8732L43.7697 12.7975C43.6963 12.7268 43.6097 12.6713 43.5147 12.6343C43.4198 12.5973 43.3184 12.5795 43.2166 12.582C43.1147 12.5845 43.0143 12.6072 42.9213 12.6487C42.8282 12.6903 42.7444 12.7499 42.6746 12.8241Z" fill="#263238"/>
<path d="M42.9115 13.0499L42.9886 13.1228C43.0192 13.0899 43.0561 13.0635 43.097 13.045C43.138 13.0265 43.1822 13.0164 43.2271 13.0152C43.2721 13.014 43.3168 13.0218 43.3586 13.0381C43.4005 13.0544 43.4387 13.0789 43.471 13.1102L43.5425 13.0345C43.4603 12.9545 43.3501 12.9097 43.2354 12.9097C43.1747 12.9099 43.1148 12.9225 43.0591 12.9466C43.0034 12.9707 42.9532 13.0058 42.9115 13.0499Z" fill="#263238"/>
<path d="M24.4333 17.5552L24.3786 17.8357H24.2384L24.509 16.4208H24.7362L25.0068 17.8357H24.8498L24.7951 17.5552H24.4333ZM24.4529 17.415H24.7684L24.6086 16.5975L24.4529 17.415Z" fill="#263238"/>
<path d="M25.1273 17.8399V16.425H25.2844V17.6968H25.6882V17.8371L25.1273 17.8399Z" fill="#263238"/>
<path d="M25.8088 17.8399V16.425H25.9659V17.6968H26.3711V17.8371L25.8088 17.8399Z" fill="#263238"/>
<path d="M26.9432 17.8399H26.803V16.425H27.0035L27.3302 17.4487V16.425H27.4704V17.8399H27.3064L26.9446 16.6957L26.9432 17.8399Z" fill="#263238"/>
<path d="M27.6191 16.7671C27.6191 16.5512 27.7257 16.4109 27.943 16.4109C28.1604 16.4109 28.2684 16.5512 28.2684 16.7671V17.4991C28.2684 17.7136 28.1604 17.8552 27.943 17.8552C27.7257 17.8552 27.6191 17.715 27.6191 17.4991V16.7671ZM27.7748 17.5075C27.7748 17.6365 27.8295 17.7108 27.943 17.7108C28.0566 17.7108 28.1099 17.6365 28.1099 17.5075V16.7587C28.1099 16.6311 28.058 16.554 27.943 16.554C27.8281 16.554 27.7748 16.6311 27.7748 16.7587V17.5075Z" fill="#263238"/>
<path d="M28.6245 17.8399V16.5695H28.3636V16.4293H29.0423V16.5695H28.7815V17.8399H28.6245Z" fill="#263238"/>
<path d="M29.6551 17.0518V17.1921H29.3101V17.6954H29.7308V17.8357H29.1475V16.425H29.7308V16.5653H29.3101V17.0476L29.6551 17.0518Z" fill="#263238"/>
<path d="M30.4937 16.7644V16.8036H30.345V16.7574C30.345 16.6298 30.2959 16.554 30.1824 16.554C30.0688 16.554 30.0211 16.6298 30.0211 16.7546C30.0211 17.0729 30.4965 17.1023 30.4965 17.5005C30.4965 17.7151 30.3927 17.8553 30.1768 17.8553C29.9608 17.8553 29.8599 17.7151 29.8599 17.5005V17.4206H30.0071V17.516C30.0071 17.6436 30.059 17.7179 30.1726 17.7179C30.2861 17.7179 30.345 17.6365 30.345 17.516C30.345 17.2005 29.8711 17.1696 29.8711 16.7714C29.8711 16.554 29.972 16.418 30.1852 16.418C30.3983 16.418 30.4937 16.5512 30.4937 16.7644Z" fill="#263238"/>
<path d="M22.9834 25.3262V25.4468H22.7099V25.9614H22.5781V24.7723H23.0535V24.8929H22.7141V25.3262H22.9834Z" fill="#263238"/>
<path d="M23.2877 24.7723V25.9614H23.1559V24.7723H23.2877Z" fill="#263238"/>
<path d="M23.5415 25.9614H23.4224V24.7723H23.5906L23.8711 25.6319V24.7723H23.9889V25.9614H23.8486L23.5444 24.9995L23.5415 25.9614Z" fill="#263238"/>
<path d="M24.2511 24.7723V25.9614H24.1193V24.7723H24.2511Z" fill="#263238"/>
<path d="M24.903 25.057V25.0878H24.7768V25.0486C24.7768 24.942 24.7361 24.8789 24.6366 24.8789C24.537 24.8789 24.4964 24.942 24.4964 25.0472C24.4964 25.3136 24.896 25.3402 24.896 25.6739C24.896 25.8548 24.8091 25.9712 24.6268 25.9712C24.4445 25.9712 24.3604 25.8548 24.3604 25.6739V25.6066H24.4851V25.681C24.4851 25.7875 24.5286 25.8506 24.6254 25.8506C24.7221 25.8506 24.7656 25.7875 24.7656 25.681C24.7656 25.4159 24.3688 25.3907 24.3688 25.0556C24.3688 24.8719 24.4529 24.7583 24.6324 24.7583C24.8119 24.7583 24.903 24.8775 24.903 25.057Z" fill="#263238"/>
<path d="M25.1568 25.4258V25.9614H25.0166V24.7723H25.1568V25.3066H25.4485V24.7723H25.5775V25.9614H25.4443V25.4258H25.1568Z" fill="#263238"/>
<path d="M26.1495 25.9614V24.8929H25.9308V24.7723H26.5015V24.8929H26.2785V25.9614H26.1495Z" fill="#263238"/>
<path d="M26.7259 25.4258V25.9614H26.5941V24.7723H26.7259V25.3066H27.019V24.7723H27.1508V25.9614H27.019V25.4258H26.7259Z" fill="#263238"/>
<path d="M27.7102 25.2982V25.4174H27.42V25.838H27.7761V25.9586H27.2867V24.7695H27.7761V24.8901H27.42V25.2954L27.7102 25.2982Z" fill="#263238"/>
<path d="M28.4267 24.7723C28.6146 24.7723 28.6917 24.8677 28.6917 25.0444V25.1411C28.6917 25.2715 28.6468 25.3529 28.5515 25.3851C28.6595 25.4174 28.7001 25.5057 28.7001 25.6333V25.8184C28.6972 25.8663 28.7053 25.9143 28.724 25.9586H28.5908C28.5724 25.9143 28.5647 25.8662 28.5683 25.8184V25.6319C28.5683 25.4917 28.5052 25.4552 28.3945 25.4552H28.3019V25.9628H28.1687V24.7737L28.4267 24.7723ZM28.3931 25.3332C28.4982 25.3332 28.5613 25.2982 28.5613 25.1692V25.0556C28.5613 24.949 28.5221 24.8929 28.4211 24.8929H28.2921V25.3332H28.3931Z" fill="#263238"/>
<path d="M29.2541 25.2982V25.4174H28.9638V25.838H29.3214V25.9586H28.832V24.7695H29.3214V24.8901H28.9638V25.2954L29.2541 25.2982Z" fill="#263238"/>
<path d="M29.7028 24.7723C29.8907 24.7723 29.9706 24.8817 29.9706 25.0626V25.2028C29.976 25.2409 29.9724 25.2797 29.9602 25.3162C29.948 25.3527 29.9275 25.3858 29.9003 25.413C29.8731 25.4402 29.84 25.4607 29.8035 25.4729C29.767 25.4851 29.7282 25.4886 29.6901 25.4832H29.5738V25.953H29.4406V24.7639L29.7028 24.7723ZM29.693 25.3739C29.7925 25.3739 29.8332 25.3276 29.8332 25.214V25.0556C29.8332 24.9476 29.7953 24.8929 29.693 24.8929H29.5668V25.3683L29.693 25.3739Z" fill="#263238"/>
<path d="M30.0646 25.0584C30.0646 24.8775 30.1543 24.7597 30.3366 24.7597C30.5189 24.7597 30.61 24.8775 30.61 25.0584V25.6739C30.6157 25.7123 30.6128 25.7515 30.6014 25.7886C30.5901 25.8257 30.5706 25.8598 30.5444 25.8884C30.5182 25.917 30.486 25.9394 30.45 25.954C30.4141 25.9685 30.3753 25.9749 30.3366 25.9726C30.1543 25.9726 30.0646 25.8534 30.0646 25.6739V25.0584ZM30.195 25.681C30.195 25.7889 30.2413 25.852 30.3352 25.852C30.4291 25.852 30.4754 25.7889 30.4754 25.681V25.0528C30.4754 24.9448 30.4305 24.8803 30.3352 24.8803C30.2398 24.8803 30.195 24.9448 30.195 25.0528V25.681Z" fill="#263238"/>
<path d="M31.0054 24.7723C31.1919 24.7723 31.2704 24.8677 31.2704 25.0444V25.1411C31.2784 25.1928 31.2678 25.2456 31.2406 25.2903C31.2134 25.3349 31.1713 25.3685 31.1218 25.3851C31.2311 25.4174 31.2718 25.5057 31.2718 25.6333V25.8184C31.2681 25.8664 31.2763 25.9145 31.2956 25.9586H31.1554C31.1377 25.9141 31.1306 25.8661 31.1344 25.8184V25.6319C31.1344 25.4917 31.0713 25.4552 30.9605 25.4552H30.8665V25.9628H30.7347V24.7737L31.0054 24.7723ZM30.9717 25.3332C31.0769 25.3332 31.14 25.2982 31.14 25.1692V25.0556C31.14 24.949 31.1007 24.8929 30.9998 24.8929H30.8708V25.3332H30.9717Z" fill="#263238"/>
<path d="M31.5831 25.9614V24.8929H31.3644V24.7723H31.9351V24.8929H31.7149V25.9614H31.5831Z" fill="#263238"/>
<path d="M22.5319 27.4463H22.5739C22.6286 27.4463 22.6623 27.4169 22.6623 27.3397V26.7704H22.745V27.3313C22.745 27.4715 22.6749 27.5178 22.5837 27.5192H22.5319V27.4463Z" fill="#B2B2B2"/>
<path d="M22.9133 27.3454C22.9133 27.4127 22.9399 27.4533 23.0016 27.4533C23.0633 27.4533 23.0886 27.4127 23.0886 27.3454V26.7704H23.1685V27.3439C23.1685 27.4575 23.1152 27.5346 22.9988 27.5346C22.8824 27.5346 22.8306 27.4575 22.8306 27.3439V26.7704H22.9133V27.3454Z" fill="#B2B2B2"/>
<path d="M23.2456 27.5234V26.7704H23.3297V27.4491H23.5457V27.5262L23.2456 27.5234Z" fill="#B2B2B2"/>
<path d="M23.6761 27.2528L23.5162 26.7704H23.6032L23.721 27.142L23.8401 26.7704H23.9201L23.7546 27.2528V27.5234H23.6719L23.6761 27.2528Z" fill="#B2B2B2"/>
<path d="M24.4557 27.3706V27.5234H24.3744V27.3706H24.1304V27.2935L24.3645 26.7676H24.4557V27.2935H24.516V27.3706H24.4557ZM24.2075 27.2935H24.3744V26.9247L24.2075 27.2935Z" fill="#B2B2B2"/>
<path d="M22.8305 33.1238H22.7506L22.6328 32.5195V33.1224H22.5585V32.3666H22.6763L22.8011 32.9696L22.9202 32.3666H23.038V33.1224H22.9581V32.5195L22.8305 33.1238Z" fill="#B2B2B2"/>
<path d="M23.2021 32.9724L23.1727 33.1252H23.0956L23.2358 32.3694H23.3578L23.498 33.1252H23.4139L23.3844 32.9724H23.2021ZM23.2134 32.9009H23.3816L23.2961 32.4648L23.2134 32.9009Z" fill="#B2B2B2"/>
<path d="M23.7407 32.3694C23.8598 32.3694 23.9089 32.4297 23.9089 32.5419V32.6036C23.9143 32.6365 23.9078 32.6702 23.8906 32.6987C23.8734 32.7272 23.8466 32.7487 23.815 32.7593C23.8837 32.7789 23.9103 32.835 23.9103 32.9163V33.0341C23.9082 33.0651 23.913 33.0963 23.9243 33.1252H23.8402C23.8284 33.0959 23.8236 33.0642 23.8262 33.0327V32.9149C23.8262 32.8294 23.7855 32.8027 23.7154 32.8027H23.6565V33.1252H23.5724V32.3694H23.7407ZM23.7196 32.7256C23.7855 32.7256 23.8262 32.7046 23.8262 32.6218V32.5503C23.8262 32.4816 23.8009 32.4466 23.7378 32.4466H23.6565V32.727L23.7196 32.7256Z" fill="#B2B2B2"/>
<path d="M24.331 32.5517V32.6204H24.251V32.5475C24.251 32.4802 24.2244 32.4381 24.1627 32.4381C24.101 32.4381 24.0744 32.4802 24.0744 32.5475V32.9471C24.0744 33.0144 24.1024 33.0551 24.1627 33.0551C24.223 33.0551 24.251 33.0144 24.251 32.9471V32.849H24.331V32.9401C24.331 33.0537 24.2763 33.1294 24.1599 33.1294C24.0435 33.1294 23.9902 33.0537 23.9902 32.9401V32.5489C23.9902 32.4353 24.0449 32.3596 24.1599 32.3596C24.2749 32.3596 24.331 32.4381 24.331 32.5517Z" fill="#B2B2B2"/>
<path d="M24.4907 32.7845V33.1252H24.4066V32.3694H24.4907V32.7088H24.6772V32.3694H24.7614V33.1252H24.6772V32.7845H24.4907Z" fill="#B2B2B2"/>
<path d="M25.1681 32.5069C25.1365 32.5255 25.1009 32.5365 25.0643 32.5391V32.4704C25.0942 32.4711 25.1234 32.4614 25.1469 32.443C25.1704 32.4246 25.1868 32.3986 25.1933 32.3694H25.2522V33.1252H25.1681V32.5069Z" fill="#B2B2B2"/>
<path d="M25.7177 32.5504V32.5644H25.6392V32.5462C25.6392 32.4775 25.6112 32.4382 25.5495 32.4382C25.4878 32.4382 25.4583 32.4789 25.4583 32.5602V32.7285C25.467 32.7035 25.4836 32.6821 25.5057 32.6677C25.5278 32.6532 25.554 32.6465 25.5803 32.6485C25.6771 32.6485 25.7206 32.7186 25.7206 32.8266V32.9402C25.7206 33.0552 25.6645 33.1309 25.5481 33.1309C25.4317 33.1309 25.3756 33.0552 25.3756 32.9402V32.5546C25.3756 32.4354 25.4289 32.3611 25.5481 32.3611C25.6673 32.3611 25.7177 32.4354 25.7177 32.5504ZM25.4583 32.8308V32.9444C25.4583 33.0117 25.4864 33.0524 25.5467 33.0524C25.607 33.0524 25.6364 33.0117 25.6364 32.9444V32.8308C25.6364 32.7621 25.6084 32.7215 25.5467 32.7215C25.485 32.7215 25.4583 32.7649 25.4583 32.8336V32.8308Z" fill="#B2B2B2"/>
<path d="M23.1025 30.8635V30.9658H22.9763V30.8579C22.9763 30.7499 22.9343 30.6854 22.8361 30.6854C22.738 30.6854 22.6959 30.7499 22.6959 30.8579V31.4861C22.6959 31.5926 22.7394 31.6571 22.8361 31.6571C22.9329 31.6571 22.9763 31.5926 22.9763 31.4861V31.2477H22.8543V31.1285H23.1025V31.4791C23.1025 31.6585 23.017 31.7777 22.8347 31.7777C22.6524 31.7777 22.5669 31.6585 22.5669 31.4791V30.8635C22.5669 30.684 22.6524 30.5648 22.8347 30.5648C23.017 30.5648 23.1025 30.684 23.1025 30.8635Z" fill="#263238"/>
<path d="M23.4938 30.5775C23.6803 30.5775 23.7588 30.6714 23.7588 30.8481V30.9462C23.7668 30.9979 23.7562 31.0507 23.729 31.0954C23.7018 31.14 23.6597 31.1736 23.6102 31.1902C23.7195 31.2225 23.7602 31.3108 23.7602 31.4384V31.6235C23.7566 31.6715 23.7648 31.7196 23.784 31.7637H23.6438C23.6262 31.7192 23.6191 31.6712 23.6228 31.6235V31.4356C23.6228 31.3024 23.5597 31.2589 23.4489 31.2589H23.3549V31.7679H23.2231V30.5789L23.4938 30.5775ZM23.4601 31.1383C23.5653 31.1383 23.6284 31.1047 23.6284 30.9757V30.8621C23.6284 30.7555 23.5891 30.6994 23.4882 30.6994H23.3592V31.1383H23.4601Z" fill="#263238"/>
<path d="M23.8949 30.8635C23.8949 30.6826 23.9846 30.5648 24.1669 30.5648C24.3492 30.5648 24.4474 30.6826 24.4474 30.8635V31.4791C24.4532 31.5181 24.4502 31.5579 24.4385 31.5955C24.4267 31.6332 24.4066 31.6677 24.3796 31.6964C24.3526 31.7252 24.3194 31.7474 24.2826 31.7615C24.2458 31.7756 24.2062 31.7811 24.1669 31.7777C23.9846 31.7777 23.8949 31.6585 23.8949 31.4791V30.8635ZM24.0253 31.4861C24.0253 31.594 24.0716 31.6571 24.1655 31.6571C24.2595 31.6571 24.3057 31.594 24.3057 31.4861V30.8579C24.3057 30.7499 24.2609 30.6854 24.1655 30.6854C24.0702 30.6854 24.0253 30.7499 24.0253 30.8579V31.4861Z" fill="#263238"/>
<path d="M25.0839 30.8635V30.9771H24.9591V30.8635C24.9591 30.7555 24.9157 30.691 24.8189 30.691C24.7222 30.691 24.6787 30.7555 24.6787 30.8635V31.4917C24.6787 31.5982 24.7222 31.6627 24.8189 31.6627C24.9157 31.6627 24.9591 31.5982 24.9591 31.4917V31.3374H25.0839V31.4847C25.0839 31.6642 24.9998 31.7833 24.8161 31.7833C24.6324 31.7833 24.5497 31.6642 24.5497 31.4847V30.8691C24.5497 30.6896 24.6338 30.5704 24.8161 30.5704C24.9984 30.5704 25.0839 30.684 25.0839 30.8635Z" fill="#263238"/>
<path d="M25.6279 31.1033V31.2225H25.3377V31.6431H25.6938V31.7637H25.2045V30.5746H25.6938V30.6966H25.3377V31.1019L25.6279 31.1033Z" fill="#263238"/>
<path d="M26.0823 30.5775C26.2688 30.5775 26.3473 30.6714 26.3473 30.8481V30.9462C26.3553 30.9979 26.3447 31.0507 26.3175 31.0954C26.2903 31.14 26.2482 31.1736 26.1987 31.1902C26.308 31.2225 26.3487 31.3108 26.3487 31.4384V31.6235C26.3451 31.6715 26.3533 31.7196 26.3725 31.7637H26.2323C26.2141 31.7193 26.2064 31.6713 26.2099 31.6235V31.4356C26.2099 31.3024 26.1482 31.2589 26.0374 31.2589H25.9434V31.7679H25.8116V30.5789L26.0823 30.5775ZM26.0472 31.1383C26.1538 31.1383 26.2155 31.1047 26.2155 30.9757V30.8621C26.2155 30.7555 26.1776 30.6994 26.0753 30.6994H25.9463V31.1383H26.0472Z" fill="#263238"/>
<path d="M26.6796 31.3403L26.4286 30.5775H26.5688L26.7539 31.1608L26.9404 30.5775H27.0666L26.8142 31.3403V31.7609H26.6824L26.6796 31.3403Z" fill="#263238"/>
<path d="M27.4229 31.7665V30.5775H27.5561V31.6459H27.8954V31.7665H27.4229Z" fill="#263238"/>
<path d="M28.1281 30.5775V31.7665H27.9963V30.5775H28.1281Z" fill="#263238"/>
<path d="M28.7787 30.8621V30.8943H28.6525V30.8551C28.6525 30.7485 28.6119 30.6854 28.5123 30.6854C28.4128 30.6854 28.3721 30.7485 28.3721 30.8537C28.3721 31.1201 28.7703 31.1453 28.7703 31.4805C28.7703 31.6613 28.6848 31.7777 28.5025 31.7777C28.3202 31.7777 28.2361 31.6613 28.2361 31.4805V31.4132H28.3595V31.4875C28.3595 31.594 28.4043 31.6571 28.4997 31.6571C28.595 31.6571 28.6399 31.594 28.6399 31.4875C28.6399 31.2225 28.2417 31.1972 28.2417 30.8621C28.2417 30.6784 28.3272 30.5648 28.5053 30.5648C28.6834 30.5648 28.7787 30.6826 28.7787 30.8621Z" fill="#263238"/>
<path d="M29.0704 31.7665V30.6966H28.8502V30.576H29.4209V30.6966H29.2022V31.7651L29.0704 31.7665Z" fill="#263238"/>
<path d="M22.5319 38.8701H22.5739C22.6286 38.8701 22.6623 38.842 22.6623 38.7649V38.1914H22.745V38.7593C22.745 38.8995 22.6749 38.9444 22.5837 38.9472C22.5665 38.9486 22.5491 38.9486 22.5319 38.9472V38.8701Z" fill="#B2B2B2"/>
<path d="M22.9133 38.7944L22.8839 38.9458H22.8068L22.947 38.1914H23.069L23.2092 38.9458H23.1251L23.0956 38.7944H22.9133ZM22.9245 38.7214H23.0928L23.0073 38.2868L22.9245 38.7214Z" fill="#B2B2B2"/>
<path d="M23.3578 38.9458H23.2821V38.1914H23.3887L23.5639 38.7369V38.1914H23.6383V38.9458H23.5513L23.3578 38.3358V38.9458Z" fill="#B2B2B2"/>
<path d="M23.8037 38.7677C23.8037 38.8364 23.8317 38.8771 23.892 38.8771C23.9523 38.8771 23.9804 38.8364 23.9804 38.7677V38.1914H24.0589V38.7635C24.0589 38.8785 24.0056 38.9542 23.8892 38.9542C23.7728 38.9542 23.7209 38.8785 23.7209 38.7635V38.1914H23.8037V38.7677Z" fill="#B2B2B2"/>
<path d="M24.2272 38.7944L24.1977 38.9458H24.1206L24.2608 38.1914H24.3828L24.523 38.9458H24.4389L24.4095 38.7944H24.2272ZM24.2384 38.7214H24.4067L24.3211 38.2868L24.2384 38.7214Z" fill="#B2B2B2"/>
<path d="M24.7656 38.1914C24.8834 38.1914 24.9339 38.2517 24.9339 38.3639V38.4256C24.9339 38.5083 24.9044 38.5658 24.8399 38.5798C24.9086 38.6008 24.9339 38.6569 24.9339 38.7383V38.8561C24.9315 38.8868 24.9368 38.9176 24.9493 38.9458H24.8638C24.8531 38.9166 24.8488 38.8856 24.8511 38.8546V38.7355C24.8511 38.6499 24.8105 38.6233 24.7404 38.6233H24.6815V38.9458H24.5959V38.1914H24.7656ZM24.7432 38.5476C24.8105 38.5476 24.8511 38.5251 24.8511 38.4438V38.3709C24.8511 38.3036 24.8259 38.2671 24.7628 38.2671H24.6815V38.5476H24.7432Z" fill="#B2B2B2"/>
<path d="M25.1456 38.6752L24.9857 38.1914H25.0727L25.1904 38.5616L25.3082 38.1914H25.3881L25.2283 38.6752V38.9458H25.1456V38.6752Z" fill="#B2B2B2"/>
<path d="M25.8678 38.2685H25.6112V38.1928H25.9533V38.2685L25.7584 38.95H25.6743L25.8678 38.2685Z" fill="#B2B2B2"/>
<path d="M22.9834 36.7135V36.8341H22.7099V37.3501H22.5781V36.1652H23.0535V36.2858H22.7141V36.7191L22.9834 36.7135Z" fill="#263238"/>
<path d="M23.2681 37.1103L23.2218 37.3501H23.0999L23.334 36.1652H23.5261L23.7533 37.3557H23.6145L23.5682 37.1159L23.2681 37.1103ZM23.2849 36.9967H23.55L23.4097 36.3096L23.2849 36.9967Z" fill="#263238"/>
<path d="M23.9089 36.1652L24.1024 37.2L24.2945 36.1652H24.4165L24.1936 37.3557H23.9986L23.7743 36.1652H23.9089Z" fill="#263238"/>
<path d="M24.5062 36.4456C24.5062 36.2648 24.596 36.147 24.7783 36.147C24.9605 36.147 25.0517 36.2648 25.0517 36.4456V37.0612C25.0574 37.0996 25.0544 37.1387 25.0431 37.1758C25.0317 37.2129 25.0123 37.247 24.9861 37.2756C24.9599 37.3043 24.9276 37.3267 24.8917 37.3412C24.8557 37.3558 24.817 37.3622 24.7783 37.3599C24.596 37.3599 24.5062 37.2407 24.5062 37.0612V36.4456ZM24.638 37.0682C24.638 37.1762 24.6829 37.2393 24.7783 37.2393C24.8736 37.2393 24.9185 37.1762 24.9185 37.0682V36.4456C24.9185 36.3391 24.8736 36.2746 24.7783 36.2746C24.6829 36.2746 24.638 36.3391 24.638 36.4456V37.0682Z" fill="#263238"/>
<path d="M25.4373 36.1652C25.6238 36.1652 25.7023 36.2606 25.7023 36.4372V36.534C25.7023 36.6658 25.6561 36.7471 25.5551 36.7794C25.6631 36.8116 25.7037 36.9 25.7037 37.0276V37.2127C25.7003 37.2606 25.7084 37.3087 25.7276 37.3529H25.5873C25.5693 37.3085 25.5616 37.2605 25.5649 37.2127V37.0248C25.5649 36.8846 25.5018 36.8481 25.391 36.8481H25.2985V37.3571H25.1653V36.1652H25.4373ZM25.4037 36.7261C25.5088 36.7261 25.5719 36.6924 25.5719 36.5634V36.4457C25.5719 36.3377 25.5327 36.2816 25.4317 36.2816H25.3027V36.7261H25.4037Z" fill="#263238"/>
<path d="M25.98 36.1652V37.3557H25.8481V36.1652H25.98Z" fill="#263238"/>
<path d="M26.2898 37.3501V36.2802H26.0697V36.1652H26.6404V36.2858H26.4188V37.3557L26.2898 37.3501Z" fill="#263238"/>
<path d="M27.1564 36.6868V36.806H26.8661V37.2267H27.2223V37.3473H26.7329V36.1652H27.2223V36.2858H26.8661V36.6924L27.1564 36.6868Z" fill="#263238"/>
<path d="M27.8589 36.4457V36.4779H27.7341V36.4457C27.7341 36.3391 27.6934 36.276 27.5939 36.276C27.4943 36.276 27.4536 36.3391 27.4536 36.4443C27.4536 36.7107 27.8533 36.7359 27.8533 37.071C27.8533 37.2505 27.7663 37.3683 27.584 37.3683C27.4018 37.3683 27.3176 37.2505 27.3176 37.071V37.0037H27.441V37.078C27.441 37.1846 27.4859 37.2477 27.5812 37.2477C27.6766 37.2477 27.7215 37.1846 27.7215 37.078C27.7215 36.813 27.3246 36.7878 27.3246 36.4527C27.3246 36.269 27.4088 36.1554 27.5868 36.1554C27.7649 36.1554 27.8589 36.2662 27.8589 36.4457Z" fill="#263238"/>
<path d="M28.5067 36.1652C28.6918 36.1652 28.7661 36.2536 28.7661 36.4288V36.4849C28.7661 36.6111 28.7297 36.6896 28.6259 36.7219C28.7423 36.7541 28.7858 36.8453 28.7858 36.9757V37.0767C28.7914 37.1141 28.7884 37.1523 28.7769 37.1883C28.7653 37.2243 28.7456 37.2572 28.7193 37.2843C28.6929 37.3115 28.6607 37.3322 28.625 37.3448C28.5894 37.3574 28.5513 37.3616 28.5137 37.3571H28.2417V36.1652H28.5067ZM28.4745 36.67C28.581 36.67 28.6343 36.6364 28.6343 36.513V36.4429C28.6343 36.3377 28.5993 36.2858 28.5039 36.2858H28.3735V36.67H28.4745ZM28.5137 37.2309C28.6105 37.2309 28.6539 37.179 28.6539 37.0682V36.9631C28.6539 36.8313 28.6007 36.7864 28.4871 36.7864H28.3721V37.2309H28.5137Z" fill="#263238"/>
<path d="M28.8965 36.4456C28.8965 36.2648 28.9862 36.147 29.1685 36.147C29.3508 36.147 29.4419 36.2648 29.4419 36.4456V37.0612C29.4476 37.0996 29.4447 37.1387 29.4334 37.1758C29.422 37.2129 29.4025 37.247 29.3763 37.2756C29.3501 37.3043 29.3179 37.3267 29.2819 37.3412C29.246 37.3558 29.2072 37.3622 29.1685 37.3599C28.9862 37.3599 28.8965 37.2407 28.8965 37.0612V36.4456ZM29.0269 37.0682C29.0269 37.1762 29.0732 37.2393 29.1671 37.2393C29.2611 37.2393 29.3073 37.1762 29.3073 37.0682V36.4456C29.3073 36.3391 29.2639 36.2746 29.1671 36.2746C29.0704 36.2746 29.0269 36.3391 29.0269 36.4456V37.0682Z" fill="#263238"/>
<path d="M29.5569 36.4456C29.5569 36.2648 29.6481 36.147 29.8289 36.147C30.0098 36.147 30.1024 36.2648 30.1024 36.4456V37.0612C30.1122 37.1024 30.1126 37.1453 30.1035 37.1867C30.0944 37.2281 30.0761 37.2669 30.0498 37.3002C30.0236 37.3335 29.9901 37.3604 29.952 37.3789C29.9139 37.3974 29.872 37.407 29.8296 37.407C29.7873 37.407 29.7454 37.3974 29.7073 37.3789C29.6691 37.3604 29.6357 37.3335 29.6094 37.3002C29.5832 37.2669 29.5648 37.2281 29.5557 37.1867C29.5466 37.1453 29.547 37.1024 29.5569 37.0612V36.4456ZM29.6887 37.0682C29.6887 37.1762 29.7336 37.2393 29.8289 37.2393C29.9243 37.2393 29.9692 37.1762 29.9692 37.0682V36.4456C29.9692 36.3391 29.9243 36.2746 29.8289 36.2746C29.7336 36.2746 29.6887 36.3391 29.6887 36.4456V37.0682Z" fill="#263238"/>
<path d="M30.4306 36.8327L30.3618 36.9505V37.3501H30.2286V36.1652H30.3618V36.7401L30.6773 36.1652H30.8176L30.5161 36.7079L30.8274 37.3557H30.6872L30.4306 36.8327Z" fill="#263238"/>
<path d="M31.4303 36.4457V36.4779H31.3041V36.4457C31.3041 36.3391 31.2634 36.276 31.1639 36.276C31.0643 36.276 31.0236 36.3391 31.0236 36.4443C31.0236 36.7107 31.4233 36.7359 31.4233 37.071C31.4233 37.2505 31.3363 37.3683 31.1555 37.3683C30.9746 37.3683 30.889 37.2505 30.889 37.071V37.0037H31.0124V37.078C31.0124 37.1846 31.0559 37.2477 31.1527 37.2477C31.2494 37.2477 31.2929 37.1846 31.2929 37.078C31.2929 36.813 30.8946 36.7878 30.8946 36.4527C30.8946 36.269 30.9802 36.1554 31.1583 36.1554C31.3363 36.1554 31.4303 36.2662 31.4303 36.4457Z" fill="#263238"/>
<path d="M22.7297 43.89C22.8474 43.89 22.9007 43.9615 22.9007 44.0778V44.4592C22.9007 44.5742 22.8474 44.6457 22.7297 44.6457H22.553V43.89H22.7297ZM22.7297 44.5686C22.7914 44.5686 22.8194 44.5308 22.8194 44.4621V44.0736C22.8194 44.0049 22.7914 43.9671 22.7297 43.9671H22.6329V44.5686H22.7297Z" fill="#B2B2B2"/>
<path d="M23.2484 44.2251V44.298H23.0647V44.5658H23.2905V44.6429H22.9806V43.8871H23.2905V43.9643H23.0647V44.2223L23.2484 44.2251Z" fill="#B2B2B2"/>
<path d="M23.7014 44.0722V44.1409H23.6215V44.068C23.6215 44.0007 23.5948 43.9587 23.5331 43.9587C23.4714 43.9587 23.4448 44.0007 23.4448 44.068V44.4677C23.4448 44.535 23.4728 44.5756 23.5331 44.5756C23.5934 44.5756 23.6215 44.535 23.6215 44.4677V44.3695H23.7014V44.4634C23.7014 44.577 23.6481 44.6527 23.5317 44.6527C23.4153 44.6527 23.3621 44.577 23.3621 44.4634V44.0722C23.3621 43.9587 23.4153 43.8829 23.5317 43.8829C23.6481 43.8829 23.7014 43.9587 23.7014 44.0722Z" fill="#B2B2B2"/>
<path d="M24.0463 44.2251V44.298H23.8626V44.5658H24.0883V44.6429H23.7784V43.8871H24.0883V43.9643H23.8626V44.2223L24.0463 44.2251Z" fill="#B2B2B2"/>
<path d="M24.4446 44.6443H24.3646L24.2384 44.0428V44.6457H24.1655V43.89H24.2833L24.4067 44.4929L24.5273 43.89H24.6451V44.6457H24.5652V44.0386L24.4446 44.6443Z" fill="#B2B2B2"/>
<path d="M24.9003 43.89C25.018 43.89 25.0643 43.946 25.0643 44.0568V44.0933C25.0643 44.1732 25.0419 44.2223 24.976 44.2433C25.0489 44.2629 25.0769 44.3218 25.0769 44.4046V44.4677C25.0806 44.4914 25.0787 44.5156 25.0714 44.5385C25.0641 44.5614 25.0516 44.5823 25.0349 44.5995C25.0182 44.6167 24.9977 44.6299 24.9751 44.6379C24.9525 44.6459 24.9283 44.6486 24.9045 44.6457H24.7362V43.89H24.9003ZM24.8792 44.2111C24.9465 44.2111 24.9816 44.1886 24.9816 44.1101V44.0666C24.9816 43.9993 24.9578 43.9671 24.8975 43.9671H24.8147V44.2111H24.8792ZM24.9045 44.5686C24.9662 44.5686 24.9942 44.5364 24.9942 44.4663V44.399C24.9942 44.3148 24.9606 44.2868 24.8876 44.2868H24.8147V44.5672L24.9045 44.5686Z" fill="#B2B2B2"/>
<path d="M25.4219 44.2251V44.298H25.2382V44.5658H25.4639V44.6429H25.1569V43.8871H25.4667V43.9643H25.241V44.2223L25.4219 44.2251Z" fill="#B2B2B2"/>
<path d="M25.7177 43.89C25.8355 43.89 25.886 43.9502 25.886 44.0624V44.1241C25.8913 44.157 25.8849 44.1907 25.8676 44.2192C25.8504 44.2478 25.8236 44.2692 25.792 44.2798C25.8607 44.3008 25.886 44.3555 25.886 44.4368V44.5546C25.8836 44.5858 25.8889 44.6171 25.9014 44.6457H25.8159C25.8041 44.6164 25.7992 44.5847 25.8018 44.5532V44.4382C25.8018 44.3527 25.7626 44.326 25.6925 44.326H25.6336V44.6485H25.5494V43.8928L25.7177 43.89ZM25.6953 44.2461C25.7626 44.2461 25.8018 44.2251 25.8018 44.1424V44.0708C25.8018 44.0021 25.778 43.9671 25.7149 43.9671H25.6336V44.2475L25.6953 44.2461Z" fill="#B2B2B2"/>
<path d="M26.4734 44.0736C26.4734 44.3008 26.2182 44.3835 26.2168 44.5574V44.5686H26.465V44.6457H26.1383V44.5784C26.1383 44.3358 26.3935 44.2882 26.3935 44.075C26.3935 43.9979 26.3683 43.9573 26.3052 43.9573C26.2421 43.9573 26.2168 44.0007 26.2168 44.068V44.1353H26.1383V44.0736C26.1383 43.9572 26.1916 43.8815 26.308 43.8815C26.4244 43.8815 26.4734 43.9587 26.4734 44.0736Z" fill="#B2B2B2"/>
<path d="M26.8914 44.0736C26.8914 44.3008 26.6362 44.3835 26.6348 44.5574V44.5686H26.883V44.6457H26.5591V44.5784C26.5591 44.3358 26.8143 44.2882 26.8143 44.075C26.8143 43.9979 26.7876 43.9573 26.7259 43.9573C26.6642 43.9573 26.6376 44.0007 26.6376 44.068V44.1353H26.5591V44.0736C26.5591 43.9572 26.611 43.8815 26.7273 43.8815C26.8437 43.8815 26.8914 43.9587 26.8914 44.0736Z" fill="#B2B2B2"/>
<path d="M22.7099 42.5214V43.057H22.5781V41.868H22.7099V42.4036H23.003V41.868H23.1348V43.057H23.003V42.5214H22.7099Z" fill="#263238"/>
<path d="M23.4054 42.8173L23.3592 43.057H23.2372L23.4643 41.868H23.6564L23.885 43.057H23.7448L23.6985 42.8173H23.4054ZM23.4223 42.7037H23.6873L23.5471 42.018L23.4223 42.7037Z" fill="#263238"/>
<path d="M24.2482 41.868C24.4347 41.868 24.5147 41.9788 24.5147 42.1582V42.2985C24.5147 42.4863 24.4263 42.5859 24.2342 42.5859H24.1164V43.0542H23.9846V41.8652L24.2482 41.868ZM24.2384 42.4695C24.3366 42.4695 24.3786 42.4233 24.3786 42.3097V42.1512C24.3786 42.0433 24.3394 41.9886 24.2384 41.9886H24.1108V42.4751L24.2384 42.4695Z" fill="#263238"/>
<path d="M24.8763 41.868C25.0628 41.868 25.1428 41.9788 25.1428 42.1582V42.2985C25.1428 42.4863 25.0544 42.5859 24.8623 42.5859H24.7459V43.0542H24.6057V41.8652L24.8763 41.868ZM24.8651 42.4695C24.9647 42.4695 25.0124 42.4233 25.0124 42.3097V42.1512C25.0124 42.0433 24.9731 41.9886 24.8721 41.9886H24.7445V42.4751L24.8651 42.4695Z" fill="#263238"/>
<path d="M25.4569 42.6308L25.2045 41.868H25.3447L25.5298 42.4527L25.7163 41.868H25.8425L25.5887 42.6308V43.0514H25.4583L25.4569 42.6308Z" fill="#263238"/>
<path d="M26.4664 41.868C26.6515 41.868 26.7244 41.9563 26.7244 42.1316V42.1877C26.7244 42.3125 26.688 42.391 26.5842 42.4233C26.7006 42.4555 26.7441 42.548 26.7441 42.6785V42.778C26.75 42.8153 26.7472 42.8535 26.7358 42.8896C26.7245 42.9256 26.7049 42.9585 26.6787 42.9857C26.6524 43.0129 26.6202 43.0336 26.5846 43.0462C26.549 43.0589 26.5109 43.063 26.4734 43.0584H26.193V41.8694L26.4664 41.868ZM26.4342 42.3728C26.5393 42.3728 26.594 42.3391 26.594 42.2143V42.1456C26.594 42.039 26.5576 41.9886 26.4622 41.9886H26.3318V42.3728H26.4342ZM26.4734 42.9337C26.5702 42.9337 26.6137 42.8832 26.6137 42.7724V42.6672C26.6137 42.534 26.5618 42.4906 26.4468 42.4906H26.3318V42.9337H26.4734Z" fill="#263238"/>
<path d="M26.9979 41.868V43.057H26.8661V41.868H26.9979Z" fill="#263238"/>
<path d="M27.4004 41.868C27.5869 41.868 27.6654 41.9633 27.6654 42.14V42.2368C27.6735 42.2882 27.6632 42.3409 27.6362 42.3856C27.6093 42.4302 27.5675 42.4639 27.5182 42.4807C27.6261 42.513 27.6668 42.6013 27.6668 42.7289V42.914C27.6638 42.962 27.672 43.01 27.6907 43.0542H27.5574C27.5391 43.0099 27.5314 42.9619 27.535 42.914V42.7275C27.535 42.5873 27.4719 42.5509 27.3611 42.5509H27.2686V43.0584H27.1354V41.8694L27.4004 41.868ZM27.3667 42.4289C27.4719 42.4289 27.535 42.3952 27.535 42.2648V42.1512C27.535 42.0447 27.4957 41.9886 27.3948 41.9886H27.2658V42.4289H27.3667Z" fill="#263238"/>
<path d="M27.9752 43.057V41.9886H27.7565V41.868H28.3258V41.9886H28.1014V43.057H27.9752Z" fill="#263238"/>
<path d="M28.5473 42.5214V43.057H28.4155V41.868H28.5473V42.4036H28.8404V41.868H28.9722V43.057H28.8404V42.5214H28.5473Z" fill="#263238"/>
<path d="M29.3873 41.868C29.5723 41.868 29.6579 41.9802 29.6579 42.1638V42.7626C29.6579 42.9449 29.5723 43.057 29.3873 43.057H29.1068V41.868H29.3873ZM29.3873 42.9365C29.4826 42.9365 29.5275 42.8776 29.5275 42.7682V42.1568C29.5275 42.0475 29.4826 41.9886 29.3873 41.9886H29.247V42.9365H29.3873Z" fill="#263238"/>
<path d="M29.9145 42.8173L29.8682 43.057H29.7462L29.9734 41.868H30.1655L30.394 43.057H30.2538L30.2075 42.8173H29.9145ZM29.9313 42.7037H30.1963L30.0561 42.018L29.9313 42.7037Z" fill="#263238"/>
<path d="M30.6254 42.6308L30.373 41.868H30.5133L30.6984 42.4527L30.8862 41.868H31.011L30.7587 42.6308V43.0514H30.6254V42.6308Z" fill="#263238"/>
<path d="M31.6069 42.154V42.1863H31.4807V42.147C31.4807 42.039 31.4401 41.9773 31.3405 41.9773C31.2409 41.9773 31.2003 42.039 31.2003 42.1456C31.2003 42.412 31.5999 42.4373 31.5999 42.771C31.5999 42.9519 31.513 43.0697 31.3321 43.0697C31.1512 43.0697 31.0657 42.9519 31.0657 42.771V42.7037H31.1891V42.778C31.1891 42.886 31.2325 42.9491 31.3293 42.9491C31.426 42.9491 31.4695 42.886 31.4695 42.778C31.4695 42.513 31.0713 42.4877 31.0713 42.154C31.0713 41.9703 31.1568 41.8553 31.3349 41.8553C31.513 41.8553 31.6069 41.9731 31.6069 42.154Z" fill="#263238"/>
<path d="M22.5319 50.3064H22.5739C22.6286 50.3064 22.6623 50.2784 22.6623 50.2012V49.6263H22.745V50.1942C22.745 50.3345 22.6749 50.3793 22.5837 50.3821C22.5665 50.3835 22.5491 50.3835 22.5319 50.3821V50.3064Z" fill="#B2B2B2"/>
<path d="M22.9133 50.204C22.9133 50.2728 22.9399 50.3134 23.0016 50.3134C23.0633 50.3134 23.0886 50.2728 23.0886 50.204V49.6263H23.1685V50.1984C23.1685 50.3134 23.1152 50.3891 22.9988 50.3891C22.8824 50.3891 22.8306 50.3134 22.8306 50.1984V49.6263H22.9133V50.204Z" fill="#B2B2B2"/>
<path d="M23.2456 50.3821V49.6263H23.3297V50.305H23.5457V50.3807L23.2456 50.3821Z" fill="#B2B2B2"/>
<path d="M23.6761 50.1115L23.5162 49.6263H23.6032L23.721 49.9965L23.8401 49.6263H23.9201L23.7546 50.1115V50.3821H23.6719L23.6761 50.1115Z" fill="#B2B2B2"/>
<path d="M24.3015 49.7666C24.2694 49.7854 24.2334 49.7964 24.1963 49.7988V49.7287C24.2262 49.7298 24.2556 49.7205 24.2794 49.7023C24.3031 49.6842 24.3199 49.6583 24.3267 49.6292H24.3842V50.3835H24.3015V49.7666Z" fill="#B2B2B2"/>
<path d="M24.8512 49.8087V49.8227H24.7712V49.8031C24.7712 49.7358 24.7432 49.6951 24.6829 49.6951C24.6226 49.6951 24.5904 49.7372 24.5904 49.8171V49.9868C24.5991 49.9618 24.6158 49.9404 24.6378 49.9257C24.6598 49.9111 24.6859 49.9039 24.7123 49.9054C24.8091 49.9054 24.8526 49.9755 24.8526 50.0849V50.1999C24.8526 50.3149 24.7951 50.3906 24.6801 50.3906C24.5651 50.3906 24.5062 50.3149 24.5062 50.1999V49.8143C24.5062 49.6951 24.5609 49.6208 24.6801 49.6208C24.7993 49.6208 24.8512 49.6937 24.8512 49.8087ZM24.5904 50.0891V50.2013C24.5904 50.27 24.6184 50.3107 24.6801 50.3107C24.7418 50.3107 24.7698 50.27 24.7698 50.2013V50.0891C24.7698 50.0204 24.7404 49.9798 24.6801 49.9798C24.6198 49.9798 24.596 50.0232 24.596 50.0919L24.5904 50.0891Z" fill="#B2B2B2"/>
<path d="M22.6945 48.7248H22.5753V47.5357H22.7436L23.024 48.3953V47.5357H23.1404V48.7248H23.0002L22.6959 47.7629L22.6945 48.7248Z" fill="#263238"/>
<path d="M23.6957 48.0615V48.1807H23.4054V48.6014H23.7616V48.722H23.2722V47.5329H23.7616V47.6633H23.4054V48.0685L23.6957 48.0615Z" fill="#263238"/>
<path d="M24.3071 48.0615V48.1807H24.0168V48.6014H24.3744V48.722H23.885V47.5329H24.3744V47.6633H24.0168V48.0685L24.3071 48.0615Z" fill="#263238"/>
<path d="M24.7754 47.5357C24.9605 47.5357 25.0447 47.6479 25.0447 47.8316V48.4303C25.0447 48.6126 24.9605 48.7248 24.7754 48.7248H24.495V47.5357H24.7754ZM24.7754 48.6042C24.8708 48.6042 24.9157 48.5439 24.9157 48.4359V47.8246C24.9157 47.7152 24.8694 47.6563 24.7754 47.6563H24.6352V48.6042H24.7754Z" fill="#263238"/>
<path d="M25.6041 48.7247V47.6633H25.3854V47.5427H25.9547V47.6633H25.7359V48.7317L25.6041 48.7247Z" fill="#263238"/>
<path d="M26.0345 47.8231C26.0345 47.6409 26.1243 47.5231 26.3066 47.5231C26.4889 47.5231 26.58 47.6409 26.58 47.8231V48.4373C26.58 48.6182 26.4903 48.736 26.3066 48.736C26.1229 48.736 26.0345 48.6182 26.0345 48.4373V47.8231ZM26.1649 48.4443C26.1649 48.5523 26.2112 48.6154 26.3052 48.6154C26.3991 48.6154 26.4454 48.5523 26.4454 48.4443V47.8161C26.4454 47.7082 26.4019 47.6437 26.3052 47.6437C26.2084 47.6437 26.1649 47.7082 26.1649 47.8161V48.4443Z" fill="#263238"/>
<path d="M27.2292 47.5357C27.4157 47.5357 27.4957 47.6465 27.4957 47.826V47.9662C27.4957 48.1541 27.4073 48.2466 27.2152 48.2466H27.0974V48.7164H26.9642V47.5273L27.2292 47.5357ZM27.2194 48.1372C27.3176 48.1372 27.3597 48.091 27.3597 47.9774V47.8189C27.3597 47.711 27.3204 47.6563 27.2194 47.6563H27.0918V48.1372H27.2194Z" fill="#263238"/>
<path d="M27.7117 48.485L27.6654 48.7248H27.5406L27.7692 47.5357H27.9613L28.1899 48.7248H28.0567L28.0118 48.485H27.7117ZM27.7285 48.3714H27.9936L27.8533 47.6843L27.7285 48.3714Z" fill="#263238"/>
<path d="M28.4226 48.2985L28.1702 47.5357H28.3104L28.4969 48.1204L28.6834 47.5357H28.8026L28.5502 48.2985V48.7192H28.4198L28.4226 48.2985Z" fill="#263238"/>
<path d="M20.8507 16.3928H23.1153" stroke="#984AD9" stroke-miterlimit="10"/>
<path d="M20.8507 17.1472H23.1153" stroke="#984AD9" stroke-miterlimit="10"/>
<path d="M20.8507 17.9016H23.1153" stroke="#984AD9" stroke-miterlimit="10"/>
<path d="M45.5616 16.3577H44.8704V17.049H45.5616V16.3577Z" stroke="#984AD9" stroke-miterlimit="10"/>
<path d="M46.6372 16.3577H45.9459V17.049H46.6372V16.3577Z" stroke="#984AD9" stroke-miterlimit="10"/>
<path d="M45.5616 17.3392H44.8704V18.0305H45.5616V17.3392Z" stroke="#984AD9" stroke-miterlimit="10"/>
<path d="M46.6372 17.3392H45.9459V18.0305H46.6372V17.3392Z" stroke="#984AD9" stroke-miterlimit="10"/>
<path d="M46.0117 23.7893H22.595C22.1673 23.7893 21.7571 23.6194 21.4547 23.317C21.1523 23.0146 20.9824 22.6045 20.9824 22.1768C20.9824 21.7491 21.1523 21.339 21.4547 21.0366C21.7571 20.7342 22.1673 20.5643 22.595 20.5643H46.0117C46.4394 20.5643 46.8496 20.7342 47.152 21.0366C47.4544 21.339 47.6243 21.7491 47.6243 22.1768C47.6243 22.6045 47.4544 23.0146 47.152 23.317C46.8496 23.6194 46.4394 23.7893 46.0117 23.7893Z" fill="#984AD9"/>
<path d="M23.0984 21.9931V22.0212H22.9904V21.9875C22.9904 21.895 22.9554 21.8473 22.8727 21.8473C22.7899 21.8473 22.7549 21.902 22.7549 21.9875C22.7549 22.2175 23.0998 22.2399 23.0998 22.5302C23.0998 22.6858 23.0255 22.7868 22.8684 22.7868C22.7114 22.7868 22.6371 22.6858 22.6371 22.5302V22.4713H22.7451V22.5358C22.7451 22.6283 22.7829 22.676 22.8656 22.676C22.9484 22.676 22.9862 22.6213 22.9862 22.5358C22.9862 22.3058 22.6413 22.2848 22.6413 21.9945C22.6413 21.8361 22.7156 21.7379 22.8699 21.7379C23.0241 21.7379 23.0984 21.8375 23.0984 21.9931Z" fill="#B2B2B2"/>
<path d="M23.5668 22.2021V22.3044H23.3158V22.6704H23.6243V22.7756H23.2036V21.7463H23.6243V21.8501H23.3158V22.2021H23.5668Z" fill="#B2B2B2"/>
<path d="M23.8458 22.5638L23.8065 22.7713H23.7L23.8977 21.7421H24.0631L24.2608 22.7713H24.1459L24.1066 22.5638H23.8458ZM23.8612 22.4657H24.0898L23.9734 21.8711L23.8612 22.4657Z" fill="#B2B2B2"/>
<path d="M24.5805 21.7463C24.7418 21.7463 24.8091 21.8291 24.8091 21.9819V22.0646C24.8091 22.1782 24.7698 22.2483 24.6815 22.2764C24.7755 22.3044 24.8105 22.3815 24.8105 22.4909V22.6522C24.807 22.6944 24.8143 22.7368 24.8315 22.7756H24.7152C24.6992 22.736 24.6925 22.6933 24.6955 22.6508V22.4881C24.6955 22.3717 24.6422 22.3353 24.5455 22.3353H24.4656V22.7756H24.3506V21.7463H24.5805ZM24.5511 22.2315C24.6422 22.2315 24.6913 22.2021 24.6913 22.0913V21.9931C24.6913 21.9006 24.6577 21.8529 24.5721 21.8529H24.4614V22.2343L24.5511 22.2315Z" fill="#B2B2B2"/>
<path d="M25.384 21.9946V22.0871H25.276V21.989C25.276 21.8964 25.2382 21.8403 25.1554 21.8403C25.0727 21.8403 25.0348 21.8964 25.0348 21.989V22.533C25.0348 22.6256 25.0727 22.6817 25.1554 22.6817C25.2382 22.6817 25.276 22.6256 25.276 22.533V22.3928H25.384V22.5218C25.384 22.6774 25.3111 22.7798 25.1512 22.7798C24.9914 22.7798 24.9213 22.6774 24.9213 22.5218V21.989C24.9213 21.8333 24.9942 21.731 25.1512 21.731C25.3083 21.731 25.384 21.8389 25.384 21.9946Z" fill="#B2B2B2"/>
<path d="M25.6041 22.3114V22.7756H25.4891V21.7463H25.6041V22.2091H25.8579V21.7463H25.9729V22.7756H25.8579V22.3114H25.6041Z" fill="#B2B2B2"/>
<path d="M37.6715 56.406H31.0812C30.1906 56.406 29.4686 57.128 29.4686 58.0185C29.4686 58.9091 30.1906 59.6311 31.0812 59.6311H37.6715C38.5621 59.6311 39.284 58.9091 39.284 58.0185C39.284 57.128 38.5621 56.406 37.6715 56.406Z" fill="#984AD9"/>
<path d="M31.5368 58.6972H31.3966V57.2809H31.5957L31.9238 58.3046V57.2809H32.0641V58.6972H31.9L31.5382 57.553L31.5368 58.6972Z" fill="#263238"/>
<path d="M32.7287 57.9078V58.048H32.3823V58.5514H32.803V58.6916H32.2211V57.2754H32.803V57.4156H32.3823V57.898L32.7287 57.9078Z" fill="#263238"/>
<path d="M33.3289 58.6972H33.1129L32.9194 57.2809H33.0723L33.2391 58.4868L33.3962 57.2837H33.5518L33.7103 58.4882L33.8701 57.2809H34.0104L33.8182 58.6972H33.6107L33.4705 57.7367L33.3289 58.6972Z" fill="#263238"/>
<path d="M34.5852 58.6972H34.4449V57.2809H34.6455L34.9736 58.3046V57.2809H35.1138V58.6972H34.9511L34.588 57.553L34.5852 58.6972Z" fill="#263238"/>
<path d="M35.2611 57.6189C35.2611 57.403 35.3691 57.2628 35.585 57.2628C35.801 57.2628 35.9103 57.403 35.9103 57.6189V58.3509C35.9103 58.5654 35.8038 58.707 35.585 58.707C35.3663 58.707 35.2611 58.5668 35.2611 58.3509V57.6189ZM35.4168 58.3593C35.4168 58.4883 35.4714 58.564 35.585 58.564C35.6986 58.564 35.7533 58.4883 35.7533 58.3593V57.6189C35.7533 57.4927 35.7 57.4156 35.585 57.4156C35.47 57.4156 35.4168 57.4927 35.4168 57.6189V58.3593Z" fill="#263238"/>
<path d="M36.2651 58.6972V57.4254H36.0043V57.2852H36.6815V57.4254H36.4207V58.6972H36.2651Z" fill="#263238"/>
<path d="M37.2915 57.9078V58.048H36.9466V58.5514H37.3673V58.6916H36.7952V57.2754H37.3785V57.4156H36.9578V57.898L37.2915 57.9078Z" fill="#263238"/>
<path d="M20.8507 19.7343H47.5823" stroke="#CCCCCC" stroke-miterlimit="10"/>
<path d="M20.8507 28.5204H47.5823" stroke="#CCCCCC" stroke-miterlimit="10"/>
<path d="M20.8507 34.1769H47.5823" stroke="#CCCCCC" stroke-miterlimit="10"/>
<path d="M20.8507 39.832H47.5823" stroke="#CCCCCC" stroke-miterlimit="10"/>
<path d="M20.8507 45.4871H47.5823" stroke="#CCCCCC" stroke-miterlimit="10"/>
<path d="M20.8507 51.1436H47.5823" stroke="#CCCCCC" stroke-miterlimit="10"/>
<path d="M20.8507 61.2758H47.5823" stroke="#CCCCCC" stroke-miterlimit="10"/>
<path d="M28.6062 62.3415L29.5891 62.908V61.7736L28.6062 62.3415Z" stroke="#CCCCCC" stroke-miterlimit="10"/>
<path d="M34.8195 62.3415C34.8198 62.2377 34.7892 62.1361 34.7317 62.0496C34.6742 61.9632 34.5923 61.8957 34.4964 61.8559C34.4005 61.816 34.2949 61.8055 34.1931 61.8257C34.0912 61.8459 33.9977 61.8958 33.9242 61.9693C33.8508 62.0427 33.8008 62.1363 33.7806 62.2381C33.7604 62.34 33.7709 62.4455 33.8108 62.5414C33.8507 62.6373 33.9181 62.7192 34.0046 62.7767C34.091 62.8342 34.1926 62.8648 34.2965 62.8645C34.4352 62.8645 34.5682 62.8094 34.6663 62.7113C34.7644 62.6132 34.8195 62.4802 34.8195 62.3415Z" stroke="#CCCCCC" stroke-miterlimit="10"/>
<path d="M40.0609 61.7736H38.9265V62.908H40.0609V61.7736Z" stroke="#CCCCCC" stroke-miterlimit="10"/>
</svg>
