<svg width="50" height="50" viewBox="0 0 50 50" fill="none" xmlns="http://www.w3.org/2000/svg">
<rect width="50" height="50" rx="25" fill="#F4FFF5"/>
<g clip-path="url(#clip0_26_104)">
<path d="M32.625 19.9167L25.7083 16.0001C25.4867 15.896 25.2448 15.842 25 15.842C24.7551 15.842 24.5133 15.896 24.2916 16.0001L17.375 19.9167C17.1623 20.0395 16.9852 20.2154 16.861 20.4272C16.7368 20.6391 16.6699 20.8795 16.6666 21.1251V28.8751C16.6699 29.1206 16.7368 29.361 16.861 29.5729C16.9852 29.7847 17.1623 29.9606 17.375 30.0834L19.2083 31.1251C19.6872 31.4081 20.2354 31.5523 20.7916 31.5417C22.0833 31.5417 22.8333 30.75 22.8333 29.4167V21.7917C22.8333 21.7365 22.8113 21.6835 22.7723 21.6444C22.7332 21.6053 22.6802 21.5834 22.625 21.5834H21.75C21.6947 21.5834 21.6417 21.6053 21.6026 21.6444C21.5636 21.6835 21.5416 21.7365 21.5416 21.7917V29.4167C21.5416 30.0417 20.9166 30.625 19.9166 30.125L18 29.0417C17.9741 29.0223 17.9531 28.9971 17.9386 28.9682C17.9242 28.9393 17.9166 28.9074 17.9166 28.8751V21.1251C17.9195 21.0481 17.9489 20.9744 18 20.9167L24.875 17.0417H25.125L32 20.9167C32.051 20.9744 32.0804 21.0481 32.0833 21.1251V28.8751C32.0833 28.9074 32.0758 28.9393 32.0613 28.9682C32.0468 28.9971 32.0258 29.0223 32 29.0417L25.125 32.9167C25.087 32.9387 25.0438 32.9502 25 32.9502C24.9561 32.9502 24.913 32.9387 24.875 32.9167L23.125 31.9167C23.102 31.8962 23.0724 31.8849 23.0416 31.8849C23.0109 31.8849 22.9812 31.8962 22.9583 31.9167L21.9166 32.375C21.7916 32.4167 21.625 32.4584 21.9583 32.6667L24.2916 33.9584C24.5021 34.0964 24.7483 34.1699 25 34.1699C25.2516 34.1699 25.4978 34.0964 25.7083 33.9584L32.625 30.0834C32.8376 29.9606 33.0147 29.7847 33.1389 29.5729C33.2631 29.361 33.3301 29.1206 33.3333 28.8751V21.1251C33.3301 20.8795 33.2631 20.6391 33.1389 20.4272C33.0147 20.2154 32.8376 20.0395 32.625 19.9167Z" fill="#08A500"/>
<path d="M27.125 27.625C25.2917 27.625 24.9167 27.2083 24.75 26.3333C24.75 26.2891 24.7324 26.2467 24.7012 26.2155C24.6699 26.1842 24.6275 26.1667 24.5833 26.1667H23.6667C23.6225 26.1667 23.5801 26.1842 23.5488 26.2155C23.5176 26.2467 23.5 26.2891 23.5 26.3333C23.5 27.4583 24.125 28.8333 27.125 28.8333C29.2917 28.8333 30.5417 28 30.5417 26.5417C30.5417 25.0833 29.5417 24.6667 27.4167 24.4167C25.2917 24.1667 25.0833 24 25.0833 23.5C25.0833 23 25.25 22.5833 26.8333 22.5833C28.4167 22.5833 28.7917 22.875 29 23.7917C29.0097 23.8394 29.0359 23.8823 29.074 23.9127C29.1121 23.9432 29.1596 23.9593 29.2083 23.9583H30.0833L30.25 23.875C30.2651 23.8581 30.2765 23.8383 30.2837 23.8168C30.2909 23.7953 30.2936 23.7726 30.2917 23.75C30.1667 22.125 29.0417 21.375 26.8333 21.375C24.625 21.375 23.7083 22.2083 23.7083 23.5417C23.7083 24.875 24.875 25.4167 26.75 25.625C28.625 25.8333 29.2083 26.125 29.2083 26.5833C29.2083 27.0417 28.5833 27.625 27.125 27.625Z" fill="#08A500"/>
</g>
<defs>
<clipPath id="clip0_26_104">
<rect width="20" height="20" fill="white" transform="translate(15 15)"/>
</clipPath>
</defs>
</svg>
