<svg width="196" height="196" viewBox="0 0 196 196" fill="none" xmlns="http://www.w3.org/2000/svg">
<path d="M180.967 145.561C191.868 121.857 192.601 90.2894 185.075 64.9505C179.065 44.6992 165.662 27.447 147.525 16.6169C128.2 5.1313 105.166 1.7209 84.4328 8.96114C78.9762 10.8702 73.6646 12.6146 68.5215 15.7506C47.4319 28.5925 51.5087 60.2426 44.1117 71.2499C37.8867 80.5129 25.9856 77.7846 18.4867 84.8798C-1.76013 104.033 -1.81109 152.445 21.5599 167.58C46.3304 183.636 153.966 204.275 180.967 145.561Z" fill="#EEDBFF"/>
<path d="M180.967 145.561C191.868 121.857 192.601 90.2894 185.075 64.9505C179.065 44.6992 165.662 27.447 147.525 16.6169C128.2 5.1313 105.166 1.7209 84.4328 8.96114C78.9762 10.8702 73.6646 12.6146 68.5215 15.7506C47.4319 28.5925 51.5087 60.2426 44.1117 71.2499C37.8867 80.5129 25.9856 77.7846 18.4867 84.8798C-1.76013 104.033 -1.81109 152.445 21.5599 167.58C46.3304 183.636 153.966 204.275 180.967 145.561Z" fill="white" fill-opacity="0.2"/>
<path d="M180.967 145.561C191.868 121.857 192.601 90.2894 185.075 64.9505C179.065 44.6992 165.662 27.447 147.525 16.6169C128.2 5.1313 105.166 1.7209 84.4328 8.96114C78.9762 10.8702 73.6646 12.6146 68.5215 15.7506C47.4319 28.5925 51.5087 60.2426 44.1117 71.2499C37.8867 80.5129 25.9856 77.7846 18.4867 84.8798C-1.76013 104.033 -1.81109 152.445 21.5599 167.58C46.3304 183.636 153.966 204.275 180.967 145.561Z" fill="#EEDBFF"/>
<path d="M180.967 145.561C191.868 121.857 192.601 90.2894 185.075 64.9505C179.065 44.6992 165.662 27.447 147.525 16.6169C128.2 5.1313 105.166 1.7209 84.4328 8.96114C78.9762 10.8702 73.6646 12.6146 68.5215 15.7506C47.4319 28.5925 51.5087 60.2426 44.1117 71.2499C37.8867 80.5129 25.9856 77.7846 18.4867 84.8798C-1.76013 104.033 -1.81109 152.445 21.5599 167.58C46.3304 183.636 153.966 204.275 180.967 145.561Z" fill="white" fill-opacity="0.6"/>
<path d="M134.42 175.636C134.42 175.636 144.777 181.037 156.482 176.086C168.187 171.136 167.74 160.101 167.74 160.101L134.42 175.636Z" fill="#263238"/>
<path opacity="0.1" d="M134.42 175.636C134.42 175.636 144.777 181.037 156.482 176.086C168.187 171.136 167.74 160.101 167.74 160.101L134.42 175.636Z" fill="white"/>
<path d="M154.683 121.83L103.578 141.191L129.921 181.939L181.7 154.922L154.683 121.83Z" fill="#263238"/>
<path d="M117.992 174.013L117.439 172.507C133.864 166.475 141.351 148.937 141.445 148.76L142.923 149.379C142.613 150.136 135.071 167.741 117.992 174.013Z" fill="#984AD9" stroke="#263238" stroke-width="0.5" stroke-linecap="round" stroke-linejoin="round"/>
<path d="M144.554 149.07C144.554 150.191 143.495 151.096 142.202 151.096C140.908 151.096 139.85 150.191 139.85 149.07C139.85 147.949 140.908 147.043 142.202 147.043C143.495 147.043 144.554 147.953 144.554 149.07Z" fill="#984AD9" stroke="#263238" stroke-linecap="round" stroke-linejoin="round"/>
<path d="M117.286 172.28C108.309 174.632 103.805 183.229 99.6698 182.472C95.2166 181.688 95.0481 180.665 93.3272 180.253C91.6063 179.842 93.1194 180.297 92.7706 180.304C92.4217 180.312 92.4138 180.234 92.7706 180.379C93.1273 180.524 91.4221 180.297 93.2135 180.681C95.005 181.065 95.0559 182.127 99.7442 182.892C104.119 183.605 108.451 175.11 117.384 172.7C117.6 172.598 117.557 172.449 117.286 172.28Z" fill="#984AD9" stroke="#263238" stroke-width="0.5" stroke-linecap="round" stroke-linejoin="round"/>
<path d="M117.6 172.95C102.484 176.847 109.395 186.921 91.8218 180.837C91.4886 180.724 91.6062 180.888 91.5199 180.951C91.4337 181.014 91.469 180.951 91.5003 181.026C91.5317 181.1 91.3827 181.171 91.661 181.265C109.207 187.266 102.876 177.627 117.706 173.393C117.662 173.264 117.631 173.099 117.6 172.95Z" fill="#984AD9" stroke="#263238" stroke-width="0.5" stroke-linecap="round" stroke-linejoin="round"/>
<path d="M117.733 173.55C104.295 177.149 107.369 186.486 91.5318 181.3C91.1202 181.167 91.3319 181.355 91.2261 181.414C91.1202 181.472 91.1594 181.39 91.2065 181.488C91.2535 181.586 91.034 181.61 91.3868 181.723C109.419 187.603 102.868 177.623 117.698 173.613C117.67 173.464 117.776 173.699 117.733 173.55Z" fill="#984AD9" stroke="#263238" stroke-width="0.5" stroke-linecap="round" stroke-linejoin="round"/>
<path d="M117.788 173.77C104.766 177.666 107.314 187.031 91.277 182.492C90.7478 182.343 91.0888 182.543 90.9594 182.598C90.8301 182.652 90.8693 182.558 90.9594 182.664C91.0496 182.77 90.6968 182.766 91.1515 182.896C109.368 188.133 103.304 178.168 117.757 173.825C117.721 173.68 117.835 173.919 117.788 173.77Z" fill="#984AD9" stroke="#263238" stroke-width="0.5" stroke-linecap="round" stroke-linejoin="round"/>
<path d="M117.929 174.565C117.898 174.416 117.859 174.267 117.815 174.119C102.81 178.823 110.889 185.298 90.6263 185.322C90.2813 185.322 90.446 185.459 90.3754 185.522C90.3049 185.585 90.3441 185.549 90.3519 185.557C90.4969 185.694 90.25 185.784 90.6145 185.784C110.955 185.761 103.217 178.901 117.929 174.565Z" fill="#984AD9" stroke="#263238" stroke-width="0.5" stroke-linecap="round" stroke-linejoin="round"/>
<path d="M117.78 174.079C117.784 173.929 117.753 173.781 117.69 173.644C102.359 178.376 110.732 185.122 91.3006 183.66C89.8189 183.55 91.6377 183.789 90.8498 183.86C90.8145 183.86 90.5676 183.797 90.9517 183.895C91.3359 183.993 89.7757 184.009 91.3241 184.126C110.716 185.596 102.743 178.654 117.78 174.079Z" fill="#984AD9" stroke="#263238" stroke-width="0.5" stroke-linecap="round" stroke-linejoin="round"/>
<path d="M117.31 174.44C108.16 179.689 104.205 186.839 93.7897 186.235C83.3742 185.632 94.3777 186.408 91.4181 186.314C89.2542 186.243 90.8222 186.29 90.8301 186.29C96.4866 186.757 82.355 186.035 93.5741 186.682C104.793 187.329 108 180.057 117.486 174.883C118.168 174.389 118.058 173.625 117.31 174.44Z" fill="#984AD9" stroke="#263238" stroke-width="0.5" stroke-linecap="round" stroke-linejoin="round"/>
<path d="M117.502 172.582C103.457 175.945 108.517 186.6 93.5312 180.928C93.1666 180.79 93.3156 180.967 93.2215 181.026C93.1274 181.084 93.1627 181.026 93.198 181.108C93.2333 181.19 93.0647 181.233 93.3626 181.343C108.651 186.964 103.696 176.608 117.608 173.029C117.576 172.872 117.541 172.735 117.502 172.582Z" fill="#984AD9" stroke="#263238" stroke-width="0.5" stroke-linecap="round" stroke-linejoin="round"/>
<path d="M119.52 171.108L120.442 173.852L117.995 174.805L117.059 172.072L119.52 171.108Z" fill="#984AD9" stroke="#263238" stroke-width="0.5" stroke-linecap="round" stroke-linejoin="round"/>
<path d="M99.4266 100.807C107.878 103.159 115.667 98.2783 118.697 100.854C121.959 103.629 121.618 104.535 122.829 105.691C124.04 106.847 123.017 105.754 123.307 105.914C123.597 106.075 123.566 106.142 123.35 105.86C123.135 105.577 124.413 106.569 123.135 105.401C121.857 104.233 122.316 103.343 118.846 100.481C115.608 97.8158 108.015 102.696 99.5599 100.395C99.309 100.395 99.2855 100.54 99.4266 100.807Z" fill="white" stroke="#263238" stroke-miterlimit="10"/>
<path d="M99.4976 100.117C113.719 104.131 112.865 92.5983 124.343 105.95C124.558 106.201 124.539 106.013 124.64 106.001C124.742 105.989 124.676 106.036 124.691 105.946C124.707 105.856 124.856 105.887 124.691 105.675C113.198 92.4062 113.786 103.323 99.6387 99.7013C99.5681 99.8385 99.5368 99.96 99.4976 100.117Z" fill="white" stroke="#263238" stroke-miterlimit="10"/>
<path d="M99.666 99.568C113.778 103.41 113.049 92.512 124.785 105.711C125.06 106.02 124.977 105.766 125.091 105.766C125.205 105.766 125.134 105.817 125.142 105.715C125.15 105.613 125.342 105.695 125.111 105.432C113.17 92.0456 113.829 102.935 99.7875 99.1604C99.7387 99.2936 99.6981 99.4298 99.666 99.568Z" fill="white" stroke="#263238" stroke-miterlimit="10"/>
<path d="M99.7246 99.3524C113.735 102.735 113.272 92.1122 125.565 104.84C125.926 105.213 125.742 104.884 125.875 104.903C126.008 104.923 125.93 104.978 125.918 104.86C125.906 104.742 126.181 104.899 125.871 104.574C113.468 91.6144 113.719 102.265 99.8501 98.933C99.7965 99.069 99.7546 99.2093 99.7246 99.3524Z" fill="white" stroke="#263238" stroke-miterlimit="10"/>
<path d="M100.054 98.2509C100.007 98.3881 99.9679 98.5253 99.9326 98.6704C114.437 101.979 110.862 93.2098 127.443 102.845C127.725 103.01 127.655 102.822 127.745 102.802C127.835 102.782 127.78 102.802 127.78 102.802C127.729 102.618 127.972 102.661 127.674 102.488C111.026 92.7982 114.15 101.712 100.054 98.2509Z" fill="white" stroke="#263238" stroke-miterlimit="10"/>
<path d="M99.9599 98.7174C99.8882 98.8371 99.8428 98.9708 99.8267 99.1094C114.621 102.547 110.924 93.4215 126.118 103.876C127.294 104.66 125.906 103.61 126.585 103.927C126.616 103.927 126.784 104.111 126.514 103.853C126.244 103.594 127.537 104.319 126.326 103.484C111.144 93.0452 114.421 102.143 99.9599 98.7174Z" fill="white" stroke="#263238" stroke-miterlimit="10"/>
<path d="M100.489 98.6625C110.473 98.7292 117.051 95.1541 125.275 100.603C133.5 106.052 124.883 100.183 127.255 101.673L127.725 101.967C123.323 98.8938 134.534 106.232 125.671 100.352C116.808 94.472 110.775 98.5096 100.583 98.2274C99.862 97.9177 99.7366 98 100.489 98.6625Z" fill="white" stroke="#263238" stroke-miterlimit="10"/>
<path d="M99.3955 100.458C112.504 104.401 113.421 93.296 122.974 105.056C123.21 105.342 123.17 105.127 123.276 105.123C123.382 105.119 123.319 105.158 123.335 105.068C123.351 104.978 123.5 105.029 123.311 104.797C113.511 92.9197 112.606 103.747 99.521 100.042C99.4739 100.18 99.4308 100.317 99.3955 100.458Z" fill="white" stroke="#263238" stroke-miterlimit="10"/>
<path d="M72.1515 127.839C72.3347 129.439 72.8019 130.994 73.5314 132.429C73.598 132.559 73.6529 132.668 73.6882 132.755L75.3189 132.084C75.2719 131.971 75.2052 131.826 75.119 131.653C72.375 126.075 74.531 118.89 75.3385 116.185C77.7924 107.953 82.6062 103.978 86.2126 102.073C90.2619 99.9443 95.0992 99.2387 99.1486 100.183L99.5406 98.4665C95.0835 97.4277 89.7876 98.1921 85.3776 100.509C81.4576 102.563 76.2636 106.855 73.6176 115.667C71.9791 121.269 71.8144 125.162 72.1515 127.839Z" fill="white" stroke="#263238" stroke-miterlimit="10"/>
<path d="M98.8795 98.1586L98.3414 100.039C98.227 100.439 98.4582 100.855 98.8579 100.97L99.0727 101.031C99.4723 101.146 99.889 100.914 100.003 100.515L100.542 98.6342C100.656 98.2346 100.425 97.8179 100.025 97.7035L99.8102 97.6421C99.4106 97.5277 98.9939 97.7589 98.8795 98.1586Z" fill="white" stroke="#263238" stroke-miterlimit="10"/>
<path d="M98.8938 98.0745C98.8938 98.0745 97.1063 98.7644 96.1812 99.6817" stroke="#263238" stroke-miterlimit="10"/>
<path d="M96.1966 98.0627C95.2532 98.464 94.4139 99.0754 93.7427 99.8503" stroke="#263238" stroke-miterlimit="10"/>
<path d="M93.6097 98.1686C93.0777 98.3063 92.5827 98.5597 92.1598 98.9107C91.737 99.2617 91.3969 99.7016 91.1636 100.199" stroke="#263238" stroke-miterlimit="10"/>
<path d="M90.4146 98.5841C90.4146 98.5841 88.5918 99.6464 88.1606 101.136" stroke="#263238" stroke-miterlimit="10"/>
<path d="M87.0633 99.7209C87.0633 99.7209 85.4953 100.838 85.2993 102.539" stroke="#263238" stroke-miterlimit="10"/>
<path d="M84.1546 101.265C83.7653 102.019 83.5446 102.848 83.5078 103.696" stroke="#263238" stroke-miterlimit="10"/>
<path d="M81.7321 103.014C81.7321 103.014 81.3754 103.798 81.4067 105.495" stroke="#263238" stroke-miterlimit="10"/>
<path d="M79.3955 105.091C79.2868 106.004 79.3079 106.928 79.4582 107.835" stroke="#263238" stroke-miterlimit="10"/>
<path d="M77.3376 107.8C77.2677 108.709 77.3796 109.624 77.6669 110.489" stroke="#263238" stroke-miterlimit="10"/>
<path d="M75.6558 110.764C75.746 111.595 76.0134 112.397 76.4398 113.116" stroke="#263238" stroke-miterlimit="10"/>
<path d="M55.6718 108.384L20.6113 140.889L61.8811 143.88L101.548 120.317L55.6718 108.384Z" fill="#984AD9" stroke="#263238" stroke-linecap="round" stroke-linejoin="round"/>
<path opacity="0.16" d="M70.8188 124.656L93.9625 124.699L82.4103 131.685L70.8188 124.656Z" fill="black"/>
<path d="M39.1609 136.31L41.015 148.415L85.6011 141.12L83.3275 128.462C83.1931 127.717 82.8349 127.03 82.3006 126.493C81.7664 125.956 81.0813 125.594 80.3366 125.456C76.4166 124.715 68.2198 123.727 57.8828 125.499C48.0828 127.173 42.9006 130.556 40.529 132.621C40.0094 133.072 39.6117 133.646 39.3726 134.291C39.1335 134.935 39.0607 135.63 39.1609 136.31Z" fill="#984AD9"/>
<path opacity="0.16" d="M80.3366 125.44C79.0352 125.193 77.2712 124.926 75.123 124.734L77.9807 142.355L85.6012 141.12L83.3276 128.462C83.196 127.714 82.8392 127.024 82.3047 126.483C81.7702 125.943 81.0836 125.579 80.3366 125.44Z" fill="black"/>
<path d="M39.1609 136.31L41.015 148.415L85.6011 141.12L83.3275 128.462C83.1931 127.717 82.8349 127.03 82.3006 126.493C81.7664 125.956 81.0813 125.594 80.3366 125.456C76.4166 124.715 68.2198 123.727 57.8828 125.499C48.0828 127.173 42.9006 130.556 40.529 132.621C40.0094 133.072 39.6117 133.646 39.3726 134.291C39.1335 134.935 39.0607 135.63 39.1609 136.31Z" stroke="#263238" stroke-linecap="round" stroke-linejoin="round"/>
<path d="M63.8483 148.223C76.1509 146.226 85.8696 143.039 85.5557 141.105C85.2418 139.171 75.014 139.222 62.7114 141.219C50.4088 143.216 40.69 146.403 41.004 148.337C41.3179 150.271 51.5456 150.22 63.8483 148.223Z" fill="#984AD9" stroke="#263238" stroke-linecap="round" stroke-linejoin="round"/>
<path d="M84.8014 141.406C85.0797 143.123 75.6834 146.075 63.8098 148C51.9361 149.924 42.089 150.101 41.8107 148.392C41.5324 146.683 50.9286 143.723 62.8023 141.798C74.676 139.873 84.523 139.693 84.8014 141.406Z" fill="#984AD9"/>
<path opacity="0.3" d="M84.8014 141.406C85.0797 143.123 75.6834 146.075 63.8098 148C51.9361 149.924 42.089 150.101 41.8107 148.392C41.5324 146.683 50.9286 143.723 62.8023 141.798C74.676 139.873 84.523 139.693 84.8014 141.406Z" fill="black"/>
<path d="M84.8014 141.406C85.0797 143.123 75.6834 146.075 63.8098 148C51.9361 149.924 42.089 150.101 41.8107 148.392C41.5324 146.683 50.9286 143.723 62.8023 141.798C74.676 139.873 84.523 139.693 84.8014 141.406Z" stroke="#263238" stroke-linecap="round" stroke-linejoin="round"/>
<path d="M173.099 21.9246C171.964 21.2224 170.786 20.5926 169.571 20.0391C165.918 18.2516 161.371 16.025 158.823 11.6072L158.525 11.7836C161.12 16.2916 165.722 18.5417 169.419 20.3488C170.615 20.8961 171.775 21.5194 172.892 22.2147C176.243 24.4452 177.768 26.6874 177.784 26.7109L178.074 26.5149C178.027 26.4209 176.514 24.1982 173.099 21.9246Z" fill="#263238"/>
<path d="M179.348 25.5427C179.371 25.7113 179.391 25.872 179.399 26.0171H179.744C179.737 25.8489 179.72 25.6813 179.693 25.5153C179.693 25.5153 179.693 25.4839 179.693 25.4683C179.336 23.3201 177.388 19.6863 172.805 15.6683C167.709 11.2073 168.411 8.20067 168.419 8.16931L168.086 8.08307C167.963 8.80192 168.039 9.54054 168.305 10.2195C167.913 9.36099 167.709 8.79651 167.705 8.78475L167.376 8.89451C167.376 8.94155 168.964 13.4103 172.296 16.6914C172.809 17.1931 173.291 17.6518 173.75 18.083L173.813 18.1457C171.197 16.0689 169.126 13.3879 167.776 10.3331L167.451 10.4586C168.274 12.362 169.392 14.124 170.763 15.68C168.818 13.6632 167.39 11.2061 166.6 8.51819L166.263 8.59659C166.592 9.75519 167.048 10.8739 167.623 11.9325C166.663 10.5056 165.992 9.36883 165.981 9.34531L165.679 9.52171C165.71 9.57267 168.682 14.6177 171.194 16.907C171.382 17.0795 171.567 17.2598 171.755 17.444C171.277 17.1592 170.802 16.8652 170.332 16.562C168.149 14.422 166.416 11.867 165.236 9.04739L164.91 9.16499C165.885 11.5169 167.252 13.6867 168.952 15.582C165.789 13.0066 164.373 9.09051 164.362 9.04739L164.032 9.16499C164.032 9.21203 165.742 13.9082 169.579 16.4836C169.76 16.6051 169.944 16.7149 170.124 16.8325C170.383 17.0873 170.649 17.3421 170.932 17.6165C170.148 17.103 169.364 16.5542 168.646 16.0132C167.406 14.7427 166.272 13.3727 165.255 11.9168L164.965 12.1128C165.555 12.969 166.189 13.7945 166.863 14.5863C166.718 14.457 166.58 14.3315 166.471 14.1943C164.154 11.9286 164.166 10.2273 164.166 10.2116H163.993H163.821C163.857 10.8679 164.052 11.5055 164.389 12.0697C163.835 11.3212 163.334 10.5353 162.888 9.71771L162.578 9.87059C162.578 9.89803 163.883 12.4539 166.89 15.6683C166.972 15.7545 167.055 15.8251 167.137 15.9074C164.197 13.3359 163.135 11.0662 163.123 11.0387L162.805 11.1838C163.558 12.5987 164.526 13.8881 165.675 15.0058C162.539 12.4578 162.48 10.8506 162.48 10.8349H162.131C162.131 10.9094 162.174 12.7087 165.761 15.5389C166.64 16.2258 167.557 16.8643 168.505 17.4519C168.721 17.6165 168.948 17.7772 169.179 17.9379C168.729 17.7341 168.317 17.5459 167.972 17.4323C163.872 15.8329 162.057 11.4895 162.041 11.4425L161.72 11.5758C162.521 13.3328 163.695 14.894 165.161 16.1504C164.769 15.8917 164.397 15.6291 164.025 15.3664C163.777 15.1395 163.544 14.8973 163.327 14.6412C160.845 11.6699 160.328 10.976 160.328 10.976L160.05 11.1838C160.05 11.2073 160.5 11.7835 162.492 14.1787C161.437 13.3608 160.489 12.4139 159.669 11.3602L159.391 11.564C159.654 11.9173 159.936 12.2549 160.238 12.5754L160.003 12.7831C160.042 12.8263 163.742 16.9423 167.729 18.9062C170.536 20.2899 173.468 21.8697 175.628 23.6494C175.867 23.9042 176.02 24.0649 176.02 24.0688L176.079 24.0218C176.456 24.3558 176.813 24.7119 177.149 25.088C177.819 25.9896 178.282 26.656 178.293 26.6874L178.474 26.5776L178.599 26.5384C178.506 26.2424 178.396 25.9519 178.27 25.6682C178.482 26.0602 178.595 26.2993 178.603 26.3111L178.811 26.2248H178.866L178.924 26.4718L179.262 26.3973C179.207 26.1386 179.148 25.8916 179.085 25.6486L179.203 25.6094C179.088 25.3086 178.957 25.0142 178.811 24.7274C178.636 24.1531 178.422 23.5913 178.172 23.0457C178.686 23.8147 179.083 24.6564 179.348 25.5427ZM172.5 20.58C172.206 20.3958 171.818 20.1645 171.363 19.9019C172.049 20.198 172.714 20.5398 173.354 20.925C174.182 21.5509 174.928 22.2793 175.573 23.0927C174.646 22.1422 173.615 21.2993 172.5 20.58ZM172.931 19.9332C173.646 20.3288 174.326 20.7839 174.965 21.2935L175.263 21.6855C174.53 21.0445 173.751 20.4588 172.931 19.9332ZM173.785 19.0904C173.903 19.2237 174.017 19.357 174.13 19.4824L173.97 19.404L173.617 18.9728L173.785 19.0904ZM172.943 19.3256H172.966L173.131 19.4746C172.907 19.3609 172.684 19.2315 172.46 19.0826L172.943 19.3256ZM170.857 18.0046L170.598 17.7968L171.041 18.0947L170.857 18.0046ZM172.586 15.927C174.717 17.7185 176.552 19.8352 178.023 22.199C177.799 21.9324 177.482 21.5208 177.172 21.121C176.153 19.7921 174.609 17.7851 173.001 16.3621C172.082 15.5772 171.23 14.717 170.453 13.7906C171.106 14.551 171.812 15.2636 172.566 15.9231L172.586 15.927ZM172.547 16.4405L172.374 16.2641C172.5 16.3817 172.633 16.4993 172.766 16.6208C173.186 17.0128 173.605 17.4048 174.009 17.8439C173.519 17.3931 173.037 16.9383 172.527 16.4366L172.547 16.4405ZM172.037 18.0085L172.66 18.4005C172.864 18.6279 173.052 18.8631 173.26 19.0943L173.166 19.0512C172.845 18.769 172.507 18.4828 172.151 18.1967L171.708 17.8047L172.037 18.0085ZM166.443 14.6647C167.047 15.2098 167.677 15.7239 168.333 16.2053C168.654 16.5307 168.991 16.8599 169.34 17.1814C168.517 16.693 167.766 16.0942 167.106 15.4017C166.874 15.1508 166.655 14.896 166.443 14.6647ZM167.212 17.4558C167.4 17.5459 167.604 17.6322 167.796 17.7067C169.402 18.3335 170.948 19.1063 172.413 20.0155C171.927 19.7725 171.363 19.5177 170.759 19.2315C169.889 18.8395 168.909 18.3887 167.929 17.887L167.212 17.4558ZM161.163 13.4966C161.989 14.2417 162.857 14.9393 163.762 15.5859C164.982 16.6254 166.331 17.5029 167.776 18.1967C168.756 18.7886 169.681 19.3256 170.477 19.7647C171.273 20.2037 171.892 20.58 172.323 20.8505C172.754 21.121 173.072 21.3523 173.409 21.611C171.625 20.5013 169.783 19.4885 167.89 18.5769C165.118 17.248 162.492 14.8215 161.163 13.4966ZM175.048 21.9755C176.055 22.8588 176.909 23.9025 177.576 25.0645C177.529 25.0096 177.486 24.9547 177.439 24.9038C176.696 23.8849 175.897 22.9073 175.048 21.9755Z" fill="#263238"/>
<path d="M154.291 56.3422C152.708 56.3614 151.135 56.0959 149.646 55.5582C149.509 55.5111 149.395 55.4719 149.309 55.4484L149.763 53.7746C149.877 53.8059 150.026 53.853 150.206 53.9157C155.98 55.8953 162.727 52.9239 165.267 51.8067C172.985 48.4042 176.282 43.2219 177.689 39.4744C179.257 35.2643 179.363 30.4584 177.944 26.6168L179.571 26.0131C181.139 30.235 181.033 35.4956 179.312 40.082C177.791 44.1431 174.24 49.7487 165.965 53.41C160.72 55.7032 156.941 56.3422 154.291 56.3422Z" fill="#263238"/>
<path d="M179.299 25.0839L177.554 25.8289C177.172 25.9921 176.994 26.4343 177.157 26.8166L177.234 26.9968C177.398 27.3791 177.84 27.5567 178.222 27.3935L179.967 26.6485C180.349 26.4853 180.527 26.0431 180.364 25.6608L180.287 25.4805C180.123 25.0983 179.681 24.9207 179.299 25.0839Z" fill="#263238"/>
<path d="M148.764 32.1714L101.359 45.2603L122.41 87.1808L168.046 76.5694L148.764 32.1714Z" fill="#984AD9" stroke="#263238" stroke-linecap="round" stroke-linejoin="round"/>
<path opacity="0.16" d="M151.096 55.0407L164.346 76.9927L140.124 82.857L151.096 55.0407Z" fill="black"/>
<path d="M142.374 47.5026C132.907 42.7986 122.214 45.1232 118.49 52.6535L114.346 59.4508L117.482 61.0188C118.556 66.4244 122.688 71.7243 128.878 74.7897C135.067 77.8552 141.79 77.9257 146.737 75.4992L148.627 76.4361L151.676 71.4224C152.09 70.86 152.454 70.2633 152.766 69.6388C156.49 62.0889 151.841 52.187 142.374 47.5026Z" fill="#984AD9"/>
<path opacity="0.16" d="M151.186 55.1387L134.789 76.785C139.101 77.6317 143.342 77.1456 146.737 75.4796L148.627 76.4165L151.676 71.4028C152.09 70.8404 152.454 70.2437 152.766 69.6192C155.001 65.0995 154.217 59.7251 151.186 55.1387Z" fill="black"/>
<path d="M142.374 47.5026C132.907 42.7986 122.214 45.1232 118.49 52.6535L114.346 59.4508L117.482 61.0188C118.556 66.4244 122.688 71.7243 128.878 74.7897C135.067 77.8552 141.79 77.9257 146.737 75.4992L148.627 76.4361L151.676 71.4224C152.09 70.86 152.454 70.2633 152.766 69.6388C156.49 62.0889 151.841 52.187 142.374 47.5026Z" stroke="#263238" stroke-linecap="round" stroke-linejoin="round"/>
<path d="M148.62 76.4125C152.347 68.882 147.695 58.9801 138.23 54.296C128.765 49.612 118.071 51.9194 114.344 59.45C110.617 66.9805 115.269 76.8823 124.734 81.5664C134.199 86.2505 144.893 83.943 148.62 76.4125Z" fill="#984AD9"/>
<path opacity="0.3" d="M148.62 76.4125C152.347 68.882 147.695 58.9801 138.23 54.296C128.765 49.612 118.071 51.9194 114.344 59.45C110.617 66.9805 115.269 76.8823 124.734 81.5664C134.199 86.2505 144.893 83.943 148.62 76.4125Z" fill="black"/>
<path d="M148.62 76.4125C152.347 68.882 147.695 58.9801 138.23 54.296C128.765 49.612 118.071 51.9194 114.344 59.45C110.617 66.9805 115.269 76.8823 124.734 81.5664C134.199 86.2505 144.893 83.943 148.62 76.4125Z" stroke="#263238" stroke-linecap="round" stroke-linejoin="round"/>
<path d="M147.555 75.8857C151.05 68.8248 146.686 59.5394 137.809 55.1463C128.932 50.7532 118.903 52.9159 115.409 59.9768C111.914 67.0378 116.278 76.3231 125.155 80.7162C134.032 85.1094 144.061 82.9467 147.555 75.8857Z" fill="#984AD9"/>
<path opacity="0.16" d="M147.555 75.8857C151.05 68.8248 146.686 59.5394 137.809 55.1463C128.932 50.7532 118.903 52.9159 115.409 59.9768C111.914 67.0378 116.278 76.3231 125.155 80.7162C134.032 85.1094 144.061 82.9467 147.555 75.8857Z" fill="black"/>
<path d="M137.815 55.1466C130.677 51.6186 122.802 52.3242 118.168 56.4049C117.267 62.8768 121.63 70.1249 129.238 73.9038C136.13 77.3142 143.691 76.8673 148.47 73.3001C149.956 66.6988 145.64 59.0195 137.815 55.1466Z" fill="#984AD9"/>
<path opacity="0.3" d="M137.815 55.1466C130.677 51.6186 122.802 52.3242 118.168 56.4049C117.267 62.8768 121.63 70.1249 129.238 73.9038C136.13 77.3142 143.691 76.8673 148.47 73.3001C149.956 66.6988 145.64 59.0195 137.815 55.1466Z" fill="black"/>
<path d="M147.555 75.8857C151.05 68.8248 146.686 59.5394 137.809 55.1463C128.932 50.7532 118.903 52.9159 115.409 59.9768C111.914 67.0378 116.278 76.3231 125.155 80.7162C134.032 85.1094 144.061 82.9467 147.555 75.8857Z" stroke="#263238" stroke-linecap="round" stroke-linejoin="round"/>
<path d="M35.1704 67.1496L42.6184 81.1362C42.6184 81.1362 49.7646 85.5462 70.4504 72.469C91.1362 59.3919 90.3679 54.3782 90.3679 54.3782L81.2383 37.044L35.1704 67.1496Z" fill="#263238"/>
<path opacity="0.1" d="M35.1704 67.1496L42.6184 81.1362C42.6184 81.1362 49.7646 85.5462 70.4504 72.469C91.1362 59.3919 90.3679 54.3782 90.3679 54.3782L81.2383 37.044L35.1704 67.1496Z" fill="white"/>
<path d="M51.8538 31.654C48.1337 35.182 14.3119 62.5475 6.14655 69.1488C6.01385 69.2562 5.91764 69.4021 5.87113 69.5664C5.82462 69.7306 5.83008 69.9053 5.88677 70.0663C5.94346 70.2274 6.04859 70.3669 6.18775 70.4658C6.32691 70.5648 6.49326 70.6182 6.66399 70.6188L50.8424 71.4028C51.2047 71.408 51.5644 71.3414 51.9008 71.2068C52.2372 71.0723 52.5436 70.8724 52.8024 70.6188L103.018 20.5761C103.119 20.4764 103.186 20.3462 103.206 20.2053C103.227 20.0643 103.201 19.9206 103.132 19.796C103.063 19.6714 102.955 19.5728 102.824 19.5155C102.694 19.4581 102.548 19.4451 102.41 19.4785L52.7867 31.1562C52.4371 31.2364 52.1151 31.4083 51.8538 31.654Z" fill="#263238"/>
<path d="M24.5274 95.1658C24.3213 95.1599 24.1253 95.0754 23.9795 94.9296C23.8338 94.7839 23.7493 94.5879 23.7434 94.3818C23.6885 85.9381 23.614 71.685 23.7708 71.0696C23.8649 70.6776 23.9276 70.4345 38.0788 58.7137C44.978 52.9984 51.9438 47.2869 52.0144 47.2321C52.1787 47.0974 52.3897 47.0336 52.601 47.0545C52.8124 47.0755 53.0068 47.1795 53.1414 47.3438C53.276 47.508 53.3399 47.7191 53.3189 47.9304C53.298 48.1418 53.1939 48.3361 53.0297 48.4708C42.6338 56.9929 27.0362 69.8857 25.3231 71.5988C25.2408 73.4569 25.2918 86.0087 25.3466 94.3818C25.3498 94.4867 25.3318 94.5912 25.2938 94.6891C25.2559 94.7869 25.1986 94.8761 25.1255 94.9515C25.0524 95.0268 24.9649 95.0866 24.8682 95.1275C24.7715 95.1684 24.6676 95.1894 24.5626 95.1893L24.5274 95.1658Z" fill="#984AD9" stroke="#263238" stroke-linecap="round" stroke-linejoin="round"/>
<path d="M27.0598 93.9938H21.9951V100.348H27.0598V93.9938Z" fill="#984AD9" stroke="#263238" stroke-linecap="round" stroke-linejoin="round"/>
<path d="M22.1755 100.426C21.9795 103.421 20.6388 123.225 19.5373 130.066C18.3613 137.427 17.8243 139.748 17.8204 139.772C17.8099 139.813 17.8078 139.856 17.8142 139.898C17.8205 139.941 17.8353 139.981 17.8576 140.018C17.8798 140.054 17.9092 140.086 17.9438 140.111C17.9785 140.136 18.0178 140.154 18.0595 140.164H18.13C18.203 140.164 18.2739 140.139 18.3308 140.093C18.3878 140.047 18.4276 139.984 18.4436 139.913C18.4436 139.889 18.9768 137.561 20.1684 130.164C21.2817 123.264 22.6302 103.272 22.8184 100.423L22.1755 100.426Z" fill="#984AD9" stroke="#263238" stroke-linecap="round" stroke-linejoin="round"/>
<path d="M23.1279 100.426C22.9005 104.346 21.2385 132.143 18.9453 141.328C18.9341 141.369 18.9313 141.411 18.9369 141.454C18.9426 141.496 18.9566 141.536 18.9781 141.573C18.9997 141.609 19.0284 141.641 19.0624 141.666C19.0965 141.692 19.1353 141.71 19.1765 141.72C19.2025 141.724 19.2289 141.724 19.2549 141.72C19.3267 141.719 19.3962 141.694 19.4523 141.65C19.5085 141.605 19.548 141.543 19.5646 141.473C21.8813 132.206 23.5513 104.233 23.7669 100.415L23.1279 100.426Z" fill="#984AD9" stroke="#263238" stroke-linecap="round" stroke-linejoin="round"/>
<path d="M23.9867 100.426C23.7358 103.77 21.3995 134.201 19.6276 141.681C19.6076 141.764 19.6214 141.852 19.6663 141.926C19.7111 141.999 19.7832 142.052 19.8668 142.073C19.8914 142.077 19.9166 142.077 19.9412 142.073C20.0132 142.073 20.083 142.048 20.1393 142.003C20.1956 141.958 20.2349 141.896 20.2509 141.826C22.0424 134.264 24.3983 103.523 24.6296 100.423L23.9867 100.426Z" fill="#984AD9" stroke="#263238" stroke-linecap="round" stroke-linejoin="round"/>
<path d="M24.3038 100.426C24.1195 104.241 22.5476 135.973 21.3481 141.951C21.3377 141.993 21.3361 142.037 21.3432 142.08C21.3503 142.123 21.3661 142.164 21.3896 142.201C21.413 142.237 21.4437 142.269 21.4797 142.293C21.5157 142.318 21.5563 142.335 21.599 142.343H21.6617C21.7358 142.343 21.8074 142.317 21.8646 142.27C21.9217 142.222 21.9608 142.157 21.9753 142.084C23.2023 135.969 24.7585 104.307 24.9467 100.43L24.3038 100.426Z" fill="#984AD9" stroke="#263238" stroke-linecap="round" stroke-linejoin="round"/>
<path d="M26.0171 100.426H25.3742C25.2644 104.346 24.5118 132.508 25.3742 142.39C25.3801 142.47 25.416 142.546 25.4748 142.601C25.5337 142.656 25.6111 142.687 25.6917 142.688H25.7192C25.8041 142.68 25.8826 142.639 25.9376 142.574C25.9925 142.508 26.0197 142.424 26.0132 142.339C25.1547 132.472 25.9073 104.272 26.0171 100.426Z" fill="#984AD9" stroke="#263238" stroke-linecap="round" stroke-linejoin="round"/>
<path d="M25.3192 100.426H24.696C24.5156 104.437 22.9594 139.662 23.0417 141.943C23.0428 142.027 23.0767 142.106 23.1361 142.165C23.1955 142.224 23.2757 142.257 23.3592 142.257C23.4449 142.253 23.5254 142.215 23.5834 142.152C23.6414 142.089 23.6721 142.005 23.6689 141.92C23.5866 139.685 25.1585 104.049 25.3192 100.426Z" fill="#984AD9" stroke="#263238" stroke-linecap="round" stroke-linejoin="round"/>
<path d="M25.8721 100.426C25.923 104.809 26.3699 141.269 26.3699 141.551C26.3699 141.636 26.4038 141.718 26.4641 141.778C26.5243 141.839 26.6061 141.873 26.6913 141.873C26.7766 141.873 26.8584 141.839 26.9186 141.778C26.9789 141.718 27.0128 141.636 27.0128 141.551C27.0128 141.308 26.5698 105.095 26.511 100.426H25.8721Z" fill="#984AD9" stroke="#263238" stroke-linecap="round" stroke-linejoin="round"/>
<path d="M22.5946 100.426C22.3908 104.276 20.8502 131.857 18.7609 138.89C18.7389 138.97 18.7491 139.056 18.7893 139.129C18.8295 139.202 18.8967 139.257 18.9765 139.282C19.0076 139.287 19.0395 139.287 19.0706 139.282C19.1396 139.281 19.2066 139.258 19.2617 139.216C19.3168 139.175 19.357 139.117 19.3763 139.05C21.5166 131.834 23.0337 104.276 23.2375 100.403L22.5946 100.426Z" fill="#984AD9" stroke="#263238" stroke-linecap="round" stroke-linejoin="round"/>
<path d="M54.9975 45.8248C55.4131 46.5147 54.5428 47.7848 53.0375 48.7021C51.5323 49.6193 50.0035 49.7722 49.584 49.0941C49.1646 48.4159 50.0387 47.1341 51.544 46.2129C53.0493 45.2917 54.5781 45.1309 54.9975 45.8248Z" fill="#984AD9" stroke="#263238" stroke-linecap="round" stroke-linejoin="round"/>
</svg>
