<svg width="50" height="50" viewBox="0 0 50 50" fill="none" xmlns="http://www.w3.org/2000/svg">
<rect width="50" height="50" rx="25" fill="#E4FFFA"/>
<path d="M23.9457 28.8819C24.2894 28.8975 24.6407 28.9088 24.9963 28.9088C25.3557 28.9088 25.7107 28.9013 26.0588 28.8819C25.7107 29.3319 25.3669 29.73 25.0032 30.1094L25.0082 30.1044C24.6463 29.7294 24.2988 29.3307 23.9713 28.9157L23.9457 28.8819ZM20.3844 28.3819C21.0613 28.5538 21.8869 28.7 22.7294 28.79L22.8113 28.7969C23.3269 29.505 23.8482 30.1282 24.4075 30.7144L24.4007 30.7069C23.5813 31.6213 22.4757 32.2638 21.225 32.4944L21.1907 32.4994C21.1882 32.4994 21.1857 32.4994 21.1832 32.4994C21.0282 32.4994 20.8819 32.4613 20.7538 32.3938L20.7588 32.3963C20.2388 32.0994 20.0132 30.9638 20.1888 29.5044C20.2307 29.145 20.2994 28.7669 20.3838 28.3813L20.3844 28.3819ZM29.6238 28.3738C29.6975 28.67 29.7669 29.0475 29.8163 29.4313L29.8219 29.485C30.0013 30.9438 29.78 32.0782 29.2644 32.3813C29.1494 32.445 29.0119 32.4825 28.8657 32.4825C28.8513 32.4825 28.8369 32.4819 28.8225 32.4813H28.8244C27.5413 32.2469 26.4363 31.6088 25.6188 30.7057L25.6144 30.7007C26.1638 30.1238 26.6813 29.5019 27.1557 28.8475L27.1919 28.795C28.1144 28.6988 28.9413 28.55 29.7469 28.3469L29.6238 28.3732V28.3738ZM21.115 26.0413C21.2713 26.3475 21.435 26.6525 21.615 26.9588C21.7946 27.2634 21.9782 27.5609 22.1657 27.8513C21.6232 27.7719 21.0994 27.6719 20.5988 27.55C20.7394 27.0582 20.9157 26.5488 21.1144 26.04L21.115 26.0413ZM28.8825 26.0257C29.0894 26.5388 29.265 27.0507 29.4107 27.5469C28.9107 27.6694 28.3825 27.7732 27.8363 27.8513C28.0238 27.5582 28.2113 27.2563 28.3869 26.9469C28.5625 26.6425 28.7269 26.3313 28.8838 26.025L28.8825 26.0257ZM19.7619 22.6825C20.0344 23.6063 20.3269 24.3788 20.6675 25.1238L20.6207 25.01C20.3294 25.6382 20.0413 26.4063 19.805 27.1969L19.7725 27.325C19.3313 27.1894 18.9763 27.0563 18.6307 26.9069L18.7025 26.9344C17.35 26.3588 16.475 25.6019 16.475 25.0019C16.475 24.4019 17.35 23.6413 18.7025 23.0682C19.0307 22.9275 19.3907 22.8007 19.7619 22.6825ZM30.2238 22.6794C30.6019 22.7963 30.9613 22.9269 31.2975 23.0682C32.65 23.6463 33.525 24.4019 33.525 25.0019C33.5213 25.6019 32.6463 26.3607 31.2938 26.935C30.9657 27.0757 30.6063 27.2019 30.2357 27.32C29.9607 26.3932 29.6682 25.6213 29.3288 24.875L29.3763 24.9925C29.6663 24.365 29.955 23.5969 30.1907 22.8063L30.2238 22.6775V22.6794ZM27.8313 22.1525C28.3744 22.2332 28.8975 22.3319 29.3982 22.455C29.2576 22.9488 29.0819 23.4563 28.8825 23.965C28.7263 23.6607 28.5625 23.3538 28.3825 23.0482C28.2069 22.7419 28.0194 22.4438 27.8319 22.1532L27.8313 22.1525ZM22.1613 22.1525C21.9738 22.4469 21.7863 22.7482 21.6113 23.0588C21.4357 23.3632 21.2713 23.6694 21.115 23.9757C20.9082 23.4632 20.7325 22.9525 20.5869 22.455C21.0869 22.3382 21.6138 22.2338 22.1607 22.1538L22.1613 22.1525ZM25 21.9538C25.5782 21.9538 26.1538 21.98 26.72 22.0263C27.0371 22.4809 27.345 22.965 27.6438 23.4788C27.9342 23.9788 28.1992 24.4854 28.4388 24.9988C28.1982 25.5107 27.9344 26.0219 27.6475 26.5219C27.3507 27.0375 27.0438 27.5282 26.7257 27.9825C26.1569 28.0319 25.5807 28.0588 24.9994 28.0588C24.4213 28.0588 23.8457 28.0313 23.2794 27.9863C22.9625 27.5319 22.6532 27.0457 22.3557 26.5338C22.0653 26.0338 21.8003 25.5271 21.5607 25.0138C21.7975 24.5007 22.065 23.9882 22.3519 23.4875C22.6488 22.9719 22.9557 22.4832 23.2738 22.0288C23.8425 21.9788 24.4188 21.9525 25 21.9525V21.9538ZM24.9882 19.9032C25.3507 20.2782 25.6982 20.6763 26.025 21.0913L26.05 21.1244C25.7063 21.1088 25.355 21.0982 24.9994 21.0982C24.64 21.0982 24.285 21.1057 23.9369 21.1244C24.2844 20.6744 24.6282 20.2763 24.9925 19.8969L24.9875 19.9019L24.9882 19.9032ZM21.175 17.5207C22.4582 17.7557 23.5625 18.3938 24.3807 19.2963L24.385 19.3013C23.8357 19.8788 23.3182 20.5007 22.8438 21.1563L22.8075 21.2088C21.8857 21.3044 21.0588 21.4519 20.2538 21.655L20.3763 21.6288C20.2888 21.2463 20.2238 20.8757 20.1782 20.52C19.9988 19.0613 20.22 17.9269 20.7357 17.625C20.8644 17.5644 21.015 17.5269 21.1738 17.5219H21.1757L21.175 17.5207ZM28.8063 17.505V17.51C28.8144 17.51 28.8238 17.5094 28.8338 17.5094C28.9832 17.5094 29.1238 17.5463 29.2475 17.6113L29.2425 17.6088C29.7625 17.9069 29.9882 19.0419 29.8125 20.5019C29.7707 20.8613 29.7019 21.24 29.6175 21.6263C28.9394 21.4525 28.1138 21.3057 27.2713 21.2163L27.1913 21.2094C26.675 20.5007 26.1538 19.8775 25.5944 19.2907L25.6019 19.2982C26.4213 18.3857 27.5251 17.7432 28.7732 17.5113L28.8082 17.5057L28.8063 17.505ZM28.8101 16.6538C27.2838 16.8857 25.9625 17.6269 24.9975 18.6963L24.9925 18.7019C24.0207 17.6332 22.6994 16.8969 21.2107 16.6738L21.1757 16.6694C21.1675 16.6694 21.1575 16.6694 21.1475 16.6694C20.8407 16.6694 20.5525 16.75 20.3032 16.8913L20.3119 16.8869C19.2382 17.5063 18.9975 19.4363 19.5519 21.8582C17.1744 22.5925 15.6282 23.7663 15.6282 25.0032C15.6282 26.245 17.1825 27.4219 19.5669 28.1507C19.0169 30.5819 19.2625 32.515 20.3388 33.1338C20.575 33.2694 20.8588 33.3488 21.1607 33.3488C21.1744 33.3488 21.1882 33.3488 21.2013 33.3482H21.1994C22.7257 33.1163 24.0469 32.3744 25.0119 31.3044L25.0169 31.2988C25.9888 32.3682 27.31 33.1044 28.7988 33.3275L28.8338 33.3319C28.8432 33.3319 28.8551 33.3319 28.8663 33.3319C29.1713 33.3319 29.4582 33.2519 29.7063 33.1125L29.6975 33.1169C30.7707 32.4982 31.0119 30.5682 30.4576 28.1457C32.8263 27.4175 34.3725 26.2413 34.3725 25.0025C34.3725 23.7607 32.8182 22.5838 30.4338 21.8532C30.9838 19.4244 30.7382 17.4894 29.6619 16.87C29.4232 16.7332 29.1369 16.6525 28.8319 16.6525C28.8238 16.6525 28.8157 16.6525 28.8075 16.6525H28.8088L28.8101 16.6538ZM26.7419 25.0032C26.7419 25.9675 25.96 26.7494 24.9957 26.7494C24.0313 26.7494 23.2494 25.9675 23.2494 25.0032C23.2494 24.0388 24.0313 23.2569 24.9957 23.2569C25.4782 23.2569 25.9144 23.4525 26.2307 23.7682C26.5469 24.0844 26.7419 24.5207 26.7419 25.0032Z" fill="#14B8A6"/>
</svg>
