<svg width="220" height="220" viewBox="0 0 220 220" fill="none" xmlns="http://www.w3.org/2000/svg">
<path opacity="0.6" d="M209.678 97.5744C212.371 73.8804 204.358 50.0852 187.541 33.176C179.269 24.8644 167.961 17.0324 152.935 13.2484C110.792 2.64001 83.4813 12.3552 69.8281 38.1788C56.1749 64.0024 16.9929 59.5496 10.7625 104.073C4.53211 148.597 34.8041 197.56 86.1521 200.24C137.5 202.919 130.891 177.36 158.981 166.386C180.462 158 205.656 132.937 209.678 97.5744Z" fill="#EEDBFF"/>
<path d="M209.678 97.5744C212.371 73.8804 204.358 50.0852 187.541 33.176C179.269 24.8644 167.961 17.0324 152.935 13.2484C110.792 2.64001 83.4813 12.3552 69.8281 38.1788C56.1749 64.0024 16.9929 59.5496 10.7625 104.073C4.53211 148.597 34.8041 197.56 86.1521 200.24C137.5 202.919 130.891 177.36 158.981 166.386C180.462 158 205.656 132.937 209.678 97.5744Z" fill="#EEDBFF"/>
<path d="M209.678 97.5744C212.371 73.8804 204.358 50.0852 187.541 33.176C179.269 24.8644 167.961 17.0324 152.935 13.2484C110.792 2.64001 83.4813 12.3552 69.8281 38.1788C56.1749 64.0024 16.9929 59.5496 10.7625 104.073C4.53211 148.597 34.8041 197.56 86.1521 200.24C137.5 202.919 130.891 177.36 158.981 166.386C180.462 158 205.656 132.937 209.678 97.5744Z" fill="white" fill-opacity="0.6"/>
<path d="M160.6 30.9188H191.84C192.354 30.9188 192.846 31.1228 193.209 31.4859C193.572 31.8489 193.776 32.3414 193.776 32.8548V54.0188H158.673V32.8548C158.673 32.3429 158.876 31.8518 159.237 31.489C159.598 31.1261 160.088 30.9212 160.6 30.9188Z" stroke="#263238" stroke-linecap="round" stroke-linejoin="round"/>
<path d="M161.652 31.7196H190.797C191.264 31.7196 191.712 31.905 192.042 32.2351C192.372 32.5652 192.557 33.0128 192.557 33.4796V53.218H159.892V33.4796C159.892 33.0128 160.077 32.5652 160.407 32.2351C160.737 31.905 161.185 31.7196 161.652 31.7196Z" stroke="#263238" stroke-linecap="round" stroke-linejoin="round"/>
<path d="M156.407 54.0804H196.038C196.038 54.6375 195.817 55.1718 195.423 55.5661C195.03 55.9604 194.496 56.1825 193.939 56.1836H158.51C157.952 56.1836 157.417 55.9621 157.023 55.5676C156.628 55.1732 156.407 54.6382 156.407 54.0804Z" stroke="#263238" stroke-linecap="round" stroke-linejoin="round"/>
<path d="M145.42 131.371V113.08C145.428 112.782 145.496 112.489 145.618 112.217C145.74 111.945 145.915 111.699 146.132 111.495C146.349 111.291 146.604 111.131 146.883 111.026C147.161 110.92 147.458 110.871 147.756 110.88H150.568L150.203 105.063L154.977 110.88H166.32C166.618 110.871 166.915 110.92 167.194 111.026C167.472 111.131 167.728 111.291 167.945 111.495C168.162 111.699 168.336 111.945 168.458 112.217C168.581 112.489 168.648 112.782 168.656 113.08V131.388C168.648 131.686 168.581 131.98 168.458 132.252C168.336 132.524 168.162 132.769 167.945 132.973C167.728 133.178 167.472 133.337 167.194 133.443C166.915 133.548 166.618 133.598 166.32 133.588H147.756C147.457 133.598 147.159 133.548 146.879 133.441C146.599 133.334 146.343 133.173 146.125 132.967C145.908 132.761 145.734 132.514 145.613 132.24C145.492 131.966 145.426 131.67 145.42 131.371Z" fill="#263238" stroke="#263238" stroke-linecap="round" stroke-linejoin="round"/>
<path d="M152.587 119.57C152.587 119.57 156.019 119.13 156.772 118.818C157.524 118.505 158.809 117.638 158.378 115.386C157.947 113.133 158.818 113.348 159.667 113.67C160.516 113.991 161.167 115.707 161.062 116.565C161.014 117.282 161.049 118.003 161.167 118.712C161.167 118.712 165.127 119.033 165.457 119.152C165.787 119.271 165.897 120.331 165.897 120.868C165.897 121.405 165.897 122.263 165.457 122.478C165.017 122.694 164.278 123.015 164.278 123.015C164.278 123.015 163.741 126.232 163.636 126.975C163.53 127.719 163.636 128.37 162.778 128.691C162.052 128.94 161.271 128.978 160.525 128.801C159.773 128.691 152.266 128.049 152.266 128.049L152.587 119.57Z" fill="white" stroke="#263238" stroke-linecap="round" stroke-linejoin="round"/>
<path d="M153.767 118.602H147.439V129.65H153.767V118.602Z" fill="#984AD9" stroke="#263238" stroke-linecap="round" stroke-linejoin="round"/>
<path d="M177.373 71.4384H154.717C154.134 71.4384 153.574 71.6701 153.161 72.0827C152.749 72.4953 152.517 73.0549 152.517 73.6384V77.5148L146.696 77.1716L152.517 81.6332V86.0684C152.517 86.6518 152.749 87.2114 153.161 87.624C153.574 88.0366 154.134 88.2684 154.717 88.2684H177.373C177.956 88.2684 178.516 88.0366 178.928 87.624C179.341 87.2114 179.573 86.6518 179.573 86.0684V73.6208C179.568 73.0403 179.334 72.4853 178.922 72.0765C178.51 71.6677 177.953 71.4383 177.373 71.4384Z" fill="white" stroke="#263238" stroke-linecap="round" stroke-linejoin="round"/>
<path d="M162.289 83.3536L161.326 93.324L166.042 89.4652L170.658 93.1128L168.938 82.8168L162.289 83.3536Z" fill="#263238" stroke="#263238" stroke-linecap="round" stroke-linejoin="round"/>
<path d="M172.48 77.2992C172.48 76.5028 173.21 75.5964 172.977 74.8792C172.744 74.162 171.604 73.832 171.151 73.2116C170.698 72.5912 170.755 71.4164 170.13 70.9588C169.505 70.5012 168.418 70.9236 167.67 70.6816C166.922 70.4396 166.32 69.4628 165.519 69.4628C164.718 69.4628 164.089 70.4484 163.367 70.6816C162.646 70.9148 161.532 70.5056 160.912 70.9588C160.292 71.412 160.344 72.5824 159.887 73.2116C159.429 73.8408 158.303 74.1312 158.061 74.8792C157.819 75.6272 158.558 76.5028 158.558 77.2992C158.558 78.0956 157.828 79.002 158.061 79.7236C158.294 80.4452 159.438 80.7708 159.887 81.3912C160.336 82.0116 160.283 83.1864 160.912 83.644C161.541 84.1016 162.624 83.6792 163.367 83.9212C164.111 84.1632 164.722 85.14 165.519 85.14C166.315 85.14 166.949 84.1544 167.67 83.9212C168.392 83.688 169.505 84.0972 170.13 83.644C170.755 83.1908 170.693 82.0204 171.151 81.3912C171.608 80.762 172.735 80.4716 172.977 79.7236C173.219 78.9756 172.48 78.1 172.48 77.2992Z" fill="#984AD9" stroke="#263238" stroke-linecap="round" stroke-linejoin="round"/>
<path d="M166.406 83.3811C169.758 82.8765 172.066 79.75 171.562 76.3979C171.057 73.0457 167.931 70.7373 164.578 71.2418C161.226 71.7464 158.918 74.8729 159.422 78.2251C159.927 81.5772 163.053 83.8857 166.406 83.3811Z" fill="white" stroke="#263238" stroke-linecap="round" stroke-linejoin="round"/>
<path d="M165.162 80.9028V75.0816L164.938 75.1872L164.674 75.3016L164.401 75.416L164.164 75.5216V74.404L164.441 74.2544C164.564 74.1928 164.692 74.1224 164.832 74.0432C164.973 73.964 165.096 73.8848 165.22 73.8056C165.316 73.7424 165.406 73.6702 165.488 73.59H166.672V80.9028H165.162Z" fill="#263238"/>
<path d="M148.355 21.7052H125.699C125.116 21.7052 124.556 21.937 124.143 22.3496C123.731 22.7621 123.499 23.3217 123.499 23.9052V33.7304C123.499 34.3139 123.731 34.8735 124.143 35.286C124.556 35.6986 125.116 35.9304 125.699 35.9304H127.116L125.272 40.7704L130.403 35.9304H148.355C148.938 35.9304 149.498 35.6986 149.91 35.286C150.323 34.8735 150.555 34.3139 150.555 33.7304V23.8876C150.55 23.3072 150.316 22.7521 149.904 22.3433C149.492 21.9345 148.935 21.7052 148.355 21.7052Z" fill="white" stroke="#263238" stroke-linecap="round" stroke-linejoin="round"/>
<path d="M132.277 29.8628C132.765 29.8628 133.161 29.4668 133.161 28.9784C133.161 28.49 132.765 28.094 132.277 28.094C131.789 28.094 131.393 28.49 131.393 28.9784C131.393 29.4668 131.789 29.8628 132.277 29.8628Z" fill="#263238"/>
<path d="M136.694 29.8628C137.183 29.8628 137.579 29.4668 137.579 28.9784C137.579 28.49 137.183 28.094 136.694 28.094C136.206 28.094 135.81 28.49 135.81 28.9784C135.81 29.4668 136.206 29.8628 136.694 29.8628Z" fill="#263238"/>
<path d="M141.112 29.8628C141.601 29.8628 141.997 29.4668 141.997 28.9784C141.997 28.49 141.601 28.094 141.112 28.094C140.624 28.094 140.228 28.49 140.228 28.9784C140.228 29.4668 140.624 29.8628 141.112 29.8628Z" fill="#263238"/>
<path d="M92.1578 47.7796L87.5598 45.1836V40.0708C87.5598 39.4873 87.328 38.9277 86.9155 38.5152C86.5029 38.1026 85.9433 37.8708 85.3598 37.8708H58.5198C57.9363 37.8708 57.3768 38.1026 56.9642 38.5152C56.5516 38.9277 56.3198 39.4873 56.3198 40.0708V51.4184C56.3198 52.0019 56.5516 52.5614 56.9642 52.974C57.3768 53.3866 57.9363 53.6184 58.5198 53.6184H85.3598C85.9433 53.6184 86.5029 53.3866 86.9155 52.974C87.328 52.5614 87.5598 52.0019 87.5598 51.4184V48.18L92.1578 47.7796Z" fill="#263238" stroke="#263238" stroke-linecap="round" stroke-linejoin="round"/>
<path d="M61.1376 43.3268L61.6832 45.0032H63.4388L62.0176 46.0328L62.5588 47.7048L61.1376 46.6752L59.7164 47.7048L60.2576 46.0328L58.8364 45.0032H60.5964L61.1376 43.3268Z" fill="white"/>
<path d="M66.6113 43.3268L67.1569 45.0032H68.9125L67.4913 46.0328L68.0369 47.7048L66.6113 46.6752L65.1901 47.7048L65.7357 46.0328L64.3101 45.0032H66.0701L66.6113 43.3268Z" fill="white"/>
<path d="M72.0893 43.3268L72.6305 45.0032H74.3905L72.9649 46.0328L73.5105 47.7048L72.0893 46.6752L70.6637 47.7048L71.2093 46.0328L69.7837 45.0032H71.5437L72.0893 43.3268Z" fill="white"/>
<path d="M77.5629 43.3268L78.1041 45.0032H79.8641L78.4429 46.0328L78.9841 47.7048L77.5629 46.6752L76.1373 47.7048L76.6829 46.0328L75.2617 45.0032H77.0173L77.5629 43.3268Z" fill="white"/>
<path d="M83.0365 43.3268L83.5822 45.0032H85.3377L83.9165 46.0328L84.4577 47.7048L83.0365 46.6752L81.6154 47.7048L82.1565 46.0328L80.7354 45.0032H82.4954L83.0365 43.3268Z" fill="white"/>
<path d="M62.9198 83.534H56.0514V79.8908C56.0514 79.3073 55.8196 78.7477 55.407 78.3352C54.9945 77.9226 54.4349 77.6908 53.8514 77.6908H36.929C36.3455 77.6908 35.7859 77.9226 35.3734 78.3352C34.9608 78.7477 34.729 79.3073 34.729 79.8908V89.7336C34.729 90.3171 34.9608 90.8766 35.3734 91.2892C35.7859 91.7018 36.3455 91.9336 36.929 91.9336H53.869C54.4525 91.9336 55.0121 91.7018 55.4246 91.2892C55.8372 90.8766 56.069 90.3171 56.069 89.7336V86.5964L62.9198 83.534Z" fill="white" stroke="#263238" stroke-linecap="round" stroke-linejoin="round"/>
<path d="M49.8693 85.2896L49.2005 85.9628L44.9765 90.1912L40.7437 85.9628L40.0749 85.2896C39.5147 84.7289 39.2003 83.9686 39.2007 83.176C39.2011 82.3835 39.5163 81.6235 40.0771 81.0634C40.6378 80.5032 41.398 80.1888 42.1906 80.1892C42.9832 80.1896 43.7431 80.5049 44.3033 81.0656L44.9765 81.7344L45.6409 81.0656C46.201 80.5049 46.9609 80.1896 47.7535 80.1892C48.5461 80.1888 49.3063 80.5032 49.8671 81.0634C50.4278 81.6235 50.743 82.3835 50.7434 83.176C50.7438 83.9686 50.4294 84.7289 49.8693 85.2896Z" fill="#984AD9" stroke="#263238" stroke-linecap="round" stroke-linejoin="round"/>
<path d="M44.9768 108.416H69.5904C69.9331 108.427 70.2702 108.506 70.5825 108.648C70.8947 108.79 71.1759 108.992 71.4101 109.242C71.6442 109.493 71.8267 109.787 71.9471 110.108C72.0675 110.429 72.1234 110.771 72.1116 111.113V113.08L78.6764 110.356L72.1116 118.175V137.188C72.1342 137.879 71.8814 138.552 71.4088 139.058C70.9361 139.563 70.2822 139.861 69.5904 139.885H44.9768C44.2851 139.861 43.6312 139.563 43.1585 139.058C42.6859 138.552 42.4331 137.879 42.4556 137.188V111.113C42.4439 110.771 42.4998 110.429 42.6202 110.108C42.7405 109.787 42.923 109.493 43.1572 109.242C43.3913 108.992 43.6726 108.79 43.9848 108.648C44.297 108.506 44.6341 108.427 44.9768 108.416Z" fill="white" stroke="#263238" stroke-linecap="round" stroke-linejoin="round"/>
<path d="M55.493 127.934C59.9959 127.934 63.6462 124.284 63.6462 119.781C63.6462 115.278 59.9959 111.628 55.493 111.628C50.9902 111.628 47.3398 115.278 47.3398 119.781C47.3398 124.284 50.9902 127.934 55.493 127.934Z" fill="#263238" stroke="#263238" stroke-linecap="round" stroke-linejoin="round"/>
<path d="M55.3521 125.924V124.736C55.005 124.743 54.6604 124.676 54.3416 124.538C54.0228 124.401 53.7372 124.196 53.5041 123.939C53.0366 123.279 52.8028 122.481 52.8397 121.673L54.6701 121.4C54.6703 121.738 54.7057 122.074 54.7757 122.404C54.8146 122.61 54.9124 122.801 55.0573 122.954C55.1771 123.064 55.3346 123.124 55.4973 123.121C55.5847 123.132 55.6733 123.116 55.7518 123.076C55.8302 123.036 55.8949 122.974 55.9373 122.896C56.0057 122.746 56.0403 122.582 56.0385 122.417C56.0512 122.059 55.9545 121.706 55.7613 121.405C55.5461 121.091 55.2901 120.807 55.0001 120.56L54.1509 119.83C53.9196 119.623 53.702 119.401 53.4997 119.165C53.2992 118.931 53.14 118.665 53.0289 118.378C52.8994 118.035 52.8381 117.67 52.8485 117.304C52.8299 116.978 52.878 116.652 52.99 116.346C53.102 116.039 53.2755 115.759 53.4997 115.522C53.9775 115.072 54.6036 114.812 55.2597 114.792V113.656H55.8713V114.778C56.2644 114.784 56.6488 114.895 56.9845 115.1C57.25 115.272 57.4666 115.51 57.6137 115.79C57.7513 116.068 57.8476 116.365 57.8997 116.67C57.9508 116.952 57.9802 117.238 57.9877 117.524L56.1353 117.753C56.1353 117.459 56.1177 117.209 56.0825 117C56.067 116.824 56.0097 116.653 55.9153 116.503C55.8678 116.443 55.8055 116.397 55.7345 116.368C55.6635 116.34 55.5863 116.33 55.5105 116.34C55.421 116.336 55.3322 116.358 55.2543 116.402C55.1765 116.447 55.1128 116.512 55.0705 116.591C54.9783 116.742 54.9282 116.916 54.9253 117.093C54.9084 117.428 55.0131 117.757 55.2201 118.021C55.4156 118.259 55.6289 118.481 55.8581 118.686L56.6721 119.39C56.9405 119.635 57.1905 119.9 57.4201 120.182C57.6497 120.462 57.8338 120.777 57.9657 121.114C58.1074 121.493 58.1761 121.894 58.1681 122.298C58.1727 122.701 58.0822 123.099 57.9041 123.46C57.7332 123.807 57.4736 124.103 57.1517 124.318C56.7996 124.544 56.3981 124.681 55.9813 124.718V125.915L55.3521 125.924Z" fill="white"/>
<path d="M70.1757 119.997L64.6801 121.88L66.1937 123.2L58.4937 132L53.8561 129.444C53.7062 129.362 53.5357 129.325 53.3654 129.338C53.1951 129.352 53.0323 129.414 52.8969 129.518L45.6193 135.08C45.4338 135.222 45.3121 135.431 45.2812 135.663C45.2503 135.894 45.3125 136.129 45.4543 136.314C45.5961 136.5 45.8058 136.621 46.0372 136.652C46.2687 136.683 46.503 136.621 46.6885 136.479L53.5217 131.252L58.2737 133.87C58.4493 133.967 58.6528 134.001 58.8504 133.967C59.0481 133.932 59.2281 133.832 59.3605 133.681L67.5313 124.366L69.0449 125.686L70.1757 119.997Z" fill="#984AD9" stroke="#263238" stroke-linecap="round" stroke-linejoin="round"/>
<path d="M93.4385 123.882C93.4385 123.882 95.3525 160.402 96.3117 167.803C97.2709 175.204 99.1849 186.001 99.1849 186.001C99.1849 186.001 97.8165 186.96 97.5437 187.92C97.2709 188.879 97.6801 192.434 97.6801 192.434L107.668 193.116C107.668 193.116 108.077 190.656 108.077 185.042V176.682C108.077 175.591 109.723 128.792 109.723 128.792L110.95 176.823C110.95 176.823 110.541 191.734 111.228 192.007C111.903 192.356 112.544 192.769 113.142 193.239L121.898 192.966C122.269 191.348 122.498 189.701 122.584 188.043C122.584 186.124 121.352 182.433 121.488 180.378C121.625 178.323 125.184 161.634 125.184 158.761V114.026H93.7201L93.4385 123.882Z" fill="#263238" stroke="#263238" stroke-linecap="round" stroke-linejoin="round"/>
<path d="M106.709 192.434C106.709 192.434 103.017 189.288 101.376 189.561C99.7347 189.834 98.2255 190.793 98.0891 191.202C97.9527 191.611 96.9935 192.434 96.7207 193.252C96.4479 194.071 92.0699 198.18 91.1107 199.276C90.1515 200.372 89.4695 200.508 90.2923 201.19C90.8015 201.606 91.4064 201.889 92.0523 202.013H107.668C107.668 202.013 108.218 200.781 108.077 198.317C107.936 195.853 107.668 193.116 107.668 193.116L106.709 192.434Z" fill="white" stroke="#263238" stroke-linecap="round" stroke-linejoin="round"/>
<path d="M89.9272 200.64C89.9272 200.798 90.024 200.961 90.2924 201.186C90.8017 201.602 91.4066 201.885 92.0524 202.008H107.668C107.835 201.568 107.945 201.108 107.998 200.64H89.9272Z" fill="white" stroke="#263238" stroke-linecap="round" stroke-linejoin="round"/>
<path d="M113.199 192.434C113.199 192.434 116.679 189.288 118.228 189.561C119.777 189.834 121.194 190.793 121.308 191.202C121.422 191.611 122.338 192.434 122.597 193.252C122.857 194.071 126.997 198.18 127.877 199.276C128.757 200.372 129.426 200.508 128.652 201.19C128.174 201.606 127.596 201.89 126.975 202.013H112.279C112.279 202.013 111.764 200.781 111.892 198.317C112.02 195.853 112.279 193.116 112.279 193.116L113.199 192.434Z" fill="white" stroke="#263238" stroke-linecap="round" stroke-linejoin="round"/>
<path d="M129.012 200.64C129.012 200.798 128.92 200.961 128.669 201.186C128.192 201.602 127.614 201.885 126.993 202.008H112.297C112.14 201.566 112.035 201.107 111.984 200.64H129.012Z" fill="white" stroke="#263238" stroke-linecap="round" stroke-linejoin="round"/>
<path d="M104.971 64.9748L101.011 68.3364L101.724 114.783H118.835C118.835 114.783 119.649 67.3156 119.346 66.6028C119.042 65.89 117.207 65.1772 117.207 65.1772L104.971 64.9748Z" fill="white" stroke="#263238" stroke-linecap="round" stroke-linejoin="round"/>
<path d="M133.994 85.2104L140.8 87.0936C140.8 87.0936 133.906 74.448 132.652 71.4164C131.67 69.0492 130.452 68.3364 129.946 68.1472C127.336 66.462 117.212 65.1772 117.212 65.1772L116.42 88.3696L115.21 126.861H129.611C129.611 126.861 128.397 113.269 127.728 108.962L126.782 102.903C126.782 102.903 127.948 93.6628 128.982 84.8144L133.994 85.2104Z" fill="#984AD9" stroke="#263238" stroke-linecap="round" stroke-linejoin="round"/>
<path d="M118.8 94.3536C118.355 95.5184 117.795 96.6357 117.128 97.6888" stroke="#263238" stroke-linecap="round" stroke-linejoin="round"/>
<path d="M119.333 66.6028L121.726 71.9312L119.759 74.0652L122.875 77.836C122.875 77.836 121.66 86.0508 119.517 92.4132" stroke="#263238" stroke-linecap="round" stroke-linejoin="round"/>
<path d="M103.801 53.7108C103.801 53.7108 102.52 51.9508 101.601 53.2136C100.681 54.4764 104.161 58.8368 104.161 58.8368L103.801 53.7108Z" fill="white" stroke="#263238" stroke-linecap="round" stroke-linejoin="round"/>
<path d="M118.606 53.7108C118.606 53.7108 119.887 51.9508 120.806 53.2136C121.726 54.4764 118.246 58.8368 118.246 58.8368L118.606 53.7108Z" fill="white" stroke="#263238" stroke-linecap="round" stroke-linejoin="round"/>
<path d="M103.515 52.7164C103.515 52.7164 104.298 60.9004 104.443 62.326C104.588 63.7516 105.081 66.8096 105.653 67.8744C106.225 68.9392 110.137 72.93 111.201 72.5032C112.266 72.0764 115.971 68.2308 116.97 67.0912C117.969 65.9516 117.608 63.888 117.753 63.3908C117.898 62.8936 118.461 57.9832 118.461 57.9832L118.8 52.8C118.8 52.8 118.945 52.3028 118.73 49.0996C118.514 45.8964 118.519 44.4708 118.162 43.6876C117.806 42.9044 116.882 42.4776 115.241 42.0508C113.599 41.624 109.692 41.6988 107.272 42.9088C104.852 44.1188 103.642 45.826 103.572 46.464C103.501 47.102 103.515 52.7164 103.515 52.7164Z" fill="white" stroke="#263238" stroke-linecap="round" stroke-linejoin="round"/>
<path d="M110.066 50.3668C110.066 50.3668 107.866 48.9412 106.647 50.8068" stroke="#263238" stroke-linecap="round" stroke-linejoin="round"/>
<path d="M113.124 50.5076C113.591 50.2238 114.139 50.1047 114.682 50.1693C115.224 50.2339 115.729 50.4785 116.116 50.864" stroke="#263238" stroke-linecap="round" stroke-linejoin="round"/>
<path d="M112.486 51.2204C112.78 51.7602 112.931 52.3659 112.926 52.9804C112.996 54.2608 112.781 56.892 112.781 56.892L110.079 56.606" stroke="#263238" stroke-linecap="round" stroke-linejoin="round"/>
<path d="M108.641 57.5564C108.641 57.5564 109.991 59.7564 113.41 58.6212" stroke="#263238" stroke-linecap="round" stroke-linejoin="round"/>
<path d="M109.068 52.4656C109.068 52.8792 108.878 53.2136 108.628 53.2136C108.377 53.2136 108.188 52.8792 108.188 52.4656C108.188 52.052 108.381 51.7176 108.628 51.7176C108.874 51.7176 109.068 52.052 109.068 52.4656Z" fill="#263238"/>
<path d="M115.117 52.4656C115.117 52.8792 114.928 53.2136 114.677 53.2136C114.427 53.2136 114.237 52.8792 114.237 52.4656C114.237 52.052 114.427 51.7176 114.677 51.7176C114.928 51.7176 115.117 52.052 115.117 52.4656Z" fill="#263238"/>
<path d="M109.639 53.4292C109.075 53.9618 108.392 54.3512 107.646 54.5644" stroke="#263238" stroke-linecap="round" stroke-linejoin="round"/>
<path d="M113.837 53.4292C113.837 53.4292 114.691 54.4236 115.689 54.5644" stroke="#263238" stroke-linecap="round" stroke-linejoin="round"/>
<path d="M108.711 64.3896C108.711 64.3896 110.066 66.0264 113.837 64.46" stroke="#263238" stroke-linecap="round" stroke-linejoin="round"/>
<path d="M102.736 46.024C102.736 46.024 102.947 53.2136 103.176 53.3544C103.405 53.4952 104.03 53.6404 104.17 53.1432C104.258 52.3633 104.282 51.5774 104.241 50.7936C104.241 50.7936 104.954 50.7232 105.094 49.5836C105.235 48.444 104.597 46.4508 104.597 46.4508C104.597 46.4508 107.158 44.6028 109.578 43.89C111.998 43.1772 113.283 44.2464 114.774 44.33C115.65 44.3797 116.513 44.1004 117.194 43.5468C117.194 43.5468 116.482 44.616 116.482 45.1132C116.482 45.6104 117.41 48.246 117.265 49.0292C117.12 49.8124 116.983 50.666 117.41 50.9476C117.837 51.2292 118.334 51.59 118.334 51.59C118.334 51.59 118.334 53.5128 118.62 53.6536C118.906 53.7944 119.403 53.0156 119.474 51.9464C119.544 50.8772 119.544 48.3164 119.914 47.5464C120.283 46.7764 120.838 46.1956 120.411 45.056C119.984 43.9164 118.488 42.922 118.277 42.856C118.066 42.79 115.36 39.3008 111.87 38.456C108.381 37.6112 102.833 42.5876 102.261 44.154C101.689 45.7204 102.736 46.024 102.736 46.024Z" fill="#263238" stroke="#263238" stroke-linecap="round" stroke-linejoin="round"/>
<path d="M71.3285 71.28C70.9256 70.2791 70.5976 69.2496 70.3473 68.2C70.1933 67.2188 68.9833 65.6304 67.7777 65.1772C66.4752 64.674 65.3099 63.8705 64.3765 62.832C63.3161 61.7012 62.7133 61.3228 62.5593 62.4536C62.4053 63.5844 63.1665 64.1168 63.9233 64.7988C64.6801 65.4808 65.4325 66.0836 65.4325 66.0836C64.6742 66.3294 63.8876 66.4773 63.0917 66.5236C61.6949 66.5924 60.2952 66.4651 58.9337 66.1452C57.7985 65.8416 53.8693 62.9728 54.2477 64.1036C54.6261 65.2344 56.5137 66.6732 58.0273 68.112C59.5409 69.5508 60.5221 70.312 62.2601 70.8312C63.9981 71.3504 66.7921 72.0412 66.7921 72.0412L68.3805 74.1576L71.3285 71.28Z" fill="white" stroke="#263238" stroke-linecap="round" stroke-linejoin="round"/>
<path d="M59.6158 69.2428C59.6158 69.2428 57.1958 67.43 56.8174 65.3884C56.439 63.3468 56.593 62.5944 57.121 62.8936C57.649 63.1928 58.9338 66.1452 58.9338 66.1452L61.1998 68.64" fill="white"/>
<path d="M59.6158 69.2428C59.6158 69.2428 57.1958 67.43 56.8174 65.3884C56.439 63.3468 56.593 62.5944 57.121 62.8936C57.649 63.1928 58.9338 66.1452 58.9338 66.1452L61.1998 68.64" stroke="#263238" stroke-linecap="round" stroke-linejoin="round"/>
<path d="M61.6528 70.2284C61.6528 70.2284 59.3868 68.8644 59.1624 67.5048C58.938 66.1452 58.4056 62.1412 58.9336 62.4404C59.4616 62.7396 60.522 66.9768 60.522 66.9768L61.8068 68.112" fill="white"/>
<path d="M61.6528 70.2284C61.6528 70.2284 59.3868 68.8644 59.1624 67.5048C58.938 66.1452 58.4056 62.1412 58.9336 62.4404C59.4616 62.7396 60.522 66.9768 60.522 66.9768L61.8068 68.112" stroke="#263238" stroke-linecap="round" stroke-linejoin="round"/>
<path d="M62.9199 70.3032C62.9199 70.3032 61.5603 67.6632 61.2567 66.8272C60.9531 65.9912 60.2755 62.5196 60.9575 62.6692C61.6395 62.8188 62.2423 66.2948 62.2423 66.2948L63.9803 68.4948C63.9803 68.4948 66.3959 67.738 67.0603 67.8876C67.7247 68.0372 68.5739 69.4012 68.5739 69.4012" fill="white"/>
<path d="M62.9199 70.3032C62.9199 70.3032 61.5603 67.6632 61.2567 66.8272C60.9531 65.9912 60.2755 62.5196 60.9575 62.6692C61.6395 62.8188 62.2423 66.2948 62.2423 66.2948L63.9803 68.4948C63.9803 68.4948 66.3959 67.738 67.0603 67.8876C67.7247 68.0372 68.5739 69.4012 68.5739 69.4012" stroke="#263238" stroke-linecap="round" stroke-linejoin="round"/>
<path d="M73.1235 72.4812L71.3151 70.8048L66.8491 75.4644L68.1603 77.1848L73.1235 72.4812Z" fill="white" stroke="#263238" stroke-linecap="round" stroke-linejoin="round"/>
<path d="M104.971 64.9748C104.971 64.9748 103.44 77.0924 103.237 84.0224C103.035 90.9524 103.748 127.314 103.748 127.314L90.2002 126.905C90.2002 126.905 91.727 114.07 92.8402 109.384C93.6058 105.771 93.8796 102.071 93.6542 98.384C93.553 97.7724 92.8402 92.1712 92.8402 92.1712C92.8402 92.1712 85.1974 97.262 84.2822 97.1608C83.367 97.0596 78.0694 93.2008 73.995 88.0968C71.4039 84.7493 69.3112 81.0442 67.7822 77.0968L72.6002 71.5924L84.0094 83.0016C84.0094 83.0016 89.9142 71.0864 90.5258 70.7784C91.1374 70.4704 104.971 64.9748 104.971 64.9748Z" fill="#984AD9" stroke="#263238" stroke-linecap="round" stroke-linejoin="round"/>
<path d="M99.3433 85.9188C100.085 89.8664 101.147 93.7469 102.52 97.5216" stroke="#263238" stroke-linecap="round" stroke-linejoin="round"/>
<path d="M102.371 67.0076L99.9066 73.2424L101.878 74.8836L98.4326 78.4916C98.5137 80.3515 98.7106 82.2045 99.0222 84.04" stroke="#263238" stroke-linecap="round" stroke-linejoin="round"/>
<path d="M92.5409 90.5388C92.5409 90.5388 90.5037 81.576 89.9009 78.012L92.5409 90.5388Z" fill="white"/>
<path d="M92.5409 90.5388C92.5409 90.5388 90.5037 81.576 89.9009 78.012" stroke="#263238" stroke-linecap="round" stroke-linejoin="round"/>
<path d="M104.751 71.896L106.489 76.9956L111.206 72.5032L114.95 77.3432L116.591 72.9916" fill="white"/>
<path d="M104.751 71.896L106.489 76.9956L111.206 72.5032L114.95 77.3432L116.591 72.9916" stroke="#263238" stroke-linecap="round" stroke-linejoin="round"/>
<path d="M113.018 75.1388L110.889 78.9404L108.442 75.1124L111.206 72.5032L113.018 75.1388Z" fill="#263238" stroke="#263238" stroke-linecap="round" stroke-linejoin="round"/>
<path d="M110.889 78.9404L106.146 110.7L110.374 114.101L113.674 110.598L110.889 78.9404Z" fill="#263238" stroke="#263238" stroke-linecap="round" stroke-linejoin="round"/>
<path d="M129.735 66.042C133.116 65.2385 135.205 61.8464 134.402 58.4656C133.598 55.0848 130.206 52.9955 126.825 53.7991C123.444 54.6026 121.355 57.9947 122.159 61.3755C122.962 64.7563 126.354 66.8456 129.735 66.042Z" fill="white" stroke="#263238" stroke-linecap="round" stroke-linejoin="round"/>
<path d="M124.146 68.0152C124.146 68.0152 123.931 70.8312 124.094 71.3724C124.256 71.9136 125.414 74.0784 125.414 74.0784C125.414 74.0784 125.251 75.5964 125.519 76.0848C125.788 76.5732 128.388 79.6576 128.388 79.6576L131.468 76.9472L129.721 73.48L129.668 68.9876C129.668 68.9876 126.28 66.0704 124.146 68.0152Z" fill="white" stroke="#263238" stroke-linecap="round" stroke-linejoin="round"/>
<path d="M125.677 64.9088L126.628 72.7188C126.68 73.1162 126.887 73.4771 127.203 73.7239C127.519 73.9707 127.919 74.0838 128.317 74.0388C128.701 73.9958 129.054 73.8097 129.306 73.5176C129.558 73.2256 129.69 72.8491 129.677 72.4636L129.404 64.4864C129.404 64.4864 127.054 62.722 125.677 64.9088Z" fill="white" stroke="#263238" stroke-linecap="round" stroke-linejoin="round"/>
<path d="M125.84 66.6116C125.84 66.6116 123.816 66.8536 123.816 67.4916C123.816 68.1296 124.542 71.0556 125.189 71.2184C125.836 71.3812 126.324 71.3812 126.324 70.0832C126.258 68.9147 126.096 67.7536 125.84 66.6116Z" fill="white" stroke="#263238" stroke-linecap="round" stroke-linejoin="round"/>
<path d="M130.618 68.7984C130.618 68.7984 125.919 69.2032 125.84 69.6784C125.761 70.1536 125.919 71.3812 126.245 71.3812C126.57 71.3812 130.777 71.412 130.86 70.9412C130.944 70.4704 131.186 69.4452 130.618 68.7984Z" fill="white" stroke="#263238" stroke-linecap="round" stroke-linejoin="round"/>
<path d="M130.473 71.0776C130.473 71.0776 126.289 71.3108 126.201 71.742C126.113 72.1732 126.227 73.2556 126.518 73.2644C126.808 73.2732 130.544 73.414 130.632 73.0048C130.72 72.5956 130.962 71.6672 130.473 71.0776Z" fill="white" stroke="#263238" stroke-linecap="round" stroke-linejoin="round"/>
<path d="M129.901 73.1104C129.901 73.1104 126.434 73.304 126.381 73.6604C126.328 74.0168 126.403 74.9144 126.645 74.9232C126.887 74.932 129.976 75.0464 130.046 74.7076C130.117 74.3688 130.306 73.5988 129.901 73.1104Z" fill="white" stroke="#263238" stroke-linecap="round" stroke-linejoin="round"/>
<path d="M130.293 66.6908C130.293 66.6908 125.594 67.0956 125.515 67.5708C125.436 68.046 125.594 69.2692 125.92 69.2692C126.245 69.2692 130.452 69.3044 130.535 68.8292C130.619 68.354 130.861 67.32 130.293 66.6908Z" fill="white" stroke="#263238" stroke-linecap="round" stroke-linejoin="round"/>
<path d="M131.393 75.4072L130.029 74.7076L126.329 79.244L127.847 81.268L131.393 75.4072Z" fill="white" stroke="#263238" stroke-linecap="round" stroke-linejoin="round"/>
<path d="M131.12 74.6064C131.12 74.6064 129.774 77.7436 128.766 78.8656C127.759 79.9876 126.632 80.9952 126.632 80.9952C126.632 80.9952 131.34 92.0964 132 94.226C132.66 96.3556 135.252 97.812 136.374 98.1464C137.496 98.4808 140.184 97.5876 141.214 96.4656C142.244 95.3436 143.678 91.7576 142.895 89.7424C142.112 87.7272 131.12 74.6064 131.12 74.6064Z" fill="#984AD9" stroke="#263238" stroke-linecap="round" stroke-linejoin="round"/>
<path d="M138.833 68.268C144.919 66.6929 148.575 60.4824 147 54.3963C145.425 48.3103 139.215 44.6535 133.129 46.2286C127.043 47.8036 123.386 54.0142 124.961 60.1002C126.536 66.1863 132.746 69.8431 138.833 68.268Z" fill="#984AD9" stroke="#263238" stroke-linecap="round" stroke-linejoin="round"/>
<path d="M138.069 66.281C143.059 65.1269 146.17 60.1455 145.016 55.1546C143.862 50.1638 138.88 47.0534 133.889 48.2075C128.898 49.3616 125.788 54.343 126.942 59.3339C128.096 64.3247 133.078 67.4351 138.069 66.281Z" fill="#263238" stroke="#263238" stroke-linecap="round" stroke-linejoin="round"/>
<path d="M135.085 61.4636C137.162 61.4636 138.847 59.7793 138.847 57.7016C138.847 55.6239 137.162 53.9396 135.085 53.9396C133.007 53.9396 131.323 55.6239 131.323 57.7016C131.323 59.7793 133.007 61.4636 135.085 61.4636Z" fill="white" stroke="#263238" stroke-linecap="round" stroke-linejoin="round"/>
<path d="M138.054 57.2572C138.055 56.8462 137.934 56.4443 137.707 56.1022C137.479 55.7601 137.155 55.4932 136.775 55.3353C136.396 55.1775 135.978 55.1357 135.575 55.2153C135.172 55.295 134.802 55.4924 134.511 55.7827C134.22 56.073 134.022 56.443 133.941 56.846C133.861 57.249 133.901 57.6668 134.059 58.0465C134.216 58.4262 134.482 58.7509 134.823 58.9793C135.165 59.2077 135.567 59.3296 135.978 59.3296C136.528 59.3296 137.055 59.1114 137.445 58.7228C137.834 58.3343 138.053 57.8072 138.054 57.2572Z" fill="#984AD9" stroke="#263238" stroke-linecap="round" stroke-linejoin="round"/>
<path d="M200.23 202.013H205" stroke="#263238" stroke-linecap="round" stroke-linejoin="round"/>
<path d="M21.3838 202.013H196.957" stroke="#263238" stroke-linecap="round" stroke-linejoin="round"/>
</svg>
