<svg width="50" height="50" viewBox="0 0 50 50" fill="none" xmlns="http://www.w3.org/2000/svg">
<rect width="50" height="50" rx="25" fill="#EDF0FF"/>
<g clip-path="url(#clip0_26_98)">
<path d="M34.3333 18.3315C34.3333 19.8025 30.1546 20.9964 25 20.9964C19.8453 20.9964 15.6666 19.8025 15.6666 18.3315M34.3333 18.3315C34.3333 16.8605 30.1546 15.6666 25 15.6666C19.8453 15.6666 15.6666 16.8605 15.6666 18.3315M34.3333 18.3315V31.6562C34.3333 33.1273 30.1546 34.321 25 34.321C19.8453 34.321 15.6666 33.1274 15.6666 31.6564V18.3315M34.3333 24.9938C34.3333 26.4648 30.1546 27.6588 25 27.6588C19.8453 27.6588 15.6666 26.4648 15.6666 24.9938" stroke="#0061FF" stroke-linecap="square"/>
</g>
<defs>
<clipPath id="clip0_26_98">
<rect width="20" height="20" fill="white" transform="translate(15 15)"/>
</clipPath>
</defs>
</svg>
