<svg width="213" height="187" viewBox="0 0 213 187" fill="none" xmlns="http://www.w3.org/2000/svg">
<path opacity="0.6" d="M194.615 86.2925C197.239 63.2044 189.432 40.0177 173.045 23.5409C164.984 15.4419 153.966 7.81017 139.324 4.12293C98.2583 -6.21418 71.646 3.25257 58.3419 28.4158C45.0379 53.579 6.85786 49.2401 0.786785 92.6251C-5.28429 136.01 24.2136 183.721 74.2485 186.332C124.283 188.943 117.844 164.037 145.215 153.344C166.146 145.172 190.696 120.751 194.615 86.2925Z" fill="#EEDBFF"/>
<path d="M194.615 86.2925C197.239 63.2044 189.432 40.0177 173.045 23.5409C164.984 15.4419 153.966 7.81017 139.324 4.12293C98.2583 -6.21418 71.646 3.25257 58.3419 28.4158C45.0379 53.579 6.85786 49.2401 0.786785 92.6251C-5.28429 136.01 24.2136 183.721 74.2485 186.332C124.283 188.943 117.844 164.037 145.215 153.344C166.146 145.172 190.696 120.751 194.615 86.2925Z" fill="#EEDBFF"/>
<path d="M194.615 86.2925C197.239 63.2044 189.432 40.0177 173.045 23.5409C164.984 15.4419 153.966 7.81017 139.324 4.12293C98.2583 -6.21418 71.646 3.25257 58.3419 28.4158C45.0379 53.579 6.85786 49.2401 0.786785 92.6251C-5.28429 136.01 24.2136 183.721 74.2485 186.332C124.283 188.943 117.844 164.037 145.215 153.344C166.146 145.172 190.696 120.751 194.615 86.2925Z" fill="white" fill-opacity="0.6"/>
<path d="M212.513 185.505H10.2314C10.1021 185.505 9.97821 185.453 9.88684 185.362C9.79547 185.271 9.74414 185.147 9.74414 185.017C9.74664 184.889 9.79877 184.767 9.8896 184.676C9.98044 184.585 10.1029 184.533 10.2314 184.53H212.513C212.641 184.533 212.764 184.585 212.854 184.676C212.945 184.767 212.997 184.889 213 185.017C213 185.147 212.949 185.271 212.857 185.362C212.766 185.453 212.642 185.505 212.513 185.505Z" fill="#263238"/>
<path d="M203.869 153.378C202.471 153.588 201.048 153.588 199.65 153.378C199.65 153.378 200.498 151.507 200.566 151.429C201.365 150.143 203.665 148.126 205.311 148.506C205.583 148.581 205.836 148.713 206.053 148.893C206.27 149.073 206.447 149.297 206.572 149.55C206.697 149.802 206.768 150.079 206.779 150.361C206.79 150.642 206.741 150.923 206.637 151.185C206.363 151.73 205.974 152.209 205.496 152.588C205.018 152.967 204.462 153.236 203.869 153.378Z" fill="#263238"/>
<path d="M176.332 152.549C176.332 152.549 176.011 150.523 176.011 150.396C176.011 148.876 176.771 145.923 178.379 145.358C178.647 145.272 178.93 145.242 179.21 145.272C179.49 145.303 179.761 145.391 180.004 145.533C180.248 145.674 180.459 145.866 180.624 146.094C180.789 146.322 180.903 146.583 180.961 146.859C181.032 147.465 180.97 148.08 180.78 148.661C180.59 149.241 180.276 149.773 179.86 150.221C178.806 151.167 177.617 151.952 176.332 152.549Z" fill="#263238"/>
<path d="M176.848 174.367C178.041 174.349 179.224 174.148 180.356 173.772C180.444 174.62 180.551 175.448 180.697 176.267C180.766 176.618 180.814 176.978 180.902 177.31L181.136 178.284C181.331 178.966 181.496 179.599 181.691 180.233C181.779 180.554 181.877 180.847 181.974 181.207C181.74 180.72 181.35 179.95 181.311 179.882C180.581 178.771 178.515 177.047 177.073 177.436C176.836 177.508 176.617 177.629 176.43 177.791C176.243 177.953 176.092 178.153 175.987 178.377C175.882 178.602 175.826 178.845 175.821 179.093C175.817 179.34 175.865 179.586 175.962 179.814C176.217 180.29 176.574 180.706 177.006 181.03C177.439 181.355 177.937 181.582 178.466 181.695C179.681 181.852 180.913 181.825 182.12 181.617C182.354 182.367 182.588 183.098 182.822 183.77C182.978 184.218 183.134 184.637 183.28 185.047H184.254C184.059 184.55 183.864 184.072 183.66 183.478C183.455 182.883 183.202 182.221 182.978 181.529C184.081 181.096 185.118 180.509 186.057 179.785C186.685 180.183 187.335 180.544 188.006 180.866C187.791 181.617 187.587 182.357 187.411 183.059C187.236 183.76 187.07 184.403 186.924 185.008H187.898C188.015 184.452 188.152 183.867 188.298 183.244C188.444 182.62 188.61 181.948 188.785 181.295C189.985 181.552 191.217 181.628 192.439 181.519C192.966 181.426 193.467 181.218 193.906 180.912C194.345 180.606 194.713 180.208 194.983 179.746C195.09 179.524 195.151 179.283 195.159 179.036C195.168 178.79 195.125 178.545 195.033 178.316C194.942 178.088 194.803 177.881 194.626 177.709C194.45 177.538 194.239 177.405 194.008 177.319C192.585 176.871 190.461 178.518 189.682 179.6C189.682 179.668 189.146 180.574 188.902 181.012C189.009 180.603 189.116 180.194 189.243 179.765C189.409 179.142 189.604 178.498 189.799 177.875L190.13 176.9C190.237 176.559 190.383 176.257 190.5 175.926C190.695 175.448 190.919 174.951 191.134 174.493C192.223 174.908 193.37 175.148 194.534 175.205C195.072 175.194 195.6 175.066 196.083 174.831C196.566 174.595 196.992 174.257 197.331 173.841C197.469 173.635 197.562 173.403 197.604 173.159C197.646 172.915 197.637 172.666 197.576 172.426C197.515 172.186 197.405 171.961 197.252 171.767C197.099 171.573 196.907 171.413 196.688 171.297C195.353 170.635 192.995 171.931 192.069 172.886C192.069 172.886 191.864 173.139 191.66 173.412C191.894 172.954 192.118 172.486 192.361 172.028C193.073 170.732 193.823 169.436 194.573 168.13C194.739 167.858 194.885 167.585 195.041 167.312C196.163 167.734 197.342 167.984 198.539 168.053C199.075 168.041 199.602 167.913 200.083 167.677C200.564 167.442 200.988 167.104 201.326 166.688C201.464 166.483 201.558 166.25 201.601 166.006C201.644 165.762 201.636 165.512 201.576 165.271C201.516 165.031 201.407 164.805 201.255 164.61C201.103 164.414 200.911 164.252 200.693 164.135C199.348 163.482 197 164.778 196.074 165.733C196.074 165.733 195.83 166.035 195.596 166.338C195.996 165.616 196.386 164.905 196.746 164.174C197.381 162.938 197.928 161.658 198.383 160.345C199.537 160.779 200.749 161.042 201.979 161.124C202.515 161.113 203.041 160.985 203.523 160.749C204.004 160.514 204.428 160.176 204.766 159.76C204.906 159.555 205.001 159.323 205.045 159.078C205.088 158.834 205.08 158.583 205.02 158.342C204.961 158.101 204.851 157.875 204.698 157.68C204.545 157.484 204.352 157.323 204.132 157.207C202.797 156.545 200.439 157.85 199.514 158.805C199.445 158.873 198.705 159.838 198.442 160.189C198.867 158.888 199.17 157.551 199.348 156.194C199.52 154.986 199.621 153.769 199.65 152.549C199.65 151.419 199.65 150.376 199.65 149.46C199.65 148.964 199.592 148.486 199.562 148.087C199.562 148.087 200.176 146.391 200.205 146.284C200.498 144.978 200.303 142.298 199.017 141.538C198.801 141.418 198.562 141.344 198.315 141.322C198.069 141.301 197.821 141.331 197.587 141.412C197.353 141.493 197.139 141.623 196.959 141.792C196.779 141.962 196.637 142.167 196.542 142.396C196.374 142.905 196.321 143.445 196.385 143.977C196.449 144.509 196.629 145.02 196.912 145.475C197.627 146.446 198.488 147.301 199.465 148.009C199.465 148.457 199.514 148.925 199.523 149.441C199.523 150.357 199.523 151.39 199.523 152.52C199.523 152.822 199.475 153.144 199.455 153.495C199.387 152.959 199.28 152.228 199.26 152.16C198.919 150.873 197.506 148.583 196.025 148.496C195.774 148.489 195.523 148.536 195.291 148.633C195.059 148.731 194.85 148.876 194.679 149.061C194.507 149.245 194.377 149.464 194.297 149.703C194.216 149.941 194.188 150.194 194.213 150.445C194.301 150.972 194.504 151.475 194.807 151.916C195.11 152.357 195.506 152.726 195.967 152.998C197.052 153.537 198.217 153.903 199.416 154.079C199.358 154.771 199.28 155.482 199.153 156.213C198.944 157.539 198.618 158.843 198.179 160.111H198.101C198.101 159.604 198.101 158.552 198.042 158.464C197.847 157.149 196.707 154.713 195.236 154.469C194.99 154.435 194.74 154.452 194.502 154.521C194.264 154.59 194.043 154.708 193.853 154.868C193.664 155.028 193.51 155.226 193.403 155.45C193.295 155.673 193.236 155.917 193.229 156.165C193.26 156.699 193.406 157.221 193.659 157.694C193.911 158.167 194.263 158.579 194.69 158.903C195.706 159.512 196.806 159.968 197.955 160.257C197.473 161.515 196.913 162.742 196.279 163.931C195.821 164.808 195.304 165.685 194.788 166.552C194.788 166.201 194.788 164.817 194.739 164.72C194.544 163.405 193.394 160.968 191.923 160.725C191.677 160.691 191.427 160.708 191.189 160.777C190.951 160.846 190.73 160.964 190.54 161.124C190.351 161.284 190.197 161.482 190.09 161.706C189.982 161.929 189.923 162.173 189.916 162.42C189.947 162.955 190.093 163.477 190.346 163.95C190.598 164.423 190.95 164.835 191.377 165.158C192.421 165.814 193.558 166.31 194.749 166.63C194.515 167.02 194.281 167.419 194.037 167.809C193.258 169.105 192.469 170.391 191.738 171.707C191.475 172.155 191.241 172.603 191.007 173.051C191.007 172.525 191.007 171.56 190.948 171.483C190.754 170.167 189.604 167.731 188.132 167.487C187.887 167.455 187.638 167.473 187.4 167.543C187.162 167.612 186.942 167.731 186.753 167.89C186.564 168.05 186.41 168.248 186.302 168.47C186.194 168.693 186.134 168.936 186.125 169.183C186.154 169.727 186.304 170.257 186.564 170.735C186.823 171.214 187.186 171.629 187.626 171.95C188.627 172.592 189.722 173.075 190.87 173.383C190.481 174.133 190.11 174.893 189.779 175.653C189.643 175.984 189.487 176.316 189.38 176.627C189.272 176.939 189.136 177.28 189.019 177.602C188.805 178.265 188.6 178.888 188.405 179.551C188.308 179.872 188.23 180.174 188.142 180.476C188.21 179.941 188.308 179.093 188.308 179.015C188.308 177.68 187.548 175.117 186.135 174.64C185.897 174.569 185.647 174.548 185.401 174.58C185.155 174.612 184.919 174.696 184.707 174.826C184.495 174.955 184.314 175.128 184.174 175.333C184.033 175.538 183.938 175.77 183.894 176.014C183.884 176.14 183.884 176.267 183.894 176.394C183.249 177.375 182.866 178.506 182.783 179.677C182.783 179.755 182.861 180.769 182.909 181.285C182.773 180.876 182.637 180.476 182.51 180.057C182.305 179.444 182.12 178.8 181.925 178.167C181.838 177.846 181.75 177.514 181.672 177.193C181.594 176.871 181.526 176.52 181.448 176.218C181.35 175.712 181.272 175.195 181.185 174.669C182.322 174.41 183.413 173.98 184.42 173.392C184.861 173.087 185.229 172.689 185.5 172.226C185.771 171.763 185.938 171.247 185.989 170.713C185.993 170.463 185.944 170.216 185.845 169.987C185.746 169.758 185.6 169.553 185.415 169.385C185.231 169.217 185.013 169.091 184.776 169.014C184.538 168.937 184.288 168.912 184.04 168.939C182.559 169.124 181.321 171.512 181.068 172.837C181.068 172.886 181.068 173.168 181.068 173.5C181 172.993 180.941 172.476 180.892 171.96C180.766 170.489 180.678 169.037 180.581 167.487L180.522 166.513C181.689 166.248 182.809 165.807 183.845 165.207C184.286 164.902 184.654 164.504 184.925 164.041C185.196 163.578 185.363 163.061 185.414 162.528C185.416 162.279 185.366 162.032 185.267 161.804C185.168 161.576 185.021 161.371 184.837 161.204C184.653 161.036 184.436 160.909 184.199 160.832C183.963 160.754 183.712 160.728 183.465 160.754C181.984 160.939 180.736 163.327 180.493 164.652C180.493 164.652 180.493 165.042 180.425 165.412C180.366 164.603 180.288 163.785 180.191 162.986C180.033 161.603 179.785 160.233 179.45 158.883C180.649 158.608 181.802 158.158 182.87 157.548C183.311 157.241 183.68 156.843 183.952 156.381C184.225 155.918 184.394 155.402 184.449 154.869C184.452 154.62 184.402 154.373 184.302 154.145C184.203 153.917 184.057 153.712 183.872 153.545C183.688 153.377 183.471 153.25 183.234 153.173C182.998 153.095 182.748 153.069 182.5 153.095C181.019 153.28 179.772 155.668 179.528 156.993C179.528 157.09 179.421 158.308 179.401 158.747C179.402 158.731 179.402 158.714 179.401 158.698C179.037 157.381 178.554 156.099 177.959 154.869C177.432 153.768 176.843 152.697 176.196 151.663C175.601 150.688 174.997 149.85 174.461 149.1C174.169 148.7 173.886 148.34 173.623 148.009C173.623 148.009 173.204 146.255 173.165 146.147C172.688 144.9 171.051 142.766 169.56 142.844C169.313 142.863 169.072 142.934 168.854 143.052C168.636 143.17 168.446 143.333 168.295 143.53C168.144 143.727 168.037 143.953 167.979 144.194C167.922 144.435 167.916 144.686 167.962 144.929C168.104 145.446 168.359 145.926 168.707 146.333C169.056 146.741 169.49 147.067 169.979 147.287C171.108 147.703 172.294 147.943 173.496 147.999C173.769 148.35 174.042 148.73 174.344 149.158C174.861 149.918 175.445 150.766 176.01 151.741L176.478 152.559L175.572 151.585C174.598 150.698 172.142 149.558 170.856 150.318C170.645 150.448 170.463 150.621 170.324 150.825C170.184 151.03 170.09 151.262 170.047 151.506C170.003 151.75 170.012 152.001 170.073 152.241C170.133 152.481 170.244 152.706 170.398 152.9C170.763 153.292 171.21 153.6 171.706 153.801C172.203 154.003 172.737 154.095 173.272 154.07C174.471 153.922 175.641 153.593 176.741 153.095C177.073 153.709 177.394 154.342 177.716 155.044C178.28 156.277 178.73 157.558 179.06 158.873H178.982C178.71 158.454 178.096 157.597 178.008 157.538C177.121 156.564 174.822 155.151 173.457 155.755C173.233 155.862 173.034 156.015 172.873 156.204C172.712 156.392 172.592 156.613 172.523 156.851C172.453 157.09 172.434 157.34 172.467 157.586C172.501 157.832 172.586 158.068 172.717 158.279C173.039 158.706 173.449 159.059 173.92 159.313C174.391 159.567 174.911 159.716 175.445 159.75C176.684 159.717 177.912 159.504 179.09 159.117C179.383 160.428 179.595 161.756 179.723 163.093C179.82 164.067 179.879 165.09 179.928 166.104C179.733 165.811 178.953 164.681 178.866 164.603C177.979 163.629 175.679 162.216 174.315 162.83C174.091 162.935 173.892 163.087 173.731 163.275C173.57 163.463 173.45 163.683 173.381 163.92C173.311 164.158 173.292 164.407 173.325 164.653C173.359 164.898 173.443 165.134 173.574 165.344C173.895 165.775 174.307 166.131 174.78 166.387C175.253 166.643 175.776 166.792 176.313 166.825C177.542 166.793 178.76 166.579 179.928 166.191C179.928 166.649 179.976 167.107 179.996 167.565C180.054 169.076 180.103 170.586 180.2 172.067C180.2 172.584 180.288 173.09 180.337 173.597C180.045 173.159 179.489 172.379 179.431 172.321C178.544 171.346 176.244 169.933 174.88 170.537C174.656 170.644 174.457 170.797 174.296 170.986C174.134 171.174 174.015 171.395 173.945 171.634C173.875 171.872 173.856 172.122 173.89 172.368C173.923 172.614 174.008 172.85 174.14 173.061C174.475 173.456 174.889 173.776 175.356 174.001C175.822 174.225 176.331 174.35 176.848 174.367Z" fill="#263238"/>
<path d="M152.38 148.106C152.376 146.697 152.271 145.291 152.069 143.897L159.689 140.593L157.418 133.597L149.486 135.37C148.1 132.497 146.261 129.865 144.039 127.575L148.259 120.423L142.315 116.096L136.926 122.255C134.124 120.74 131.092 119.697 127.952 119.166L127.172 110.902H119.815L119.045 119C115.886 119.416 112.818 120.351 109.964 121.767L104.478 115.541L98.5628 119.828L102.704 126.834C100.403 129.034 98.4718 131.591 96.9842 134.406L88.8185 132.593L86.5481 139.59L94.022 142.825C93.7013 144.567 93.5382 146.335 93.5348 148.106C93.5363 149.515 93.6372 150.921 93.8368 152.316L86.2266 155.619L88.497 162.615L96.4288 160.842C97.8155 163.715 99.6546 166.347 101.876 168.637L97.6566 175.79L103.601 180.106L108.979 174.016C111.782 175.529 114.814 176.572 117.954 177.105L118.743 185.368H126.1L126.87 177.271C130.028 176.848 133.095 175.914 135.952 174.503L141.438 180.72L147.391 176.394L143.25 169.388C145.551 167.187 147.482 164.631 148.97 161.816L157.067 163.619L159.348 156.632L151.874 153.387C152.202 151.646 152.372 149.878 152.38 148.106ZM104.312 148.106C104.31 144.413 105.404 140.802 107.455 137.731C109.507 134.66 112.423 132.267 115.836 130.855C119.248 129.442 123.003 129.074 126.625 129.797C130.246 130.52 133.572 132.301 136.181 134.915C138.79 137.53 140.564 140.859 141.279 144.482C141.994 148.105 141.619 151.859 140.199 155.269C138.779 158.678 136.38 161.59 133.305 163.635C130.23 165.68 126.617 166.766 122.923 166.757C117.984 166.746 113.25 164.777 109.761 161.28C106.272 157.784 104.312 153.046 104.312 148.106Z" fill="#263238"/>
<path d="M126.12 185.836H118.763C118.642 185.837 118.525 185.792 118.435 185.711C118.345 185.63 118.288 185.518 118.276 185.397L117.526 177.505C114.592 176.957 111.757 175.971 109.116 174.581L103.991 180.428C103.912 180.52 103.8 180.579 103.68 180.594C103.559 180.608 103.437 180.577 103.338 180.506L97.3843 176.179C97.2851 176.109 97.2168 176.003 97.1932 175.883C97.1697 175.763 97.1927 175.639 97.2577 175.536L101.292 168.715C99.2303 166.558 97.5086 164.101 96.1858 161.427L88.6242 163.112C88.5056 163.14 88.3806 163.123 88.2742 163.063C88.1678 163.004 88.0875 162.907 88.0493 162.791L85.7789 155.794C85.7426 155.679 85.7503 155.554 85.8008 155.445C85.8512 155.335 85.9406 155.248 86.0518 155.2L93.3307 152.043C92.9311 149.089 92.987 146.092 93.4964 143.156L86.3733 140.067C86.264 140.018 86.1767 139.93 86.1281 139.82C86.0796 139.71 86.0732 139.587 86.1102 139.473L88.3806 132.476C88.4168 132.361 88.4952 132.264 88.6 132.204C88.7049 132.145 88.8284 132.127 88.9458 132.155L96.7412 133.879C98.1622 131.26 99.9689 128.868 102.101 126.786L98.1541 120.101C98.0925 119.996 98.0723 119.872 98.0975 119.753C98.1228 119.634 98.1916 119.529 98.2906 119.458L104.235 115.141C104.331 115.067 104.453 115.033 104.575 115.045C104.696 115.058 104.808 115.117 104.887 115.209L110.14 121.153C112.829 119.867 115.697 118.993 118.646 118.561L119.377 110.844C119.389 110.722 119.445 110.61 119.535 110.527C119.625 110.444 119.742 110.398 119.864 110.396H127.221C127.343 110.398 127.461 110.444 127.55 110.527C127.64 110.61 127.697 110.722 127.709 110.844L128.459 118.737C131.391 119.289 134.226 120.274 136.868 121.66L141.994 115.814C142.076 115.725 142.187 115.669 142.307 115.656C142.427 115.644 142.548 115.675 142.646 115.745L148.6 120.072C148.696 120.145 148.761 120.251 148.785 120.37C148.808 120.488 148.787 120.611 148.727 120.715L144.693 127.536C146.746 129.696 148.467 132.149 149.799 134.815L157.36 133.129C157.479 133.104 157.602 133.124 157.707 133.186C157.811 133.247 157.889 133.345 157.925 133.46L160.206 140.457C160.242 140.572 160.234 140.697 160.184 140.807C160.133 140.916 160.044 141.004 159.933 141.051L152.654 144.208C152.828 145.5 152.916 146.802 152.917 148.106C152.914 149.775 152.77 151.441 152.488 153.085L159.602 156.174C159.714 156.22 159.805 156.307 159.856 156.418C159.906 156.528 159.913 156.654 159.874 156.769L157.604 163.765C157.566 163.881 157.485 163.978 157.379 164.038C157.273 164.097 157.148 164.115 157.029 164.087L149.234 162.362C147.81 164.98 146.004 167.371 143.874 169.456L147.821 176.14C147.882 176.245 147.903 176.369 147.877 176.488C147.852 176.607 147.783 176.713 147.684 176.783L141.731 181.1C141.634 181.172 141.515 181.204 141.396 181.192C141.277 181.179 141.166 181.122 141.087 181.032L135.835 175.088C133.145 176.373 130.278 177.247 127.328 177.68L126.588 185.397C126.578 185.515 126.525 185.626 126.439 185.707C126.352 185.788 126.239 185.834 126.12 185.836ZM119.202 184.861H125.672L126.403 177.202C126.413 177.093 126.46 176.99 126.536 176.91C126.612 176.83 126.713 176.779 126.822 176.764C129.926 176.353 132.941 175.435 135.748 174.045C135.844 173.997 135.954 173.983 136.06 174.004C136.166 174.025 136.261 174.081 136.332 174.162L141.536 180.058L146.768 176.257L142.871 169.621C142.817 169.527 142.796 169.417 142.812 169.309C142.828 169.201 142.879 169.102 142.958 169.027C145.224 166.865 147.126 164.351 148.59 161.582C148.638 161.486 148.717 161.408 148.814 161.362C148.912 161.317 149.022 161.305 149.126 161.329L156.795 163.044L158.793 156.886L151.728 153.826C151.629 153.782 151.548 153.707 151.497 153.611C151.446 153.516 151.428 153.406 151.446 153.3C151.758 151.586 151.917 149.848 151.923 148.106C151.919 146.72 151.818 145.337 151.621 143.965C151.607 143.86 151.627 143.753 151.678 143.66C151.728 143.567 151.808 143.493 151.904 143.448L159.114 140.32L157.117 134.172L149.614 135.848C149.505 135.868 149.394 135.852 149.295 135.803C149.197 135.753 149.117 135.674 149.068 135.575C147.712 132.754 145.905 130.174 143.718 127.935C143.643 127.86 143.595 127.762 143.581 127.656C143.567 127.551 143.588 127.443 143.64 127.351L147.645 120.53L142.413 116.73L137.326 122.488C137.255 122.572 137.156 122.628 137.048 122.648C136.94 122.667 136.828 122.649 136.732 122.596C133.972 121.112 130.991 120.086 127.903 119.555C127.799 119.537 127.704 119.485 127.632 119.408C127.56 119.33 127.515 119.232 127.504 119.127L126.754 111.331H120.293L119.562 119C119.552 119.11 119.505 119.213 119.429 119.292C119.353 119.372 119.252 119.423 119.143 119.438C116.037 119.846 113.018 120.761 110.208 122.147C110.114 122.196 110.006 122.211 109.902 122.192C109.798 122.173 109.703 122.119 109.633 122.04L104.41 116.155L99.1773 119.955L103.075 126.591C103.13 126.684 103.152 126.794 103.138 126.901C103.124 127.009 103.074 127.109 102.997 127.185C100.729 129.345 98.8266 131.86 97.3648 134.63C97.3134 134.723 97.234 134.798 97.1378 134.843C97.0416 134.888 96.9335 134.902 96.8289 134.883L89.1602 133.168L87.2113 139.317L94.2759 142.376C94.3755 142.422 94.4572 142.499 94.5083 142.596C94.5594 142.693 94.5771 142.804 94.5585 142.912C94.2459 144.626 94.0862 146.364 94.081 148.106C94.0861 149.492 94.187 150.876 94.3831 152.247C94.398 152.354 94.3775 152.462 94.3246 152.555C94.2718 152.649 94.1896 152.722 94.0908 152.764L86.88 155.892L88.8289 162.04L96.332 160.364C96.4393 160.34 96.5516 160.353 96.6507 160.401C96.7497 160.449 96.8297 160.528 96.8776 160.627C98.2374 163.451 100.047 166.035 102.237 168.277C102.314 168.352 102.362 168.451 102.375 168.557C102.387 168.663 102.363 168.771 102.305 168.861L98.31 175.634L103.543 179.434L108.629 173.675C108.701 173.591 108.799 173.535 108.907 173.516C109.016 173.496 109.127 173.514 109.224 173.568C111.982 175.053 114.964 176.079 118.052 176.608C118.157 176.625 118.253 176.676 118.325 176.754C118.398 176.832 118.442 176.931 118.451 177.037L119.202 184.861ZM122.924 167.244C119.139 167.242 115.44 166.118 112.294 164.014C109.148 161.91 106.697 158.92 105.25 155.423C103.803 151.926 103.425 148.078 104.165 144.367C104.905 140.655 106.728 137.246 109.405 134.57C112.082 131.895 115.492 130.073 119.204 129.335C122.916 128.598 126.763 128.977 130.26 130.426C133.756 131.875 136.744 134.328 138.847 137.475C140.949 140.622 142.072 144.321 142.072 148.106C142.066 153.182 140.047 158.048 136.457 161.636C132.867 165.224 128 167.241 122.924 167.244ZM122.924 129.943C119.332 129.945 115.821 131.012 112.836 133.009C109.85 135.006 107.524 137.843 106.15 141.162C104.777 144.481 104.419 148.133 105.121 151.656C105.823 155.178 107.553 158.414 110.094 160.953C112.634 163.492 115.871 165.221 119.394 165.921C122.917 166.621 126.569 166.261 129.887 164.886C133.205 163.511 136.041 161.183 138.037 158.196C140.032 155.209 141.097 151.698 141.097 148.106C141.092 143.289 139.175 138.67 135.768 135.265C132.361 131.859 127.741 129.945 122.924 129.943Z" fill="#263238"/>
<path d="M195.87 100.525C195.868 99.2889 195.777 98.0546 195.597 96.8318L202.291 93.9085L200.342 87.7599L193.375 89.3189C192.158 86.8027 190.542 84.4994 188.591 82.498L192.303 76.2129L187.071 72.4224L182.345 77.772C179.881 76.4459 177.219 75.5278 174.462 75.0533L173.77 67.7938H167.261L166.588 74.9169C163.814 75.2865 161.118 76.106 158.608 77.3432L153.736 71.8767L148.513 75.6672L152.147 81.8353C150.126 83.7669 148.428 86.0107 147.119 88.4809L140.006 86.8926L138.057 93.0218L144.615 95.8573C144.337 97.3878 144.197 98.9401 144.196 100.496C144.199 101.734 144.287 102.972 144.459 104.198L137.774 107.122L139.723 113.27L146.69 111.711C147.903 114.23 149.519 116.534 151.475 118.532L147.762 124.817L152.985 128.618L157.711 123.258C160.176 124.589 162.842 125.507 165.604 125.977L166.286 133.236H172.747L173.429 126.113C176.2 125.748 178.892 124.932 181.4 123.697L186.272 129.163L191.495 125.363L187.85 119.205C189.875 117.273 191.573 115.025 192.878 112.549L200.001 114.138L201.95 107.999L195.383 105.153C195.683 103.628 195.846 102.079 195.87 100.525ZM153.648 100.525C153.648 97.2828 154.609 94.1136 156.411 91.4181C158.212 88.7226 160.772 86.6219 163.768 85.3817C166.763 84.1414 170.059 83.8174 173.239 84.4506C176.418 85.0838 179.339 86.6458 181.631 88.9389C183.922 91.232 185.483 94.1533 186.114 97.3333C186.745 100.513 186.419 103.809 185.177 106.804C183.935 109.798 181.833 112.357 179.136 114.157C176.44 115.957 173.27 116.917 170.028 116.915C165.683 116.912 161.516 115.184 158.445 112.111C155.373 109.037 153.648 104.87 153.648 100.525Z" fill="#984AD9"/>
<path d="M172.795 133.733H166.335C166.215 133.731 166.1 133.686 166.012 133.605C165.924 133.524 165.869 133.414 165.857 133.295L165.195 126.396C162.644 125.927 160.177 125.08 157.877 123.882L153.404 128.949C153.322 129.038 153.211 129.094 153.09 129.106C152.97 129.119 152.85 129.087 152.751 129.017L147.528 125.217C147.43 125.148 147.361 125.044 147.336 124.927C147.311 124.809 147.331 124.687 147.392 124.583L150.919 118.61C149.129 116.731 147.628 114.597 146.466 112.276L139.869 113.748C139.751 113.773 139.627 113.753 139.523 113.691C139.418 113.63 139.34 113.532 139.304 113.416L137.306 107.278C137.264 107.164 137.264 107.04 137.307 106.926C137.351 106.813 137.433 106.72 137.54 106.664L143.894 103.916C143.747 102.788 143.672 101.652 143.669 100.515C143.674 99.0624 143.795 97.6124 144.03 96.1789L137.823 93.4895C137.711 93.44 137.621 93.351 137.571 93.2395C137.521 93.1281 137.513 93.0019 137.55 92.8853L139.499 86.7464C139.537 86.6301 139.617 86.5319 139.723 86.4708C139.829 86.4096 139.954 86.3898 140.074 86.4151L146.827 87.9255C148.072 85.6488 149.644 83.5673 151.494 81.7476L148.054 75.901C147.994 75.7967 147.973 75.674 147.997 75.5556C148.02 75.4373 148.085 75.3315 148.181 75.2579L153.414 71.4577C153.513 71.3868 153.634 71.3555 153.755 71.3699C153.876 71.3843 153.987 71.4435 154.067 71.5356L158.646 76.7196C160.989 75.605 163.485 74.8463 166.052 74.4686L166.695 67.7353C166.705 67.6147 166.759 67.5019 166.847 67.4191C166.936 67.3362 167.052 67.2891 167.173 67.2871H173.633C173.756 67.2867 173.874 67.3327 173.964 67.4158C174.055 67.4989 174.11 67.613 174.12 67.7353L174.773 74.6245C177.328 75.0968 179.797 75.9474 182.101 77.1483L186.573 72.0716C186.655 71.9828 186.767 71.9269 186.887 71.9143C187.007 71.9017 187.128 71.9334 187.226 72.0033L192.449 75.8036C192.548 75.8744 192.617 75.9797 192.642 76.0987C192.668 76.2177 192.647 76.3418 192.586 76.4467L189.185 82.4395C190.973 84.318 192.47 86.4528 193.628 88.7732L200.225 87.3018C200.345 87.2765 200.47 87.2963 200.576 87.3575C200.682 87.4186 200.762 87.5168 200.8 87.6332L202.798 93.7818C202.834 93.8971 202.826 94.0217 202.776 94.1316C202.725 94.2414 202.636 94.3286 202.525 94.3762L196.172 97.1241C196.318 98.2517 196.393 99.3876 196.396 100.525C196.393 101.981 196.269 103.435 196.025 104.871L202.242 107.56C202.352 107.61 202.439 107.697 202.487 107.807C202.536 107.917 202.542 108.04 202.505 108.155L200.556 114.303C200.518 114.417 200.44 114.513 200.335 114.572C200.231 114.631 200.109 114.65 199.991 114.625L193.239 113.114C191.994 115.391 190.421 117.473 188.571 119.292L192.011 125.139C192.072 125.244 192.093 125.368 192.067 125.487C192.042 125.606 191.973 125.711 191.874 125.782L186.651 129.582C186.553 129.652 186.432 129.684 186.312 129.671C186.192 129.659 186.08 129.603 185.999 129.514L181.419 124.32C179.077 125.438 176.581 126.197 174.013 126.571L173.37 133.314C173.362 133.38 173.34 133.444 173.306 133.502C173.273 133.559 173.227 133.609 173.173 133.648C173.119 133.688 173.058 133.716 172.993 133.73C172.928 133.745 172.861 133.746 172.795 133.733ZM166.783 132.759H172.357L172.99 126.084C172.998 125.974 173.044 125.87 173.121 125.79C173.197 125.71 173.299 125.659 173.409 125.646C176.119 125.278 178.751 124.475 181.204 123.268C181.301 123.222 181.409 123.208 181.514 123.227C181.619 123.246 181.715 123.298 181.789 123.375L186.32 128.51L190.832 125.236L187.411 119.458C187.358 119.363 187.337 119.253 187.353 119.146C187.369 119.038 187.42 118.939 187.499 118.864C189.486 116.969 191.151 114.764 192.43 112.335C192.48 112.241 192.56 112.167 192.657 112.123C192.754 112.079 192.862 112.068 192.966 112.091L199.65 113.582L201.375 108.281L195.226 105.611C195.124 105.569 195.039 105.492 194.986 105.395C194.933 105.297 194.914 105.185 194.934 105.075C195.208 103.574 195.348 102.051 195.353 100.525C195.352 99.3118 195.264 98.1004 195.09 96.9C195.074 96.7948 195.093 96.6875 195.144 96.5942C195.195 96.501 195.276 96.427 195.373 96.3835L201.658 93.6551L199.943 88.3542L193.404 89.8159C193.297 89.8383 193.185 89.8247 193.087 89.7771C192.988 89.7295 192.908 89.6506 192.859 89.5528C191.667 87.0783 190.08 84.814 188.162 82.8487C188.085 82.7738 188.037 82.6749 188.024 82.5685C188.012 82.462 188.036 82.3546 188.094 82.2641L191.582 76.359L187.07 73.085L182.637 78.1033C182.564 78.1877 182.464 78.2444 182.354 78.2639C182.244 78.2834 182.13 78.2645 182.033 78.2104C179.622 76.9028 177.01 76.0039 174.305 75.5503C174.199 75.5303 174.103 75.4769 174.029 75.3981C173.955 75.3192 173.909 75.2189 173.896 75.1118L173.253 68.2908H167.748L167.114 74.9754C167.102 75.0833 167.054 75.1841 166.978 75.2618C166.902 75.3395 166.803 75.3896 166.695 75.4041C163.985 75.7728 161.352 76.5791 158.9 77.7914C158.805 77.8387 158.696 77.8529 158.592 77.8317C158.488 77.8105 158.394 77.7552 158.325 77.6745L153.716 72.5588L149.233 75.8133L152.644 81.5917C152.702 81.6863 152.725 81.7977 152.711 81.9075C152.697 82.0173 152.646 82.119 152.566 82.1959C150.578 84.0851 148.912 86.2872 147.635 88.7148C147.582 88.8087 147.501 88.8837 147.403 88.9291C147.305 88.9745 147.196 88.9882 147.09 88.9681L140.405 87.4772L138.69 92.7781L144.839 95.4383C144.941 95.481 145.026 95.5573 145.079 95.6548C145.132 95.7523 145.151 95.865 145.131 95.9742C144.852 97.4751 144.712 98.9984 144.712 100.525C144.713 101.741 144.801 102.956 144.975 104.159C144.99 104.266 144.97 104.374 144.917 104.467C144.864 104.561 144.782 104.634 144.683 104.676L138.398 107.395L140.123 112.695L146.661 111.244C146.768 111.219 146.881 111.232 146.98 111.28C147.079 111.328 147.159 111.408 147.207 111.507C148.398 113.978 149.985 116.239 151.903 118.201C151.975 118.281 152.02 118.381 152.032 118.487C152.045 118.594 152.023 118.701 151.972 118.795L148.483 124.691L152.995 127.974L157.428 122.946C157.501 122.864 157.599 122.809 157.707 122.79C157.815 122.77 157.926 122.788 158.023 122.839C160.437 124.148 163.051 125.047 165.76 125.499C165.865 125.52 165.96 125.574 166.032 125.652C166.104 125.731 166.149 125.832 166.159 125.938L166.783 132.759ZM170.028 117.382C166.69 117.382 163.427 116.393 160.651 114.538C157.876 112.684 155.713 110.048 154.435 106.964C153.158 103.88 152.824 100.487 153.475 97.2128C154.126 93.9389 155.733 90.9317 158.094 88.5714C160.454 86.2111 163.461 84.6038 166.735 83.9526C170.009 83.3013 173.402 83.6356 176.486 84.9129C179.57 86.1903 182.206 88.3535 184.06 91.1289C185.915 93.9044 186.905 97.1674 186.905 100.505C186.902 104.981 185.123 109.272 181.959 112.436C178.794 115.601 174.503 117.38 170.028 117.382ZM170.028 84.6027C166.882 84.6027 163.808 85.5354 161.193 87.2828C158.577 89.0302 156.539 91.5138 155.336 94.4196C154.132 97.3255 153.817 100.523 154.431 103.608C155.044 106.693 156.559 109.526 158.783 111.75C161.007 113.974 163.84 115.489 166.925 116.102C170.01 116.716 173.208 116.401 176.113 115.197C179.019 113.994 181.503 111.956 183.25 109.34C184.998 106.725 185.93 103.651 185.93 100.505C185.923 96.2919 184.244 92.2534 181.263 89.2759C178.282 86.2983 174.241 84.6247 170.028 84.6222V84.6027Z" fill="#263238"/>
<path d="M78.7335 61.8986L90.8261 71.5259L100.522 59.6379L104.361 62.376L91.9272 82.3128L77.6616 76.096L78.7335 61.8986Z" fill="#984AD9"/>
<path d="M91.9272 82.8C91.8596 82.7978 91.7931 82.7811 91.7324 82.7513L77.4667 76.5344C77.3757 76.4934 77.2991 76.4259 77.247 76.3408C77.1948 76.2556 77.1695 76.1567 77.1744 76.0569L78.2463 61.8595C78.2532 61.7712 78.2841 61.6864 78.3356 61.6143C78.3871 61.5422 78.4573 61.4855 78.5386 61.4503C78.6188 61.4131 78.7076 61.3989 78.7954 61.4092C78.8831 61.4195 78.9663 61.454 79.0356 61.5088L90.7287 70.8438L100.112 59.326C100.192 59.2317 100.304 59.1704 100.427 59.1541C100.549 59.1379 100.673 59.1679 100.775 59.2383L104.614 61.9765C104.716 62.0493 104.787 62.1581 104.813 62.281C104.838 62.4039 104.816 62.5318 104.751 62.6391L92.317 82.5661C92.2747 82.6327 92.2175 82.6886 92.1498 82.7292C92.0822 82.7698 92.0059 82.7941 91.9272 82.8ZM78.1781 75.7841L91.7421 81.6989L103.708 62.5027L100.609 60.3005L91.2062 71.8279C91.1258 71.9283 91.009 71.9929 90.8812 72.0075C90.7534 72.0221 90.625 71.9855 90.5241 71.9059L79.1525 62.8145L78.1781 75.7841Z" fill="#263238"/>
<path d="M75.2353 98.6442H46.8892L45.3594 175.809H52.2291L61.0671 117.149L69.8954 175.809H76.7749L75.2353 98.6442Z" fill="#263238"/>
<path d="M76.7754 176.296H69.896C69.7794 176.295 69.6672 176.252 69.5795 176.175C69.4919 176.098 69.4348 175.993 69.4185 175.877L61.0676 120.423L52.7071 175.848C52.6927 175.964 52.6362 176.071 52.5481 176.148C52.4601 176.226 52.3467 176.268 52.2296 176.267H45.4086C45.3432 176.269 45.2781 176.256 45.2177 176.231C45.1573 176.206 45.1028 176.168 45.0578 176.121C44.9706 176.025 44.9221 175.9 44.9214 175.77L46.4512 98.6149C46.4538 98.4874 46.5062 98.3659 46.5973 98.2767C46.6884 98.1874 46.8109 98.1374 46.9385 98.1374H75.2845C75.3481 98.1361 75.4112 98.1475 75.4703 98.1709C75.5293 98.1944 75.5831 98.2293 75.6285 98.2738C75.6739 98.3182 75.7099 98.3713 75.7345 98.4299C75.7591 98.4885 75.7718 98.5514 75.7718 98.6149L77.2626 175.848C77.2623 175.98 77.2097 176.106 77.1165 176.199C77.0689 176.237 77.0143 176.265 76.9557 176.282C76.8972 176.299 76.8359 176.303 76.7754 176.296ZM70.315 175.322H76.2785L74.7583 99.1411H47.3672L45.8568 175.322H51.7911L60.5609 117.08C60.5609 116.951 60.6123 116.827 60.7036 116.736C60.795 116.644 60.9189 116.593 61.0482 116.593C61.1774 116.593 61.3013 116.644 61.3927 116.736C61.484 116.827 61.5354 116.951 61.5354 117.08L70.315 175.322Z" fill="#263238"/>
<path d="M66.1149 56.8997L61.0966 57.9521L56.0685 56.8997L43.4497 61.8985L46.8894 98.6442H75.294L78.7337 61.8985L66.1149 56.8997Z" fill="#984AD9"/>
<path d="M75.2939 99.1411H46.9186C46.7965 99.1393 46.6793 99.0926 46.5895 99.0099C46.4996 98.9273 46.4433 98.8144 46.4314 98.6929L43.0209 61.9375C43.0095 61.833 43.0329 61.7276 43.0875 61.6377C43.1422 61.5479 43.2249 61.4785 43.323 61.4405L55.9418 56.4417C56.0337 56.4126 56.1324 56.4126 56.2244 56.4417L61.0965 57.4746L65.9686 56.4417C66.0606 56.4126 66.1593 56.4126 66.2512 56.4417L78.8603 61.4405C78.9592 61.4782 79.0431 61.5472 79.0994 61.6368C79.1557 61.7265 79.1812 61.832 79.1721 61.9375L75.7324 98.6929C75.7238 98.8073 75.675 98.9149 75.5948 98.9969C75.5146 99.0789 75.4081 99.13 75.2939 99.1411ZM47.3376 98.1667H74.8554L78.2172 62.2103L66.0758 57.4064L61.2037 58.4296C61.1368 58.4488 61.0659 58.4488 60.9991 58.4296L56.1269 57.4064L43.9953 62.2103L47.3376 98.1667Z" fill="#263238"/>
<path d="M57.959 64.5295L60.015 69.6063L58.3975 91.4919L60.9895 96.2374L64.0102 91.2775L61.5254 69.8207L63.6789 65.3968L60.8628 61.2847L57.959 64.5295Z" fill="#263238"/>
<path d="M60.9895 96.7245C60.9045 96.7244 60.8212 96.7006 60.7489 96.6559C60.6767 96.6112 60.6182 96.5472 60.5803 96.4711L57.9883 91.7257C57.9403 91.6433 57.9198 91.5477 57.9298 91.4529L59.5376 69.6841L57.5108 64.7633C57.4756 64.6793 57.4651 64.5869 57.4806 64.4971C57.4962 64.4073 57.5371 64.3239 57.5985 64.2566L60.5218 61.0117C60.572 60.9564 60.6339 60.9128 60.703 60.8842C60.7721 60.8555 60.8466 60.8425 60.9213 60.8461C60.9953 60.8513 61.0671 60.8733 61.1312 60.9105C61.1954 60.9476 61.2503 60.9989 61.2916 61.0605L64.1077 65.1628C64.1504 65.2387 64.1728 65.3242 64.1728 65.4113C64.1728 65.4983 64.1504 65.5839 64.1077 65.6598L62.0127 69.957L64.4585 91.219C64.4748 91.3278 64.4505 91.4387 64.3903 91.5308L61.3696 96.4906C61.33 96.5576 61.2748 96.6139 61.2085 96.6547C61.1423 96.6954 61.0671 96.7194 60.9895 96.7245ZM58.8945 91.3846L61.009 95.2823L63.4841 91.1605L61.0188 69.879C61.0093 69.7853 61.0262 69.6908 61.0675 69.6062L63.104 65.4356L60.7946 62.0739L58.5047 64.6269L60.4536 69.421C60.4675 69.4918 60.4675 69.5646 60.4536 69.6354L58.8945 91.3846Z" fill="#263238"/>
<path d="M65.9786 56.8997L60.9506 63.253L56.2344 56.8997V51.1701H65.9786V56.8997Z" fill="white"/>
<path d="M60.9501 63.7889C60.8757 63.7897 60.8022 63.7724 60.736 63.7385C60.6698 63.7045 60.6128 63.6549 60.5701 63.594L55.8538 57.231C55.7893 57.1511 55.7548 57.0511 55.7564 56.9484V51.2188C55.7564 51.0896 55.8077 50.9656 55.8991 50.8743C55.9905 50.7829 56.1144 50.7316 56.2436 50.7316H65.9879C66.1171 50.7316 66.241 50.7829 66.3324 50.8743C66.4238 50.9656 66.4751 51.0896 66.4751 51.2188V56.9484C66.4737 57.0582 66.436 57.1644 66.3679 57.2505L61.3399 63.6037C61.294 63.663 61.2348 63.7107 61.1671 63.7429C61.0994 63.775 61.025 63.7908 60.9501 63.7889ZM56.7211 56.7828L60.9598 62.5026L65.4909 56.773V51.706H56.7211V56.7828Z" fill="#263238"/>
<path d="M55.6982 56.0033L54.3535 57.6501L55.8736 67.0435L60.9504 63.253L66.4656 66.8876L67.3816 57.6501L66.0564 56.3248L60.8627 61.2847L55.6982 56.0033Z" fill="#984AD9"/>
<path d="M55.8737 67.5307C55.8128 67.5452 55.7494 67.5452 55.6886 67.5307C55.6106 67.5002 55.5419 67.45 55.489 67.3852C55.4361 67.3203 55.4008 67.2429 55.3865 67.1604L53.8761 57.767C53.8651 57.7003 53.8681 57.6321 53.8849 57.5667C53.9017 57.5013 53.9319 57.4401 53.9736 57.3869L55.3183 55.7402C55.3596 55.6855 55.4124 55.6406 55.4731 55.6086C55.5337 55.5766 55.6006 55.5583 55.6691 55.555C55.7391 55.5512 55.8092 55.5622 55.8747 55.5874C55.9402 55.6126 55.9997 55.6514 56.0491 55.7012L60.9212 60.6415L65.7934 56.013C65.8828 55.9243 66.0036 55.8746 66.1295 55.8746C66.2555 55.8746 66.3763 55.9243 66.4657 56.013L67.7909 57.3382C67.8426 57.388 67.8819 57.4492 67.9056 57.5169C67.9293 57.5846 67.9367 57.6569 67.9274 57.728L67.0211 66.9656C67.0129 67.0488 66.9834 67.1285 66.9354 67.197C66.8875 67.2655 66.8227 67.3205 66.7473 67.3567C66.6719 67.3929 66.5885 67.4091 66.5051 67.4038C66.4216 67.3984 66.3409 67.3717 66.2708 67.3261L61.0382 63.8766L56.2245 67.4625C56.1201 67.528 55.995 67.5523 55.8737 67.5307ZM54.8993 57.7865L56.2537 66.1665L60.6874 62.8535C60.7689 62.7969 60.8658 62.7666 60.9651 62.7666C61.0643 62.7666 61.1612 62.7969 61.2428 62.8535L66.1149 66.0399L66.9237 57.8352L66.0954 57.0069L61.2233 61.6355C61.1796 61.6821 61.1267 61.7192 61.0681 61.7446C61.0094 61.77 60.9462 61.7831 60.8822 61.7831C60.8183 61.7831 60.7551 61.77 60.6964 61.7446C60.6378 61.7192 60.5849 61.6821 60.5412 61.6355L55.747 56.7633L54.8993 57.7865Z" fill="#263238"/>
<path d="M45.3597 175.848C45.3597 175.848 42.4364 184.852 42.8749 184.998C43.3134 185.144 52.6874 184.998 52.6874 184.998L52.2294 175.848H45.3597Z" fill="white"/>
<path d="M45.9443 185.505C44.8749 185.538 43.8044 185.509 42.7385 185.417C42.222 185.241 41.8517 185.125 44.9114 175.673C44.9457 175.576 45.009 175.492 45.0927 175.433C45.1765 175.373 45.2765 175.341 45.3792 175.341H52.2002C52.3245 175.341 52.4442 175.388 52.5347 175.474C52.6253 175.559 52.6799 175.675 52.6874 175.799L53.1453 184.949C53.1483 185.015 53.1378 185.081 53.1143 185.143C53.0909 185.205 53.055 185.262 53.0089 185.31C52.9194 185.403 52.7973 185.459 52.6679 185.466C50.4072 185.475 47.8932 185.505 45.9443 185.505ZM43.3426 184.511C44.6094 184.559 49.0625 184.511 52.1125 184.511L51.7909 176.296H45.7105C44.6191 179.746 43.5375 183.361 43.3524 184.511H43.3426Z" fill="#263238"/>
<path d="M76.8917 175.848C76.8917 175.848 79.8149 184.852 79.3667 184.998C78.9185 185.144 69.564 184.998 69.564 184.998L70.0219 175.848H76.8917Z" fill="white"/>
<path d="M76.3268 185.505C74.378 185.505 71.8347 185.505 69.5058 185.446C69.3735 185.44 69.2482 185.384 69.155 185.29C69.1107 185.242 69.0767 185.185 69.0549 185.123C69.0331 185.061 69.0241 184.995 69.0284 184.93L69.4864 175.78C69.4938 175.656 69.5484 175.539 69.639 175.454C69.7296 175.369 69.8493 175.322 69.9736 175.322H76.8433C76.9446 175.323 77.0431 175.355 77.1252 175.414C77.2073 175.474 77.2688 175.557 77.3013 175.653C80.3707 185.125 80.0102 185.241 79.4742 185.397C78.4281 185.495 77.3772 185.53 76.3268 185.505ZM70.071 184.472C73.1599 184.472 77.5741 184.559 78.8993 184.472C78.7044 183.312 77.6228 179.648 76.5315 176.257H70.4803L70.071 184.472Z" fill="#263238"/>
<path d="M71.3766 39.7109C71.3766 39.7109 73.764 40.9776 73.9686 42.5172C74.1732 44.0568 71.2207 47.2237 71.2207 47.2237L71.3376 41.6597L71.3766 39.7109Z" fill="#263238"/>
<path d="M71.2206 47.6622C71.1592 47.6712 71.0968 47.6712 71.0355 47.6622C70.9457 47.6239 70.8692 47.5601 70.8155 47.4786C70.7618 47.3972 70.7332 47.3017 70.7334 47.2042L70.8893 39.7303C70.8933 39.6474 70.9175 39.5666 70.96 39.4953C71.0025 39.4239 71.0619 39.3641 71.1329 39.3211C71.2066 39.2826 71.2885 39.2626 71.3716 39.2626C71.4548 39.2626 71.5367 39.2826 71.6104 39.3211C71.8735 39.4672 74.2218 40.7632 74.4557 42.4977C74.6896 44.2322 71.893 47.2237 71.5324 47.555C71.4449 47.6274 71.3341 47.6655 71.2206 47.6622ZM71.8442 40.5683L71.7371 45.8497C72.7115 44.7096 73.5885 43.3064 73.491 42.5854C73.1998 41.7384 72.6158 41.0232 71.8442 40.5683Z" fill="#263238"/>
<path d="M68.9015 37.4794C69.9453 37.918 70.8153 38.6886 71.3766 39.6718C72.848 42.2833 71.6397 45.1481 70.9771 47.9058C70.6068 49.4648 68.6092 57.9618 67.0794 58.527C66.2056 58.7895 65.2833 58.8488 64.3831 58.7001C63.483 58.5515 62.6287 58.199 61.8857 57.6695C59.8312 56.2915 57.995 54.613 56.4386 52.6902C55.7955 51.6573 56.3607 48.276 56.3607 48.2663C56.4289 47.8375 55.9514 46.9313 55.8637 46.4928C55.6578 45.5066 55.5825 44.4975 55.6396 43.4916C55.7392 41.8898 56.3843 40.3704 57.4675 39.1861C58.5507 38.0019 60.0067 37.2242 61.5933 36.9824C64.0285 36.4691 66.5583 36.6411 68.9015 37.4794Z" fill="white"/>
<path d="M65.5399 59.3358C64.1531 59.2974 62.804 58.8759 61.6422 58.1178C59.5313 56.6958 57.6431 54.9686 56.0392 52.9923C55.2792 51.7645 55.8931 48.2371 55.9028 48.2079C55.8461 47.9103 55.7579 47.6195 55.6397 47.3406C55.5425 47.1069 55.4643 46.8658 55.4059 46.6195C55.1903 45.5918 55.1117 44.54 55.172 43.4916C55.2832 41.7781 55.9735 40.1533 57.1297 38.8837C58.2859 37.6142 59.8393 36.7754 61.535 36.505C63.2695 36.2224 66.5533 35.9106 69.0868 37.0507C70.2298 37.5226 71.1854 38.3583 71.8055 39.4283C73.1307 41.7864 72.4583 44.3004 71.8055 46.6585C71.6885 47.1165 71.5619 47.5647 71.4547 48.0227V48.1786C69.0186 58.3516 67.7908 58.8096 67.3328 58.985C66.7633 59.216 66.1545 59.3351 65.5399 59.3358ZM64.6921 37.2455C63.693 37.2489 62.6958 37.3336 61.7104 37.4989C60.2289 37.7184 58.8684 38.4422 57.8584 39.5481C56.8484 40.6539 56.2506 42.0743 56.1659 43.5696C56.1076 44.5335 56.1831 45.5009 56.39 46.4441C56.4308 46.6356 56.4929 46.8219 56.5752 46.9995C56.7813 47.4313 56.8847 47.9049 56.8772 48.3832C56.7018 49.4356 56.468 51.8035 56.8772 52.4758C58.3977 54.329 60.1801 55.9506 62.1684 57.2895C62.85 57.7753 63.632 58.1019 64.4567 58.2453C65.2814 58.3886 66.1277 58.345 66.9333 58.1178C67.138 58.0398 68.2488 57.1921 70.4608 47.9935V47.8278C70.5679 47.3698 70.6946 46.9021 70.8213 46.4441C71.4449 44.1348 72.0393 41.952 70.909 39.9447C70.3877 39.07 69.5984 38.3866 68.6581 37.9958C67.4013 37.4771 66.0515 37.2218 64.6921 37.2455Z" fill="#263238"/>
<path d="M69.623 37.265C69.623 37.265 72.1077 38.3758 72.0688 39.9934C72.0298 41.6109 69.9445 43.0044 65.5109 43.0823C61.0772 43.1603 60.4244 42.9362 60.4244 42.9362C60.4244 42.9362 61.8373 44.2127 61.1844 44.6901L59.5864 45.8205L59.4597 48.0032C59.4597 48.0032 58.2319 49.0751 58.154 48.1396C58.076 47.2042 57.8226 45.9861 57.5011 45.8205C57.1795 45.6548 55.8933 46.5318 55.8933 46.5318C55.8236 44.8226 55.9842 43.1117 56.3707 41.4453C56.9846 39.1164 58.037 38.2004 61.6229 37.0214C65.2088 35.8423 69.623 37.265 69.623 37.265Z" fill="#263238"/>
<path d="M58.4849 49.0068C58.3814 49.0073 58.2787 48.9875 58.1828 48.9484C58.0335 48.8832 57.9066 48.7754 57.8182 48.6384C57.7298 48.5015 57.6838 48.3416 57.6859 48.1786C57.6471 47.5416 57.5124 46.9142 57.2864 46.3174C56.9001 46.4855 56.5313 46.6911 56.1853 46.9313C56.1151 46.9829 56.0322 47.0143 55.9455 47.0221C55.8588 47.03 55.7716 47.014 55.6933 46.9758C55.6151 46.9377 55.5487 46.8789 55.5015 46.8058C55.4542 46.7327 55.4278 46.6481 55.4252 46.561C55.3406 44.8031 55.5013 43.042 55.9027 41.3284C56.575 38.8046 57.7736 37.7814 61.4764 36.5537C65.1792 35.3259 69.5836 36.7388 69.7688 36.7973C69.8857 36.846 72.5556 38.064 72.5069 39.9837C72.5069 41.6499 70.5581 43.4624 65.4716 43.5501C63.5227 43.5501 62.3047 43.5501 61.5738 43.5501C61.7471 43.8059 61.8388 44.1083 61.8369 44.4173C61.8325 44.5506 61.7966 44.681 61.7323 44.7978C61.6679 44.9146 61.5769 45.0146 61.4667 45.0896L60.0732 46.0641L59.9563 48.0129C59.9463 48.1435 59.8871 48.2654 59.7906 48.354C59.4354 48.7042 58.9783 48.9328 58.4849 49.0068ZM57.4228 45.2748C57.5323 45.2676 57.6413 45.2949 57.7346 45.3527C58.368 45.684 58.5824 47.3016 58.6408 47.9447C58.7649 47.8818 58.8824 47.8068 58.9916 47.7206L59.1085 45.7718C59.114 45.6989 59.135 45.6281 59.1704 45.5642C59.2057 45.5003 59.2544 45.4448 59.3132 45.4015L60.9015 44.3004C60.6926 43.9324 60.4224 43.6028 60.1025 43.3259C60.0234 43.2503 59.972 43.1501 59.9568 43.0417C59.9416 42.9333 59.9633 42.823 60.0184 42.7284C60.0736 42.6338 60.159 42.5606 60.2608 42.5205C60.3627 42.4804 60.4751 42.4758 60.5799 42.5074C62.1976 42.6866 63.8277 42.7257 65.4521 42.6243C69.8954 42.5464 71.5033 41.1725 71.5325 40.0129C71.5617 38.8533 70.0221 38.064 69.3985 37.7522C69.0477 37.6353 64.9843 36.4367 61.7298 37.5086C58.1244 38.7072 57.3351 39.5744 56.7992 41.6012C56.4774 42.9413 56.3203 44.3156 56.3314 45.6938C56.6524 45.4613 57.0287 45.3168 57.4228 45.2748Z" fill="#263238"/>
<path d="M66.3291 52.8656L67.8297 52.8851L67.4594 48.8705L68.1123 46.9996" fill="white"/>
<path d="M67.8299 53.1288H66.3195C66.2875 53.1275 66.2561 53.12 66.227 53.1065C66.1979 53.0931 66.1718 53.0741 66.1501 53.0506C66.1283 53.027 66.1115 52.9995 66.1004 52.9694C66.0894 52.9393 66.0843 52.9074 66.0857 52.8754C66.0882 52.8125 66.1149 52.753 66.1604 52.7094C66.2058 52.6658 66.2663 52.6415 66.3293 52.6415H67.5668L67.216 48.8997C67.2065 48.8647 67.2065 48.8276 67.216 48.7925L67.8786 46.9314C67.8883 46.9005 67.9043 46.872 67.9257 46.8476C67.947 46.8233 67.9731 46.8036 68.0024 46.7899C68.0317 46.7761 68.0636 46.7686 68.0959 46.7678C68.1283 46.767 68.1605 46.7729 68.1904 46.7852C68.2511 46.8072 68.3006 46.8524 68.328 46.9109C68.3554 46.9694 68.3585 47.0363 68.3366 47.0971L67.6935 48.9095L68.0637 52.8657C68.0692 52.899 68.0668 52.9331 68.0567 52.9652C68.0465 52.9974 68.0289 53.0267 68.0053 53.0508C67.9828 53.075 67.9557 53.0944 67.9256 53.1078C67.8954 53.1212 67.8629 53.1283 67.8299 53.1288Z" fill="#263238"/>
<path d="M68.6872 48.4319C68.5995 48.9678 68.6872 49.4063 68.9796 49.4746C69.2719 49.5428 69.5057 49.114 69.5934 48.5878C69.6811 48.0616 69.5935 47.6134 69.3011 47.5452C69.0088 47.477 68.7749 47.9057 68.6872 48.4319Z" fill="#263238"/>
<path d="M64.6532 48.2859C64.5558 48.812 64.6532 49.2603 64.9456 49.3187C65.2379 49.3772 65.462 48.9679 65.5497 48.432C65.6374 47.8961 65.5497 47.4576 65.2574 47.3991C64.9651 47.3407 64.7409 47.7499 64.6532 48.2859Z" fill="#263238"/>
<path d="M67.0405 54.1421C67.0405 54.1421 65.423 55.4965 63.2402 53.2748L67.0405 54.1421Z" fill="white"/>
<path d="M65.7445 54.795C65.2296 54.766 64.7262 54.6317 64.2652 54.4004C63.8043 54.1691 63.3958 53.8457 63.0648 53.4503C63.0412 53.4276 63.0225 53.4003 63.0096 53.3702C62.9968 53.34 62.9902 53.3076 62.9902 53.2749C62.9902 53.2421 62.9968 53.2097 63.0096 53.1796C63.0225 53.1494 63.0412 53.1222 63.0648 53.0995C63.112 53.0542 63.1748 53.0289 63.2402 53.0289C63.3056 53.0289 63.3684 53.0542 63.4156 53.0995C65.3644 55.1165 66.8261 53.9959 66.8845 53.9472C66.9344 53.9141 66.9947 53.9005 67.0539 53.909C67.1131 53.9175 67.1672 53.9474 67.2057 53.9932C67.2442 54.039 67.2646 54.0973 67.2629 54.1571C67.2611 54.2169 67.2375 54.274 67.1964 54.3175C66.7775 54.6308 66.2676 54.7985 65.7445 54.795Z" fill="#263238"/>
<path d="M70.3052 46.6585C70.3052 46.6585 69.8862 45.6841 68.7363 46.2882L70.3052 46.6585Z" fill="white"/>
<path d="M70.3051 46.9021C70.2573 46.9036 70.2101 46.8904 70.1701 46.8642C70.13 46.8381 70.0989 46.8003 70.081 46.7559C69.9904 46.5781 69.8379 46.4395 69.6522 46.3662C69.517 46.3302 69.3757 46.3238 69.2378 46.3473C69.1 46.3709 68.9688 46.4238 68.8532 46.5026C68.7959 46.5313 68.7298 46.5372 68.6684 46.5191C68.6069 46.501 68.5545 46.4603 68.5219 46.4052C68.4932 46.3478 68.4873 46.2818 68.5054 46.2203C68.5235 46.1589 68.5642 46.1065 68.6193 46.0739C68.7959 45.9629 68.9941 45.8907 69.2008 45.8621C69.4074 45.8336 69.6178 45.8493 69.8179 45.9082C70.1309 46.0301 70.3854 46.2672 70.5292 46.5708C70.5521 46.6317 70.5507 46.699 70.5253 46.7588C70.4999 46.8187 70.4524 46.8665 70.3928 46.8924L70.3051 46.9021Z" fill="#263238"/>
<path d="M66.5139 46.1519C66.028 45.8775 65.4611 45.7829 64.9124 45.8844C64.3637 45.986 63.8683 46.2772 63.5127 46.7073" fill="white"/>
<path d="M63.4836 46.9508C63.4391 46.9471 63.3963 46.9316 63.3596 46.906C63.323 46.8803 63.2938 46.8455 63.2749 46.8049C63.2561 46.7643 63.2484 46.7195 63.2526 46.6749C63.2567 46.6304 63.2725 46.5877 63.2985 46.5513C63.6913 46.0799 64.2371 45.7612 64.8407 45.6508C65.4443 45.5404 66.0676 45.6453 66.6018 45.9472C66.6297 45.9615 66.6544 45.9813 66.6745 46.0054C66.6945 46.0294 66.7096 46.0573 66.7186 46.0873C66.7277 46.1173 66.7307 46.1488 66.7274 46.18C66.724 46.2111 66.7145 46.2413 66.6993 46.2687C66.685 46.2979 66.6648 46.3238 66.64 46.3448C66.6152 46.3657 66.5863 46.3813 66.5551 46.3905C66.5239 46.3997 66.4912 46.4022 66.459 46.398C66.4267 46.3939 66.3957 46.383 66.3679 46.3662C65.934 46.1179 65.4264 46.0307 64.9345 46.1198C64.4425 46.2089 63.9978 46.4687 63.6785 46.8534C63.6553 46.8831 63.6258 46.9073 63.5921 46.9241C63.5584 46.941 63.5213 46.9501 63.4836 46.9508Z" fill="#263238"/>
<path d="M58.6117 49.65C58.6117 49.65 59.3132 46.1908 57.5203 45.8205C55.7274 45.4502 55.9125 46.5318 55.7663 48.1494C55.6763 48.6644 55.7479 49.1947 55.9712 49.6675C56.1945 50.1403 56.5586 50.5324 57.0136 50.7901" fill="white"/>
<path d="M56.9943 51.2773C56.9235 51.275 56.8539 51.2584 56.7897 51.2286C56.2439 50.9285 55.8046 50.4665 55.5324 49.9063C55.2601 49.3461 55.1683 48.7152 55.2696 48.1007C55.2696 47.896 55.2696 47.7012 55.3183 47.516C55.3767 46.6683 55.4255 45.9472 55.9614 45.5672C56.2047 45.4156 56.4784 45.3195 56.763 45.2858C57.0477 45.2522 57.3362 45.2817 57.6082 45.3723C59.4011 45.7426 59.3719 48.2956 59.0796 49.7767C59.0515 49.9021 58.9759 50.0117 58.8687 50.0825C58.7615 50.1534 58.631 50.18 58.5047 50.1567C58.4419 50.1439 58.3824 50.1189 58.3293 50.0831C58.2763 50.0473 58.2308 50.0014 58.1955 49.948C58.1602 49.8946 58.1358 49.8348 58.1237 49.772C58.1115 49.7091 58.1118 49.6445 58.1246 49.5818C58.2805 48.8023 58.4852 46.5416 57.4133 46.3272C56.8384 46.2103 56.624 46.3272 56.5558 46.3272C56.4876 46.3272 56.3317 47.0191 56.283 47.6037C56.283 47.7986 56.283 48.0032 56.283 48.2176C56.2098 48.6329 56.2636 49.0607 56.4375 49.4449C56.6113 49.8291 56.8971 50.1519 57.2574 50.3711C57.3866 50.3995 57.4992 50.4781 57.5705 50.5896C57.6418 50.7011 57.6658 50.8363 57.6374 50.9655C57.609 51.0947 57.5304 51.2074 57.4189 51.2786C57.3074 51.3499 57.1722 51.374 57.043 51.3455L56.9943 51.2773Z" fill="#263238"/>
<path d="M120.829 85.5674C120.828 84.1584 120.724 82.7514 120.517 81.3578L128.137 78.0643L125.847 71.0679L117.915 72.8316C116.532 69.9565 114.692 67.324 112.468 65.0362L116.687 57.8839L110.743 53.5574L105.384 59.6866C102.581 58.1716 99.55 57.1248 96.4096 56.5879L95.6203 48.3248H88.2634L87.4936 56.432C84.3364 56.8504 81.2687 57.7818 78.4119 59.1896L72.9259 52.963L66.9722 57.2895L71.1135 64.3054C68.8244 66.503 66.906 69.0565 65.4326 71.8669L57.3351 70.0642L55.0549 77.0606L62.5093 80.2957C62.1886 82.0347 62.0255 83.7991 62.0221 85.5674C62.0223 86.9795 62.1265 88.3898 62.3339 89.7866L54.7139 93.0802L56.9843 100.077L64.9161 98.3031C66.3004 101.178 68.1398 103.81 70.3632 106.099L66.1439 113.251L72.0879 117.577L77.4765 111.477C80.2786 112.992 83.3105 114.035 86.451 114.566L87.2305 122.839H94.5874L95.3572 114.732C98.5144 114.314 101.582 113.382 104.439 111.974L109.925 118.191L115.879 113.874L111.737 106.859C114.043 104.662 115.975 102.105 117.457 99.2873L125.564 101.1L127.835 94.1033L120.361 90.8683C120.676 89.119 120.833 87.3448 120.829 85.5674ZM72.7603 85.5674C72.7603 81.8767 73.8547 78.2689 75.9051 75.2003C77.9555 72.1316 80.8698 69.7399 84.2796 68.3275C87.6893 66.9152 91.4412 66.5456 95.061 67.2656C98.6807 67.9856 102.006 69.7629 104.615 72.3725C107.225 74.9822 109.002 78.3072 109.722 81.9269C110.442 85.5467 110.073 89.2986 108.66 92.7083C107.248 96.118 104.856 99.0324 101.788 101.083C98.719 103.133 95.1112 104.228 91.4205 104.228C88.9697 104.229 86.5426 103.747 84.278 102.81C82.0135 101.873 79.9559 100.498 78.2229 98.765C76.4898 97.032 75.1154 94.9744 74.1781 92.7098C73.2408 90.4453 72.759 88.0182 72.7603 85.5674Z" fill="#B2B2B2"/>
<path d="M94.568 123.307H87.211C87.0889 123.305 86.9718 123.258 86.8819 123.176C86.7921 123.093 86.7358 122.98 86.7238 122.859L85.9735 114.966C83.0405 114.416 80.2061 113.43 77.5642 112.043L72.4387 117.889C72.3568 117.978 72.2453 118.034 72.1252 118.046C72.005 118.059 71.8844 118.027 71.7859 117.957L65.8321 113.641C65.7366 113.567 65.671 113.461 65.6477 113.343C65.6244 113.225 65.6449 113.102 65.7054 112.998L69.7396 106.177C67.682 104.009 65.9609 101.546 64.6336 98.8683L57.072 100.554C56.9535 100.579 56.8299 100.559 56.7254 100.498C56.6209 100.436 56.543 100.338 56.5068 100.223L54.2267 93.2361C54.1899 93.1195 54.1973 92.9934 54.2477 92.8819C54.298 92.7705 54.3877 92.6815 54.4995 92.632L61.7785 89.4846C61.3794 86.528 61.4353 83.5277 61.9441 80.5881L54.8211 77.5089C54.711 77.4577 54.6235 77.368 54.575 77.2567C54.5265 77.1454 54.5205 77.0202 54.558 76.9047L56.8284 69.9084C56.8665 69.7946 56.9452 69.6988 57.0495 69.6395C57.1538 69.5802 57.2763 69.5614 57.3936 69.5868L65.189 71.3115C66.6151 68.6951 68.4211 66.3045 70.5483 64.2177L66.6506 57.5331C66.5896 57.4297 66.5697 57.3072 66.595 57.1898C66.6203 57.0724 66.6888 56.9688 66.787 56.8997L72.7311 52.5733C72.8296 52.5034 72.9502 52.4717 73.0704 52.4843C73.1905 52.4968 73.302 52.5527 73.3839 52.6415L78.6361 58.5855C81.3247 57.2992 84.1929 56.4286 87.1428 56.0033L87.8834 48.2761C87.8932 48.1563 87.9478 48.0447 88.0363 47.9634C88.1248 47.8821 88.2407 47.8372 88.3609 47.8376H95.6398C95.7604 47.8391 95.8763 47.8844 95.966 47.9651C96.0556 48.0458 96.1129 48.1563 96.127 48.2761L96.8773 56.1787C99.8133 56.718 102.649 57.7039 105.287 59.102L110.412 53.2554C110.492 53.1632 110.603 53.1041 110.723 53.0897C110.844 53.0752 110.966 53.1066 111.065 53.1774L117.019 57.5039C117.118 57.5747 117.186 57.6807 117.21 57.8003C117.233 57.9198 117.21 58.0439 117.145 58.147L113.111 64.968C115.168 67.129 116.889 69.5859 118.217 72.2567L125.779 70.571C125.897 70.5451 126.021 70.5636 126.127 70.6228C126.233 70.6821 126.314 70.778 126.354 70.8925L128.624 77.8889C128.663 78.0041 128.656 78.1297 128.606 78.2402C128.555 78.3506 128.464 78.4375 128.351 78.4833L121.072 81.6405C121.471 84.597 121.416 87.5973 120.907 90.537L128.03 93.6161C128.14 93.6673 128.227 93.757 128.276 93.8684C128.324 93.9796 128.33 94.1049 128.293 94.2203L126.022 101.207C125.986 101.323 125.908 101.421 125.804 101.482C125.699 101.543 125.576 101.563 125.457 101.538L117.662 99.8038C116.238 102.425 114.432 104.819 112.303 106.907L116.249 113.582C116.311 113.687 116.331 113.811 116.306 113.93C116.28 114.049 116.211 114.154 116.113 114.225L110.169 118.552C110.07 118.623 109.948 118.654 109.827 118.64C109.706 118.625 109.595 118.566 109.516 118.474L104.264 112.53C101.574 113.815 98.7061 114.689 95.7568 115.122L95.0259 122.839C95.0192 122.959 94.9691 123.073 94.8848 123.159C94.8006 123.245 94.688 123.298 94.568 123.307ZM87.6593 122.333H94.1197L94.8505 114.664C94.8609 114.555 94.9081 114.453 94.9844 114.375C95.0606 114.297 95.1612 114.248 95.2696 114.235C98.3759 113.82 101.394 112.902 104.205 111.516C104.3 111.469 104.408 111.455 104.513 111.476C104.617 111.497 104.711 111.553 104.78 111.633L109.983 117.48L115.216 113.68L111.318 107.054C111.261 106.959 111.237 106.848 111.251 106.738C111.265 106.628 111.317 106.526 111.396 106.449C113.665 104.289 115.567 101.775 117.029 99.0048C117.078 98.9101 117.157 98.8347 117.254 98.7905C117.352 98.7463 117.461 98.736 117.564 98.7612L125.233 100.466L127.231 94.3177L120.166 91.2581C120.065 91.2137 119.983 91.1366 119.931 91.0393C119.88 90.942 119.863 90.8302 119.884 90.7221C120.196 89.0084 120.356 87.2704 120.361 85.5284C120.356 84.1427 120.255 82.7589 120.059 81.3871C120.044 81.2808 120.065 81.1726 120.117 81.0792C120.17 80.9859 120.253 80.9125 120.351 80.8707L127.562 77.7525L125.564 71.5941L118.061 73.2701C117.954 73.2943 117.842 73.2815 117.743 73.2337C117.644 73.1859 117.564 73.106 117.516 73.007C116.151 70.1865 114.341 67.6038 112.156 65.3578C112.08 65.2829 112.031 65.1839 112.019 65.0775C112.006 64.9711 112.031 64.8637 112.088 64.7731L116.083 58.0009L110.851 54.2006L105.764 59.9692C105.692 60.0513 105.593 60.1066 105.486 60.126C105.378 60.1455 105.266 60.128 105.17 60.0764C102.415 58.5833 99.4317 57.556 96.3414 57.0362C96.2359 57.0173 96.1395 56.964 96.0672 56.8847C95.995 56.8054 95.9509 56.7045 95.9419 56.5977L95.2013 48.8023H88.7311L88.0003 56.4613C87.9921 56.5716 87.9458 56.6756 87.8694 56.7556C87.793 56.8356 87.6911 56.8865 87.5813 56.8997C84.4778 57.3137 81.4628 58.232 78.6556 59.6184C78.5589 59.6664 78.4491 59.681 78.3433 59.6598C78.2375 59.6386 78.1417 59.583 78.0709 59.5015L72.8675 53.6549L67.6348 57.4552L71.5325 64.0813C71.5901 64.1758 71.6138 64.2872 71.5996 64.397C71.5854 64.5069 71.5343 64.6086 71.4546 64.6854C69.1863 66.8455 67.2841 69.3598 65.8224 72.13C65.7718 72.2235 65.6921 72.298 65.5954 72.342C65.4986 72.3859 65.3901 72.3971 65.2864 72.3737L57.6372 70.6099L55.6883 76.7586L62.7529 79.8183C62.8536 79.8626 62.9363 79.9397 62.9877 80.037C63.039 80.1343 63.0558 80.2461 63.0355 80.3542C62.7234 82.0647 62.5636 83.7995 62.558 85.5382C62.5624 86.924 62.6633 88.3077 62.8601 89.6795C62.8758 89.7846 62.8567 89.892 62.8056 89.9852C62.7546 90.0785 62.6745 90.1525 62.5775 90.1959L55.3668 93.3238L57.3643 99.4725L64.8674 97.8062C64.9734 97.7826 65.0842 97.7958 65.1816 97.8436C65.279 97.8915 65.3572 97.9711 65.4034 98.0693C66.7658 100.888 68.5757 103.468 70.7627 105.709C70.8386 105.786 70.8873 105.886 70.9014 105.993C70.9155 106.1 70.8942 106.209 70.8407 106.303L66.8358 113.066L72.0684 116.876L77.155 111.107C77.2285 111.026 77.3266 110.972 77.434 110.953C77.5414 110.934 77.6523 110.95 77.7494 111C80.5044 112.493 83.4874 113.52 86.5777 114.04C86.6832 114.059 86.7796 114.112 86.8518 114.192C86.9241 114.271 86.9681 114.372 86.9772 114.479L87.6593 122.333ZM91.4206 104.715C87.6331 104.717 83.9302 103.595 80.7801 101.493C77.6301 99.3899 75.1744 96.4001 73.7236 92.9016C72.2729 89.403 71.8923 85.5528 72.6301 81.8379C73.3678 78.123 75.1906 74.7103 77.8681 72.0315C80.5455 69.3527 83.9572 67.5281 87.6717 66.7885C91.3863 66.0489 95.2367 66.4276 98.736 67.8765C102.235 69.3254 105.226 71.7796 107.331 74.9286C109.435 78.0776 110.558 81.78 110.558 85.5674C110.553 90.6424 108.536 95.5081 104.948 99.0976C101.36 102.687 96.4955 104.707 91.4206 104.715ZM91.4206 67.4041C87.8254 67.4021 84.3105 68.4666 81.3205 70.4627C78.3305 72.4589 75.9997 75.297 74.623 78.6181C73.2463 81.9392 72.8856 85.594 73.5865 89.1201C74.2874 92.6463 76.0184 95.8853 78.5605 98.4274C81.1027 100.97 84.3417 102.701 87.8678 103.401C91.394 104.102 95.0488 103.742 98.3699 102.365C101.691 100.988 104.529 98.6575 106.525 95.6675C108.521 92.6774 109.586 89.1625 109.584 85.5674C109.576 80.7526 107.66 76.1371 104.255 72.7325C100.851 69.3279 96.2354 67.4118 91.4206 67.4041Z" fill="#263238"/>
<path d="M43.4493 61.8986C43.4493 61.8986 41.5005 73.3773 41.5005 74.3712C41.5005 75.3651 45.3982 90.118 45.3982 90.118L66.8356 106.177L68.6285 101.392L54.0121 83.9304L51.2155 69.3919" fill="#984AD9"/>
<path d="M66.836 106.664C66.7303 106.666 66.627 106.632 66.5437 106.566L45.1063 90.5078C45.0201 90.438 44.9586 90.3423 44.9309 90.2349C44.278 87.7696 41.0332 75.3749 41.0332 74.3712C41.0332 73.3676 42.7872 62.9899 42.9821 61.8109C43.0058 61.6839 43.0782 61.5711 43.1837 61.4965C43.2892 61.422 43.4196 61.3914 43.5472 61.4114C43.6742 61.4351 43.787 61.5075 43.8615 61.613C43.9361 61.7185 43.9667 61.8489 43.9467 61.9765C43.1672 66.5758 41.9979 73.6696 41.9979 74.3712C41.9979 75.0728 44.317 84.1642 45.7982 89.8256L66.6119 105.416L68.0736 101.519L53.6813 84.2519C53.6294 84.191 53.5957 84.1167 53.5838 84.0375L50.8165 69.4796C50.7935 69.3519 50.8214 69.2202 50.8942 69.1128C50.9671 69.0053 51.079 68.9306 51.2062 68.9047C51.3337 68.8842 51.4641 68.9131 51.571 68.9856C51.6778 69.058 51.753 69.1685 51.7811 69.2945L54.5388 83.716L69.0285 101.08C69.0844 101.147 69.1219 101.227 69.1373 101.312C69.1527 101.398 69.1454 101.486 69.1162 101.567L67.3232 106.352C67.2947 106.421 67.251 106.484 67.1954 106.534C67.1398 106.585 67.0736 106.622 67.0017 106.644L66.836 106.664Z" fill="#263238"/>
<path d="M68.6285 101.392L71.5517 102.094L75.0597 103.701L74.7673 105.017L72.4287 104.725L75.9367 107.94L74.7673 109.548L72.1364 109.256C72.1364 109.256 69.6516 108.671 69.2131 108.525C68.3583 107.818 67.5721 107.031 66.8647 106.177L68.6285 101.392Z" fill="white"/>
<path d="M74.7384 110.035H74.6799L72.049 109.743C71.7371 109.675 69.4765 109.139 69.0282 108.993C68.061 108.289 67.1982 107.453 66.4655 106.508C66.4087 106.44 66.3708 106.358 66.3554 106.271C66.34 106.184 66.3477 106.094 66.3778 106.011L68.1707 101.236C68.2127 101.124 68.2945 101.031 68.4005 100.975C68.5066 100.92 68.6294 100.905 68.7456 100.934L71.6689 101.626L75.2743 103.263C75.3751 103.309 75.4571 103.389 75.5067 103.488C75.5563 103.587 75.5706 103.7 75.5471 103.809L75.2548 105.124C75.2311 105.244 75.1623 105.35 75.0626 105.421C74.9629 105.492 74.8399 105.521 74.7189 105.504L73.8906 105.407L76.278 107.589C76.3645 107.671 76.4183 107.781 76.429 107.9C76.4398 108.018 76.4069 108.137 76.3364 108.233L75.1671 109.84C75.1186 109.907 75.0536 109.96 74.9784 109.994C74.9033 110.028 74.8206 110.043 74.7384 110.035ZM67.3814 106.079C67.9761 106.781 68.628 107.433 69.3303 108.028C69.6519 108.135 71.5033 108.574 72.1854 108.739L74.4753 108.993L75.2256 107.96L72.0392 105.036C71.9629 104.969 71.9103 104.878 71.8892 104.778C71.8682 104.678 71.8798 104.574 71.9223 104.481C71.9653 104.386 72.0377 104.307 72.129 104.256C72.2202 104.205 72.3254 104.185 72.429 104.198L74.3778 104.432L74.485 103.935L71.2792 102.532L68.8918 101.967L67.3814 106.079Z" fill="#263238"/>
<path d="M99.7905 57.6208L101.983 55.7986L106.378 57.4356L105.384 59.6866L99.7905 57.6208Z" fill="white"/>
<path d="M105.384 60.1738C105.327 60.1874 105.267 60.1874 105.209 60.1738L99.6254 58.1177C99.5457 58.0885 99.475 58.039 99.4203 57.974C99.3656 57.9091 99.3288 57.8309 99.3136 57.7474C99.2976 57.6632 99.3045 57.5763 99.3336 57.4957C99.3628 57.4151 99.4131 57.3439 99.4793 57.2894L101.672 55.4575C101.738 55.4004 101.818 55.3629 101.904 55.3491C101.99 55.3353 102.079 55.3459 102.159 55.3796L106.544 57.0263C106.607 57.0476 106.665 57.082 106.714 57.1274C106.762 57.1727 106.801 57.228 106.826 57.2894C106.853 57.351 106.866 57.4173 106.866 57.4843C106.866 57.5513 106.853 57.6176 106.826 57.6792L105.852 59.9204C105.807 60.0034 105.739 60.0716 105.656 60.1165C105.573 60.1615 105.478 60.1814 105.384 60.1738ZM100.756 57.4551L105.121 59.0726L105.725 57.7182L102.081 56.354L100.756 57.4551Z" fill="#263238"/>
</svg>
