<svg width="81" height="63" viewBox="0 0 81 63" fill="none" xmlns="http://www.w3.org/2000/svg">
<g opacity="0.6">
<path d="M80.3099 28.8219C81.31 21.0635 78.3342 13.272 72.0885 7.73526C69.0163 5.01371 64.8166 2.4492 59.236 1.21017C43.5842 -2.26345 37.9703 7.73526 37.9703 20.7174C32.8996 29.173 8.74761 16.371 6.43367 30.9498C4.11972 45.5286 15.3626 61.5611 34.433 62.4385C53.5034 63.316 56.9442 51.7625 67.3765 48.1693C75.3544 45.4232 78.8163 40.4011 80.3099 28.8219Z" fill="#EEDBFF"/>
<path d="M80.3099 28.8219C81.31 21.0635 78.3342 13.272 72.0885 7.73526C69.0163 5.01371 64.8166 2.4492 59.236 1.21017C43.5842 -2.26345 37.9703 7.73526 37.9703 20.7174C32.8996 29.173 8.74761 16.371 6.43367 30.9498C4.11972 45.5286 15.3626 61.5611 34.433 62.4385C53.5034 63.316 56.9442 51.7625 67.3765 48.1693C75.3544 45.4232 78.8163 40.4011 80.3099 28.8219Z" fill="white" fill-opacity="0.2"/>
</g>
<path d="M48.5994 21.8503L67.4713 35.7388L76.7442 23.1136L57.8792 9.2251L48.5994 21.8503Z" fill="#EBEBEB"/>
<path d="M49.9668 21.6421L67.2632 34.3784L75.3839 23.3218L58.0806 10.5855L49.9668 21.6421Z" fill="white"/>
<path d="M57.1229 15.201C56.848 15.5737 56.6898 16.0195 56.6685 16.4821C56.6472 16.9447 56.7636 17.4032 57.0031 17.7995C57.2426 18.1959 57.5944 18.5122 58.0138 18.7085C58.4333 18.9047 58.9015 18.972 59.3593 18.9019C59.817 18.8318 60.2436 18.6274 60.5851 18.3146C60.9265 18.0017 61.1675 17.5946 61.2773 17.1448C61.3872 16.6949 61.361 16.2226 61.2022 15.7876C61.0434 15.3526 60.759 14.9745 60.3851 14.7013C60.1382 14.5197 59.8579 14.3886 59.5602 14.3154C59.2626 14.2423 58.9534 14.2285 58.6504 14.2749C58.3475 14.3214 58.0566 14.427 57.7945 14.5859C57.5324 14.7449 57.3042 14.9539 57.1229 15.201Z" fill="#DBDBDB"/>
<path d="M55.3254 25.6122L67.2427 34.3853L67.2288 21.9266L55.3254 25.6122Z" fill="#DBDBDB"/>
<path d="M50.647 22.1834L60.489 29.4226L59.4409 20.5385L50.647 22.1834Z" fill="#EBEBEB"/>
<path d="M35.0164 26.0842L56.6715 35.0308L62.6406 20.5454L40.9854 11.5919L35.0164 26.0842Z" fill="#EBEBEB"/>
<path d="M36.2866 25.5498L56.1441 33.7607L61.3636 21.073L41.513 12.869L36.2866 25.5498Z" fill="white"/>
<path d="M41.6864 17.5679C41.5099 17.9956 41.4642 18.466 41.5551 18.9196C41.646 19.3732 41.8693 19.7897 42.1969 20.1164C42.5245 20.4431 42.9416 20.6653 43.3955 20.7549C43.8494 20.8445 44.3196 20.7975 44.7468 20.6198C45.174 20.4422 45.5389 20.1418 45.7953 19.7568C46.0518 19.3717 46.1883 18.9193 46.1876 18.4566C46.1869 17.994 46.049 17.5419 45.7914 17.1577C45.5338 16.7734 45.168 16.4741 44.7403 16.2978C44.1669 16.0613 43.523 16.0622 42.9503 16.3004C42.3776 16.5386 41.923 16.9945 41.6864 17.5679Z" fill="#DBDBDB"/>
<path d="M42.4431 28.1178L56.1234 33.7745L53.118 21.6768L42.4431 28.1178Z" fill="#DBDBDB"/>
<path d="M37.0847 25.9107L48.3704 30.5748L45.2193 22.2043L37.0847 25.9107Z" fill="#EBEBEB"/>
<path d="M25.9587 31.7408L6.89937 36.7243L0.5 12.2581L14.6522 8.5587L19.5593 7.27466L20.7809 11.9389L25.9587 31.7408Z" fill="#EBEBEB"/>
<path d="M3.60235 16.4966L19.1277 12.438L18.9627 11.8068L3.43734 15.8653L3.60235 16.4966Z" fill="#DBDBDB"/>
<path d="M4.01178 18.0765L19.5371 14.0179L19.3721 13.3867L3.84677 17.4452L4.01178 18.0765Z" fill="#DBDBDB"/>
<path d="M4.43023 19.6612L19.9556 15.6027L19.7906 14.9715L4.26522 19.03L4.43023 19.6612Z" fill="#DBDBDB"/>
<path d="M4.68242 20.6039L20.248 16.5922L20.0849 15.9593L4.51931 19.9711L4.68242 20.6039Z" fill="#DBDBDB"/>
<path d="M5.09745 22.1853L20.6631 18.1735L20.5 17.5407L4.93434 21.5524L5.09745 22.1853Z" fill="#DBDBDB"/>
<path d="M5.67462 24.4197L21.2 20.3612L21.0349 19.73L5.50961 23.7885L5.67462 24.4197Z" fill="#DBDBDB"/>
<path d="M6.09307 26.0063L21.6184 21.9478L21.4534 21.3165L5.92806 25.3751L6.09307 26.0063Z" fill="#DBDBDB"/>
<path d="M6.50299 27.5861L22.0283 23.5276L21.8633 22.8964L6.33798 26.9549L6.50299 27.5861Z" fill="#DBDBDB"/>
<path d="M6.91412 29.1795L22.4395 25.121L22.2744 24.4898L6.74911 28.5483L6.91412 29.1795Z" fill="#DBDBDB"/>
<path d="M7.33795 30.7577L22.8633 26.6992L22.6983 26.0679L7.17294 30.1265L7.33795 30.7577Z" fill="#DBDBDB"/>
<path d="M7.61015 31.6708L23.1758 27.659L23.0127 27.0261L7.44704 31.0379L7.61015 31.6708Z" fill="#DBDBDB"/>
<path d="M8.159 33.9311L23.6843 29.8726L23.5193 29.2413L7.99399 33.2999L8.159 33.9311Z" fill="#DBDBDB"/>
<path d="M31.0185 38.7997L11.3484 39.9032L9.93945 14.6528L24.5428 13.8337L29.8733 18.3591L31.0185 38.7997Z" fill="#EBEBEB"/>
<path d="M24.5427 13.8337L29.8732 18.3591L24.8134 18.6437L24.5427 13.8337Z" fill="#DBDBDB"/>
<path d="M12.1283 19.4211L23.0637 18.8097L23.0273 18.1583L12.0918 18.7697L12.1283 19.4211Z" fill="#DBDBDB"/>
<path d="M12.2242 21.0598L23.1597 20.4484L23.1232 19.797L12.1878 20.4084L12.2242 21.0598Z" fill="#DBDBDB"/>
<path d="M12.3131 22.6915L23.2485 22.0801L23.2121 21.4287L12.2767 22.0401L12.3131 22.6915Z" fill="#DBDBDB"/>
<path d="M12.4047 24.3298L28.4268 23.434L28.3903 22.7826L12.3683 23.6784L12.4047 24.3298Z" fill="#DBDBDB"/>
<path d="M12.5007 25.9684L28.5227 25.0726L28.4863 24.4212L12.4643 25.317L12.5007 25.9684Z" fill="#DBDBDB"/>
<path d="M12.5898 27.6001L28.6118 26.7043L28.5754 26.0529L12.5534 26.9487L12.5898 27.6001Z" fill="#DBDBDB"/>
<path d="M12.6862 29.2388L28.7083 28.3431L28.6718 27.6917L12.6498 28.5874L12.6862 29.2388Z" fill="#DBDBDB"/>
<path d="M12.7756 30.8775L28.7976 29.9818L28.7612 29.3303L12.7392 30.2261L12.7756 30.8775Z" fill="#DBDBDB"/>
<path d="M12.8647 32.5166L28.8867 31.6208L28.8503 30.9694L12.8283 31.8652L12.8647 32.5166Z" fill="#DBDBDB"/>
<path d="M12.9541 34.1483L28.9761 33.2526L28.9397 32.6011L12.9176 33.4969L12.9541 34.1483Z" fill="#DBDBDB"/>
<path d="M13.05 35.78L29.072 34.8843L29.0356 34.2329L13.0136 35.1286L13.05 35.78Z" fill="#DBDBDB"/>
<path d="M13.1396 37.4257L29.1616 36.5299L29.1252 35.8785L13.1032 36.7743L13.1396 37.4257Z" fill="#DBDBDB"/>
<path d="M15.145 45.6919C15.1457 47.3377 15.7683 48.9224 16.8882 50.1285C18.008 51.3345 19.5423 52.0728 21.1835 52.1954H58.1153C60.1402 52.2874 62.1187 51.5713 63.6156 50.2046C65.1125 48.8379 66.0051 46.9325 66.0971 44.9076C66.1892 42.8827 65.4731 40.9042 64.1064 39.4073C62.7396 37.9104 60.8342 37.0177 58.8093 36.9257C58.7138 33.9307 57.5794 31.0623 55.6006 28.8121C53.6218 26.5619 50.9218 25.0701 47.9636 24.5925C45.0054 24.115 41.9733 24.6813 39.3869 26.1945C36.8005 27.7077 34.8211 30.0734 33.7879 32.8862C32.6554 32.3059 31.3958 32.0178 30.1236 32.0482C28.8514 32.0787 27.607 32.4266 26.5035 33.0604C25.4001 33.6942 24.4725 34.5938 23.8052 35.6774C23.1379 36.7609 22.7521 37.9941 22.6827 39.2647C22.3315 39.2089 21.9764 39.181 21.6208 39.1815C19.9007 39.1924 18.2547 39.883 17.0416 41.1025C15.8286 42.3221 15.1468 43.9718 15.145 45.6919Z" fill="#984AD9"/>
<path opacity="0.1" d="M15.145 45.6919C15.1457 47.3377 15.7683 48.9224 16.8882 50.1285C18.008 51.3345 19.5423 52.0728 21.1835 52.1954H58.1153C60.1402 52.2874 62.1187 51.5713 63.6156 50.2046C65.1125 48.8379 66.0051 46.9325 66.0971 44.9076C66.1892 42.8827 65.4731 40.9042 64.1064 39.4073C62.7396 37.9104 60.8342 37.0177 58.8093 36.9257C58.7138 33.9307 57.5794 31.0623 55.6006 28.8121C53.6218 26.5619 50.9218 25.0701 47.9636 24.5925C45.0054 24.115 41.9733 24.6813 39.3869 26.1945C36.8005 27.7077 34.8211 30.0734 33.7879 32.8862C32.6554 32.3059 31.3958 32.0178 30.1236 32.0482C28.8514 32.0787 27.607 32.4266 26.5035 33.0604C25.4001 33.6942 24.4725 34.5938 23.8052 35.6774C23.1379 36.7609 22.7521 37.9941 22.6827 39.2647C22.3315 39.2089 21.9764 39.181 21.6208 39.1815C19.9007 39.1924 18.2547 39.883 17.0416 41.1025C15.8286 42.3221 15.1468 43.9718 15.145 45.6919Z" fill="black"/>
<path d="M12.8613 45.6918C12.8603 47.3369 13.4814 48.9216 14.6001 50.1278C15.7188 51.3341 17.2523 52.0726 18.8929 52.1953H55.8246C57.8495 52.2873 59.828 51.5712 61.3249 50.2045C62.8218 48.8377 63.7145 46.9324 63.8065 44.9075C63.8986 42.8826 63.1824 40.9041 61.8157 39.4072C60.449 37.9103 58.5436 37.0176 56.5187 36.9256C56.419 33.9322 55.2821 31.0664 53.3026 28.8188C51.3231 26.5711 48.624 25.0812 45.6672 24.6039C42.7104 24.1267 39.6797 24.6919 37.0935 26.2027C34.5074 27.7135 32.5267 30.076 31.4903 32.8861C30.3578 32.3057 29.0982 32.0177 27.826 32.0481C26.5538 32.0786 25.3094 32.4265 24.206 33.0603C23.1025 33.6941 22.1749 34.5937 21.5076 35.6773C20.8403 36.7608 20.4545 37.994 20.3851 39.2646C20.0339 39.2088 19.6788 39.1809 19.3232 39.1813C17.6049 39.1942 15.9614 39.8857 14.751 41.1053C13.5405 42.3248 12.8613 43.9735 12.8613 45.6918Z" fill="#984AD9"/>
<path d="M41.763 41.0624H35.0999V46.7816H41.763V41.0624Z" fill="white"/>
<path d="M32.8091 41.0623H44.0531L38.4311 35.4542L32.8091 41.0623Z" fill="white"/>
<path d="M61.3081 38.3H59.9199V38.9941H61.3081V38.3Z" fill="#263238"/>
</svg>
