<svg width="430" height="443" viewBox="0 0 430 443" fill="none" xmlns="http://www.w3.org/2000/svg">
<path d="M241.211 357.882C241.211 357.882 304.188 342.616 343.172 308.452C382.156 274.288 394.463 223.396 371.524 179.752C348.585 136.107 282.72 129.179 235.585 95.5817C188.45 61.9846 127.493 55.9066 87.623 101.527C47.753 147.147 80.7565 173 70.6649 232.424C60.5734 291.848 94.4097 387.758 241.211 357.882Z" fill="#EEDBFF"/>
<path opacity="0.5" d="M241.211 357.882C241.211 357.882 304.188 342.616 343.172 308.452C382.156 274.288 394.463 223.396 371.524 179.752C348.585 136.107 282.72 129.179 235.585 95.5817C188.45 61.9846 127.493 55.9066 87.623 101.527C47.753 147.147 80.7565 173 70.6649 232.424C60.5734 291.848 94.4097 387.758 241.211 357.882Z" fill="white"/>
<mask id="mask0_49_2537" style="mask-type:luminance" maskUnits="userSpaceOnUse" x="17" y="221" width="58" height="169">
<path d="M74.9887 221.784H17.629V389.574H74.9887V221.784Z" fill="white"/>
</mask>
<g mask="url(#mask0_49_2537)">
<path d="M98.8929 240.992C95.854 240.673 92.2568 244.828 91.1404 247.318C91.0518 247.531 89.9355 251.075 89.9886 251.066H90.0595C89.4836 251.722 88.8723 252.43 88.2255 253.21C87.0383 254.672 85.7093 256.329 84.3891 258.234C82.9389 260.265 81.6105 262.38 80.411 264.569C79.0485 267.012 77.9098 269.575 77.0087 272.224V272.321C77.0087 271.435 77.0087 268.928 76.9556 268.733C76.61 266.03 74.2976 261.016 71.3383 260.457C70.837 260.378 70.3245 260.406 69.8346 260.539C69.3446 260.671 68.8882 260.906 68.4951 261.227C68.102 261.548 67.7812 261.949 67.5535 262.402C67.3259 262.856 67.1966 263.353 67.1741 263.86C66.9969 266.004 68.5563 268.157 70.0714 269.512C71.7813 271.036 76.5392 272.525 76.9201 272.64C76.0571 275.332 75.3763 278.079 74.8823 280.862C74.59 282.492 74.3507 284.14 74.1292 285.806C74.1292 285.035 74.1292 284.344 74.1292 284.247C73.7837 281.544 71.4712 276.521 68.512 275.971C68.0113 275.892 67.4996 275.92 67.0102 276.052C66.5209 276.184 66.0649 276.418 65.6719 276.738C65.279 277.058 64.958 277.457 64.7298 277.91C64.5017 278.363 64.3715 278.858 64.3478 279.365C64.1706 281.518 65.73 283.662 67.245 285.017C68.7601 286.373 72.818 287.737 73.8812 288.083L73.6419 289.997C73.2787 293.053 72.9243 296.119 72.4901 299.105C72.3395 300.159 72.1446 301.187 71.9585 302.224C71.9585 301.532 71.9585 300.957 71.9585 300.868C71.6041 298.166 69.3005 293.151 66.3413 292.593C65.8399 292.514 65.3275 292.541 64.8375 292.674C64.3476 292.807 63.8911 293.041 63.4981 293.362C63.105 293.683 62.7841 294.084 62.5565 294.538C62.3289 294.991 62.1996 295.488 62.1771 295.995C61.9999 298.139 63.5593 300.292 65.0743 301.648C66.5894 303.003 70.2486 304.235 71.5155 304.642C71.294 305.697 71.0725 306.751 70.8156 307.761C70.6207 308.443 70.4789 309.117 70.2397 309.799C70.0005 310.481 69.8056 311.137 69.5929 311.801C69.1322 313.059 68.7069 314.362 68.193 315.584C67.8652 316.47 67.5374 317.241 67.2096 318.047C67.3779 317.002 67.6614 314.946 67.6614 314.769C67.6275 312.372 66.9809 310.024 65.7831 307.947C65.7919 307.68 65.7741 307.413 65.73 307.15C65.6681 306.645 65.5 306.158 65.2367 305.723C64.9735 305.287 64.6211 304.913 64.2027 304.623C63.7843 304.334 63.3093 304.136 62.809 304.043C62.3087 303.95 61.7944 303.964 61.3 304.084C58.3496 304.873 56.4801 310.047 56.3384 312.767C56.3384 312.926 56.4358 314.681 56.5156 315.788C56.3738 315.141 56.232 314.521 56.0726 313.866C55.7625 312.554 55.4169 311.261 55.0448 309.87C54.8499 309.205 54.6461 308.532 54.4335 307.858C54.2208 307.185 53.9639 306.485 53.7247 305.794C53.1399 304.199 52.4754 302.605 51.7666 301.027C52.9095 300.753 56.9497 299.716 58.5711 298.476C60.1925 297.235 61.8936 295.206 61.8759 293.053C61.89 292.547 61.7972 292.043 61.6035 291.575C61.4098 291.106 61.1196 290.684 60.7518 290.336C60.3839 289.987 59.9467 289.72 59.4687 289.551C58.9907 289.383 58.4826 289.318 57.9775 289.359C54.9473 289.687 52.3071 294.515 51.7755 297.191C51.7755 297.359 51.5628 299.317 51.4831 300.39C51.0489 299.441 50.5971 298.493 50.1541 297.545C48.7985 294.817 47.3366 292.097 45.9013 289.377L44.59 286.869C44.9976 286.772 49.8263 285.655 51.678 284.255C53.2905 283.024 55.0094 280.995 54.9916 278.842C55.0056 278.335 54.9128 277.831 54.7192 277.362C54.5256 276.893 54.2356 276.471 53.8679 276.121C53.5002 275.772 53.0632 275.504 52.5851 275.335C52.1071 275.165 51.5988 275.099 51.0932 275.139C48.0543 275.466 45.4228 280.304 44.8912 282.971C44.8912 283.175 44.59 285.992 44.5634 286.719C43.6065 284.876 42.6762 283.033 41.8257 281.181C40.6635 278.684 39.669 276.111 38.8487 273.482C39.0348 273.482 44.085 272.294 45.9367 270.868C47.5492 269.628 49.2592 267.599 49.2415 265.446C49.2556 264.939 49.1628 264.435 48.9691 263.967C48.7755 263.499 48.4852 263.076 48.1174 262.728C47.7496 262.379 47.3124 262.112 46.8344 261.944C46.3563 261.775 45.8482 261.71 45.3431 261.751C42.313 262.079 39.6816 266.916 39.1411 269.583C39.1411 269.76 38.9107 271.905 38.8399 272.932H38.6715C37.9079 270.268 37.3889 267.54 37.121 264.781C36.9438 263.266 36.8729 261.804 36.8286 260.351C37.7855 260.236 42.1446 259.651 43.9875 258.579C45.8304 257.507 47.6556 255.691 47.8771 253.547C47.9456 253.044 47.9078 252.533 47.766 252.047C47.6243 251.56 47.3818 251.109 47.0543 250.722C46.7268 250.335 46.3215 250.021 45.8649 249.801C45.4083 249.581 44.9106 249.46 44.4039 249.445C41.3561 249.445 38.2019 253.954 37.3691 256.533C37.3691 256.674 37.0147 258.154 36.8109 259.244C36.8109 258.597 36.8109 257.941 36.8109 257.321C36.8109 255.017 36.9615 252.891 37.1122 251.03C37.2008 249.967 37.2982 249.01 37.4045 248.116C38.2905 247.504 41.8345 245.014 42.9066 243.234C43.9787 241.453 44.8292 238.99 44.0407 236.978C43.8698 236.502 43.6007 236.066 43.2507 235.7C42.9007 235.334 42.4776 235.045 42.009 234.853C41.5404 234.661 41.0366 234.57 40.5303 234.585C40.0241 234.6 39.5266 234.721 39.0702 234.941C36.1819 236.411 35.4642 241.878 35.9161 244.536C35.9161 244.775 36.9793 248.337 37.0236 248.302H37.0767C36.9615 249.188 36.8464 250.074 36.7312 251.101C36.5451 252.971 36.3591 255.088 36.3059 257.401C36.2181 259.898 36.2773 262.398 36.4831 264.887C36.697 267.676 37.1596 270.439 37.8653 273.145C37.8653 273.145 37.8653 273.216 37.8653 273.242C37.378 272.489 35.9692 270.425 35.8452 270.274C34.0732 268.219 29.404 265.286 26.5953 266.473C26.1336 266.683 25.7214 266.989 25.3856 267.369C25.0498 267.749 24.798 268.196 24.6467 268.68C24.4953 269.164 24.4478 269.675 24.5073 270.178C24.5667 270.682 24.7318 271.168 24.9917 271.603C26.0283 273.499 28.5357 274.43 30.5292 274.722C32.7973 275.05 37.6172 273.668 37.9627 273.553C38.7496 276.29 39.7175 278.971 40.8599 281.58C41.5156 283.104 42.2244 284.619 42.9598 286.125C42.5256 285.487 42.1269 284.92 42.0738 284.84C40.3018 282.785 35.6325 279.852 32.8239 281.039C32.3651 281.254 31.9564 281.562 31.6241 281.944C31.2918 282.327 31.0434 282.774 30.8948 283.259C30.7462 283.743 30.7007 284.253 30.7614 284.756C30.822 285.258 30.9874 285.743 31.2468 286.178C32.2835 288.065 34.7908 289.004 36.7843 289.297C38.7778 289.589 42.9332 288.491 44.0141 288.189L44.9001 289.917C46.2823 292.672 47.6821 295.419 48.9668 298.157C49.4187 299.114 49.8528 300.079 50.2427 301.045C49.8528 300.478 49.525 300.009 49.463 299.938C47.691 297.873 43.0218 294.941 40.2132 296.137C39.7522 296.348 39.3408 296.653 39.006 297.034C38.6711 297.414 38.4203 297.861 38.2698 298.345C38.1193 298.829 38.0725 299.34 38.1326 299.843C38.1927 300.347 38.3582 300.832 38.6184 301.267C39.655 303.154 42.1624 304.084 44.1559 304.385C46.1494 304.687 49.8971 303.685 51.1818 303.331C51.5805 304.323 51.9704 305.333 52.3071 306.317C52.5286 306.999 52.7766 307.637 52.9627 308.328C53.1488 309.019 53.3348 309.693 53.5297 310.357C53.8398 311.668 54.1677 313.015 54.4157 314.291C54.6107 315.177 54.7879 316.063 54.9562 316.887C54.5221 315.921 53.6183 314.052 53.5209 313.901C52.0767 311.597 47.9125 307.991 44.9533 308.744C44.4654 308.883 44.0122 309.122 43.6233 309.448C43.2343 309.773 42.9183 310.177 42.6959 310.632C42.4735 311.088 42.3497 311.585 42.3325 312.092C42.3154 312.599 42.4054 313.104 42.5965 313.573C43.3407 315.593 45.6532 316.896 47.6024 317.489C49.7465 318.145 54.4866 317.542 55.0802 317.489C55.3638 318.907 55.6296 320.289 55.8511 321.591C56.6573 326.128 57.1446 329.929 57.4547 332.596C57.5079 333.065 57.5522 333.482 57.5965 333.889H48.4087L51.235 389.193H67.9272L70.7624 333.889H62.2037L62.3986 333.499C63.5681 331.045 65.1984 327.537 66.9615 323.231C67.5197 321.875 68.0867 320.413 68.6626 318.907C69.2297 319.022 73.9786 319.979 76.1227 319.483C78.1074 319.04 80.5527 317.915 81.4387 315.939C81.6624 315.484 81.788 314.988 81.8076 314.482C81.8271 313.976 81.7401 313.471 81.5521 313.001C81.3642 312.531 81.0795 312.105 80.7165 311.752C80.3536 311.399 79.9205 311.126 79.4452 310.951C76.548 309.976 72.1357 313.263 70.5144 315.452C70.4169 315.584 69.5398 317.108 68.9993 318.11C69.2297 317.489 69.46 316.896 69.6904 316.258C70.1511 315 70.5764 313.724 71.0371 312.359C71.232 311.695 71.4358 311.021 71.6396 310.339C71.8434 309.657 72.0028 308.939 72.1889 308.231C72.5787 306.574 72.8977 304.882 73.1812 303.172C74.2799 303.57 78.2226 304.944 80.2692 304.802C82.3159 304.66 84.8498 303.916 86.0194 302.144C86.3113 301.729 86.5124 301.257 86.6096 300.759C86.7067 300.261 86.6977 299.748 86.5832 299.254C86.4686 298.76 86.2511 298.296 85.9447 297.891C85.6384 297.487 85.2502 297.152 84.8055 296.908C82.0944 295.508 77.2302 298.086 75.2988 300.009C75.1836 300.124 73.952 301.665 73.2875 302.516C73.4559 301.488 73.6154 300.46 73.7483 299.406C74.1204 296.385 74.4128 293.31 74.7051 290.245L74.9975 287.436C75.3874 287.578 80.0389 289.306 82.3247 289.146C84.3537 289.004 86.8965 288.26 88.0749 286.488C88.3668 286.073 88.5679 285.601 88.6651 285.104C88.7622 284.606 88.7533 284.093 88.6387 283.599C88.5241 283.104 88.3066 282.64 88.0003 282.236C87.694 281.831 87.3058 281.496 86.8611 281.252C84.1499 279.852 79.2858 282.43 77.3543 284.353C77.2125 284.504 75.4405 286.71 75.0152 287.294C75.2367 285.239 75.476 283.183 75.7861 281.172C76.2026 278.449 76.7945 275.756 77.5581 273.11C77.7353 273.18 82.5817 275.006 84.9207 274.882C86.9497 274.74 89.4925 273.996 90.6709 272.224C90.9628 271.809 91.1639 271.337 91.2611 270.839C91.3582 270.341 91.3492 269.828 91.2347 269.334C91.1201 268.84 90.9026 268.375 90.5963 267.971C90.2899 267.567 89.9017 267.231 89.457 266.987C86.7459 265.587 81.8817 268.166 79.9503 270.088C79.8262 270.221 78.4795 271.905 77.8504 272.746L77.6998 272.667C78.5312 270.023 79.6018 267.461 80.8983 265.012C81.5894 263.647 82.3336 262.354 83.0778 261.184C83.9638 261.618 87.9243 263.55 90.0507 263.629C92.1771 263.709 94.7022 263.257 96.0666 261.592C96.3962 261.211 96.6427 260.765 96.7905 260.284C96.9382 259.802 96.984 259.295 96.9248 258.795C96.8656 258.295 96.7027 257.812 96.4467 257.378C96.1906 256.945 95.8469 256.569 95.4375 256.276C92.8947 254.583 87.7736 256.621 85.6915 258.313C85.5764 258.411 84.4954 259.474 83.7246 260.271C84.0702 259.731 84.4157 259.164 84.7612 258.65C86.0371 256.727 87.3218 255.044 88.4736 253.564C89.1381 252.732 89.7494 251.987 90.3342 251.296C91.4062 251.296 95.7299 251.146 97.6171 250.26C99.5043 249.374 101.569 247.779 102.047 245.67C102.208 245.153 102.251 244.606 102.173 244.07C102.094 243.534 101.896 243.023 101.593 242.574C101.29 242.125 100.89 241.749 100.423 241.476C99.9557 241.202 99.4328 241.037 98.8929 240.992ZM65.2958 322.504C63.4618 326.721 61.7518 330.168 60.5557 332.56C60.3165 333.039 60.095 333.446 59.8912 333.863H59.652C59.59 333.393 59.528 332.888 59.4482 332.312C59.0761 329.654 58.4913 325.791 57.5876 321.237C57.3041 319.793 56.9763 318.26 56.6219 316.683C58.0495 316.111 59.4428 315.458 60.7949 314.725C62.3543 316.417 66.359 318.393 66.8729 318.65C66.3679 319.97 65.854 321.264 65.2958 322.504Z" fill="#984AD9"/>
<path d="M28.7129 259.191C30.9013 260.147 36.2616 260.023 36.2705 260.023C36.2794 260.023 35.1187 256.479 35.0124 256.302C33.834 253.848 30.1217 249.781 27.0915 250.198C26.5924 250.28 26.1161 250.467 25.6935 250.745C25.271 251.023 24.9115 251.387 24.6384 251.813C24.3654 252.239 24.1847 252.717 24.1082 253.217C24.0317 253.718 24.061 254.228 24.1943 254.716C24.6993 256.816 26.87 258.375 28.7129 259.191Z" fill="#984AD9"/>
<path opacity="0.3" d="M28.7129 259.191C30.9013 260.147 36.2616 260.023 36.2705 260.023C36.2794 260.023 35.1187 256.479 35.0124 256.302C33.834 253.848 30.1217 249.781 27.0915 250.198C26.5924 250.28 26.1161 250.467 25.6935 250.745C25.271 251.023 24.9115 251.387 24.6384 251.813C24.3654 252.239 24.1847 252.717 24.1082 253.217C24.0317 253.718 24.061 254.228 24.1943 254.716C24.6993 256.816 26.87 258.375 28.7129 259.191Z" fill="white"/>
<path opacity="0.3" d="M37.9982 273.535C38.785 276.272 39.7529 278.953 40.8954 281.562C41.551 283.086 42.2598 284.601 42.9952 286.107C42.5611 285.469 42.1624 284.902 42.1092 284.822C40.3372 282.767 35.668 279.834 32.8594 281.022C32.3951 281.232 31.9806 281.539 31.6429 281.921C31.3052 282.303 31.052 282.752 30.8998 283.239C30.7476 283.726 30.6998 284.239 30.7596 284.746C30.8194 285.252 30.9855 285.74 31.2468 286.178C32.2835 288.065 34.7908 289.004 36.7843 289.297C38.7778 289.589 42.9332 288.491 44.0141 288.189L44.9001 289.917C46.2823 292.672 47.6821 295.419 48.9668 298.157C49.4187 299.114 49.8528 300.079 50.2427 301.045C49.8528 300.478 49.525 300.009 49.463 299.938C47.691 297.873 43.0218 294.941 40.2132 296.137C39.7522 296.348 39.3408 296.653 39.006 297.034C38.6711 297.414 38.4203 297.861 38.2698 298.345C38.1193 298.829 38.0725 299.34 38.1326 299.843C38.1927 300.347 38.3582 300.832 38.6184 301.267C39.655 303.154 42.1624 304.084 44.1559 304.385C46.1494 304.687 49.8971 303.685 51.1818 303.331C51.5805 304.323 51.9704 305.333 52.3071 306.317C52.5286 306.999 52.7766 307.637 52.9627 308.328C53.1488 309.019 53.3348 309.693 53.5297 310.357C53.8398 311.668 54.1677 313.015 54.4157 314.291C54.6107 315.177 54.7879 316.063 54.9562 316.887C54.5221 315.921 53.6183 314.052 53.5209 313.901C52.0767 311.597 47.9125 307.991 44.9533 308.744C44.4654 308.883 44.0122 309.122 43.6233 309.448C43.2343 309.773 42.9183 310.177 42.6959 310.632C42.4735 311.088 42.3497 311.585 42.3325 312.092C42.3154 312.599 42.4054 313.104 42.5965 313.573C43.3407 315.593 45.6532 316.896 47.6024 317.489C49.7465 318.145 54.4866 317.542 55.0802 317.489C55.3638 318.907 55.6296 320.289 55.8511 321.591C56.6573 326.128 57.1446 329.929 57.4547 332.596C57.5079 333.065 57.5522 333.482 57.5965 333.889H48.4087L51.235 389.193H67.9272L70.7624 333.889H62.2037L62.3986 333.499C63.5681 331.045 65.1984 327.537 66.9615 323.231C67.5197 321.875 68.0867 320.413 68.6626 318.907C69.2297 319.022 73.9786 319.979 76.1227 319.483C78.1074 319.04 80.5527 317.915 81.4387 315.939C81.6624 315.484 81.788 314.988 81.8076 314.482C81.8271 313.976 81.7401 313.471 81.5521 313.001C81.3642 312.531 81.0795 312.105 80.7165 311.752C80.3536 311.399 79.9205 311.126 79.4452 310.951C76.548 309.976 72.1357 313.263 70.5144 315.452C70.4169 315.584 69.5398 317.108 68.9993 318.11C69.2297 317.489 69.46 316.896 69.6904 316.258C70.1511 315 70.5764 313.724 71.0371 312.359C71.232 311.695 71.4358 311.021 71.6396 310.339C71.8434 309.657 72.0028 308.939 72.1889 308.231C72.5787 306.574 72.8977 304.882 73.1812 303.172C74.2799 303.57 78.2226 304.944 80.2692 304.802C82.3159 304.66 84.8498 303.916 86.0194 302.144C86.3113 301.729 86.5124 301.257 86.6096 300.759C86.7067 300.261 86.6977 299.748 86.5832 299.254C86.4686 298.76 86.2511 298.296 85.9448 297.891C85.6384 297.487 85.2502 297.152 84.8055 296.908C82.0944 295.508 77.2302 298.086 75.2988 300.009C75.1836 300.124 73.952 301.665 73.2875 302.516C73.4559 301.488 73.6154 300.46 73.7483 299.406C74.1204 296.385 74.4128 293.31 74.7051 290.245L74.9975 287.436C75.3874 287.578 80.0389 289.306 82.3247 289.146C84.3537 289.004 86.8965 288.26 88.0749 286.488C88.3668 286.073 88.5679 285.601 88.6651 285.104C88.7623 284.606 88.7533 284.093 88.6387 283.599C88.5241 283.104 88.3066 282.64 88.0003 282.236C87.694 281.831 87.3058 281.496 86.8611 281.252C84.1499 279.852 79.2858 282.43 77.3543 284.353C77.2125 284.504 75.4405 286.71 75.0152 287.294C75.2367 285.239 75.476 283.183 75.7861 281.172C76.2026 278.449 76.7945 275.756 77.5581 273.11C77.7353 273.18 82.5817 275.006 84.9207 274.882C86.9497 274.74 89.4925 273.996 90.6709 272.224C90.9628 271.809 91.1639 271.337 91.2611 270.839C91.3582 270.341 91.3492 269.828 91.2347 269.334C91.1201 268.84 90.9026 268.375 90.5963 267.971C90.2899 267.567 89.9017 267.231 89.457 266.987C86.7459 265.587 81.8817 268.166 79.9503 270.088C79.8262 270.221 78.4795 271.905 77.8504 272.746L77.6998 272.667C78.5312 270.023 79.6018 267.461 80.8983 265.012C81.5894 263.647 82.3336 262.354 83.0778 261.184C83.9638 261.618 87.9243 263.55 90.0507 263.629C92.1771 263.709 94.7022 263.257 96.0666 261.592C96.3962 261.211 96.6427 260.765 96.7905 260.284C96.9382 259.802 96.984 259.295 96.9248 258.795C96.8656 258.295 96.7028 257.812 96.4467 257.378C96.1906 256.945 95.8469 256.569 95.4375 256.276C92.8947 254.583 87.7736 256.621 85.6915 258.313C85.5764 258.411 84.4954 259.474 83.7246 260.271C84.0702 259.731 84.4157 259.164 84.7612 258.65C86.0371 256.727 87.3218 255.044 88.4736 253.564C89.1381 252.732 89.7494 251.987 90.3342 251.296C91.4062 251.296 95.7299 251.146 97.6171 250.26C99.5043 249.374 101.569 247.779 102.047 245.67C102.166 245.179 102.18 244.668 102.089 244.171C101.998 243.674 101.804 243.202 101.52 242.785C101.235 242.367 100.866 242.014 100.436 241.748C100.007 241.482 99.5264 241.309 99.0258 241.24C95.9869 240.921 92.3897 245.077 91.2733 247.566C91.1847 247.779 90.0684 251.323 90.1215 251.314H90.1924C89.6165 251.97 89.0052 252.678 88.3584 253.458C87.1712 254.92 85.8422 256.577 84.522 258.482C83.0718 260.513 81.7435 262.628 80.5439 264.817C79.1814 267.261 78.0427 269.823 77.1416 272.472V272.569C77.1416 271.683 77.1416 269.176 77.0885 268.981C76.7429 266.278 74.4305 261.264 71.4712 260.706C70.9699 260.626 70.4574 260.654 69.9675 260.787C69.4775 260.919 69.0211 261.154 68.628 261.475C68.2349 261.796 67.9141 262.197 67.6864 262.65C67.4588 263.104 67.3295 263.601 67.307 264.108C67.1298 266.252 68.6892 268.405 70.2043 269.76C71.9142 271.284 76.6721 272.773 77.053 272.888C76.1556 275.496 75.4305 278.159 74.8823 280.862C74.59 282.492 74.3507 284.14 74.1292 285.806C74.1292 285.035 74.1292 284.344 74.1292 284.247C73.7837 281.544 71.4712 276.521 68.512 275.971C68.0113 275.892 67.4996 275.92 67.0102 276.052C66.5209 276.184 66.0649 276.418 65.6719 276.738C65.279 277.058 64.958 277.457 64.7298 277.91C64.5017 278.363 64.3715 278.858 64.3478 279.365C64.1706 281.518 65.73 283.662 67.245 285.017C68.7601 286.373 72.818 287.737 73.8812 288.083L73.6419 289.997C73.2787 293.053 72.9243 296.119 72.4901 299.105C72.3395 300.159 72.1446 301.187 71.9585 302.224C71.9585 301.532 71.9585 300.957 71.9585 300.868C71.6041 298.166 69.3005 293.151 66.3413 292.593C65.8399 292.514 65.3275 292.541 64.8375 292.674C64.3476 292.807 63.8911 293.041 63.4981 293.362C63.105 293.683 62.7841 294.084 62.5565 294.538C62.3289 294.991 62.1996 295.488 62.1771 295.995C61.9999 298.139 63.5593 300.292 65.0743 301.648C66.5894 303.003 70.2486 304.235 71.5155 304.642C71.294 305.697 71.0725 306.751 70.8156 307.761C70.6207 308.443 70.4789 309.117 70.2397 309.799C70.0005 310.481 69.8056 311.137 69.5929 311.801C69.1322 313.059 68.7069 314.362 68.193 315.584C67.8652 316.47 67.5374 317.241 67.2096 318.047C67.3779 317.002 67.6614 314.946 67.6614 314.769C67.6275 312.372 66.9809 310.024 65.7831 307.947C65.7919 307.68 65.7741 307.413 65.73 307.15C65.6681 306.645 65.5 306.158 65.2367 305.723C64.9735 305.287 64.6211 304.913 64.2027 304.623C63.7843 304.334 63.3093 304.136 62.809 304.043C62.3087 303.95 61.7944 303.964 61.3 304.084C58.3496 304.873 56.4801 310.047 56.3384 312.767C56.3384 312.926 56.4358 314.681 56.5156 315.788C56.3738 315.141 56.232 314.521 56.0726 313.866C55.7625 312.554 55.4169 311.261 55.0448 309.87C54.8499 309.205 54.6461 308.532 54.4335 307.858C54.2208 307.185 53.9639 306.485 53.7247 305.794C53.1399 304.199 52.4754 302.605 51.7666 301.027C52.9095 300.753 56.9497 299.716 58.5711 298.476C60.1925 297.235 61.8936 295.206 61.8759 293.053C61.89 292.547 61.7972 292.043 61.6035 291.575C61.4098 291.106 61.1196 290.684 60.7518 290.336C60.3839 289.987 59.9467 289.72 59.4687 289.551C58.9907 289.383 58.4826 289.318 57.9775 289.359C54.9473 289.687 52.3071 294.515 51.7755 297.191C51.7755 297.359 51.5628 299.317 51.4831 300.39C51.0489 299.441 50.5971 298.493 50.1541 297.545C48.7985 294.817 47.3366 292.097 45.9013 289.377L44.59 286.869C44.9976 286.772 49.8263 285.655 51.678 284.255C53.2905 283.024 55.0094 280.995 54.9916 278.842C55.0056 278.335 54.9128 277.831 54.7192 277.362C54.5256 276.893 54.2356 276.471 53.8679 276.121C53.5002 275.772 53.0632 275.504 52.5851 275.335C52.1071 275.165 51.5988 275.099 51.0932 275.139C48.0543 275.466 45.4228 280.304 44.8912 282.971C44.8912 283.175 44.59 285.992 44.5634 286.719C43.6065 284.876 42.6762 283.033 41.8257 281.181C40.6635 278.684 39.669 276.111 38.8487 273.482C39.0348 273.482 44.085 272.294 45.9367 270.868C47.5492 269.628 49.2592 267.599 49.2415 265.446C49.2556 264.939 49.1628 264.435 48.9692 263.967C48.7755 263.499 48.4852 263.076 48.1174 262.728C47.7496 262.379 47.3124 262.112 46.8344 261.944C46.3563 261.775 45.8482 261.71 45.3431 261.751C42.313 262.079 39.6816 266.916 39.1411 269.583C39.1411 269.76 38.9107 271.905 38.8399 272.932H38.6715C37.9079 270.268 37.3889 267.54 37.121 264.781C36.9438 263.266 36.8729 261.804 36.8286 260.351C37.7855 260.236 42.1446 259.651 43.9875 258.579C45.8304 257.507 47.6556 255.691 47.8771 253.547C47.9456 253.044 47.9078 252.533 47.766 252.047C47.6243 251.56 47.3818 251.109 47.0543 250.722C46.7268 250.335 46.3215 250.021 45.8649 249.801C45.4084 249.581 44.9106 249.46 44.4039 249.445C41.3561 249.445 38.2019 253.954 37.3691 256.533C37.3691 256.674 37.0147 258.154 36.8109 259.244C36.8109 258.597 36.8109 257.941 36.8109 257.321C36.8109 255.017 36.9615 252.891 37.1122 251.03C37.2008 249.967 37.2982 249.01 37.4045 248.116C38.2905 247.504 41.8345 245.014 42.9066 243.234C43.9787 241.453 44.8292 238.99 44.0407 236.978C43.8698 236.502 43.6007 236.066 43.2507 235.7C42.9007 235.334 42.4776 235.045 42.009 234.853C41.5404 234.661 41.0366 234.57 40.5303 234.585C40.0241 234.6 39.5266 234.721 39.0702 234.941C36.1819 236.411 35.4642 241.878 35.9161 244.536C35.9161 244.775 36.9793 248.337 37.0236 248.302H37.0767C36.9615 249.188 36.8464 250.074 36.7312 251.101C36.5451 252.971 36.3591 255.088 36.3059 257.401C36.2181 259.898 36.2773 262.398 36.4831 264.887C36.697 267.676 37.1596 270.439 37.8653 273.145C37.8653 273.145 37.8653 273.216 37.8653 273.242C37.378 272.489 35.9692 270.425 35.8452 270.274C34.0732 268.219 29.404 265.286 26.5953 266.473C26.1336 266.683 25.7214 266.989 25.3856 267.369C25.0498 267.749 24.798 268.196 24.6467 268.68C24.4953 269.164 24.4478 269.675 24.5073 270.178C24.5667 270.682 24.7318 271.168 24.9917 271.603C26.0283 273.499 28.5357 274.43 30.5292 274.722C32.8328 275.032 37.6172 273.65 37.9982 273.535ZM60.8304 314.707C62.3897 316.4 66.3945 318.375 66.9083 318.632C66.3679 319.97 65.8274 321.29 65.2958 322.486C63.4618 326.704 61.7518 330.15 60.5557 332.542C60.3165 333.021 60.095 333.428 59.8912 333.845H59.652C59.59 333.375 59.528 332.87 59.4482 332.294C59.0761 329.636 58.4913 325.773 57.5876 321.219C57.3041 319.775 56.9763 318.242 56.6219 316.665C58.0616 316.095 59.4668 315.441 60.8304 314.707Z" fill="white"/>
</g>
<path d="M84.6638 185.351H358.615C361.073 185.351 363.43 186.328 365.168 188.066C366.906 189.804 367.883 192.161 367.883 194.619V375.203H75.3962V194.619C75.3962 192.161 76.3726 189.804 78.1106 188.066C79.8487 186.328 82.2059 185.351 84.6638 185.351Z" stroke="#263238" stroke-linecap="round" stroke-linejoin="round"/>
<path d="M356.01 200.183H87.2598V352.061H356.01V200.183Z" stroke="#263238" stroke-linecap="round" stroke-linejoin="round"/>
<path d="M322.812 366.06H121.805V375.965H322.812V366.06Z" fill="#263238" stroke="#263238" stroke-linecap="round" stroke-linejoin="round"/>
<path d="M322.812 370.826H121.805V375.965H322.812V370.826Z" fill="white" stroke="#263238" stroke-linecap="round" stroke-linejoin="round"/>
<path d="M51.7401 381.866C51.7401 381.866 55.0449 385.906 64.9504 389.202H379.666C379.666 389.202 387.003 387.368 390.298 382.238L51.7401 381.866Z" fill="#263238" stroke="#263238" stroke-linecap="round" stroke-linejoin="round"/>
<path d="M389.341 374.61H52.7501C51.8253 374.61 51.0756 375.359 51.0756 376.284V380.643C51.0756 381.568 51.8253 382.318 52.7501 382.318H389.341C390.266 382.318 391.016 381.568 391.016 380.643V376.284C391.016 375.359 390.266 374.61 389.341 374.61Z" fill="white" stroke="#263238" stroke-linecap="round" stroke-linejoin="round"/>
<path d="M224.138 191.092C224.138 190.584 223.987 190.087 223.704 189.664C223.422 189.241 223.02 188.912 222.55 188.718C222.08 188.524 221.563 188.473 221.064 188.573C220.565 188.673 220.108 188.919 219.749 189.279C219.39 189.639 219.146 190.098 219.047 190.597C218.949 191.096 219.001 191.613 219.197 192.082C219.393 192.551 219.724 192.952 220.148 193.233C220.571 193.514 221.069 193.664 221.577 193.662C221.914 193.662 222.248 193.595 222.559 193.466C222.871 193.337 223.153 193.147 223.391 192.909C223.629 192.67 223.817 192.387 223.946 192.075C224.074 191.763 224.139 191.429 224.138 191.092Z" fill="white" stroke="#263238" stroke-linecap="round" stroke-linejoin="round"/>
<path d="M78.1518 238.777C77.9582 238.777 77.7725 238.701 77.6349 238.565C77.4972 238.429 77.4187 238.244 77.4164 238.05V216.786C77.4187 216.593 77.4972 216.408 77.6349 216.272C77.7725 216.136 77.9582 216.06 78.1518 216.06C78.3453 216.06 78.531 216.136 78.6686 216.272C78.8063 216.408 78.8848 216.593 78.8871 216.786V238.05C78.8848 238.244 78.8063 238.429 78.6686 238.565C78.531 238.701 78.3453 238.777 78.1518 238.777Z" fill="#263238" stroke="white" stroke-width="0.691688" stroke-miterlimit="10"/>
<path d="M283.03 200.183V352.008" stroke="#263238" stroke-linecap="round" stroke-linejoin="round"/>
<path d="M286.796 200.183V352.008" stroke="#263238" stroke-linecap="round" stroke-linejoin="round"/>
<path d="M87.4104 341.978H283.03" stroke="#263238" stroke-linecap="round" stroke-linejoin="round"/>
<path d="M96.0312 323.071H162.198" stroke="#263238" stroke-linecap="round" stroke-linejoin="round"/>
<path d="M96.0312 316.772H162.198" stroke="#263238" stroke-linecap="round" stroke-linejoin="round"/>
<path d="M96.0312 310.472H162.198" stroke="#263238" stroke-linecap="round" stroke-linejoin="round"/>
<path d="M96.0312 304.173H162.198" stroke="#263238" stroke-linecap="round" stroke-linejoin="round"/>
<path d="M96.0312 297.864H162.198" stroke="#263238" stroke-linecap="round" stroke-linejoin="round"/>
<path d="M96.0312 279.489H162.198" stroke="#263238" stroke-linecap="round" stroke-linejoin="round"/>
<path d="M96.0312 273.189H162.198" stroke="#263238" stroke-linecap="round" stroke-linejoin="round"/>
<path d="M96.0312 266.89H162.198" stroke="#263238" stroke-linecap="round" stroke-linejoin="round"/>
<path d="M96.0312 260.59H162.198" stroke="#263238" stroke-linecap="round" stroke-linejoin="round"/>
<path d="M96.0312 254.282H162.198" stroke="#263238" stroke-linecap="round" stroke-linejoin="round"/>
<path d="M323.095 214.571C322.86 214.571 322.635 214.665 322.469 214.831C322.303 214.997 322.209 215.222 322.209 215.457L322.156 216.609H307.856L307.014 236.659H334.48L335.109 221.465L335.322 216.609L335.411 214.607L323.095 214.571Z" fill="#984AD9" stroke="#263238" stroke-linecap="round" stroke-linejoin="round"/>
<path d="M334.48 236.624L334.356 217.974H307.962L308.175 236.402L334.48 236.624Z" fill="white" stroke="#263238" stroke-linecap="round" stroke-linejoin="round"/>
<path d="M334.48 236.624L333.275 217.974H306.881L307.094 236.402L334.48 236.624Z" fill="white" stroke="#263238" stroke-linecap="round" stroke-linejoin="round"/>
<path d="M307.014 236.624L303.346 217.398H330.981L334.48 236.624H307.014Z" fill="#984AD9" stroke="#263238" stroke-linecap="round" stroke-linejoin="round"/>
<path d="M323.095 248.452C322.868 248.452 322.649 248.539 322.484 248.696C322.319 248.852 322.221 249.067 322.209 249.294L322.156 250.454H307.856L307.014 270.505H334.48L335.109 255.301L335.322 250.454L335.411 248.452H323.095Z" fill="#984AD9" stroke="#263238" stroke-linecap="round" stroke-linejoin="round"/>
<path d="M334.48 270.505L334.356 251.854H307.962L308.175 270.274L334.48 270.505Z" fill="white" stroke="#263238" stroke-linecap="round" stroke-linejoin="round"/>
<path d="M334.48 270.505L333.275 251.854H306.881L307.094 270.274L334.48 270.505Z" fill="white" stroke="#263238" stroke-linecap="round" stroke-linejoin="round"/>
<path d="M307.014 270.505L303.346 251.27H330.981L334.48 270.505H307.014Z" fill="#984AD9" stroke="#263238" stroke-linecap="round" stroke-linejoin="round"/>
<path d="M323.095 282.324C322.86 282.324 322.635 282.417 322.469 282.583C322.303 282.75 322.209 282.975 322.209 283.21L322.156 284.362H307.856L307.014 304.412H334.48L335.109 289.217L335.322 284.362L335.411 282.359L323.095 282.324Z" fill="#984AD9" stroke="#263238" stroke-linecap="round" stroke-linejoin="round"/>
<path d="M334.48 304.376L334.356 285.726H307.962L308.175 304.155L334.48 304.376Z" fill="white" stroke="#263238" stroke-linecap="round" stroke-linejoin="round"/>
<path d="M334.48 304.376L333.275 285.726H306.881L307.094 304.155L334.48 304.376Z" fill="white" stroke="#263238" stroke-linecap="round" stroke-linejoin="round"/>
<path d="M307.014 304.376L303.346 285.141H330.981L334.48 304.376H307.014Z" fill="#984AD9" stroke="#263238" stroke-linecap="round" stroke-linejoin="round"/>
<path d="M323.095 316.205C322.868 316.204 322.649 316.292 322.484 316.448C322.319 316.605 322.221 316.819 322.209 317.046L322.156 318.207H307.856L307.014 338.257H334.48L335.109 323.053L335.322 318.207L335.411 316.205H323.095Z" fill="#984AD9" stroke="#263238" stroke-linecap="round" stroke-linejoin="round"/>
<path d="M334.48 338.257L334.356 319.607H307.962L308.175 338.027L334.48 338.257Z" fill="white" stroke="#263238" stroke-linecap="round" stroke-linejoin="round"/>
<path d="M334.48 338.257L333.275 319.607H306.881L307.094 338.027L334.48 338.257Z" fill="white" stroke="#263238" stroke-linecap="round" stroke-linejoin="round"/>
<path d="M307.014 338.257L303.346 319.022H330.981L334.48 338.257H307.014Z" fill="#984AD9" stroke="#263238" stroke-linecap="round" stroke-linejoin="round"/>
<mask id="mask1_49_2537" style="mask-type:luminance" maskUnits="userSpaceOnUse" x="181" y="197" width="93" height="178">
<path d="M273.896 197.144H181.185V374.291H273.896V197.144Z" fill="white"/>
</mask>
<g mask="url(#mask1_49_2537)">
<path d="M247.679 370.658C248.884 372.395 249.539 374.454 249.557 376.568C249.38 379.615 256.911 382.938 258.975 381.68C261.04 380.422 261.394 377.02 259.861 374.867C258.433 373.015 256.907 371.24 255.29 369.551C254.838 369.01 254.838 368.567 253.403 368.567C251.967 368.567 248.219 368.505 247.679 370.658Z" fill="#263238" stroke="#263238" stroke-linecap="round" stroke-linejoin="round"/>
<path d="M260.269 375.567C260.302 376.326 260.227 377.087 260.047 377.826C259.596 379.438 259.161 379.527 259.161 379.527L258.355 378.269L256.654 378.721L256.565 380.333C255.595 380.386 254.623 380.266 253.695 379.979C252.702 379.527 250.736 378.455 250.372 376.302C249.987 374.72 249.321 373.219 248.405 371.872C249.194 373.31 249.594 374.928 249.566 376.568C249.389 379.616 256.92 382.938 258.984 381.68C260.827 380.555 261.297 377.693 260.269 375.567Z" fill="white" stroke="#263238" stroke-linecap="round" stroke-linejoin="round"/>
<path d="M228.763 368.416C227.107 369.857 225.305 371.119 223.385 372.182C220.523 373.706 217.183 373.068 216.758 374.512C216.332 375.956 218.636 377.285 223.846 378.003C229.055 378.721 229.941 377.463 232.183 376.656C234.424 375.85 238.385 376.479 239.271 375.85C240.157 375.221 239.359 372.802 239.005 370.534C238.651 368.266 238.465 367.672 238.465 367.672C236.905 368.426 235.158 368.707 233.441 368.479C231.891 368.258 230.318 368.237 228.763 368.416Z" fill="#263238" stroke="#263238" stroke-linecap="round" stroke-linejoin="round"/>
<path d="M232.174 376.656C234.415 375.85 238.376 376.479 239.262 375.85C239.864 375.434 239.696 374.193 239.413 372.749C238.5 373.341 237.514 373.812 236.48 374.149C234.081 374.707 231.715 375.396 229.392 376.213C226.749 377.123 223.854 376.961 221.329 375.761C219.088 374.875 219.983 374.955 220.248 374.06C220.299 373.913 220.314 373.755 220.291 373.601C220.268 373.447 220.208 373.3 220.115 373.174C218.414 373.484 217.032 373.582 216.758 374.477C216.306 375.903 218.636 377.25 223.846 377.968C229.055 378.685 229.932 377.436 232.174 376.656Z" fill="white" stroke="#263238" stroke-linecap="round" stroke-linejoin="round"/>
<path d="M223.659 278.691C223.659 278.691 223.03 284.698 223.03 297.873C222.999 307.88 223.567 317.881 224.732 327.82C225.449 333.287 225.618 333.375 225.715 334.093C225.812 334.811 229.126 355.153 229.126 356.411V358.112C229.126 358.112 227.354 359.884 227.957 361.523C228.559 363.163 229.667 366.45 229.392 366.538C229.117 366.627 228.143 367.079 228.143 367.885V368.691C229.311 369.988 230.892 370.843 232.617 371.11C235.753 371.739 236.746 372.191 237.552 371.021C238.579 369.651 239.339 368.1 239.794 366.45C240.148 364.748 240.6 363.942 239.519 362.241C238.438 360.54 238.084 359.813 238.084 358.919C238.084 358.024 239.342 343.148 238.535 338.036C237.729 332.923 237.012 329.592 237.012 326.934C237.012 324.276 237.818 301.116 237.818 301.116C237.818 301.116 242.39 329.707 242.93 335.891C243.47 342.076 245.172 357.767 244.986 358.75C244.799 359.734 243.462 361.258 244.1 362.87C244.759 364.265 245.567 365.583 246.509 366.804C246.32 366.963 246.19 367.183 246.141 367.426C246.093 367.669 246.129 367.922 246.244 368.142C246.607 369.028 247.325 370.561 247.679 370.658C248.033 370.756 255.299 369.577 255.299 369.577C255.299 369.577 257.895 365.094 257.071 362.764C256.247 360.434 255.458 359.362 255.458 359.096C255.902 356.694 256.198 354.268 256.344 351.831C256.433 348.606 253.482 316.789 253.482 316.789C253.482 316.789 252.224 288.012 252.224 287.746C252.224 287.48 251.958 282.9 251.958 282.9C251.958 282.9 242.452 289.182 234.3 286.488C226.149 283.795 223.659 278.691 223.659 278.691Z" fill="#984AD9" stroke="#263238" stroke-linecap="round" stroke-linejoin="round"/>
<path d="M237.818 301.098L236.746 297.696" stroke="#263238" stroke-linecap="round" stroke-linejoin="round"/>
<path d="M238.083 298.591L234.229 296.261" stroke="#263238" stroke-linecap="round" stroke-linejoin="round"/>
<path d="M237.224 229.713C237.224 229.713 230.694 228.765 229.658 229.456C228.621 230.147 224.935 235.898 223.128 238.316C221.32 240.735 209.2 250.96 209.2 250.96L198.612 230.582C198.958 229.054 199.186 227.502 199.294 225.939C199.294 224.397 198.524 223.449 198.524 221.987C198.524 220.525 199.215 218.372 198.869 217.859C198.524 217.345 197.576 217.947 196.973 218.975C196.371 220.003 196.459 222.847 196.459 222.847C196.459 222.847 191.072 216.202 190.612 215.369C190.488 215.139 189.584 215.192 189.584 215.883C189.584 216.574 192.933 222.847 192.933 222.847C192.933 222.847 192.587 223.361 192.251 223.361C191.914 223.361 187.174 217.69 186.935 217.602C186.695 217.513 185.907 217.69 186.332 218.629C186.757 219.569 190.372 224.397 190.372 224.397C189.677 224.415 188.986 224.501 188.308 224.654C188.21 224.718 188.127 224.804 188.068 224.905C188.008 225.006 187.974 225.12 187.966 225.237C187.958 225.354 187.978 225.471 188.023 225.579C188.069 225.687 188.139 225.783 188.228 225.859C188.531 226.142 188.878 226.372 189.256 226.541C189.256 226.541 189.345 227.064 189.424 227.924C189.379 228.446 189.466 228.971 189.676 229.451C189.887 229.931 190.214 230.35 190.629 230.67C191.506 231.484 192.528 232.128 193.642 232.566C194.067 232.646 203.281 259.678 204.743 262.088C206.205 264.498 206.896 264.577 208.527 264.143C210.157 263.709 226.22 251.624 226.22 251.624C226.22 251.624 225.538 273.721 224.758 275.271C223.978 276.822 223.128 276.822 223.128 277.85C223.171 278.743 223.287 279.632 223.473 280.508C223.473 280.508 227.77 287.729 236.542 287.985C245.313 288.242 253.305 284.716 253.305 283.086C253.241 282.059 253.039 281.046 252.702 280.073C252.702 279.737 253.739 278.098 253.588 277.07C253.438 276.042 252.818 275.776 252.986 274.235C253.154 272.693 260.552 250.587 260.898 243.792C261.244 236.996 261.323 236.482 259.693 235.286C258.063 234.09 252.038 233.045 252.038 233.045L241.893 230.466L237.853 230.121L237.224 229.713Z" fill="white" stroke="#263238" stroke-linecap="round" stroke-linejoin="round"/>
<path d="M260.871 243.809C261.217 237.023 261.297 236.5 259.666 235.304C258.036 234.108 252.011 233.062 252.011 233.062L241.867 230.484L237.827 230.139L237.224 229.713C237.224 229.713 230.694 228.765 229.658 229.456C228.621 230.147 224.935 235.898 223.128 238.316C221.32 240.735 209.2 250.96 209.2 250.96L205.656 243.756L199.179 248.08C201.837 255.097 204.159 261.113 204.726 262.052C206.187 264.453 206.879 264.542 208.509 264.108C210.139 263.674 226.22 251.624 226.22 251.624C226.22 251.624 225.538 273.721 224.758 275.271C223.978 276.822 223.128 276.822 223.128 277.85C223.171 278.743 223.287 279.632 223.473 280.508C223.473 280.508 227.77 287.729 236.542 287.985C245.313 288.242 253.305 284.716 253.305 283.086C253.241 282.059 253.039 281.046 252.702 280.073C252.702 279.737 253.739 278.098 253.588 277.07C253.438 276.042 252.818 275.776 252.986 274.235C253.154 272.693 260.526 250.605 260.871 243.809Z" fill="#263238" stroke="#263238" stroke-linecap="round" stroke-linejoin="round"/>
<path d="M226.264 241.47L226.22 251.633L224.067 241.568" stroke="white" stroke-width="0.75" stroke-linecap="round" stroke-linejoin="round"/>
<path d="M224.448 281.11C233.116 283.466 242.29 283.186 250.798 280.304" stroke="white" stroke-width="0.75" stroke-linecap="round" stroke-linejoin="round"/>
<path d="M244.073 285.106C244.959 285 245.792 284.867 246.731 284.698" stroke="white" stroke-width="0.75" stroke-linecap="round" stroke-linejoin="round"/>
<path d="M226.796 282.28C226.796 282.28 231.536 285.478 240.148 285.372" stroke="white" stroke-width="0.75" stroke-linecap="round" stroke-linejoin="round"/>
<path d="M196.459 222.802C196.415 223.412 196.23 224.004 195.919 224.53C195.396 225.416 194.74 225.726 194.652 227.277C194.619 227.711 194.688 228.146 194.852 228.549C195.017 228.952 195.273 229.311 195.6 229.598" stroke="#263238" stroke-linecap="round" stroke-linejoin="round"/>
<path d="M190.957 225.292C190.957 225.292 187.519 222.891 186.828 223.316C186.64 223.448 186.482 223.618 186.364 223.816C186.247 224.013 186.174 224.234 186.15 224.463C186.125 224.691 186.15 224.922 186.223 225.14C186.296 225.358 186.415 225.558 186.571 225.726C187.351 226.417 190.7 226.931 191.303 226.612C191.905 226.293 191.506 225.646 190.957 225.292Z" fill="#D9D9D9" stroke="#263238" stroke-linecap="round" stroke-linejoin="round"/>
<path d="M192.02 227.959C192.02 227.959 189.619 227.445 189.035 227.348C188.45 227.25 188.104 227.578 188.149 228.189C188.193 228.801 188.787 229.182 189.717 229.217C190.647 229.252 192.711 229.598 192.8 228.703C192.827 228.597 192.824 228.486 192.794 228.38C192.764 228.275 192.706 228.18 192.627 228.104C192.547 228.029 192.45 227.976 192.343 227.95C192.237 227.924 192.125 227.928 192.02 227.959Z" fill="#D9D9D9" stroke="#263238" stroke-linecap="round" stroke-linejoin="round"/>
<path d="M241.893 224.707C241.893 224.707 246.687 224.557 248.317 223.777" stroke="#263238" stroke-linecap="round" stroke-linejoin="round"/>
<path d="M252.968 240.106C252.968 240.106 243.222 250.056 240.059 253.821C237.864 256.372 235.467 258.743 232.892 260.909L211.229 246.512C210.414 245.298 209.666 244.041 208.987 242.746C208.358 241.4 207.375 241.045 206.568 238.981C205.762 236.916 204.947 235.579 204.327 237.014C203.707 238.449 203.964 238.892 204.327 239.61C204.69 240.327 205.939 242.48 205.939 242.48C205.939 242.48 200.561 240.327 198.674 239.521C196.787 238.715 194.82 238.449 194.731 239.167C194.643 239.884 195.006 239.787 195.901 240.15C196.796 240.514 202.351 243.553 202.351 243.553L201.811 243.827C201.811 243.827 194.466 242.48 193.748 242.392C193.03 242.303 193.208 243.278 193.748 243.553C194.288 243.827 197.062 245.165 197.062 245.165C197.062 245.165 196.433 245.705 197.15 246.689C197.835 247.5 198.618 248.224 199.48 248.842C199.636 249.495 199.981 250.087 200.473 250.543C201.19 251.084 205.851 250.995 207.818 251.172C208.803 251.217 209.774 251.43 210.688 251.801C210.688 251.801 233.521 271.293 235.044 271.293C236.568 271.293 257.806 251.216 260.136 248.257C262.466 245.298 264.167 240.106 262.741 237.687C261.314 235.268 259.064 234.728 257.629 235.26" fill="white"/>
<path d="M252.968 240.106C252.968 240.106 243.222 250.056 240.059 253.821C237.864 256.372 235.467 258.743 232.892 260.909L211.229 246.512C210.414 245.298 209.666 244.041 208.987 242.746C208.358 241.4 207.375 241.045 206.568 238.981C205.762 236.916 204.947 235.579 204.327 237.014C203.707 238.449 203.964 238.892 204.327 239.61C204.69 240.327 205.939 242.48 205.939 242.48C205.939 242.48 200.561 240.327 198.674 239.521C196.787 238.715 194.82 238.449 194.731 239.167C194.643 239.884 195.006 239.787 195.901 240.15C196.796 240.514 202.351 243.553 202.351 243.553L201.811 243.827C201.811 243.827 194.466 242.48 193.748 242.392C193.03 242.303 193.208 243.278 193.748 243.553C194.288 243.827 197.062 245.165 197.062 245.165C197.062 245.165 196.433 245.705 197.15 246.689C197.835 247.5 198.618 248.224 199.48 248.842C199.636 249.495 199.981 250.087 200.473 250.543C201.19 251.084 205.851 250.995 207.818 251.172C208.803 251.217 209.774 251.43 210.688 251.801C210.688 251.801 233.521 271.293 235.044 271.293C236.568 271.293 257.806 251.216 260.136 248.257C262.466 245.298 264.167 240.106 262.741 237.687C261.314 235.268 259.064 234.728 257.629 235.26" stroke="#263238" stroke-linecap="round" stroke-linejoin="round"/>
<path d="M197.062 245.112C197.062 245.112 199.932 246.104 200.827 246.37L197.062 245.112Z" fill="white"/>
<path d="M197.062 245.112C197.062 245.112 199.932 246.104 200.827 246.37" stroke="#263238" stroke-linecap="round" stroke-linejoin="round"/>
<path d="M199.48 248.789L201.368 249.055" stroke="#263238" stroke-linecap="round" stroke-linejoin="round"/>
<path d="M252.968 240.106C252.968 240.106 243.222 250.056 240.059 253.821C237.864 256.372 235.467 258.743 232.892 260.909L227.106 257.108L223.828 263.266C229.542 267.634 234.46 271.24 235.053 271.24C236.568 271.24 257.815 251.163 260.145 248.204C262.475 245.245 264.176 240.053 262.75 237.634C261.323 235.215 259.073 234.675 257.638 235.206L256.335 236.03" fill="#263238"/>
<path d="M252.968 240.106C252.968 240.106 243.222 250.056 240.059 253.821C237.864 256.372 235.467 258.743 232.892 260.909L227.106 257.108L223.828 263.266C229.542 267.634 234.46 271.24 235.053 271.24C236.568 271.24 257.815 251.163 260.145 248.204C262.475 245.245 264.176 240.053 262.75 237.634C261.323 235.215 259.073 234.675 257.638 235.206L256.335 236.03" stroke="white" stroke-width="0.75" stroke-linecap="round" stroke-linejoin="round"/>
<path d="M252.011 233.062L241.867 230.484L238.642 230.201L237.224 229.713C237.224 229.713 236.489 229.607 235.452 229.492L235.195 249.205L255.458 233.789C253.686 233.346 252.011 233.062 252.011 233.062Z" fill="white" stroke="#263238" stroke-linecap="round" stroke-linejoin="round"/>
<path d="M249.477 201.503C247.357 201.446 245.299 202.222 243.745 203.665C241.424 206.057 241.273 207.608 240.343 208.458C239.412 209.309 237.632 209.229 236.4 211.86C235.169 214.492 234.229 219.985 234.46 221.766C234.69 223.547 236.232 224.087 237.711 224.317C239.191 224.548 241.893 224.707 241.893 224.707C241.893 224.707 241.495 230.519 241.114 230.431C240.733 230.342 238.642 230.201 238.642 230.201C238.642 230.201 238.252 239.255 238.181 241.497L238.101 243.747L252.233 233.018L249.477 231.866C249.554 230.082 249.852 228.314 250.363 226.603C250.79 225.245 251.332 223.926 251.985 222.661C251.985 222.661 256.415 221.19 258.798 217.867C260.721 215.209 260.659 211.373 259.613 208.378C259.015 206.629 257.952 205.075 256.538 203.884C255.124 202.693 253.412 201.91 251.586 201.618C250.889 201.51 250.182 201.471 249.477 201.503Z" fill="white" stroke="#263238" stroke-linecap="round" stroke-linejoin="round"/>
<path d="M241.734 210.319C240.974 211.163 240.118 211.916 239.182 212.56C237.942 213.331 238.872 214.802 240.423 215.342C241.973 215.883 242.434 215.192 242.434 215.192" stroke="#263238" stroke-linecap="round" stroke-linejoin="round"/>
<path d="M242.664 217.903C242.664 217.903 239.492 217.433 238.021 216.042C238.123 216.472 238.332 216.868 238.63 217.194C238.928 217.519 239.304 217.764 239.723 217.903C240.691 218.121 241.696 218.121 242.664 217.903Z" stroke="#263238" stroke-width="0.75" stroke-linecap="round" stroke-linejoin="round"/>
<path d="M247.156 208.307C247.697 208.477 248.176 208.801 248.533 209.241C248.891 209.68 249.112 210.215 249.167 210.779" stroke="#263238" stroke-linecap="round" stroke-linejoin="round"/>
<path d="M244.525 207.067C244.14 206.741 243.66 206.549 243.156 206.52C242.652 206.491 242.153 206.627 241.734 206.908" stroke="#263238" stroke-linecap="round" stroke-linejoin="round"/>
<path d="M245.756 211.32C245.428 211.843 244.968 212.144 244.737 212.002C244.507 211.86 244.578 211.302 244.906 210.779C245.234 210.257 245.694 209.955 245.933 210.106C246.173 210.257 246.093 210.797 245.756 211.32Z" fill="#263238"/>
<path d="M241.353 209.158C241.016 209.681 240.564 209.982 240.325 209.831C240.086 209.681 240.166 209.14 240.502 208.618C240.839 208.095 241.291 207.794 241.521 207.935C241.751 208.077 241.681 208.626 241.353 209.158Z" fill="#263238"/>
<path d="M244.055 212.711C244.055 212.711 246.456 212.791 247.227 213.721" stroke="#263238" stroke-width="0.75" stroke-linecap="round" stroke-linejoin="round"/>
<path d="M259.578 208.414C258.98 206.664 257.917 205.111 256.503 203.92C255.088 202.729 253.377 201.945 251.551 201.654C250.866 201.536 250.172 201.485 249.478 201.503C248.686 201.51 247.898 201.611 247.13 201.804C247.428 202.253 247.803 202.646 248.237 202.965C248.946 203.488 250.948 203.275 253.11 204.205C255.272 205.136 256.592 208.228 255.201 210.079C253.81 211.931 252.375 209.645 251.657 211.346C251.338 212.19 251.065 213.051 250.842 213.925C250.817 214.221 250.838 214.52 250.904 214.811C251.152 215.697 251.737 216.14 251.409 216.583C251.081 217.026 250.567 217.469 250.567 218.08C250.573 218.24 250.639 218.392 250.753 218.505C252.065 217.983 254.829 217.079 255.183 218.727C255.644 220.889 253.792 221.978 252.322 222.209C251.165 222.29 250.004 222.133 248.91 221.748C248.91 221.748 249.451 223.006 251.675 223.254C251.834 222.926 251.932 222.749 251.932 222.749C251.932 222.749 256.362 221.279 258.745 217.956C260.685 215.227 260.623 211.408 259.578 208.414Z" fill="#263238" stroke="#263238" stroke-linecap="round" stroke-linejoin="round"/>
</g>
<path d="M250.603 132.067C250.604 128.96 249.993 125.883 248.805 123.012C247.616 120.14 245.874 117.532 243.677 115.334C241.48 113.136 238.872 111.393 236.001 110.204C233.131 109.014 230.054 108.402 226.947 108.402C225.592 108.403 224.24 108.521 222.906 108.757C222.923 99.8272 219.391 91.2571 213.089 84.9315C206.787 78.6059 198.23 75.0429 189.3 75.0265C180.371 75.01 171.801 78.5414 165.475 84.8438C159.15 91.1461 155.587 99.7032 155.57 108.632C154.487 108.484 153.395 108.407 152.301 108.402C146.13 108.376 140.193 110.762 135.757 115.051C131.321 119.341 128.736 125.194 128.555 131.362C128.373 137.531 130.609 143.526 134.786 148.068C138.962 152.611 144.748 155.342 150.91 155.679H228.4C234.411 155.309 240.055 152.66 244.18 148.273C248.306 143.886 250.603 138.09 250.603 132.067Z" fill="white" stroke="#263238" stroke-linecap="round" stroke-linejoin="round"/>
<path d="M201.811 131.181L186.775 118.689L171.74 131.181H175.045V171.352H198.515V131.181H201.811Z" fill="#263238"/>
<path d="M189.398 163.609C189.118 163.613 188.849 163.723 188.647 163.917C188.445 164.111 188.324 164.374 188.308 164.654L188.255 166.072H170.65L169.614 190.747H203.406L204.185 172.043L204.451 166.072L204.557 163.609H189.398Z" fill="#984AD9" stroke="#263238" stroke-linecap="round" stroke-linejoin="round"/>
<path d="M203.405 190.747L203.264 167.791H170.783L171.04 190.463L203.405 190.747Z" fill="white" stroke="#263238" stroke-linecap="round" stroke-linejoin="round"/>
<path d="M203.406 190.747L201.935 167.791H169.454L169.711 190.463L203.406 190.747Z" fill="white" stroke="#263238" stroke-linecap="round" stroke-linejoin="round"/>
<path d="M169.613 190.747L165.095 167.082H199.1L203.405 190.747H169.613Z" fill="#984AD9" stroke="#263238" stroke-linecap="round" stroke-linejoin="round"/>
<path d="M172.918 159.436V161.013" stroke="#263238" stroke-linecap="round" stroke-linejoin="round"/>
<path d="M172.918 150.664V157.85" stroke="#263238" stroke-linecap="round" stroke-linejoin="round"/>
<path d="M200.544 143.045V149.078" stroke="#263238" stroke-linecap="round" stroke-linejoin="round"/>
<path d="M190.045 191.792V197.826" stroke="#263238" stroke-linecap="round" stroke-linejoin="round"/>
<path d="M203.14 200.98V214.642" stroke="#263238" stroke-linecap="round" stroke-linejoin="round"/>
<path d="M203.14 196.24V198.827" stroke="#263238" stroke-linecap="round" stroke-linejoin="round"/>
<path d="M172.227 195.664V200.546" stroke="#263238" stroke-linecap="round" stroke-linejoin="round"/>
<path d="M175.39 218.231V219.382" stroke="#263238" stroke-linecap="round" stroke-linejoin="round"/>
<path d="M175.39 198.677V216.654" stroke="#263238" stroke-linecap="round" stroke-linejoin="round"/>
<path d="M339.938 160.57C339.944 158.543 339.505 156.54 338.653 154.701C337.801 152.862 336.556 151.232 335.006 149.926C333.456 148.62 331.639 147.67 329.682 147.142C327.725 146.615 325.676 146.523 323.68 146.872C323.58 141.696 321.456 136.765 317.763 133.136C314.071 129.507 309.103 127.47 303.926 127.461C298.749 127.452 293.774 129.471 290.068 133.087C286.362 136.702 284.221 141.625 284.102 146.801C283.466 146.709 282.823 146.662 282.18 146.66C278.567 146.664 275.097 148.074 272.505 150.592C269.913 153.11 268.403 156.537 268.294 160.149C268.184 163.76 269.484 167.273 271.919 169.943C274.354 172.612 277.732 174.23 281.338 174.453H326.887C330.42 174.233 333.736 172.674 336.161 170.095C338.585 167.516 339.936 164.11 339.938 160.57Z" fill="white" stroke="#263238" stroke-linecap="round" stroke-linejoin="round"/>
<path d="M289.17 86.2344C289.17 84.1548 288.344 82.1604 286.874 80.6899C285.403 79.2194 283.409 78.3933 281.329 78.3933C280.881 78.3909 280.433 78.4294 279.991 78.5084C279.991 75.55 278.816 72.7128 276.724 70.6209C274.632 68.5289 271.795 67.3537 268.837 67.3537C265.878 67.3537 263.041 68.5289 260.949 70.6209C258.857 72.7128 257.682 75.55 257.682 78.5084C257.321 78.4622 256.957 78.4385 256.592 78.4376C254.563 78.4517 252.618 79.2521 251.166 80.6705C249.715 82.089 248.87 84.0149 248.809 86.0435C248.748 88.0721 249.476 90.0452 250.84 91.5481C252.204 93.0509 254.098 93.9664 256.123 94.102H281.817C283.815 93.9776 285.69 93.0933 287.058 91.6304C288.425 90.1674 289.181 88.2368 289.17 86.2344Z" fill="white" stroke="#263238" stroke-linecap="round" stroke-linejoin="round"/>
</svg>
