<svg width="401" height="342" viewBox="0 0 401 342" fill="none" xmlns="http://www.w3.org/2000/svg">
<g clip-path="url(#clip0_49_1513)">
<path d="M354.243 76.4523C344.937 65.1972 333.303 55.7137 319.998 48.5378C297.903 36.5661 272.969 29.3625 247.738 25.3768C167.899 12.7762 124.134 26.1082 91.1232 47.7772C69.2607 62.1623 62.3876 92.7461 55.9315 114.986C52.3064 127.469 49.0744 140.085 44.5671 152.334C37.5657 171.348 21.662 186.706 16.3608 206.313C10.7468 227.002 11.1879 248.795 18.9593 268.994C34.3176 308.895 60.4147 332.02 120.3 339.699C152.38 343.823 178.164 331.734 204.783 317.188C221.192 308.222 238.202 300.141 257.033 296.485C276.923 292.631 297.382 292.097 317.327 288.513C361.943 280.505 376.258 242.001 382.057 205.53C389.074 161.373 384.679 113.113 354.243 76.4523Z" fill="#EEDBFF"/>
<path opacity="0.5" d="M354.243 76.4523C344.937 65.1972 333.303 55.7137 319.998 48.5378C297.903 36.5661 272.969 29.3625 247.738 25.3768C167.899 12.7762 124.134 26.1082 91.1232 47.7772C69.2607 62.1623 62.3876 92.7461 55.9315 114.986C52.3064 127.469 49.0744 140.085 44.5671 152.334C37.5657 171.348 21.662 186.706 16.3608 206.313C10.7468 227.002 11.1879 248.795 18.9593 268.994C34.3176 308.895 60.4147 332.02 120.3 339.699C152.38 343.823 178.164 331.734 204.783 317.188C221.192 308.222 238.202 300.141 257.033 296.485C276.923 292.631 297.382 292.097 317.327 288.513C361.943 280.505 376.258 242.001 382.057 205.53C389.074 161.373 384.679 113.113 354.243 76.4523Z" fill="white"/>
<g opacity="0.2">
<path d="M382.987 43.2283H229.998L224.568 55.0977H382.987V43.2283Z" stroke="black" stroke-linejoin="round"/>
<path d="M382.987 55.0977H229.998L224.568 66.9744H382.987V55.0977Z" stroke="black" stroke-linejoin="round"/>
<path d="M382.987 66.9744H229.998L224.568 78.8437H382.987V66.9744Z" stroke="black" stroke-linejoin="round"/>
<path d="M382.987 78.8437H229.998L224.568 90.7203H382.987V78.8437Z" stroke="black" stroke-linejoin="round"/>
<path d="M382.987 90.7203H229.998L224.568 102.59H382.987V90.7203Z" stroke="black" stroke-linejoin="round"/>
<path d="M382.987 102.59H229.998L224.568 114.466H382.987V102.59Z" stroke="black" stroke-linejoin="round"/>
<path d="M382.987 114.466H229.998L224.568 126.336H382.987V114.466Z" stroke="black" stroke-linejoin="round"/>
<path d="M382.987 126.336H229.998L224.568 138.212H382.987V126.336Z" stroke="black" stroke-linejoin="round"/>
<path d="M382.987 138.212H229.998L224.568 150.082H382.987V138.212Z" stroke="black" stroke-linejoin="round"/>
<path d="M382.987 150.082H229.998L224.568 161.958H382.987V150.082Z" stroke="black" stroke-linejoin="round"/>
<path d="M382.987 161.958H229.998L224.568 173.828H382.987V161.958Z" stroke="black" stroke-linejoin="round"/>
<path d="M382.987 173.828H229.998L224.568 185.704H382.987V173.828Z" stroke="black" stroke-linejoin="round"/>
<path d="M382.987 185.704H229.998L224.568 197.574H382.987V185.704Z" stroke="black" stroke-linejoin="round"/>
<path d="M382.987 197.574H229.998L224.568 209.45H382.987V197.574Z" stroke="black" stroke-linejoin="round"/>
<path d="M382.987 209.45H229.998L224.568 221.32H382.987V209.45Z" stroke="black" stroke-linejoin="round"/>
<path d="M382.987 221.32H229.998L224.568 233.196H382.987V221.32Z" stroke="black" stroke-linejoin="round"/>
<path d="M386.235 39.2719H222.94V237.153H386.235V39.2719Z" stroke="black" stroke-linejoin="round"/>
</g>
<g opacity="0.2">
<path d="M84.7794 308.522H29.9066V334.93H84.7794V308.522Z" stroke="black" stroke-linejoin="round"/>
<path d="M61.7941 318.636H52.8839V322.571H61.7941V318.636Z" stroke="black" stroke-linejoin="round"/>
<path d="M87.5864 274.201H27.0916V341.768H87.5864V274.201Z" stroke="black" stroke-linejoin="round"/>
<path d="M84.7794 277.624H29.9066V304.032H84.7794V277.624Z" stroke="black" stroke-linejoin="round"/>
<path d="M61.7941 287.738H52.8839V291.673H61.7941V287.738Z" stroke="black" stroke-linejoin="round"/>
<path d="M63.358 269.923H41.7842V274.201H63.358V269.923Z" stroke="black" stroke-linejoin="round"/>
<path d="M53.5094 256.672H49.7561V269.93H53.5094V256.672Z" stroke="black" stroke-linejoin="round"/>
<path d="M71.3299 225.876H30.9973V256.664H71.3299V225.876Z" stroke="black" stroke-linejoin="round"/>
</g>
<g opacity="0.2">
<path d="M311.898 309.78V253.322C311.899 252.256 311.669 251.2 311.222 250.215C310.775 249.229 310.12 248.334 309.293 247.58C308.466 246.826 307.484 246.228 306.404 245.82C305.323 245.413 304.165 245.204 302.996 245.205H221.657V310.343" stroke="black" stroke-linejoin="round"/>
<path d="M222.338 245.205H139.484C138.315 245.205 137.158 245.415 136.078 245.823C134.999 246.231 134.018 246.829 133.192 247.583C132.366 248.336 131.711 249.231 131.264 250.216C130.818 251.201 130.589 252.257 130.59 253.322V309.78" stroke="black" stroke-linejoin="round"/>
<path d="M319.934 315.199V334.214H221.697V309.78H314.015C314.795 309.779 315.567 309.919 316.287 310.191C317.007 310.463 317.661 310.863 318.211 311.367C318.761 311.87 319.197 312.468 319.492 313.126C319.788 313.784 319.938 314.488 319.934 315.199Z" stroke="black" stroke-linejoin="round"/>
<path d="M222.443 309.78H128.464C127.687 309.78 126.918 309.92 126.201 310.191C125.483 310.462 124.831 310.86 124.282 311.361C123.733 311.863 123.298 312.458 123.001 313.112C122.705 313.767 122.553 314.469 122.554 315.177V334.192H222.443" stroke="black" stroke-linejoin="round"/>
<path d="M122.554 342.141V334.162H320.102V342.141" stroke="black" stroke-linejoin="round"/>
<path d="M130.59 277.383C130.032 276.853 129.364 276.432 128.624 276.145C127.884 275.857 127.087 275.708 126.283 275.708H108.39C107.607 275.707 106.831 275.847 106.107 276.119C105.384 276.392 104.726 276.792 104.172 277.297C103.617 277.801 103.178 278.401 102.878 279.061C102.578 279.72 102.423 280.427 102.423 281.142V341.753" stroke="black" stroke-linejoin="round"/>
<path d="M337.987 341.359V281.142C337.987 279.701 337.359 278.318 336.242 277.299C335.124 276.28 333.608 275.708 332.028 275.708H314.135C313.368 275.705 312.607 275.842 311.898 276.11" stroke="black" stroke-linejoin="round"/>
</g>
<path d="M351.645 38.0725V214.321C351.645 216.454 350.715 218.501 349.061 220.009C347.407 221.518 345.163 222.365 342.823 222.365H63.7269C61.3872 222.365 59.1433 221.518 57.4888 220.009C55.8344 218.501 54.9049 216.454 54.9049 214.321V38.0725C54.9049 36.133 55.7499 34.2728 57.2539 32.9013C58.758 31.5298 60.7979 30.7593 62.9249 30.7593H343.625C345.752 30.7593 347.792 31.5298 349.296 32.9013C350.8 34.2728 351.645 36.133 351.645 38.0725Z" fill="#984AD9" stroke="#263238" stroke-miterlimit="10"/>
<path d="M351.645 38.0725V53.284H54.9049V38.0725C54.9049 36.133 55.7499 34.2728 57.2539 32.9013C58.758 31.5298 60.7979 30.7593 62.9249 30.7593H343.625C345.752 30.7593 347.792 31.5298 349.296 32.9013C350.8 34.2728 351.645 36.133 351.645 38.0725Z" fill="#C9C9C9" stroke="#263238" stroke-miterlimit="10"/>
<path d="M246.15 50.3368H87.8511C87.1378 50.3348 86.4544 50.0751 85.9508 49.6145C85.4472 49.1539 85.1644 48.53 85.1644 47.8795C85.1644 47.2291 85.4472 46.6052 85.9508 46.1446C86.4544 45.684 87.1378 45.4242 87.8511 45.4223H246.15C246.865 45.4223 247.55 45.6812 248.055 46.142C248.561 46.6028 248.845 47.2278 248.845 47.8795C248.845 48.5312 248.561 49.1562 248.055 49.6171C247.55 50.0779 246.865 50.3368 246.15 50.3368Z" fill="white" stroke="#263238" stroke-miterlimit="10"/>
<path d="M336.607 45.9123H346.841" stroke="#263238" stroke-miterlimit="10"/>
<path d="M336.607 47.8796H346.841" stroke="#263238" stroke-miterlimit="10"/>
<path d="M336.607 49.8468H346.841" stroke="#263238" stroke-miterlimit="10"/>
<path d="M351.645 38.0725V42.4605H54.9049V38.0725C54.9049 36.133 55.7499 34.2728 57.2539 32.9013C58.758 31.5298 60.7979 30.7593 62.9249 30.7593H343.625C345.752 30.7593 347.792 31.5298 349.296 32.9013C350.8 34.2728 351.645 36.133 351.645 38.0725Z" fill="#263238" stroke="#263238" stroke-miterlimit="10"/>
<path d="M322.083 36.8512C322.093 36.4066 321.957 35.9694 321.693 35.5955C321.429 35.2216 321.048 34.9279 320.6 34.752C320.152 34.5761 319.657 34.5259 319.178 34.6078C318.698 34.6897 318.256 34.9001 317.909 35.2119C317.561 35.5238 317.323 35.9231 317.225 36.3589C317.127 36.7946 317.174 37.247 317.36 37.6584C317.545 38.0697 317.861 38.4214 318.267 38.6684C318.672 38.9154 319.149 39.0466 319.637 39.0452C319.956 39.05 320.274 38.9969 320.57 38.8888C320.867 38.7807 321.137 38.6199 321.364 38.4157C321.592 38.2115 321.773 37.968 321.896 37.6994C322.02 37.4308 322.083 37.1424 322.083 36.8512Z" fill="white" stroke="#263238" stroke-miterlimit="10"/>
<path d="M332.22 36.8513C332.228 36.4086 332.092 35.9738 331.828 35.6022C331.564 35.2307 331.185 34.9391 330.739 34.7646C330.292 34.5902 329.799 34.5408 329.322 34.6227C328.845 34.7046 328.406 34.9141 328.059 35.2245C327.713 35.5349 327.476 35.9323 327.379 36.3659C327.281 36.7996 327.327 37.2499 327.511 37.6596C327.695 38.0693 328.008 38.4199 328.411 38.6666C328.814 38.9134 329.289 39.0452 329.774 39.0452C330.094 39.0501 330.411 38.9969 330.707 38.8888C331.004 38.7808 331.274 38.6199 331.502 38.4157C331.729 38.2115 331.91 37.968 332.034 37.6994C332.157 37.4308 332.221 37.1425 332.22 36.8513Z" fill="white" stroke="#263238" stroke-miterlimit="10"/>
<path d="M342.358 36.8513C342.366 36.4086 342.229 35.9738 341.965 35.6022C341.701 35.2307 341.322 34.9391 340.876 34.7646C340.43 34.5902 339.937 34.5408 339.459 34.6227C338.982 34.7046 338.543 34.9141 338.197 35.2245C337.851 35.5349 337.614 35.9323 337.516 36.3659C337.418 36.7996 337.464 37.2499 337.648 37.6596C337.832 38.0693 338.146 38.4199 338.549 38.6666C338.952 38.9134 339.426 39.0452 339.912 39.0452C340.231 39.0501 340.548 38.9969 340.845 38.8888C341.141 38.7808 341.411 38.6199 341.639 38.4157C341.867 38.2115 342.047 37.968 342.171 37.6994C342.294 37.4308 342.358 37.1425 342.358 36.8513Z" fill="white" stroke="#263238" stroke-miterlimit="10"/>
<path d="M335.653 60.7947H71.7068V211.417H335.653V60.7947Z" fill="white" stroke="#263238" stroke-miterlimit="10"/>
<path d="M328.916 67.0328H78.4356V205.165H328.916V67.0328Z" stroke="#984AD9" stroke-width="5" stroke-miterlimit="10"/>
<path d="M322.516 73.9438H84.8355V198.268H322.516V73.9438Z" stroke="#984AD9" stroke-miterlimit="10"/>
<path d="M163.929 88.4898V89.7696H162.277V88.4094C162.277 87.1295 161.723 86.3617 160.456 86.3617C159.189 86.3617 158.636 87.093 158.636 88.4094V95.9127C158.636 97.1852 159.213 97.9604 160.456 97.9604C161.699 97.9604 162.277 97.1852 162.277 95.9127V94.0625H163.929V95.803C163.929 97.9531 162.814 99.3719 160.408 99.3719C158.002 99.3719 156.919 97.9531 156.919 95.803V88.4898C156.919 86.3397 158.034 84.921 160.408 84.921C162.782 84.921 163.929 86.3324 163.929 88.4898Z" fill="#263238"/>
<path d="M171.043 91.342V92.7607H167.233V97.8068H171.909V99.2695H165.493V85.0526H171.909V86.5153H167.233V91.3639L171.043 91.342Z" fill="#263238"/>
<path d="M176.977 85.0526C179.423 85.0526 180.442 86.1935 180.442 88.2997V89.4552C180.442 91.0202 179.84 91.9928 178.509 92.3804C179.929 92.768 180.466 93.8431 180.466 95.3423V97.5363C180.415 98.1191 180.522 98.7043 180.779 99.2402H179.022C178.776 98.6969 178.677 98.1073 178.734 97.5216V95.2911C178.734 93.6822 177.932 93.1776 176.464 93.1776H175.237V99.2402H173.505V85.0526H176.977ZM176.528 91.7442C177.908 91.7442 178.734 91.342 178.734 89.7989V88.4386C178.734 87.1661 178.22 86.4933 176.929 86.4933H175.237V91.7442H176.528Z" fill="#263238"/>
<path d="M184.532 99.2475V86.4933H181.669V85.0306H189.136V86.4933H186.273V99.2475H184.532Z" fill="#263238"/>
<path d="M192.071 85.0526V99.2475H190.339V85.0526H192.071Z" fill="#263238"/>
<path d="M199.169 91.6637V93.1264H195.584V99.2695H193.851V85.0526H200.035V86.5153H195.584V91.6857L199.169 91.6637Z" fill="#263238"/>
<path d="M203.147 85.0526V99.2475H201.406V85.0526H203.147Z" fill="#263238"/>
<path d="M211.792 88.4898V89.7696H210.124V88.4094C210.124 87.1295 209.571 86.3617 208.303 86.3617C207.036 86.3617 206.475 87.093 206.475 88.4094V95.9127C206.475 97.1852 207.052 97.9604 208.303 97.9604C209.555 97.9604 210.124 97.1852 210.124 95.9127V94.0625H211.768V95.803C211.768 97.9531 210.661 99.3719 208.255 99.3719C205.849 99.3719 204.767 97.9531 204.767 95.803V88.4898C204.767 86.3397 205.873 84.921 208.255 84.921C210.637 84.921 211.792 86.3324 211.792 88.4898Z" fill="#263238"/>
<path d="M215.128 96.3881L214.527 99.2475H212.923L215.898 85.0526H218.409L221.392 99.2475H219.668L219.066 96.3881H215.128ZM215.353 95.0278H218.818L217.061 86.837L215.353 95.0278Z" fill="#263238"/>
<path d="M225.025 99.2475V86.4933H222.154V85.0306H229.629V86.4933H226.757V99.2475H225.025Z" fill="#263238"/>
<path d="M232.58 85.0526V99.2475H230.848V85.0526H232.58Z" fill="#263238"/>
<path d="M234.184 88.4898C234.184 86.2958 235.363 84.921 237.737 84.921C240.111 84.921 241.322 86.3178 241.322 88.4898V95.803C241.322 97.9531 240.143 99.3719 237.737 99.3719C235.331 99.3719 234.184 97.997 234.184 95.803V88.4898ZM235.892 95.9127C235.892 97.2071 236.494 97.9604 237.737 97.9604C238.98 97.9604 239.581 97.2291 239.581 95.9127V88.402C239.581 87.1222 239.004 86.3543 237.737 86.3543C236.47 86.3543 235.892 87.0857 235.892 88.402V95.9127Z" fill="#263238"/>
<path d="M244.522 99.2475H243.006V85.0526H245.203L248.804 95.2911V85.0526H250.344V99.2475H248.54L244.53 87.7731L244.522 99.2475Z" fill="#263238"/>
<path d="M145.362 107.16H264.756" stroke="#263238" stroke-miterlimit="10"/>
<path d="M306.444 121.048H314.705" stroke="#263238" stroke-miterlimit="10"/>
<path d="M235.764 121.048H302.081" stroke="#263238" stroke-miterlimit="10"/>
<path d="M197.372 121.048H231.978" stroke="#263238" stroke-miterlimit="10"/>
<path d="M145.884 121.048H193.875" stroke="#263238" stroke-miterlimit="10"/>
<path d="M114.758 121.048H140.935" stroke="#263238" stroke-miterlimit="10"/>
<path d="M95.4139 121.048H110.981" stroke="#263238" stroke-miterlimit="10"/>
<path d="M194.75 127.711H314.705" stroke="#263238" stroke-miterlimit="10"/>
<path d="M101.67 127.711H190.972" stroke="#263238" stroke-miterlimit="10"/>
<path d="M95.4139 127.711H98.1808" stroke="#263238" stroke-miterlimit="10"/>
<path d="M305.57 134.373H314.705" stroke="#263238" stroke-miterlimit="10"/>
<path d="M256.415 134.373H301.207" stroke="#263238" stroke-miterlimit="10"/>
<path d="M188.638 134.373H252.927" stroke="#263238" stroke-miterlimit="10"/>
<path d="M178.75 134.373H184.861" stroke="#263238" stroke-miterlimit="10"/>
<path d="M95.4139 134.373H173.513" stroke="#263238" stroke-miterlimit="10"/>
<path d="M278.23 141.042H314.705" stroke="#263238" stroke-miterlimit="10"/>
<path d="M147.921 141.042H274.741" stroke="#263238" stroke-miterlimit="10"/>
<path d="M136.284 141.042H143.269" stroke="#263238" stroke-miterlimit="10"/>
<path d="M95.4139 141.042H132.506" stroke="#263238" stroke-miterlimit="10"/>
<path d="M291.904 147.705H314.705" stroke="#263238" stroke-miterlimit="10"/>
<path d="M194.461 147.705H287.252" stroke="#263238" stroke-miterlimit="10"/>
<path d="M157.224 147.705H190.098" stroke="#263238" stroke-miterlimit="10"/>
<path d="M105.158 147.705H152.861" stroke="#263238" stroke-miterlimit="10"/>
<path d="M95.4139 147.705H102.255" stroke="#263238" stroke-miterlimit="10"/>
<path d="M104.276 177.06L111.799 194.882L115.44 186.823L124.286 190.107L115.64 173.374L104.276 177.06Z" fill="#263238" stroke="#263238" stroke-linecap="round" stroke-linejoin="round"/>
<path d="M101.589 173.184L92.4866 190.377L101.421 187.299L104.845 195.424L112.32 178.23L101.589 173.184Z" fill="#263238" stroke="#263238" stroke-linecap="round" stroke-linejoin="round"/>
<path d="M124.262 168.855C124.262 168.204 125.81 167.458 125.713 166.829C125.617 166.2 123.901 165.871 123.7 165.264C123.5 164.657 124.751 163.531 124.462 162.953C124.174 162.375 122.425 162.507 122.056 161.966C121.687 161.424 122.53 160.035 122.056 159.552C121.583 159.07 119.963 159.647 119.434 159.223C118.905 158.799 119.306 157.256 118.712 156.905C118.119 156.554 116.739 157.534 116.089 157.263C115.44 156.993 115.36 155.406 114.678 155.223C113.996 155.04 112.986 156.334 112.272 156.247C111.558 156.159 110.997 154.652 110.283 154.652C109.569 154.652 108.984 156.159 108.294 156.247C107.604 156.334 106.562 155.047 105.888 155.223C105.214 155.398 105.086 157 104.468 157.263C103.851 157.526 102.447 156.532 101.854 156.905C101.261 157.278 101.661 158.806 101.132 159.23C100.603 159.655 98.9668 159.07 98.5096 159.552C98.0525 160.035 98.9026 161.424 98.5096 161.966C98.1167 162.507 96.3843 162.368 96.1036 162.953C95.8229 163.538 97.066 164.642 96.8655 165.264C96.665 165.885 94.9568 166.193 94.8525 166.829C94.7483 167.465 96.3041 168.204 96.3041 168.855C96.3041 169.506 94.7563 170.244 94.8525 170.873C94.9488 171.502 96.665 171.831 96.8655 172.445C97.066 173.06 95.8069 174.171 96.1036 174.749C96.4004 175.327 98.1407 175.203 98.5096 175.736C98.8786 176.27 98.0284 177.667 98.5096 178.15C98.9908 178.632 100.595 178.055 101.132 178.479C101.67 178.903 101.261 180.446 101.854 180.797C102.447 181.148 103.827 180.168 104.468 180.439C105.11 180.709 105.206 182.296 105.888 182.479C106.57 182.662 107.58 181.368 108.294 181.463C109.008 181.558 109.569 183.05 110.283 183.05C110.997 183.05 111.582 181.55 112.272 181.463C112.962 181.375 114.004 182.655 114.678 182.479C115.352 182.304 115.48 180.702 116.097 180.439C116.715 180.175 118.119 181.17 118.712 180.797C119.306 180.424 118.905 178.896 119.434 178.479C119.963 178.062 121.599 178.632 122.056 178.15C122.514 177.667 121.663 176.278 122.056 175.736C122.449 175.195 124.182 175.334 124.462 174.749C124.743 174.164 123.5 173.06 123.7 172.438C123.901 171.816 125.609 171.517 125.713 170.873C125.818 170.23 124.262 169.506 124.262 168.855Z" fill="#984AD9" stroke="#263238" stroke-miterlimit="10"/>
<path d="M110.299 177.674C115.641 177.674 119.971 173.726 119.971 168.855C119.971 163.984 115.641 160.035 110.299 160.035C104.957 160.035 100.627 163.984 100.627 168.855C100.627 173.726 104.957 177.674 110.299 177.674Z" fill="#263238" stroke="#263238" stroke-linecap="round" stroke-linejoin="round"/>
<path d="M110.299 162.792L111.791 166.982H116.619L112.713 169.564L114.205 173.754L110.299 171.166L106.393 173.754L107.885 169.564L103.979 166.982H108.807L110.299 162.792Z" fill="#984AD9"/>
<path d="M135.642 164.628H172.534" stroke="#263238" stroke-miterlimit="10"/>
<path d="M135.642 172.665H172.534" stroke="#263238" stroke-miterlimit="10"/>
<path d="M294.085 183.708C301.66 183.708 307.8 178.109 307.8 171.202C307.8 164.296 301.66 158.697 294.085 158.697C286.511 158.697 280.371 164.296 280.371 171.202C280.371 178.109 286.511 183.708 294.085 183.708Z" stroke="#984AD9" stroke-miterlimit="10"/>
<path d="M296.071 179.507C301.09 178.505 304.268 173.982 303.169 169.405C302.07 164.829 297.11 161.931 292.091 162.933C287.072 163.935 283.894 168.457 284.993 173.034C286.092 177.611 291.052 180.509 296.071 179.507Z" fill="#984AD9"/>
<path d="M339.246 311.908C339.246 311.908 336.439 307.52 335.035 305.144C334.056 303.423 333.186 301.653 332.429 299.842C332.429 299.842 335.837 301.67 336.84 302.401C337.842 303.132 342.053 307.703 342.053 307.703L343.256 306.423L341.852 302.218L346.464 306.972L348.669 298.379L352.078 306.606L358.494 299.293L358.895 306.606L366.714 300.939L363.907 309.897L360.9 313.737H339.446L339.246 311.908Z" fill="#984AD9" stroke="#263238" stroke-miterlimit="10"/>
<path d="M338.043 311.908C338.043 311.908 336.238 311.177 333.231 307.886C331.31 305.753 329.568 303.492 328.018 301.121C328.018 301.121 334.835 304.595 337.241 306.241C339.294 307.84 341.174 309.616 342.855 311.543C342.855 311.543 340.85 306.972 340.649 304.778C340.449 302.584 340.248 297.83 340.248 297.83C340.248 297.83 346.063 303.133 346.464 304.595C346.865 306.058 349.07 310.994 349.07 310.994C349.735 308.767 350.271 306.509 350.674 304.229C351.075 301.487 354.283 297.099 354.283 297.099C354.283 297.099 354.684 300.207 354.885 303.315C355.085 306.423 353.08 312.274 353.08 312.274C353.08 312.274 355.687 306.606 358.293 303.864C360.34 301.826 362.551 299.931 364.91 298.196C364.91 298.196 362.905 303.864 362.103 306.423C361.354 308.416 360.344 310.319 359.095 312.091C360.977 309.922 362.985 307.847 365.11 305.875C367.067 304.447 369.146 303.163 371.326 302.036C371.326 302.036 369.12 305.875 367.516 308.069C366.02 309.973 364.413 311.804 362.704 313.554H338.043V311.908Z" fill="#984AD9" stroke="#263238" stroke-miterlimit="10"/>
<path d="M366.273 311.543L364.886 322.695L362.504 341.768H337.377L334.995 322.695L333.608 311.543H366.273Z" fill="white" stroke="#263238" stroke-miterlimit="10"/>
<path d="M364.886 322.695L362.504 341.768H337.377L334.995 322.695H364.886Z" fill="#984AD9" stroke="#263238" stroke-miterlimit="10"/>
<path d="M339.647 327.997C340.311 327.997 340.85 327.506 340.85 326.9C340.85 326.295 340.311 325.803 339.647 325.803C338.983 325.803 338.444 326.295 338.444 326.9C338.444 327.506 338.983 327.997 339.647 327.997Z" fill="#263238"/>
<path d="M348.469 327.997C349.133 327.997 349.672 327.506 349.672 326.9C349.672 326.295 349.133 325.803 348.469 325.803C347.805 325.803 347.266 326.295 347.266 326.9C347.266 327.506 347.805 327.997 348.469 327.997Z" fill="#263238"/>
<path d="M343.055 333.665C343.72 333.665 344.258 333.174 344.258 332.568C344.258 331.962 343.72 331.471 343.055 331.471C342.391 331.471 341.852 331.962 341.852 332.568C341.852 333.174 342.391 333.665 343.055 333.665Z" fill="#263238"/>
<path d="M353.682 333.665C354.346 333.665 354.885 333.174 354.885 332.568C354.885 331.962 354.346 331.471 353.682 331.471C353.018 331.471 352.479 331.962 352.479 332.568C352.479 333.174 353.018 333.665 353.682 333.665Z" fill="#263238"/>
<path d="M360.699 333.665C361.364 333.665 361.902 333.174 361.902 332.568C361.902 331.962 361.364 331.471 360.699 331.471C360.035 331.471 359.496 331.962 359.496 332.568C359.496 333.174 360.035 333.665 360.699 333.665Z" fill="#263238"/>
<path d="M357.291 327.997C357.955 327.997 358.494 327.506 358.494 326.9C358.494 326.295 357.955 325.803 357.291 325.803C356.627 325.803 356.088 326.295 356.088 326.9C356.088 327.506 356.627 327.997 357.291 327.997Z" fill="#263238"/>
<path d="M339.647 338.236C340.311 338.236 340.85 337.745 340.85 337.139C340.85 336.533 340.311 336.042 339.647 336.042C338.983 336.042 338.444 336.533 338.444 337.139C338.444 337.745 338.983 338.236 339.647 338.236Z" fill="#263238"/>
<path d="M348.469 338.236C349.133 338.236 349.672 337.745 349.672 337.139C349.672 336.533 349.133 336.042 348.469 336.042C347.805 336.042 347.266 336.533 347.266 337.139C347.266 337.745 347.805 338.236 348.469 338.236Z" fill="#263238"/>
<path d="M357.291 338.236C357.955 338.236 358.494 337.745 358.494 337.139C358.494 336.533 357.955 336.042 357.291 336.042C356.627 336.042 356.088 336.533 356.088 337.139C356.088 337.745 356.627 338.236 357.291 338.236Z" fill="#263238"/>
<path d="M217.486 218.198C217.501 212.624 214.271 208.099 210.271 208.09C206.271 208.081 203.017 212.592 203.002 218.166C202.987 223.74 206.217 228.265 210.217 228.274C214.217 228.283 217.471 223.772 217.486 218.198Z" fill="white" stroke="#263238" stroke-linecap="round" stroke-linejoin="round"/>
<path d="M219.339 192.915C219.339 192.915 215.433 194.955 211.712 192.747C207.991 190.538 210.597 189.529 211.343 188.169C212.089 186.809 210.228 186.472 209.851 184.607C209.474 182.742 210.782 181.214 211.527 181.046C212.273 180.878 212.089 179.005 212.089 177.141C212.089 175.276 214.495 173.579 215.618 173.579C216.74 173.579 217.478 172.226 218.224 170.529C218.97 168.833 220.462 167.304 223.036 168.335C225.611 169.367 226.942 169.352 228.249 167.655C229.556 165.959 232.708 165.622 233.863 166.471C235.018 167.319 235.531 169.016 237.769 167.319C240.007 165.622 242.789 165.966 244.089 167.151C245.388 168.335 245.203 169.696 247.297 169.016C249.39 168.335 252.686 169.352 253.432 171.392C254.178 173.433 258.244 175.634 259.76 175.122C261.276 174.61 263.85 175.122 262.543 177.667C261.235 180.212 262.735 181.909 263.85 181.909C264.965 181.909 267.387 182.589 266.08 184.79C264.772 186.991 263.85 188.695 265.334 189.368C266.817 190.041 269.239 190.217 267.387 193.105C265.534 195.994 264.034 195.818 264.596 197.493C265.157 199.168 266.264 199.687 264.596 200.886C262.928 202.086 260.875 202.583 260.875 203.6C260.875 204.616 263.104 205.121 260.498 205.969C258.994 206.469 257.434 206.813 255.846 206.993C255.846 206.993 252.133 197.83 241.522 194.78C230.912 191.73 224.785 192.059 222.363 193.252C219.94 194.444 219.339 192.915 219.339 192.915Z" fill="#263238" stroke="#263238" stroke-linecap="round" stroke-linejoin="round"/>
<path d="M223.084 255.107L209.45 260.84C209.45 260.84 202.401 296.426 202.906 306.299C203.411 316.172 209.45 340.737 209.45 340.737H242.204C242.204 340.737 237.167 310.658 239.686 299.871C242.204 289.084 248.251 259.465 248.251 259.465C248.251 259.465 238.178 256.942 235.154 256.481C232.131 256.021 223.084 255.107 223.084 255.107Z" fill="white" stroke="#263238" stroke-miterlimit="10"/>
<path d="M207.445 271.73L245.139 274.699C244.835 276.161 244.53 277.624 244.217 279.087L206.683 276.161C206.916 274.611 207.197 273.126 207.445 271.73ZM239.702 299.841C239.99 298.598 240.327 297.106 240.696 295.454L204.077 292.572C203.868 294.108 203.684 295.593 203.516 297.004L239.702 299.863V299.841ZM242.91 285.054L205.625 282.129C205.384 283.592 205.144 285.054 204.919 286.561L241.963 289.486C242.308 288.067 242.621 286.59 242.942 285.083L242.91 285.054ZM202.93 303.513C202.882 304.566 202.874 305.495 202.93 306.27C202.93 306.804 203.002 307.381 203.058 307.988L238.996 310.08C238.996 308.515 238.996 307.008 238.996 305.604L202.93 303.513ZM209.683 260.716L209.458 260.811C209.458 260.811 209.138 262.449 208.656 265.118L246.479 268.102C246.815 266.442 247.128 264.95 247.385 263.714L209.683 260.716ZM240.159 326.111L206.114 325.781C206.435 327.332 206.764 328.831 207.076 330.257L240.76 330.608C240.6 329.204 240.391 327.697 240.215 326.169L240.159 326.111ZM204.654 318.739L239.597 320.611C239.458 319.114 239.338 317.615 239.237 316.113L203.86 314.219C204.149 315.704 204.422 317.225 204.71 318.768L204.654 318.739Z" fill="#263238"/>
<path d="M221.071 248.649C221.071 248.649 218.304 258.288 218.056 263.341C217.807 268.395 223.59 272.519 231.898 271.832C240.207 271.144 241.715 262.881 241.715 260.811C241.715 258.741 242.204 241.336 242.204 241.336C239.419 243.509 236.471 245.503 233.382 247.303C228.626 250.053 221.071 248.649 221.071 248.649Z" fill="white" stroke="#263238" stroke-miterlimit="10"/>
<path d="M228.626 256.942C236.494 253.505 240.416 246.755 242.188 242.469C242.188 241.738 242.188 241.328 242.188 241.328C239.403 243.502 236.455 245.496 233.366 247.296C228.554 250.053 221.031 248.678 221.031 248.678C221.031 248.678 219.307 254.704 218.457 259.721C221.992 259.316 225.429 258.377 228.626 256.942Z" fill="#263238" stroke="#263238" stroke-miterlimit="10"/>
<path d="M255.589 211.82C255.589 211.82 255.269 201.64 251.122 195.818C246.976 189.997 238.234 186.436 228.474 187.949C216.364 189.851 210.926 198.129 209.009 205.113C207.092 212.098 209.33 222.278 209.33 229.247C209.33 236.217 218.264 248.737 220.815 250.777C223.365 252.818 227.303 253.49 231.802 251.413C235.932 249.497 242.725 242.981 246.872 239.2C251.018 235.419 253.488 224.172 254.13 221.554C254.771 218.935 255.589 211.82 255.589 211.82Z" fill="white" stroke="#263238" stroke-linecap="round" stroke-linejoin="round"/>
<path d="M221.761 231.595C221.761 231.595 221.384 233.789 226.966 233.459" stroke="#263238" stroke-linecap="round" stroke-linejoin="round"/>
<path d="M220.085 237.357C220.085 237.357 226.597 241.431 233.109 237.533" stroke="#263238" stroke-linecap="round" stroke-linejoin="round"/>
<path d="M233.109 223.784C233.109 223.784 234.777 221.239 239.622 223.44" stroke="#263238" stroke-width="2" stroke-linecap="round" stroke-linejoin="round"/>
<path d="M220.085 222.263C220.085 223.484 219.459 224.457 218.689 224.457C217.919 224.457 217.294 223.47 217.294 222.263C217.294 221.056 217.919 220.069 218.689 220.069C219.459 220.069 220.085 221.049 220.085 222.263Z" fill="#263238"/>
<path d="M214.134 215.308C214.134 215.308 215.81 211.915 221.352 213.611" stroke="#263238" stroke-linecap="round" stroke-linejoin="round"/>
<path d="M230.687 215.008C230.687 215.008 235.9 212.463 241.667 216.361" stroke="#263238" stroke-linecap="round" stroke-linejoin="round"/>
<path d="M228.474 187.949C216.364 189.851 210.926 198.129 209.009 205.114C208.609 206.664 208.372 208.246 208.303 209.838C208.929 208.061 212.177 200.265 221.384 198.137C231.81 195.767 240.921 198.817 244.081 202.89C247.241 206.964 246.487 212.222 247.617 214.767C248.323 216.376 251.868 218.804 254.378 220.369C254.956 217.246 255.589 211.783 255.589 211.783C255.589 211.783 255.269 201.603 251.122 195.782C246.976 189.961 238.234 186.436 228.474 187.949Z" fill="#263238" stroke="#263238" stroke-linecap="round" stroke-linejoin="round"/>
<path d="M252.454 213.611C252.454 213.611 253.384 204.624 250.593 198.685C247.802 192.747 244.458 190.202 244.458 190.202C244.458 190.202 252.269 193.939 255.06 197.515C257.851 201.091 258.22 209.728 257.466 215.667L251.7 214.818L252.454 213.611Z" fill="#984AD9" stroke="#263238" stroke-miterlimit="10"/>
<path d="M259.952 222.431C258.829 227.909 254.731 231.807 250.793 231.141C246.856 230.476 244.586 225.481 245.709 220.003C246.832 214.526 250.93 210.628 254.86 211.293C258.789 211.959 261.075 216.954 259.952 222.431Z" fill="white" stroke="#263238" stroke-linecap="round" stroke-linejoin="round"/>
<path d="M259.241 223.135C260.093 218.978 258.365 215.196 255.383 214.688C252.4 214.18 249.292 217.138 248.44 221.295C247.589 225.452 249.317 229.234 252.299 229.742C255.282 230.249 258.39 227.291 259.241 223.135Z" fill="#984AD9" stroke="#263238" stroke-miterlimit="10"/>
<path d="M213.773 318.359C215.65 330.498 217.96 341.388 217.96 341.388H204.205C204.205 341.388 200.684 324.853 196.402 315.675C193.996 310.453 193.41 308.361 193.37 307.506C191.502 311.565 179.857 336.642 177.771 337.49C175.502 338.404 167.193 336.759 164.137 335.881C161.082 335.003 160.873 331.062 161.378 329.453C161.884 327.844 183.032 281.237 185.037 278.26C186.917 275.227 188.357 271.985 189.32 268.614C189.569 267.239 189.063 264.021 191.333 262.881C192.705 262.186 202.345 260.153 209.779 258.646C214.639 257.659 218.545 256.906 218.545 256.906C218.545 256.906 212.53 277.331 211.503 291.797C211.062 298.211 212.305 308.683 213.773 318.351C213.781 318.351 213.781 318.351 213.773 318.359Z" fill="#984AD9" stroke="#263238" stroke-miterlimit="10"/>
<path d="M213.773 318.351C212.041 315.755 205.015 304.61 204.077 293.004C203.235 282.59 207.79 265.499 209.795 258.632C214.655 257.644 218.561 256.891 218.561 256.891C218.561 256.891 212.53 277.331 211.503 291.797C211.062 298.211 212.273 308.683 213.773 318.351Z" fill="#984AD9" stroke="#263238" stroke-miterlimit="10"/>
<path d="M195.311 283.445C195.937 280.966 196.402 279.628 196.402 279.628" stroke="#263238" stroke-miterlimit="10"/>
<path d="M193.635 306.95C193.635 306.95 192.119 302.123 193.378 293.406C193.715 291.102 194.076 289.054 194.437 287.292" stroke="#263238" stroke-miterlimit="10"/>
<path d="M304.407 308.961C298.617 308.727 269.664 292.28 269.664 292.28C269.664 292.28 260.594 308.486 260.345 311.777C260.097 315.068 267.395 341.388 267.395 341.388H236.43C236.43 341.388 235.491 332.151 235.299 322.022C235.211 317.349 235.299 312.515 235.676 308.252C236.935 294.861 241.963 257.059 241.963 257.059L247.008 257.527C247.008 257.527 248.436 257.966 250.673 258.675C256.632 260.562 268.317 264.424 273.442 267.159C280.483 270.918 290.284 277.032 295.096 279.854C299.908 282.677 311.208 289.018 313.47 297.479C315.731 305.941 310.198 309.195 304.407 308.961Z" fill="#984AD9" stroke="#263238" stroke-miterlimit="10"/>
<path d="M250.673 258.646C249.991 268.051 247.986 290.451 243.664 301.289C239.525 311.652 236.55 318.958 235.299 322.022C235.211 317.349 235.299 312.515 235.676 308.252C236.935 294.861 241.963 257.059 241.963 257.059L247.008 257.527C247.008 257.527 248.436 257.937 250.673 258.646Z" stroke="#263238" stroke-miterlimit="10"/>
<path d="M269.664 292.272L258.084 288.989" stroke="#263238" stroke-miterlimit="10"/>
<path d="M253.191 281.873C253.528 285.347 254.579 289.186 257.33 291.336" stroke="#263238" stroke-miterlimit="10"/>
<path d="M253.296 274.655C253.134 275.971 253.051 277.294 253.047 278.619" stroke="#263238" stroke-miterlimit="10"/>
<path d="M251.828 286.868C251.828 286.868 254.595 291.57 257.867 293.216" stroke="#263238" stroke-miterlimit="10"/>
<path d="M269.175 253.212C268.709 251.489 268.467 249.722 268.453 247.947C268.453 245.117 269.175 243.522 268.044 243.618C266.914 243.713 264.941 245.029 264.323 247.274C263.706 249.519 265.045 251.604 265.253 252.357C265.38 252.819 265.45 253.292 265.462 253.768C265.462 253.768 256.48 254.046 254.827 254.046C253.175 254.046 251.523 254.895 251.523 256.306C251.523 257.717 253.28 258.5 253.28 258.5L254.082 258.88C254.082 258.88 253.047 260.665 253.769 261.608C254.168 262.146 254.658 262.622 255.22 263.019C255.004 263.305 254.871 263.636 254.834 263.982C254.798 264.328 254.859 264.676 255.012 264.994C255.279 265.635 255.744 266.191 256.351 266.596C256.351 266.596 255.012 267.729 256.768 269.236C258.525 270.742 262.342 270.837 265.021 270.837C267.7 270.837 269.977 270.925 269.977 270.925L271.116 271.02L280.612 283.921L289.594 274.786C289.594 274.786 276.377 263.085 274.621 261.045C272.864 259.005 269.175 253.212 269.175 253.212Z" fill="white" stroke="#263238" stroke-miterlimit="10"/>
<path d="M289.297 273.697L276.963 284.257C276.963 284.257 288.295 298.035 294.334 304.961C300.373 311.886 311.457 313.005 316.237 309.546C321.017 306.087 321.53 298.298 317.247 293.457C312.964 288.616 289.297 273.697 289.297 273.697Z" fill="#984AD9" stroke="#263238" stroke-miterlimit="10"/>
<path d="M206.756 329.167C206.756 329.167 224.865 332.02 226.557 332.02C228.249 332.02 246.118 327.836 247.321 328.714C248.524 329.592 256.496 335.764 258.428 337.526C259.577 338.566 260.552 339.754 261.324 341.051H244.666L239.598 339.947C239.598 339.947 235.299 341.761 232.885 341.761C230.471 341.761 222.387 341.337 222.387 341.337L208.159 341.125C208.159 341.125 203.371 333.789 206.756 329.167Z" fill="white" stroke="#263238" stroke-miterlimit="10"/>
<path d="M249.735 341.059C249.735 341.059 245.629 336.876 243.944 335.771C242.924 335.099 241.796 334.573 240.6 334.214" stroke="#263238" stroke-miterlimit="10"/>
<path d="M255.293 341.278C255.293 341.278 247.321 333.351 246.358 332.685C245.293 332.122 244.157 331.68 242.974 331.369" stroke="#263238" stroke-miterlimit="10"/>
<path d="M167.153 321.679C167.153 321.679 159.935 326.966 158.7 330.455C157.465 333.943 159.181 338.163 163.047 339.486C166.912 340.81 210.028 341.527 210.028 341.527C209.322 341.827 206.162 339.128 207.959 335.523C209.178 333.08 212.546 329.577 212.546 329.577L176.568 321.211" fill="#984AD9"/>
<path d="M167.153 321.679C167.153 321.679 159.935 326.966 158.7 330.455C157.465 333.943 159.181 338.163 163.047 339.486C166.912 340.81 210.028 341.527 210.028 341.527C209.322 341.827 206.162 339.128 207.959 335.523C209.178 333.08 212.546 329.577 212.546 329.577L176.568 321.211" stroke="#263238" stroke-miterlimit="10"/>
<path d="M227.977 340.035H80.0075V341.768H227.977V340.035Z" fill="#263238" stroke="#263238" stroke-miterlimit="10"/>
<path d="M174.299 341.768H82.0125L73.4792 283.248H165.765L174.299 341.768Z" fill="white" stroke="#263238" stroke-miterlimit="10"/>
<path d="M172.422 341.768H80.1439L71.6106 283.248H163.889L172.422 341.768Z" fill="white" stroke="#263238" stroke-miterlimit="10"/>
<path d="M87.2737 341.768H172.141L165.725 297.596C154.369 304.178 140.534 312.698 125.457 323.193C113.964 331.297 101.056 337.577 87.2737 341.768Z" fill="#263238" stroke="#263238" stroke-miterlimit="10"/>
<path d="M119.081 317.064C122.43 317.064 125.144 314.779 125.144 311.959C125.144 309.14 122.43 306.855 119.081 306.855C115.732 306.855 113.018 309.14 113.018 311.959C113.018 314.779 115.732 317.064 119.081 317.064Z" fill="white" stroke="#263238" stroke-miterlimit="10"/>
</g>
<defs>
<clipPath id="clip0_49_1513">
<rect width="401" height="342" fill="white"/>
</clipPath>
</defs>
</svg>
