<svg width="388" height="388" viewBox="0 0 388 388" fill="none" xmlns="http://www.w3.org/2000/svg">
<path d="M357.829 87.4552C356.603 85.3859 355.31 83.3424 353.949 81.3248C336.008 54.6692 305.015 36.472 274.564 28.1998C261.205 24.6454 247.48 22.643 233.661 22.2324C143.164 19.1284 107.127 90.4816 77.212 108.888C47.2972 127.295 1.29592 158.739 4.36112 224.691C7.42632 290.643 54.9796 352.731 147.005 356.611C239.031 360.491 245.162 319.029 296.548 303.695C330.545 293.545 354.748 259.262 366.536 227.578C382.661 184.385 381.901 128.296 357.829 87.4552Z" fill="#EEDBFF"/>
<path opacity="0.5" d="M357.829 87.4552C356.603 85.3859 355.31 83.3424 353.949 81.3248C336.008 54.6692 305.015 36.472 274.564 28.1998C261.205 24.6454 247.48 22.643 233.661 22.2324C143.164 19.1284 107.127 90.4816 77.212 108.888C47.2972 127.295 1.29592 158.739 4.36112 224.691C7.42632 290.643 54.9796 352.731 147.005 356.611C239.031 360.491 245.162 319.029 296.548 303.695C330.545 293.545 354.748 259.262 366.536 227.578C382.661 184.385 381.901 128.296 357.829 87.4552Z" fill="white"/>
<path opacity="0.3" d="M375.957 191.796V179.854H368.018C367.402 177.111 366.337 174.489 364.867 172.094L370.602 166.359L362.159 157.924L356.448 163.627C354.098 162.169 351.527 161.099 348.835 160.461V152.174H336.893V160.461C334.255 161.091 331.734 162.139 329.428 163.565L323.406 157.528L314.963 165.971L320.954 171.962C319.543 174.229 318.496 176.703 317.85 179.295H309.213V191.237H317.71C318.297 193.841 319.29 196.337 320.651 198.633L314.567 204.724L323.01 213.167L328.931 207.246C331.21 208.711 333.706 209.805 336.326 210.49V218.91H348.269V210.769C350.976 210.185 353.571 209.166 355.951 207.751L361.756 213.563L370.199 205.12L364.565 199.479C366.081 197.116 367.2 194.521 367.878 191.796H375.957ZM342.868 199.145C340.175 199.146 337.543 198.349 335.303 196.854C333.064 195.359 331.318 193.234 330.287 190.746C329.256 188.259 328.985 185.521 329.51 182.88C330.035 180.239 331.332 177.813 333.236 175.909C335.14 174.005 337.566 172.709 340.207 172.184C342.848 171.659 345.585 171.929 348.072 172.96C350.56 173.991 352.686 175.737 354.181 177.977C355.676 180.216 356.473 182.849 356.471 185.542C356.471 187.328 356.119 189.097 355.436 190.747C354.752 192.398 353.75 193.897 352.487 195.161C351.224 196.424 349.724 197.426 348.074 198.109C346.423 198.793 344.654 199.145 342.868 199.145Z" stroke="black" stroke-linecap="round" stroke-linejoin="round"/>
<g opacity="0.3">
<path d="M89.3021 307.7V295.757H81.3714C80.7539 293.014 79.6867 290.392 78.2131 287.997L83.9555 282.262L75.5048 273.827L69.84 279.531C67.4901 278.07 64.9194 276.998 62.2275 276.357V268.069H50.246V276.357C47.6072 276.992 45.0851 278.039 42.7731 279.461L36.7591 273.439L28.3163 281.866L34.307 287.896C32.8963 290.164 31.8489 292.638 31.203 295.229H22.5583V307.172H31.04C31.6239 309.777 32.6166 312.273 33.9811 314.567L27.936 320.62L36.3789 329.063L42.2998 323.142C44.5687 324.602 47.0541 325.694 49.664 326.378V334.813H61.6222V326.696C64.3294 326.112 66.9239 325.092 69.3046 323.677L75.1091 329.482L83.5519 321.039L77.9104 315.405C79.4286 313.043 80.5481 310.448 81.2239 307.723L89.3021 307.7ZM56.2135 315.056C53.5221 315.053 50.8921 314.252 48.6558 312.755C46.4195 311.257 44.6774 309.13 43.6496 306.643C42.6218 304.156 42.3544 301.419 42.8814 298.78C43.4083 296.141 44.7059 293.717 46.61 291.815C48.5142 289.913 50.9394 288.618 53.5793 288.094C56.2192 287.57 58.9551 287.841 61.4413 288.871C63.9275 289.902 66.0523 291.647 67.5472 293.885C69.0421 296.123 69.84 298.754 69.84 301.445C69.8411 303.234 69.4892 305.006 68.8045 306.658C68.1199 308.311 67.116 309.813 65.8502 311.077C64.5845 312.342 63.0818 313.344 61.4282 314.026C59.7745 314.709 58.0025 315.059 56.2135 315.056Z" stroke="black" stroke-linecap="round" stroke-linejoin="round"/>
<path d="M54.0174 247.171V239.303H48.7949C48.3883 237.495 47.6856 235.767 46.7152 234.189L50.4943 230.41L44.9304 224.846L41.1668 228.61C39.619 227.649 37.9263 226.944 36.1539 226.522V221.09H28.2775V226.522C26.5417 226.936 24.8816 227.619 23.3576 228.547L19.4 224.582L13.8361 230.146L17.7859 234.096C16.8572 235.592 16.1661 237.223 15.7373 238.93H10.0337V246.768H15.6364C16.0269 248.483 16.6813 250.127 17.5764 251.641L13.5645 255.653L19.1284 261.217L23.0084 257.337C24.5261 258.311 26.1896 259.037 27.936 259.487V265.043H35.7736V259.673C37.5589 259.289 39.2701 258.618 40.8409 257.686L44.6666 261.512L50.2305 255.948L46.5135 252.2C47.5134 250.645 48.2501 248.935 48.694 247.14L54.0174 247.171ZM32.2195 252.014C30.4447 252.015 28.7092 251.49 27.2328 250.505C25.7564 249.52 24.6055 248.119 23.9255 246.48C23.2456 244.84 23.0673 243.036 23.4132 241.295C23.7591 239.554 24.6136 237.955 25.8686 236.7C27.1237 235.445 28.7228 234.59 30.4636 234.245C32.2044 233.899 34.0088 234.077 35.6482 234.757C37.2877 235.437 38.6886 236.588 39.6738 238.064C40.6589 239.541 41.1839 241.276 41.1823 243.051C41.1823 245.428 40.238 247.708 38.5572 249.389C36.8763 251.069 34.5966 252.014 32.2195 252.014Z" stroke="black" stroke-linecap="round" stroke-linejoin="round"/>
</g>
<g opacity="0.2">
<path d="M256.577 42.8662C258.905 45.3106 265.889 48.112 265.889 48.112C265.889 48.112 266.331 42.9361 266.315 42.6101C266.152 38.7767 263.576 31.4668 259.44 30.3338C258.747 30.1629 258.025 30.14 257.323 30.2664C256.62 30.3929 255.952 30.666 255.362 31.068C254.772 31.4699 254.273 31.9916 253.898 32.5992C253.523 33.2067 253.28 33.8864 253.186 34.5941C252.681 37.5817 254.606 40.7788 256.577 42.8662Z" fill="black"/>
<path d="M326.075 74.2787C326.122 74.3408 329.303 70.2047 329.474 69.9254C331.445 66.6351 333.354 59.1234 330.506 55.8875C330.022 55.3631 329.433 54.9465 328.777 54.665C328.121 54.3834 327.413 54.2432 326.699 54.2535C325.985 54.2637 325.282 54.4242 324.634 54.7244C323.986 55.0247 323.409 55.458 322.94 55.9962C320.868 58.2078 320.713 61.9403 321.202 64.765C321.776 68.0785 326.075 74.271 326.075 74.2787Z" fill="black"/>
<path d="M357.488 57.9672C353.732 55.872 346.771 59.2631 343.962 61.8472C343.721 62.0722 340.33 66.0376 340.408 66.0686H340.486C339.384 66.5963 338.212 67.1783 336.939 67.8301C334.611 69.064 331.957 70.4841 329.179 72.2145C326.183 74.0489 323.296 76.057 320.535 78.2285C317.437 80.6643 314.565 83.373 311.952 86.3222L311.859 86.4308C312.371 85.2824 313.706 82.0232 313.776 81.7748C314.815 78.0889 314.645 70.3444 311.067 67.9698C310.463 67.5913 309.785 67.3445 309.079 67.2455C308.372 67.1465 307.653 67.1975 306.968 67.3952C306.282 67.5929 305.646 67.9328 305.101 68.3929C304.556 68.8529 304.114 69.4227 303.804 70.065C302.392 72.75 303.222 76.3894 304.44 78.9813C305.806 81.9068 311.145 86.4464 311.572 86.8111C308.967 89.8532 306.572 93.068 304.402 96.4335C303.121 98.389 301.895 100.391 300.692 102.424C301.104 101.415 301.468 100.507 301.468 100.376C302.508 96.6896 302.337 88.9451 298.76 86.5705C298.155 86.192 297.478 85.9452 296.771 85.8462C296.065 85.7472 295.346 85.7982 294.66 85.9959C293.975 86.1936 293.339 86.5335 292.794 86.9936C292.249 87.4536 291.807 88.0234 291.497 88.6657C290.084 91.3507 290.915 94.9901 292.133 97.5897C293.351 100.189 297.837 104.178 299.032 105.21C298.582 105.986 298.116 106.762 297.666 107.538C295.501 111.302 293.359 115.065 291.147 118.697C290.371 119.977 289.557 121.203 288.742 122.445C289.107 121.545 289.409 120.792 289.44 120.668C290.48 116.974 290.309 109.23 286.732 106.855C286.127 106.478 285.449 106.233 284.742 106.135C284.036 106.037 283.317 106.089 282.631 106.287C281.946 106.486 281.311 106.826 280.766 107.286C280.221 107.746 279.779 108.316 279.469 108.958C278.056 111.643 278.887 115.283 280.105 117.874C281.323 120.466 285.374 124.082 286.794 125.316C285.925 126.55 285.056 127.799 284.156 128.956C283.527 129.732 282.976 130.508 282.293 131.284L280.353 133.526C279.065 134.908 277.738 136.335 276.473 137.647C275.581 138.57 274.72 139.432 273.85 140.301C274.626 139.036 276.132 136.529 276.233 136.304C277.514 133.182 277.974 129.784 277.567 126.434C277.723 126.091 277.847 125.735 277.94 125.371C278.137 124.685 278.187 123.966 278.088 123.259C277.988 122.553 277.741 121.876 277.363 121.271C276.985 120.667 276.483 120.149 275.891 119.75C275.3 119.352 274.631 119.083 273.928 118.961C269.676 118.355 264.399 124.02 262.715 127.497C262.622 127.706 261.791 130.027 261.287 131.509C261.45 130.593 261.621 129.708 261.776 128.769C262.094 126.907 262.358 125.045 262.645 123.035C262.754 122.065 262.862 121.079 262.971 120.086C263.08 119.093 263.111 118.053 263.188 117.029C263.312 114.638 263.32 112.217 263.274 109.773C264.903 110.045 270.7 110.945 273.486 110.223C276.272 109.501 279.601 107.833 280.765 105.032C281.063 104.383 281.221 103.679 281.229 102.966C281.237 102.252 281.094 101.545 280.81 100.89C280.525 100.235 280.106 99.6479 279.58 99.1661C279.053 98.6844 278.431 98.3191 277.754 98.0941C273.618 96.8137 267.542 101.656 265.392 104.76C265.26 104.954 263.941 107.391 263.25 108.749C263.211 107.274 263.18 105.815 263.095 104.325C262.847 100.042 262.459 95.7196 262.094 91.3973C261.978 90.0703 261.884 88.7511 261.784 87.4319C262.358 87.5405 269.233 88.7511 272.353 87.9441C275.123 87.2301 278.46 85.554 279.632 82.7526C279.927 82.1039 280.084 81.4003 280.09 80.6874C280.097 79.9744 279.953 79.2681 279.669 78.6141C279.386 77.9601 278.968 77.373 278.442 76.8908C277.917 76.4087 277.297 76.0422 276.621 75.8152C272.508 74.5736 266.432 79.377 264.251 82.5276C264.081 82.7681 262.195 86.2757 261.76 87.1836C261.543 84.2736 261.349 81.3713 261.271 78.5079C261.148 74.6236 261.277 70.7353 261.659 66.8679C261.923 66.9145 269.086 68.2104 272.283 67.3878C275.061 66.6739 278.398 64.9977 279.562 62.1964C279.86 61.548 280.018 60.844 280.026 60.1304C280.034 59.4167 279.891 58.7095 279.607 58.0548C279.323 57.4001 278.904 56.8127 278.377 56.3309C277.85 55.8492 277.228 55.4839 276.551 55.2589C272.446 54.0096 266.37 58.8208 264.181 61.9713C264.042 62.1809 262.629 64.8503 261.947 66.1385L261.714 66.0686C262.197 62.1993 263.028 58.3815 264.197 54.6614C264.81 52.605 265.516 50.6728 266.246 48.8104C267.549 49.1906 273.556 50.8513 276.512 50.4245C279.469 49.9977 282.852 48.7173 284.319 46.0711C284.685 45.4588 284.919 44.7763 285.004 44.0679C285.09 43.3595 285.026 42.641 284.816 41.959C284.606 41.277 284.255 40.6469 283.785 40.1093C283.316 39.5718 282.739 39.1389 282.092 38.8388C278.142 37.1471 271.577 41.2599 269.055 44.1544C268.923 44.3096 267.704 46.0633 266.835 47.3515C267.177 46.5134 267.518 45.6443 267.86 44.8528C269.132 41.8652 270.49 39.2113 271.74 36.8677C272.446 35.5408 273.105 34.3613 273.734 33.2593C275.216 32.9567 281.16 31.7073 283.55 29.9691C285.94 28.2309 288.385 25.5381 288.462 22.504C288.507 21.7918 288.401 21.0783 288.151 20.41C287.901 19.7416 287.513 19.1335 287.012 18.6253C286.511 18.1171 285.909 17.7202 285.244 17.4606C284.579 17.201 283.867 17.0844 283.155 17.1185C278.871 17.4367 274.937 24.1025 274.037 27.8351C273.959 28.161 273.315 33.3369 273.4 33.3214H273.486C272.857 34.369 272.198 35.502 271.499 36.7513C270.226 39.0793 268.806 41.7022 267.456 44.6743C265.977 47.8595 264.682 51.1266 263.576 54.4597C262.292 58.2019 261.342 62.0503 260.736 65.96C260.74 66.0065 260.74 66.0532 260.736 66.0997C260.526 64.8581 259.836 61.4437 259.758 61.1488C258.586 57.4938 254.171 51.1229 249.88 51.1229C249.166 51.1403 248.464 51.3082 247.82 51.6154C247.176 51.9226 246.603 52.3622 246.141 52.9056C245.678 53.449 245.335 54.0839 245.134 54.7689C244.933 55.4539 244.879 56.1735 244.975 56.8808C245.278 59.8994 247.979 62.4757 250.407 63.9657C253.17 65.6496 260.123 66.4954 260.674 66.5575C260.183 70.5344 259.96 74.5399 260.007 78.5467C260.007 80.8747 260.1 83.2027 260.216 85.585C259.999 84.5141 259.805 83.5596 259.766 83.4355C258.594 79.7805 254.179 73.4173 249.888 73.4096C249.175 73.4273 248.475 73.5948 247.832 73.901C247.189 74.2073 246.617 74.6455 246.155 75.1871C245.692 75.7288 245.349 76.3617 245.147 77.0448C244.945 77.7279 244.889 78.4459 244.983 79.152C245.286 82.1706 247.986 84.7469 250.415 86.2368C252.844 87.7268 258.812 88.5648 260.379 88.7899C260.433 89.69 260.48 90.598 260.534 91.4981C260.806 95.8282 261.093 100.151 261.248 104.403C261.31 105.901 261.302 107.375 261.31 108.849C261.124 107.903 260.953 107.111 260.914 106.987C259.743 103.34 255.335 96.9689 251.036 96.9612C250.322 96.9796 249.621 97.1484 248.977 97.4565C248.333 97.7647 247.761 98.2052 247.299 98.7493C246.837 99.2935 246.494 99.929 246.295 100.614C246.095 101.3 246.042 102.02 246.139 102.727C246.434 105.745 249.143 108.322 251.571 109.812C254 111.302 259.394 112.078 261.256 112.326C261.209 113.839 261.171 115.352 261.07 116.819C260.969 117.812 260.946 118.782 260.798 119.783C260.651 120.784 260.534 121.747 260.41 122.724C260.092 124.579 259.782 126.503 259.432 128.312C259.192 129.569 258.943 130.764 258.703 131.974C258.664 130.477 258.524 127.567 258.486 127.318C257.88 123.531 254.489 116.571 250.244 115.919C249.537 115.829 248.818 115.89 248.135 116.097C247.452 116.303 246.82 116.652 246.281 117.119C245.741 117.586 245.306 118.161 245.004 118.807C244.701 119.454 244.538 120.156 244.525 120.87C244.37 123.896 246.644 126.853 248.84 128.7C251.253 130.725 257.725 132.58 258.532 132.797C258.121 134.791 257.702 136.723 257.275 138.539C255.824 144.786 254.381 149.946 253.31 153.555L255.987 154.696L256.057 154.455C257.058 150.769 258.385 145.492 259.758 139.09C260.185 137.073 260.604 134.9 261.015 132.673C263.178 132.717 265.342 132.637 267.495 132.432C268.589 135.482 272.679 140.254 273.206 140.867C271.763 142.295 270.343 143.676 268.985 144.965C264.329 149.372 260.278 152.872 257.399 155.301L260.332 156.55C263.095 154.098 266.696 150.808 270.754 146.788C272.229 145.337 273.773 143.762 275.34 142.132C276.023 142.605 281.548 146.431 284.652 146.998C287.469 147.518 291.202 147.386 293.437 145.337C293.979 144.872 294.417 144.299 294.723 143.654C295.028 143.008 295.195 142.306 295.211 141.592C295.227 140.878 295.092 140.169 294.816 139.511C294.54 138.852 294.128 138.26 293.607 137.771C290.402 134.923 282.868 136.739 279.562 138.687C279.368 138.795 277.397 140.239 276.163 141.24C276.799 140.565 277.428 139.921 278.08 139.222C279.368 137.849 280.617 136.436 281.96 134.923L283.853 132.642C284.505 131.866 285.095 131.02 285.723 130.205C287.143 128.281 288.494 126.263 289.805 124.207C291.008 125.332 295.353 129.282 298.069 130.221C300.785 131.159 304.487 131.594 307.009 129.902C307.614 129.525 308.134 129.024 308.533 128.433C308.932 127.842 309.202 127.173 309.326 126.47C309.45 125.767 309.424 125.046 309.251 124.354C309.078 123.662 308.761 123.014 308.32 122.453C305.581 119.147 297.868 119.807 294.306 121.227C294.081 121.312 291.636 122.623 290.317 123.368C291.093 122.127 291.869 120.885 292.645 119.597C294.802 115.888 296.867 112.062 298.946 108.26C299.583 107.096 300.224 105.937 300.871 104.783C301.298 105.187 306.357 109.99 309.407 111.046C312.107 111.977 315.816 112.419 318.338 110.727C318.945 110.351 319.465 109.85 319.865 109.259C320.265 108.668 320.536 108 320.66 107.297C320.785 106.594 320.76 105.873 320.587 105.181C320.414 104.488 320.098 103.84 319.658 103.278C316.911 99.972 309.197 100.632 305.635 102.052C305.364 102.16 301.856 104.046 300.979 104.574C302.399 102.021 303.835 99.4987 305.356 97.062C307.393 93.7652 309.64 90.6029 312.084 87.5948C312.278 87.7888 317.516 92.8251 320.659 93.9037C323.367 94.8349 327.076 95.2773 329.59 93.5856C330.197 93.2088 330.717 92.7086 331.117 92.1176C331.517 91.5265 331.788 90.8578 331.912 90.1551C332.037 89.4523 332.012 88.7313 331.839 88.0388C331.666 87.3463 331.35 86.698 330.91 86.136C328.17 82.8302 320.449 83.4898 316.887 84.9099C316.655 85.003 313.977 86.4619 312.72 87.1525L312.565 86.9585C315.107 84.0029 317.906 81.2788 320.93 78.8183C322.583 77.4448 324.236 76.2187 325.866 75.0702C326.75 76.1023 330.84 80.8049 333.54 82.0542C336.241 83.3036 339.748 84.1261 342.457 82.7216C343.1 82.4133 343.67 81.9732 344.132 81.4298C344.594 80.8864 344.936 80.252 345.137 79.5677C345.337 78.8834 345.392 78.1645 345.296 77.4579C345.201 76.7512 344.958 76.0725 344.583 75.466C342.255 71.8731 334.495 71.6791 330.786 72.7034C330.584 72.7577 328.597 73.557 327.169 74.1468C327.945 73.6424 328.675 73.0992 329.396 72.5948C332.112 70.81 334.704 69.3433 337.009 68.0629C338.328 67.349 339.539 66.7205 340.672 66.154C342.069 66.7205 347.733 68.9321 350.667 68.8234C353.6 68.7148 357.146 67.7913 358.884 65.3081C359.304 64.7445 359.601 64.1 359.758 63.4154C359.916 62.7308 359.929 62.021 359.798 61.331C359.666 60.641 359.393 59.9857 358.996 59.4067C358.598 58.8277 358.085 58.3375 357.488 57.9672Z" fill="black"/>
</g>
<g opacity="0.2">
<path d="M132.642 44.3639C130.314 46.816 123.33 49.6096 123.33 49.6174C123.33 49.6251 122.887 44.4415 122.903 44.1078C123.066 40.2743 125.642 32.9722 129.786 31.8315C130.476 31.668 131.193 31.6507 131.89 31.7808C132.587 31.9108 133.249 32.1853 133.834 32.5865C134.418 32.9877 134.913 33.5069 135.285 34.1106C135.657 34.7142 135.898 35.3891 135.994 36.0917C136.529 39.0793 134.605 42.2842 132.642 44.3639Z" fill="black"/>
<path d="M63.1354 75.7764C63.1354 75.8462 59.915 71.7101 59.7443 71.423C57.7655 68.1328 55.872 60.6211 58.7122 57.424C59.1964 56.9008 59.7852 56.4853 60.4405 56.2046C61.0957 55.9238 61.8027 55.784 62.5155 55.7942C63.2283 55.8045 63.931 55.9645 64.5779 56.264C65.2248 56.5635 65.8014 56.9957 66.2704 57.5326C68.3423 59.752 68.5053 63.4768 68.0164 66.3014C67.4422 69.5761 63.1431 75.7764 63.1354 75.7764Z" fill="black"/>
<path d="M31.7307 59.4648C35.4787 57.3696 42.4395 60.7608 45.2486 63.3448C45.4891 63.5699 48.8803 67.5352 48.8104 67.5663H48.7251C49.827 68.0862 51.0065 68.6682 52.2791 69.3278C54.6071 70.5616 57.2533 71.974 60.0391 73.7044C63.0351 75.5432 65.9239 77.5512 68.6915 79.7184C71.7891 82.1621 74.6662 84.873 77.2896 87.8199L77.375 87.9363C76.8628 86.7878 75.5359 83.5208 75.4583 83.2803C74.4262 79.5865 74.5891 71.842 78.1665 69.4675C78.7722 69.0891 79.4508 68.8426 80.1581 68.7441C80.8654 68.6456 81.5855 68.6972 82.2716 68.8956C82.9576 69.094 83.5941 69.4348 84.1396 69.8957C84.6851 70.3565 85.1274 70.9272 85.4376 71.5704C86.8499 74.2476 86.0196 77.8948 84.8013 80.4867C83.4278 83.4122 78.0889 87.9518 77.6621 88.3088C80.2665 91.3554 82.6645 94.5726 84.8401 97.9389C86.1127 99.8867 87.3388 101.897 88.5494 103.922C88.1303 102.913 87.7734 102.013 87.7734 101.881C86.7413 98.1872 86.9043 90.4428 90.4816 88.0682C91.0873 87.6898 91.7659 87.4434 92.4732 87.3448C93.1805 87.2463 93.9007 87.2979 94.5867 87.4963C95.2727 87.6948 95.9092 88.0355 96.4547 88.4964C97.0003 88.9573 97.4425 89.5279 97.7527 90.1712C99.1651 92.8561 98.3347 96.4956 97.1164 99.0874C95.8981 101.679 91.4051 105.683 90.21 106.715C90.6679 107.491 91.1257 108.267 91.5758 109.043C93.7408 112.807 95.8826 116.571 98.0942 120.195C98.8702 121.475 99.6927 122.709 100.5 123.943C100.135 123.05 99.8402 122.29 99.8014 122.173C98.7693 118.48 98.9323 110.735 102.51 108.361C103.115 107.982 103.794 107.736 104.501 107.637C105.209 107.539 105.929 107.59 106.615 107.789C107.301 107.987 107.937 108.328 108.483 108.789C109.028 109.25 109.471 109.82 109.781 110.464C111.193 113.141 110.363 116.788 109.144 119.38C107.926 121.972 103.868 125.588 102.455 126.814C103.324 128.055 104.194 129.297 105.086 130.461C105.722 131.237 106.273 132.013 106.948 132.789L108.896 135.024C110.184 136.405 111.503 137.833 112.776 139.152C113.669 140.068 114.538 140.929 115.407 141.798C114.631 140.534 113.118 138.027 113.017 137.802C111.734 134.68 111.277 131.281 111.69 127.931C111.532 127.591 111.405 127.238 111.309 126.876C111.114 126.19 111.065 125.47 111.166 124.764C111.267 124.058 111.516 123.381 111.895 122.777C112.275 122.173 112.778 121.656 113.371 121.259C113.964 120.862 114.634 120.595 115.337 120.474C119.589 119.861 124.866 125.533 126.55 129.01C126.651 129.212 127.481 131.54 127.978 133.014C127.815 132.098 127.652 131.222 127.497 130.275C127.179 128.42 126.915 126.55 126.62 124.548C126.519 123.57 126.41 122.592 126.302 121.599C126.193 120.606 126.162 119.558 126.084 118.495C125.96 116.105 125.953 113.684 125.991 111.24C124.362 111.519 118.565 112.411 115.779 111.697C112.993 110.983 109.672 109.3 108.5 106.506C108.203 105.857 108.046 105.153 108.039 104.439C108.032 103.725 108.175 103.018 108.459 102.363C108.742 101.708 109.161 101.12 109.687 100.637C110.213 100.154 110.834 99.7876 111.511 99.5608C115.624 98.3192 121.7 103.123 123.881 106.273C124.02 106.475 125.332 108.912 126.03 110.262C126.069 108.795 126.092 107.329 126.185 105.846C126.434 101.563 126.814 97.2328 127.186 92.9104C127.295 91.5912 127.388 90.272 127.497 88.9451C126.915 89.0537 120.047 90.2643 116.928 89.465C114.15 88.7511 110.813 87.0672 109.649 84.2736C109.351 83.6252 109.192 82.9212 109.185 82.2076C109.177 81.4939 109.32 80.7866 109.604 80.132C109.888 79.4773 110.307 78.8899 110.834 78.4081C111.36 77.9264 111.982 77.5611 112.66 77.3361C116.765 76.0868 122.841 80.8902 125.029 84.0408C125.192 84.2813 127.078 87.7888 127.512 88.6968C127.737 85.7945 127.931 82.8923 128.009 80.0211C128.131 76.1497 128.002 72.2744 127.621 68.4199C127.349 68.4664 120.187 69.7701 116.99 68.9476C114.219 68.2336 110.883 66.5497 109.711 63.7561C109.407 63.1051 109.245 62.3972 109.234 61.6789C109.224 60.9607 109.365 60.2483 109.649 59.5886C109.934 58.929 110.355 58.337 110.884 57.8515C111.414 57.3661 112.04 56.9982 112.722 56.7721C116.835 55.5305 122.911 60.334 125.091 63.4845C125.239 63.694 126.643 66.3712 127.334 67.6516L127.567 67.5818C127.076 63.713 126.243 59.8956 125.076 56.1746C124.463 54.1182 123.757 52.186 123.035 50.3236C121.723 50.7038 115.717 52.3644 112.761 51.9454C109.928 51.5419 106.428 50.2382 104.954 47.5843C104.588 46.9721 104.355 46.2897 104.27 45.5815C104.185 44.8733 104.25 44.1551 104.461 43.4737C104.671 42.7923 105.023 42.1629 105.493 41.6264C105.963 41.0899 106.541 40.6583 107.189 40.3597C111.139 38.668 117.704 42.7731 120.218 45.6676C120.358 45.8228 121.568 47.5765 122.437 48.8647C122.096 48.0344 121.762 47.1652 121.421 46.366C120.14 43.3861 118.782 40.7244 117.541 38.3887C116.842 37.0617 116.175 35.8744 115.546 34.7725C114.064 34.4699 108.12 33.2205 105.738 31.49C103.355 29.7596 100.88 27.0979 100.818 24.056C100.775 23.3438 100.882 22.6304 101.132 21.9623C101.383 21.2941 101.771 20.6861 102.271 20.1775C102.772 19.669 103.373 19.2714 104.037 19.0104C104.701 18.7494 105.413 18.631 106.126 18.6628C110.409 18.9809 114.344 25.6468 115.244 29.3871C115.321 29.7052 115.965 34.8889 115.888 34.8734H115.795C116.423 35.921 117.091 37.054 117.789 38.3033C119.062 40.6313 120.474 43.262 121.824 46.2263C123.311 49.4107 124.607 52.6809 125.704 56.0194C126.966 59.747 127.891 63.5803 128.467 67.4732C128.467 67.5197 128.467 67.5663 128.467 67.6128C128.669 66.3712 129.359 62.918 129.445 62.662C130.647 58.976 135.024 52.636 139.354 52.6283C140.068 52.6481 140.769 52.8177 141.413 53.1261C142.056 53.4345 142.628 53.8749 143.091 54.4186C143.553 54.9623 143.896 55.5972 144.097 56.2821C144.298 56.967 144.353 57.6865 144.258 58.394C143.956 61.4048 141.248 63.9889 138.826 65.4788C136.072 67.155 129.119 68.0008 128.56 68.0629C129.053 72.0397 129.279 76.0451 129.235 80.0521C129.235 82.3801 129.134 84.7081 129.026 87.0904C129.235 86.0273 129.437 85.0728 129.476 84.9409C130.647 81.286 135.055 74.9228 139.354 74.915C140.068 74.9348 140.769 75.1044 141.413 75.4128C142.056 75.7213 142.628 76.1616 143.091 76.7053C143.553 77.2491 143.896 77.884 144.097 78.5688C144.298 79.2537 144.353 79.9732 144.258 80.6807C143.956 83.6916 141.248 86.2756 138.826 87.7656C136.405 89.2555 130.43 90.0936 128.863 90.3186C128.808 91.2188 128.769 92.1189 128.707 93.0268C128.436 97.3569 128.149 101.679 127.993 105.924C127.939 107.422 127.939 108.896 127.931 110.378C128.125 109.431 128.288 108.632 128.327 108.516C129.499 104.861 133.914 98.4899 138.206 98.4899C138.919 98.5074 139.621 98.6752 140.265 98.9824C140.91 99.2896 141.482 99.7292 141.945 100.273C142.408 100.816 142.751 101.451 142.951 102.136C143.152 102.821 143.206 103.541 143.11 104.248C142.807 107.266 140.107 109.843 137.678 111.333C135.249 112.823 129.856 113.599 127.993 113.847C127.993 115.36 128.071 116.873 128.18 118.34C128.273 119.341 128.296 120.303 128.451 121.304C128.606 122.305 128.707 123.275 128.839 124.245C129.15 126.108 129.46 128.024 129.817 129.833C130.05 131.097 130.298 132.292 130.547 133.495C130.547 132.005 130.717 129.088 130.756 128.839C131.361 125.052 134.76 118.092 139.005 117.432C139.712 117.343 140.431 117.403 141.113 117.61C141.796 117.817 142.427 118.165 142.966 118.632C143.505 119.099 143.939 119.675 144.241 120.321C144.543 120.967 144.704 121.67 144.716 122.383C144.879 125.409 142.598 128.366 140.409 130.213C137.996 132.246 131.517 134.093 130.709 134.31C131.121 136.304 131.548 138.237 131.974 140.052C133.425 146.307 134.869 151.46 135.94 155.076L133.255 156.217C133.255 156.131 133.255 156.054 133.193 155.968C132.192 152.29 130.826 147.005 129.483 140.603C129.057 138.586 128.638 136.413 128.234 134.186C126.069 134.235 123.902 134.154 121.747 133.945C120.66 136.995 116.571 141.767 116.035 142.38C117.479 143.816 118.899 145.197 120.257 146.478C124.913 150.885 128.963 154.393 131.85 156.814L128.816 158.071C126.061 155.627 122.461 152.329 118.394 148.317C116.928 146.866 115.376 145.283 113.808 143.661C113.133 144.126 107.6 147.96 104.496 148.526C101.672 149.039 97.939 148.907 95.7119 146.858C95.1694 146.395 94.7307 145.822 94.4244 145.178C94.1181 144.534 93.9511 143.832 93.9342 143.119C93.9174 142.406 94.0511 141.697 94.3267 141.039C94.6022 140.381 95.0134 139.788 95.5334 139.3C98.746 136.444 106.273 138.26 109.579 140.208C109.773 140.324 111.752 141.806 112.978 142.761C112.342 142.086 111.713 141.441 111.069 140.743C109.773 139.37 108.524 137.957 107.189 136.444L105.295 134.163C104.644 133.387 104.054 132.541 103.425 131.726C102.005 129.809 100.663 127.792 99.3513 125.727C98.1407 126.86 93.8029 130.803 91.0791 131.741C88.3554 132.68 84.6616 133.115 82.1474 131.423C81.5415 131.047 81.0216 130.548 80.6217 129.957C80.2217 129.367 79.9507 128.699 79.8262 127.997C79.7018 127.295 79.7267 126.574 79.8993 125.882C80.0719 125.191 80.3884 124.543 80.8282 123.981C83.5675 120.668 91.2887 121.328 94.8505 122.748C95.0678 122.841 97.5122 124.152 98.8391 124.897C98.0631 123.648 97.2871 122.406 96.5111 121.126C94.3616 117.417 92.2897 113.591 90.2178 109.788C89.5815 108.617 88.9296 107.46 88.2855 106.304C87.8665 106.715 82.7992 111.511 79.7495 112.567C77.0413 113.505 73.332 113.94 70.81 112.256C70.2045 111.879 69.6852 111.378 69.286 110.787C68.8867 110.195 68.6165 109.527 68.4927 108.824C68.369 108.121 68.3947 107.4 68.568 106.708C68.7413 106.016 69.0583 105.368 69.4986 104.807C72.2379 101.493 79.9591 102.153 83.5131 103.58C83.7847 103.681 87.2923 105.575 88.1691 106.095C86.7491 103.549 85.3135 101.02 83.7925 98.5908C81.7644 95.2898 79.5194 92.1271 77.0723 89.1236C76.8706 89.3098 71.6403 94.346 68.5363 95.4247C65.8281 96.3559 62.1188 96.7982 59.5968 95.1065C58.9926 94.7323 58.4738 94.2353 58.0739 93.6477C57.674 93.0602 57.4019 92.3952 57.2754 91.6959C57.1488 90.9965 57.1706 90.2784 57.3392 89.5879C57.5079 88.8975 57.8196 88.2502 58.2543 87.688C60.9936 84.3744 68.7071 85.034 72.2689 86.4541C72.5017 86.5472 75.1789 88.0061 76.436 88.6968L76.5912 88.5105C74.0512 85.5506 71.2516 82.8238 68.2259 80.3625C66.5808 78.989 64.9279 77.7707 63.2906 76.6144C62.4059 77.6543 58.3164 82.3491 55.6159 83.5984C53.0319 84.8323 49.4079 85.6704 46.7075 84.2736C46.0627 83.9661 45.49 83.5262 45.0267 82.9826C44.5633 82.439 44.2198 81.8038 44.0185 81.1184C43.8171 80.4331 43.7625 79.713 43.8581 79.0052C43.9537 78.2973 44.1975 77.6175 44.5735 77.0102C46.9403 73.4251 54.6615 73.2311 58.3785 74.2554C58.5803 74.3097 60.5591 75.1012 61.9947 75.6988C61.2187 75.1866 60.4892 74.6512 59.7675 74.1468C57.0515 72.362 54.4597 70.8953 52.1472 69.6072C50.828 68.9243 49.664 68.288 48.4845 67.7292C47.0877 68.2957 41.4229 70.5073 38.4896 70.4064C35.5563 70.3056 32.01 69.3744 30.264 66.8912C29.8358 66.32 29.5325 65.6652 29.3738 64.9692C29.2151 64.2732 29.2046 63.5516 29.3429 62.8513C29.4812 62.1509 29.7653 61.4875 30.1766 60.9041C30.588 60.3207 31.1175 59.8303 31.7307 59.4648Z" fill="black"/>
</g>
<path d="M276.737 92.6078H113.746C111.14 92.6078 109.028 94.7202 109.028 97.3259V343.194C109.028 345.8 111.14 347.912 113.746 347.912H276.737C279.343 347.912 281.455 345.8 281.455 343.194V97.3259C281.455 94.7202 279.343 92.6078 276.737 92.6078Z" fill="#263238" stroke="#263238" stroke-linecap="round" stroke-linejoin="round"/>
<path d="M272.686 98.3658H117.789V338.08H272.686V98.3658Z" fill="white" stroke="#263238" stroke-linecap="round" stroke-linejoin="round"/>
<path d="M208.278 72.4939C207.931 72.4939 207.597 72.3558 207.351 72.1098C207.105 71.8639 206.967 71.5303 206.967 71.1825V63.7717C206.967 63.4032 206.894 63.0383 206.753 62.6979C206.612 62.3575 206.405 62.0483 206.144 61.7881C205.883 61.5279 205.573 61.3217 205.232 61.1814C204.892 61.041 204.526 60.9693 204.158 60.9703H192.215C191.847 60.9693 191.482 61.0411 191.142 61.1815C190.802 61.3219 190.492 61.5282 190.232 61.7886C189.972 62.0489 189.765 62.3581 189.625 62.6985C189.485 63.0388 189.413 63.4035 189.414 63.7717V71.1825C189.414 71.3554 189.38 71.5266 189.313 71.6862C189.247 71.8458 189.15 71.9907 189.027 72.1126C188.904 72.2345 188.759 72.3309 188.599 72.3964C188.439 72.4618 188.268 72.495 188.095 72.4939C187.922 72.4939 187.751 72.5281 187.591 72.5945C187.431 72.6609 187.286 72.7582 187.165 72.8808C187.043 73.0034 186.946 73.1489 186.881 73.3089C186.815 73.4689 186.782 73.6403 186.783 73.8132V93.896H209.598V73.8132C209.598 73.6399 209.563 73.4684 209.497 73.3083C209.431 73.1483 209.334 73.0028 209.211 72.8803C209.089 72.7578 208.943 72.6607 208.783 72.5944C208.623 72.5281 208.452 72.4939 208.278 72.4939ZM198.19 71.8033C197.463 71.8033 196.752 71.5876 196.147 71.1834C195.542 70.7792 195.071 70.2048 194.792 69.5327C194.514 68.8606 194.441 68.121 194.583 67.4075C194.725 66.694 195.075 66.0386 195.59 65.5242C196.104 65.0098 196.759 64.6594 197.473 64.5175C198.186 64.3756 198.926 64.4484 199.598 64.7268C200.27 65.0052 200.845 65.4767 201.249 66.0815C201.653 66.6864 201.869 67.3976 201.869 68.1251C201.867 69.1 201.478 70.0344 200.789 70.7237C200.1 71.4131 199.165 71.8013 198.19 71.8033Z" fill="#263238" stroke="#263238" stroke-linecap="round" stroke-linejoin="round"/>
<path d="M169.269 87.5095H227.104C228.884 87.5095 230.592 88.2167 231.851 89.4755C233.109 90.7344 233.817 92.4417 233.817 94.2219V100.151H162.557V94.2219C162.557 92.4417 163.264 90.7344 164.523 89.4755C165.781 88.2167 167.489 87.5095 169.269 87.5095Z" fill="white" stroke="#263238" stroke-linecap="round" stroke-linejoin="round"/>
<path d="M164.326 89.6978H232.024C231.396 89.0086 230.632 88.458 229.779 88.0812C228.927 87.7044 228.005 87.5097 227.073 87.5095H169.269C168.338 87.5098 167.417 87.7046 166.566 88.0814C165.715 88.4583 164.952 89.0088 164.326 89.6978Z" fill="#263238" stroke="#263238" stroke-linecap="round" stroke-linejoin="round"/>
<path d="M233.817 100.089H162.557V104.24H233.817V100.089Z" fill="white" stroke="#263238" stroke-linecap="round" stroke-linejoin="round"/>
<path d="M216.869 143.482H228.897" stroke="#263238" stroke-miterlimit="10"/>
<path d="M133.449 143.482H207.557" stroke="#263238" stroke-miterlimit="10"/>
<path d="M199.021 152.794H228.897" stroke="#263238" stroke-miterlimit="10"/>
<path d="M153.237 152.794H190.873" stroke="#263238" stroke-miterlimit="10"/>
<path d="M133.449 152.794H146.253" stroke="#263238" stroke-miterlimit="10"/>
<path d="M170.697 162.106H228.897" stroke="#263238" stroke-miterlimit="10"/>
<path d="M133.449 162.106H157.893" stroke="#263238" stroke-miterlimit="10"/>
<path d="M256.445 162.106C262.016 162.106 266.533 157.59 266.533 152.018C266.533 146.447 262.016 141.93 256.445 141.93C250.873 141.93 246.357 146.447 246.357 152.018C246.357 157.59 250.873 162.106 256.445 162.106Z" stroke="#263238" stroke-miterlimit="10"/>
<path d="M145.477 184.998H133.449" stroke="#263238" stroke-miterlimit="10"/>
<path d="M228.897 184.998H154.789" stroke="#263238" stroke-miterlimit="10"/>
<path d="M163.325 194.31H133.449" stroke="#263238" stroke-miterlimit="10"/>
<path d="M209.109 194.31H171.473" stroke="#263238" stroke-miterlimit="10"/>
<path d="M228.897 194.31H216.093" stroke="#263238" stroke-miterlimit="10"/>
<path d="M191.649 203.622H133.449" stroke="#263238" stroke-miterlimit="10"/>
<path d="M228.897 203.622H204.453" stroke="#263238" stroke-miterlimit="10"/>
<path d="M256.445 203.622C262.016 203.622 266.533 199.106 266.533 193.534C266.533 187.963 262.016 183.446 256.445 183.446C250.873 183.446 246.357 187.963 246.357 193.534C246.357 199.106 250.873 203.622 256.445 203.622Z" stroke="#263238" stroke-miterlimit="10"/>
<path d="M216.869 226.514H228.897" stroke="#263238" stroke-miterlimit="10"/>
<path d="M133.449 226.514H207.557" stroke="#263238" stroke-miterlimit="10"/>
<path d="M199.021 235.826H228.897" stroke="#263238" stroke-miterlimit="10"/>
<path d="M153.237 235.826H190.873" stroke="#263238" stroke-miterlimit="10"/>
<path d="M133.449 235.826H146.253" stroke="#263238" stroke-miterlimit="10"/>
<path d="M170.697 245.138H228.897" stroke="#263238" stroke-miterlimit="10"/>
<path d="M133.449 245.138H157.893" stroke="#263238" stroke-miterlimit="10"/>
<path d="M256.445 245.138C262.016 245.138 266.533 240.622 266.533 235.05C266.533 229.479 262.016 224.962 256.445 224.962C250.873 224.962 246.357 229.479 246.357 235.05C246.357 240.622 250.873 245.138 256.445 245.138Z" stroke="#263238" stroke-miterlimit="10"/>
<path d="M252.604 191.858L255.343 196.732L265.702 186.682" stroke="#984AD9" stroke-width="6" stroke-miterlimit="10" stroke-linecap="round"/>
<path d="M252.604 149.9L255.343 154.781L265.702 144.724" stroke="#984AD9" stroke-width="6" stroke-miterlimit="10" stroke-linecap="round"/>
<path d="M251.152 231.442L253.892 236.323L264.251 226.266" stroke="#984AD9" stroke-width="6" stroke-miterlimit="10" stroke-linecap="round"/>
<path d="M342.829 318.595C350.873 318.595 357.395 312.073 357.395 304.029C357.395 295.985 350.873 289.464 342.829 289.464C334.785 289.464 328.264 295.985 328.264 304.029C328.264 312.073 334.785 318.595 342.829 318.595Z" fill="#984AD9"/>
<path d="M338.227 301.305H333.564C333.152 301.305 332.819 301.639 332.819 302.05V311.021C332.819 311.432 333.152 311.766 333.564 311.766H338.227C338.639 311.766 338.972 311.432 338.972 311.021V302.05C338.972 301.639 338.639 301.305 338.227 301.305Z" fill="white"/>
<path d="M351.629 302.819C353.181 300.491 351.047 299.839 351.047 299.839H345.429L345.522 299.35C345.522 299.35 346.011 295.532 345.374 294.36C344.738 293.188 342.441 292.699 342.348 293.142C342.255 293.584 342.394 295.532 342.2 296.611C341.62 298.374 340.902 300.089 340.051 301.74C339.961 301.877 339.845 301.996 339.709 302.089V310.788C340.091 311.024 340.534 311.14 340.982 311.122H349.138C349.381 311.052 349.607 310.934 349.803 310.775C349.999 310.616 350.161 310.419 350.28 310.196C350.399 309.973 350.471 309.729 350.494 309.477C350.516 309.225 350.488 308.972 350.411 308.732C350.88 308.459 351.242 308.034 351.436 307.527C351.631 307.021 351.647 306.463 351.481 305.946C353.437 304.285 351.629 302.819 351.629 302.819Z" fill="white"/>
<path d="M43.3918 138.332C56.4044 136.22 65.2409 123.959 63.1286 110.947C61.0164 97.9339 48.7553 89.0974 35.7427 91.2097C22.7301 93.3219 13.8936 105.583 16.0059 118.596C18.1181 131.608 30.3792 140.445 43.3918 138.332Z" fill="#984AD9"/>
<path d="M32.0255 110.301H24.3741C23.7013 110.301 23.1558 110.846 23.1558 111.519V126.216C23.1558 126.889 23.7013 127.435 24.3741 127.435H32.0255C32.6984 127.435 33.2438 126.889 33.2438 126.216V111.519C33.2438 110.846 32.6984 110.301 32.0255 110.301Z" fill="white"/>
<path d="M53.9863 112.784C56.5471 109.02 53.0241 107.895 53.0241 107.895H43.8129L43.9759 107.119C43.9759 107.119 44.7519 100.911 43.7353 98.9478C42.7188 96.9845 38.9319 96.224 38.8 96.9224C38.6681 97.6208 38.8853 100.849 38.5594 102.61C38.2335 104.372 35.4554 110.301 35.0364 111.022C34.8848 111.24 34.6987 111.431 34.4854 111.589V125.844C35.1045 126.233 35.8269 126.425 36.5573 126.395H49.9045C50.3024 126.279 50.6731 126.084 50.9946 125.823C51.3162 125.561 51.582 125.238 51.7766 124.872C51.9712 124.506 52.0905 124.105 52.1274 123.692C52.1644 123.279 52.1184 122.863 51.992 122.468C54.7933 120.466 53.7535 117.905 53.7535 117.905C56.9506 115.182 53.9863 112.784 53.9863 112.784Z" fill="white"/>
<path d="M221.276 58.5958C229.321 58.5958 235.842 52.0746 235.842 44.0302C235.842 35.9859 229.321 29.4647 221.276 29.4647C213.232 29.4647 206.711 35.9859 206.711 44.0302C206.711 52.0746 213.232 58.5958 221.276 58.5958Z" fill="#984AD9"/>
<path d="M216.675 41.2987H212.011C211.6 41.2987 211.266 41.6322 211.266 42.0437V51.0142C211.266 51.4257 211.6 51.7592 212.011 51.7592H216.675C217.086 51.7592 217.42 51.4257 217.42 51.0142V42.0437C217.42 41.6322 217.086 41.2987 216.675 41.2987Z" fill="white"/>
<path d="M230.076 42.8119C231.628 40.4839 229.494 39.8321 229.494 39.8321H223.876L223.969 39.3432C223.969 39.3432 224.458 35.533 223.822 34.3613C223.185 33.1895 220.896 32.7006 220.795 33.1429C220.694 33.5853 220.842 35.533 220.648 36.6117C220.065 38.3744 219.346 40.0894 218.498 41.741C218.406 41.8766 218.29 41.9948 218.157 42.0902V50.7814C218.537 51.0219 218.98 51.141 219.429 51.1229H227.585C227.828 51.0521 228.055 50.9333 228.251 50.7735C228.447 50.6137 228.609 50.4162 228.728 50.1927C228.847 49.9692 228.919 49.7241 228.942 49.472C228.964 49.2199 228.935 48.9659 228.858 48.725C229.327 48.4521 229.689 48.0272 229.884 47.5206C230.078 47.014 230.094 46.4561 229.929 45.9392C231.884 44.2785 230.076 42.8119 230.076 42.8119Z" fill="white"/>
<path d="M149.753 309.508L141.861 357.363L153.958 343.69L167.104 357.891L162.37 308.452L149.753 309.508Z" fill="#984AD9" stroke="#263238" stroke-miterlimit="10"/>
<path d="M156.605 309.911L158.614 358.372L167.678 342.526L183.439 353.755L168.757 306.31L156.605 309.911Z" fill="#984AD9" stroke="#263238" stroke-miterlimit="10"/>
<path d="M186.069 299.536C186.069 298.139 189.057 296.541 188.863 295.198C188.669 293.856 185.348 293.126 184.983 291.823C184.618 290.519 187.008 288.113 186.434 286.872C185.86 285.63 182.484 285.886 181.778 284.73C181.072 283.574 182.678 280.609 181.778 279.577C180.878 278.545 177.712 279.748 176.672 278.848C175.632 277.948 176.385 274.642 175.229 273.889C174.072 273.136 171.349 275.201 170.122 274.626C168.896 274.052 168.664 270.677 167.337 270.281C166.01 269.885 164.023 272.609 162.681 272.438C161.338 272.267 160.182 269.055 158.801 269.055C157.419 269.055 156.248 272.244 154.921 272.438C153.594 272.632 151.545 269.901 150.265 270.281C148.984 270.661 148.713 274.06 147.479 274.626C146.245 275.193 143.529 273.152 142.373 273.889C141.216 274.626 141.969 277.948 140.929 278.848C139.89 279.748 136.723 278.537 135.816 279.577C134.908 280.617 136.592 283.574 135.816 284.738C135.04 285.902 131.687 285.615 131.113 286.872C130.539 288.129 132.96 290.488 132.572 291.823C132.184 293.157 128.87 293.817 128.692 295.198C128.513 296.579 131.485 298.139 131.485 299.536C131.485 300.933 128.498 302.524 128.692 303.874C128.886 305.224 132.207 305.946 132.572 307.249C132.937 308.553 130.547 310.959 131.113 312.2C131.679 313.442 135.071 313.186 135.816 314.334C136.561 315.483 134.908 318.455 135.816 319.495C136.723 320.535 139.882 319.324 140.922 320.224C141.961 321.124 141.209 324.43 142.365 325.175C143.521 325.92 146.245 323.871 147.471 324.446C148.697 325.02 148.93 328.395 150.257 328.783C151.584 329.171 153.57 326.455 154.913 326.634C156.255 326.812 157.419 330.017 158.793 330.017C160.166 330.017 161.346 326.828 162.673 326.634C164 326.44 166.056 329.171 167.329 328.783C168.602 328.395 168.881 325.012 170.115 324.446C171.349 323.879 174.065 325.92 175.221 325.175C176.377 324.43 175.624 321.124 176.664 320.224C177.704 319.324 180.87 320.535 181.77 319.495C182.67 318.455 180.994 315.498 181.77 314.334C182.546 313.17 185.891 313.457 186.473 312.2C187.055 310.943 184.618 308.584 185.014 307.249C185.41 305.915 188.715 305.247 188.894 303.874C189.072 302.5 186.069 300.909 186.069 299.536Z" fill="#263238"/>
<path d="M158.692 321.248C170.696 321.248 180.428 311.517 180.428 299.513C180.428 287.508 170.696 277.777 158.692 277.777C146.688 277.777 136.956 287.508 136.956 299.513C136.956 311.517 146.688 321.248 158.692 321.248Z" fill="white" stroke="#263238" stroke-linecap="round" stroke-linejoin="round"/>
<path d="M169.429 310.244C175.357 304.317 175.357 294.706 169.429 288.779C163.501 282.851 153.891 282.851 147.963 288.779C142.036 294.706 142.036 304.317 147.963 310.244C153.891 316.172 163.501 316.172 169.429 310.244Z" fill="white" stroke="#263238" stroke-linecap="round" stroke-linejoin="round"/>
<path d="M158.715 311.409C165.307 311.409 170.65 306.065 170.65 299.474C170.65 292.882 165.307 287.539 158.715 287.539C152.124 287.539 146.78 292.882 146.78 299.474C146.78 306.065 152.124 311.409 158.715 311.409Z" fill="#984AD9"/>
<path d="M154.944 297.239H151.126C150.787 297.239 150.513 297.513 150.513 297.852V305.193C150.513 305.532 150.787 305.806 151.126 305.806H154.944C155.283 305.806 155.557 305.532 155.557 305.193V297.852C155.557 297.513 155.283 297.239 154.944 297.239Z" fill="white"/>
<path d="M165.932 298.481C167.212 296.595 165.451 296.036 165.451 296.036H160.849L160.927 295.633C160.927 295.633 161.33 292.529 160.81 291.551C160.291 290.573 158.405 290.193 158.327 290.55C158.25 290.907 158.366 292.513 158.203 293.39C157.728 294.836 157.139 296.243 156.442 297.596C156.368 297.709 156.273 297.806 156.162 297.883V305.007C156.473 305.201 156.835 305.298 157.202 305.286H163.891C164.09 305.228 164.275 305.13 164.435 304.999C164.595 304.868 164.728 304.707 164.825 304.524C164.922 304.341 164.981 304.14 164.999 303.934C165.017 303.728 164.994 303.52 164.931 303.323C165.317 303.101 165.615 302.754 165.776 302.338C165.937 301.923 165.951 301.466 165.816 301.041C166.031 300.909 166.21 300.725 166.338 300.508C166.466 300.29 166.539 300.044 166.55 299.792C166.561 299.539 166.511 299.288 166.404 299.06C166.296 298.831 166.134 298.632 165.932 298.481Z" fill="white"/>
<path d="M297.836 233.421C297.836 233.421 297.402 253.248 298.062 259.564C298.721 265.881 302.5 298.054 303.975 309.228C305.449 320.403 306.093 341.82 306.093 341.82C306.093 341.82 304.401 342.247 304.401 343.721C304.398 344.644 304.328 345.564 304.192 346.476C303.249 347.643 302.185 348.707 301.018 349.65C299.745 350.496 292.769 352.188 293.825 353.879C294.88 355.571 311.595 354.725 311.595 354.725C311.595 354.725 306.093 357.263 302.919 357.899C299.745 358.535 300.809 361.282 304.82 361.492C308.832 361.701 313.706 362.128 318.152 362.128C322.599 362.128 324.5 360.436 328.093 360.227C331.686 360.017 332.958 360.01 333.595 359.591C334.231 359.172 334.65 353.033 334.65 353.033L333.804 346.895C333.804 346.895 337.979 324.81 336.342 309.88C334.781 294.678 335.138 279.341 337.405 264.228C337.405 264.228 341.494 249.942 340.842 243.633C340.191 237.324 339.112 230.619 339.112 230.619L298.915 231.946L297.836 233.421Z" fill="#263238" stroke="#263238" stroke-linecap="round" stroke-linejoin="round"/>
<path d="M311.781 172.738C311.781 172.738 304.417 178.309 302.314 182.096C300.211 185.883 300.095 206.858 299.87 212.725C299.645 218.591 297.495 226.328 297.542 229.649C297.588 232.971 297.425 237.083 308.972 237.068C320.519 237.052 336.784 234.655 338.732 233.095C340.679 231.535 341.455 231.326 342.325 227.942C343.194 224.559 349.215 202.001 349.821 194.846C350.426 187.691 350.193 184.44 344.016 175.229C337.839 166.017 330.033 164.667 330.033 164.667L315.723 170.41L311.781 172.738Z" fill="white" stroke="#263238" stroke-linecap="round" stroke-linejoin="round"/>
<path d="M311.781 172.738L312.115 179.83L303.121 225.304L306.761 234.383L314.614 224.66L314.14 179.372L317.462 174.872L315.723 170.41L311.781 172.738Z" fill="#263238" stroke="#263238" stroke-linecap="round" stroke-linejoin="round"/>
<path d="M314.722 167.313L311.525 169.121L308.258 176.625L311.781 172.738L313.411 173.413L317.539 169.176L314.722 167.313Z" fill="white" stroke="#263238" stroke-linecap="round" stroke-linejoin="round"/>
<path d="M304.65 135.14C304.65 135.14 304.603 144.91 304.906 146.617C305.209 148.325 304.999 151.902 306.551 154.533C308.103 157.163 309.469 162.355 310.617 163.069C311.583 163.581 312.636 163.91 313.721 164.039L314.614 171.55L328.248 160.865L327.604 152.973C328.93 151.684 329.694 149.925 329.73 148.076C329.784 144.972 329.474 143.172 327.976 142.644C326.998 142.263 326.096 141.709 325.315 141.007L326.486 135.629C326.486 135.629 329.396 131.594 320.899 130.096C312.402 128.599 305.286 132.455 304.65 135.14Z" fill="white" stroke="#263238" stroke-linecap="round" stroke-linejoin="round"/>
<path d="M301.554 132.618C301.554 132.618 301.158 134.745 308.538 136.879C315.917 139.013 319.883 138.733 319.883 138.733C319.883 138.733 318.843 139.447 319.704 140.115C320.241 140.521 320.853 140.819 321.505 140.991C321.505 140.991 321.83 146.99 322.482 147.199C323.134 147.409 324.368 146.703 324.368 146.703C324.368 146.703 324.197 144.375 325.509 143.521C326.262 143.041 327.113 142.733 328 142.621C328 142.621 330.273 133.309 327.41 130.166C324.546 127.023 320.829 126.154 312.084 127.582C303.338 129.01 300.754 131.586 301.554 132.618Z" fill="#263238" stroke="#263238" stroke-linecap="round" stroke-linejoin="round"/>
<path d="M312.34 153.858L309.445 154.152L309.158 146.136L306.986 143.738L305.395 143.211" stroke="#263238" stroke-linecap="round" stroke-linejoin="round"/>
<path d="M310.656 157.163C311.537 157.209 312.419 157.178 313.294 157.07C314.144 156.935 314.986 156.756 315.816 156.535C315.816 156.535 313.838 158.312 312.402 158.591C310.966 158.87 310.656 157.163 310.656 157.163Z" stroke="#263238" stroke-linecap="round" stroke-linejoin="round"/>
<path d="M313.69 164.07C313.69 164.07 313.807 164.334 315.491 163.674C316.901 162.988 318.221 162.128 319.417 161.113" stroke="#263238" stroke-linecap="round" stroke-linejoin="round"/>
<path d="M317.5 142.823C315.816 142.21 311.517 143.327 311.517 143.327" stroke="#263238" stroke-linecap="round" stroke-linejoin="round"/>
<path d="M315.832 146.54C315.871 147.168 315.622 147.696 315.273 147.719C314.924 147.743 314.606 147.254 314.559 146.625C314.513 145.997 314.761 145.477 315.118 145.446C315.475 145.415 315.832 145.888 315.832 146.54Z" fill="#263238"/>
<path d="M308.491 147.005C308.491 147.634 308.282 148.162 307.932 148.185C307.583 148.208 307.265 147.727 307.218 147.099C307.172 146.47 307.42 145.942 307.777 145.919C308.134 145.896 308.444 146.385 308.491 147.005Z" fill="#263238"/>
<path d="M314.28 170.037L317.912 176.742L331.996 163.418L329.241 160.135L314.28 170.037Z" fill="white" stroke="#263238" stroke-linecap="round" stroke-linejoin="round"/>
<path d="M276.047 190.873L302.05 195.156L306.047 228.873L282.619 225.156L276.047 190.873Z" fill="#984AD9" stroke="#263238" stroke-miterlimit="10"/>
<path d="M277.156 198.423C277.156 198.423 275.464 198.563 275.038 199.828C274.844 200.363 274.782 200.937 274.857 201.501C274.931 202.066 275.139 202.604 275.464 203.071C276.031 203.778 278.708 204.623 280.12 204.197C281.533 203.77 281.96 202.645 280.966 201.946C280.047 201.415 279.049 201.033 278.01 200.813L277.156 198.423Z" fill="white" stroke="#263238" stroke-linecap="round" stroke-linejoin="round"/>
<path d="M275.48 203.071C275.48 203.071 274.914 204.903 275.899 205.888C276.885 206.874 279.57 207.161 280.415 206.175C281.261 205.19 280.128 204.197 280.128 204.197C280.128 204.197 276.45 203.917 275.48 203.071Z" fill="white" stroke="#263238" stroke-linecap="round" stroke-linejoin="round"/>
<path d="M276.31 207.192C276.31 207.192 276.171 210.149 277.296 211.421C278.421 212.694 279.694 211.988 279.414 210.855C279.232 210.159 278.947 209.495 278.568 208.884L276.31 207.192Z" fill="white" stroke="#263238" stroke-linecap="round" stroke-linejoin="round"/>
<path d="M275.883 205.888C275.821 206.32 275.881 206.761 276.056 207.16C276.232 207.559 276.516 207.901 276.877 208.146C278.142 208.992 279.981 209.838 280.539 208.573C280.702 208.19 280.773 207.774 280.749 207.358C280.725 206.942 280.605 206.538 280.4 206.175C280.4 206.175 277.575 206.882 275.883 205.888Z" fill="white" stroke="#263238" stroke-linecap="round" stroke-linejoin="round"/>
<path d="M282.72 192.82L282.937 194.194L295.765 196.444V194.357C295.765 193.981 295.646 193.615 295.424 193.313C295.202 193.01 294.889 192.786 294.531 192.673L293.087 192.215L292.793 191.183C292.712 190.902 292.553 190.649 292.335 190.454C292.116 190.259 291.847 190.13 291.559 190.081L286.856 189.305C286.632 189.268 286.402 189.28 286.183 189.341C285.964 189.402 285.762 189.51 285.589 189.658C285.417 189.806 285.279 189.99 285.185 190.198C285.092 190.405 285.045 190.63 285.048 190.857H284.551C284.296 190.845 284.042 190.889 283.805 190.985C283.569 191.082 283.356 191.228 283.182 191.415C283.007 191.602 282.876 191.824 282.796 192.067C282.717 192.31 282.691 192.567 282.72 192.82Z" fill="#263238" stroke="#263238" stroke-linecap="round" stroke-linejoin="round"/>
<path d="M311.122 210.676C311.122 210.676 309.368 208.775 308.576 208.139C307.785 207.502 303.486 207.502 303.486 207.502V210.203C303.486 210.203 296.812 210.676 294.903 210.979C292.994 211.282 292.676 212.251 293.157 213.051C293.638 213.85 298.403 213.369 298.403 213.369L300.785 213.687C300.785 213.687 297.13 214.642 296.013 214.797C294.895 214.952 292.676 214.797 292.676 215.573C292.676 216.349 292.994 216.838 294.74 217.001C296.486 217.164 299.358 217.156 301.259 217.637C303.16 218.118 298.085 218.413 296.649 218.413C295.214 218.413 295.097 219.686 296.013 220.004C296.929 220.322 299.994 220.78 299.994 220.78C301.142 221.419 302.371 221.899 303.649 222.208C306.031 222.844 304.425 222.526 309.686 222.208C312.266 222.132 314.828 221.76 317.322 221.098L317.477 213.78L312.549 212.228L311.122 210.676Z" fill="white" stroke="#263238" stroke-linecap="round" stroke-linejoin="round"/>
<path d="M303.486 210.203L306.349 210.521" stroke="#263238" stroke-linecap="round" stroke-linejoin="round"/>
<path d="M299.994 220.857L304.758 221.013" stroke="#263238" stroke-linecap="round" stroke-linejoin="round"/>
<path d="M317.477 213.858L316.841 222.921L320.178 223.084L320.496 214.021L317.477 213.858Z" fill="white" stroke="#263238" stroke-linecap="round" stroke-linejoin="round"/>
<path d="M336.784 168.392C339.166 169.168 352.622 176.928 352.622 183.726C352.622 190.523 350.721 216.318 350.085 222.324C349.448 228.33 347.539 227.096 340.703 227.096C333.866 227.096 323.538 226.778 321.629 225.979C321.094 225.743 320.658 225.328 320.396 224.805C320.134 224.283 320.062 223.685 320.193 223.115L320.488 214.021C320.488 214.021 320.969 211.794 322.56 211.475C324.151 211.157 334.456 212.624 334.456 212.624C334.456 212.624 336.365 195.296 336.683 191.959C337.001 188.622 335.799 182.647 338.344 181.227" fill="white"/>
<path d="M336.784 168.392C339.166 169.168 352.622 176.928 352.622 183.726C352.622 190.523 350.721 216.318 350.085 222.324C349.448 228.33 347.539 227.096 340.703 227.096C333.866 227.096 323.538 226.778 321.629 225.979C321.094 225.743 320.658 225.328 320.396 224.805C320.134 224.283 320.062 223.685 320.193 223.115L320.488 214.021C320.488 214.021 320.969 211.794 322.56 211.475C324.151 211.157 334.456 212.624 334.456 212.624C334.456 212.624 336.365 195.296 336.683 191.959C337.001 188.622 335.799 182.647 338.344 181.227" stroke="#263238" stroke-linecap="round" stroke-linejoin="round"/>
<path d="M341.96 217.676C339.578 216.721 334.456 212.624 334.456 212.624C334.456 212.624 340.501 214.215 341.292 214.06" stroke="#263238" stroke-linecap="round" stroke-linejoin="round"/>
<path d="M61.8007 167.616C62.6809 168.865 63.3131 170.272 63.6631 171.76C64.0743 173.933 63.244 175.283 61.5911 175.174C61.0883 175.114 60.6111 174.919 60.2096 174.611C59.8081 174.302 59.4972 173.891 59.3097 173.42C59.3097 173.42 59.6279 176.936 60.8617 178.596C62.0955 180.257 63.0345 180.04 70.2823 180.87C77.5302 181.7 88.4019 180.87 91.4051 180.459C94.4082 180.048 96.3715 179.528 97.4035 177.976C98.3211 176.472 99.1528 174.917 99.8945 173.32C99.8945 173.32 96.7905 175.601 95.1298 175.081C93.4692 174.561 93.4692 171.248 93.9891 169.905C94.3794 168.946 94.8303 168.013 95.3394 167.112C95.9819 165.203 96.363 163.217 96.4723 161.206C96.4723 158.622 95.5411 155.929 93.8883 149.923C92.2354 143.917 87.1603 138.64 83.3269 134.807C79.4935 130.973 75.3574 133.565 70.6936 135.947C66.0299 138.33 60.7531 151.266 59.8296 156.55C58.9062 161.835 61.8007 167.616 61.8007 167.616Z" fill="#263238" stroke="#263238" stroke-miterlimit="10"/>
<path d="M70.2513 177.471L78.989 171.108L88.1614 177.471L79.4314 198.641L70.2513 177.471Z" fill="white" stroke="#263238" stroke-miterlimit="10"/>
<path d="M76.0868 178.984L78.8804 183.539L76.3972 193.891L79.8116 200.006L83.4355 192.96L80.541 183.539L82.6052 179.295L79.2994 174.22L76.0868 178.984Z" fill="#263238" stroke="#263238" stroke-miterlimit="10"/>
<path d="M73.495 162.184C73.495 162.184 73.6036 170.774 73.8054 171.496C74.0072 172.218 78.1588 176.47 78.9813 176.781C79.8039 177.091 83.5442 171.496 83.8546 171.085C84.165 170.673 83.9555 162.386 83.9555 162.386L73.495 162.184Z" fill="white" stroke="#263238" stroke-miterlimit="10"/>
<path d="M80.5411 134.465C80.5411 134.465 77.018 138.609 72.8742 142.644C68.7303 146.68 63.8726 151.855 62.0102 157.039C60.1478 162.223 61.8084 167.593 61.8084 167.593C59.3797 164.487 58.0335 160.671 57.975 156.729C58.0759 150.521 59.2166 139.121 64.602 132.603C69.9875 126.084 78.4769 125.766 82.45 126.698C86.4231 127.629 91.149 132.393 93.314 138.19C95.4791 143.987 97.5587 155.068 97.3492 159.724C97.3081 162.3 96.6338 164.827 95.3859 167.081C95.7474 162.154 94.78 157.22 92.5846 152.794C88.9607 145.857 85.3367 142.854 82.644 140.262C81.8593 139.531 81.2595 138.625 80.8939 137.617C80.5282 136.609 80.4073 135.529 80.5411 134.465Z" fill="#263238" stroke="#263238" stroke-miterlimit="10"/>
<path d="M78.9813 176.812L74.2244 183.54L70.0961 173.84L73.8053 170.704L78.9813 176.812Z" fill="white" stroke="#263238" stroke-miterlimit="10"/>
<path d="M78.9813 176.812L83.8545 184.059L87.6802 174.018L83.8545 171.116L78.9813 176.812Z" fill="white" stroke="#263238" stroke-miterlimit="10"/>
<path d="M54.3899 178.581C54.3899 178.581 34.9899 204.67 33.9578 206.253C32.9257 207.836 32.0566 207.805 32.5843 209.093C33.1119 210.381 36.6971 214.261 39.3355 214.37C41.9739 214.479 42.7033 213.633 43.8673 211.941C45.0313 210.249 59.4494 192.448 59.4494 192.448C59.4494 192.448 55.5539 179.109 54.3899 178.581Z" fill="#984AD9" stroke="#263238" stroke-miterlimit="10"/>
<path d="M77.4448 346.639L76.7309 361.344H75.2953L74.9305 352.296L77.4448 346.639Z" fill="#263238" stroke="#263238" stroke-miterlimit="10"/>
<path d="M63.2673 276.178C63.2673 276.178 64.8814 287.042 64.5244 293.794C64.1674 300.545 63.632 304.968 64.3459 311.083C65.0598 317.198 68.8312 338.716 68.8312 343.566C68.8312 348.416 67.2171 352.94 66.1385 354.554C65.0598 356.168 58.9605 360.211 58.6035 361.989C58.2466 363.766 62.9103 363.284 67.2171 362.64C71.5239 361.996 74.0382 361.826 74.5736 361.181C75.109 360.537 74.3951 356.657 75.6522 352.133C76.9094 347.609 78.1587 347.772 77.6233 345.025C77.0878 342.278 74.9306 339.205 74.9306 334.681C74.9306 330.157 77.8018 303.168 77.0878 296.215C76.3739 289.262 76.048 276.341 76.048 276.341L63.2673 276.178Z" fill="white" stroke="#263238" stroke-miterlimit="10"/>
<path d="M72.781 356.494C71.2197 355.919 69.5933 355.538 67.9388 355.361C67.1326 355.238 66.3141 355.214 65.5022 355.292C63.5932 357.17 58.9217 360.444 58.6035 361.989C58.2466 363.766 62.9103 363.284 67.2171 362.64C71.5239 361.996 74.0382 361.826 74.5736 361.181C75.109 360.537 74.3951 356.657 75.6522 352.133C76.9094 347.609 78.1587 347.772 77.6233 345.025C76.3662 347.927 75.4738 348.253 74.2166 350.674C73.3936 352.513 72.9073 354.484 72.781 356.494Z" fill="#263238" stroke="#263238" stroke-miterlimit="10"/>
<path d="M101.369 347.834L102.874 362.485L104.294 362.423L104.155 353.367L101.369 347.834Z" fill="#263238" stroke="#263238" stroke-miterlimit="10"/>
<path d="M97.5277 276.015C98.3943 282.249 100.039 288.35 102.424 294.174C105.008 300.553 105.326 304.37 106.568 310.47C107.786 316.414 106.77 337.102 107.096 343.116C107.36 347.958 111.798 353.701 112.955 355.268C114.111 356.836 120.342 360.592 120.792 362.353C121.242 364.115 116.61 363.835 112.326 363.385C108.042 362.935 105.559 362.881 104.993 362.26C104.426 361.639 104.923 357.728 103.441 353.266C101.959 348.804 100.725 349.022 101.113 346.282C101.501 343.543 100.903 339.741 100.019 335.542C99.0797 331.096 92.7941 306.621 91.3041 299.777C89.8142 292.932 84.584 276.504 84.584 276.504L97.5277 276.015Z" fill="white" stroke="#263238" stroke-miterlimit="10"/>
<path d="M106.506 357.464C108.016 356.821 109.601 356.37 111.224 356.122C112.013 355.961 112.818 355.898 113.622 355.936C115.608 357.736 120.396 360.786 120.792 362.322C121.242 364.084 116.61 363.804 112.326 363.354C108.042 362.904 105.559 362.85 104.993 362.229C104.426 361.608 104.923 357.697 103.441 353.235C101.959 348.773 100.725 348.991 101.113 346.251C102.51 349.099 103.441 349.355 104.783 351.745C105.686 353.537 106.269 355.472 106.506 357.464Z" fill="#263238" stroke="#263238" stroke-miterlimit="10"/>
<path d="M56.648 233.514C55.5132 237.467 54.8082 241.531 54.545 245.635C54.2191 251.936 55.1891 287.337 55.1891 287.337C55.1891 287.337 61.304 289.277 72.944 289.595C84.584 289.914 105.908 287.492 105.908 287.492C105.908 287.492 104.938 251.618 102.517 242.57C100.096 233.522 98.6374 230.93 98.6374 230.93C98.6374 230.93 75.0702 215.255 56.648 233.514Z" fill="#263238" stroke="#263238" stroke-miterlimit="10"/>
<path d="M102.292 179.07C102.292 179.07 120.901 205.64 121.964 207.192C123.027 208.744 123.865 208.744 123.345 210.032C122.825 211.32 119.256 215.208 116.617 215.324C113.979 215.441 113.242 214.603 112.078 212.919C110.914 211.235 96.387 193.387 96.387 193.387C96.387 193.387 101.136 179.597 102.292 179.07Z" fill="#984AD9" stroke="#263238" stroke-miterlimit="10"/>
<path d="M70.0961 173.824L79.4081 195.552L87.688 174.018L102.222 179.054L90.5825 212.733L103.542 239.931C103.542 239.931 97.776 242.888 87.688 244.184C77.6 245.48 68.7459 244.572 64.408 243.198C60.0702 241.825 53.9708 238.542 54.32 238.542C54.6692 238.542 65.2771 211.444 65.2771 211.444L54.4131 178.558L70.0961 173.824Z" fill="#984AD9" stroke="#263238" stroke-miterlimit="10"/>
<path d="M79.5167 201.194L89.9151 188.599L87.0129 184.401L93.1122 181.902L91.0636 175.516L87.6802 174.018L79.377 195.552L70.0961 173.84L66.9377 174.794L65.3314 183.198L72.2223 184.603L69.3278 189.197L79.5167 201.194Z" fill="#984AD9" stroke="#263238" stroke-miterlimit="10"/>
<path d="M57.1291 229.642C58.5024 229.362 59.8536 228.984 61.1721 228.509C63.4303 227.733 64.5632 228.183 66.0221 229.285C67.481 230.387 71.1903 232.792 70.6781 233.599C70.1659 234.406 69.9021 234.779 69.064 234.29C68.2259 233.801 64.2218 230.573 63.407 230.573C62.4082 230.781 61.4405 231.117 60.528 231.574C61.8877 231.669 63.211 232.055 64.408 232.707C65.8669 233.677 69.064 236.106 68.9321 236.913C68.8002 237.72 68.1561 237.836 67.3258 237.689C66.4955 237.541 63.2828 234.662 62.7939 234.662H59.2321C60.6047 235.305 61.9231 236.057 63.1742 236.913C63.8183 237.565 64.7262 238.216 64.7262 238.698C64.7262 239.179 64.4313 240.42 63.4691 240.102C62.5068 239.784 59.752 237.394 59.752 237.394C59.752 237.394 62.3361 240.133 62.1809 240.599C61.9559 241.282 61.5291 241.274 61.0479 240.948C60.5668 240.622 57.0671 238.558 55.9341 237.588C55.1115 236.882 55.2279 236.75 54.2579 236.587C53.2879 236.424 52.3179 234.321 52.3179 234.321L57.1291 229.642Z" fill="white" stroke="#263238" stroke-miterlimit="10"/>
<path d="M59.752 237.394C59.752 237.394 58.1301 235.803 57.1679 235.803" stroke="#263238" stroke-miterlimit="10"/>
<path d="M100.88 229.642C99.5068 229.362 98.1556 228.984 96.8371 228.509C94.5789 227.733 93.446 228.183 91.9948 229.285C90.5437 230.387 86.8267 232.792 87.3388 233.599C87.851 234.406 88.1148 234.779 88.9529 234.29C89.791 233.801 93.8029 230.573 94.61 230.573C95.6177 230.769 96.5958 231.095 97.52 231.543C96.1604 231.638 94.8372 232.025 93.64 232.676C92.1888 233.646 88.984 236.075 89.1159 236.882C89.2478 237.689 89.8919 237.805 90.7222 237.658C91.5525 237.51 94.7729 234.631 95.254 234.631C95.9722 234.522 96.6806 234.356 97.3725 234.135L94.7652 236.75C94.1211 237.394 93.2132 238.457 93.2132 238.946C93.2132 239.435 93.6089 240.389 94.5789 240.071C95.5489 239.753 98.296 236.339 98.296 236.339C98.296 236.339 95.7041 240.118 95.8593 240.583C96.0844 241.266 96.5112 241.258 96.9923 240.932C97.4734 240.607 100.228 238.348 101.361 237.378C102.184 236.672 102.812 236.734 103.782 236.602C104.752 236.47 105.722 234.336 105.722 234.336L100.88 229.642Z" fill="white" stroke="#263238" stroke-miterlimit="10"/>
<path d="M98.3347 236.354C98.8089 235.496 99.5955 234.854 100.531 234.562" stroke="#263238" stroke-miterlimit="10"/>
<path d="M104 226.08L100.104 229.642L105.435 236.098L109.594 232.171L104 226.08Z" fill="white" stroke="#263238" stroke-miterlimit="10"/>
<path d="M114.157 207.968L102.432 226.957L108.562 234.856C108.562 234.856 114.088 227.546 116.819 223.659C119.551 219.771 123.857 210.645 123.694 209.512C123.531 208.379 119.628 204.515 119.628 204.515" fill="#984AD9"/>
<path d="M114.157 207.968L102.432 226.957L108.562 234.856C108.562 234.856 114.088 227.546 116.819 223.659C119.551 219.771 123.857 210.645 123.694 209.512C123.531 208.379 119.628 204.515 119.628 204.515" stroke="#263238" stroke-miterlimit="10"/>
<path d="M53.2336 226.08L57.1292 229.642L51.798 236.098L47.6387 232.171L53.2336 226.08Z" fill="white" stroke="#263238" stroke-miterlimit="10"/>
<path d="M41.7643 206.959L54.0639 226.732L48.2439 234.073C48.2439 234.073 39.576 223.806 36.8445 219.926C34.113 216.046 32.0643 209.706 32.2273 208.573C32.3902 207.44 36.2625 203.56 36.2625 203.56" fill="#984AD9"/>
<path d="M41.7643 206.959L54.0639 226.732L48.2439 234.073C48.2439 234.073 39.576 223.806 36.8445 219.926C34.113 216.046 32.0643 209.706 32.2273 208.573C32.3902 207.44 36.2625 203.56 36.2625 203.56" stroke="#263238" stroke-miterlimit="10"/>
<path d="M80.2306 138.128C80.2306 138.128 75.4582 144.747 73.301 147.06L71.1437 149.388L66.4877 150.311C66.7997 151.425 67.2127 152.508 67.7215 153.547C68.3345 154.626 70.0495 154.928 70.0495 154.928C70.0495 154.928 70.5151 158.808 71.8964 160.787C73.2777 162.766 77.0335 165.924 82.675 166.941C84.3745 167.244 87.8898 164.923 89.5814 157.218C91.2731 149.512 89.5814 147.23 88.6813 144.615C87.7811 142 82.256 138.128 80.2306 138.128Z" fill="white" stroke="#263238" stroke-miterlimit="10"/>
<path d="M89.1081 148.006C89.1081 148.006 87.106 146.144 86.105 149.008C85.7403 150.032 87.8199 155.022 87.106 155.448C86.3921 155.875 86.105 155.309 85.0962 156.023" stroke="#263238" stroke-miterlimit="10"/>
<path d="M86.2446 159.033C86.2446 159.033 82.3646 160.182 80.8126 157.481" stroke="#263238" stroke-miterlimit="10"/>
<path d="M82.5199 146.858C82.5199 146.858 79.3693 145.71 77.5069 147.432" stroke="#263238" stroke-miterlimit="10"/>
<path d="M81.9456 150.637C81.9456 151.413 81.5576 152.011 81.0687 152.011C80.5798 152.011 80.1918 151.398 80.1918 150.637C80.1918 149.877 80.5876 149.256 81.0687 149.256C81.5498 149.256 81.9456 149.877 81.9456 150.637Z" fill="#263238"/>
<path d="M88.821 150.87C88.821 151.646 88.433 152.243 87.9441 152.243C87.4552 152.243 87.075 151.63 87.075 150.87C87.075 150.109 87.463 149.489 87.9441 149.489C88.4252 149.489 88.821 150.109 88.821 150.87Z" fill="#263238"/>
</svg>
